<svg class="logo-ifremer" xmlns="http://www.w3.org/2000/svg" viewBox="34.09 31.5 281.67 96.11">
  <path fill="#0032c6" class="logo-svg-path" d="M60.7 38.56c0-.37-.25-.62-.62-.62s-.62.25-.62.62c0 .25.37.49.62.49.37 0 .62-.25.62-.49Zm44.14.12c0-.49-.5-.87-.87-.87-.5 0-.87.37-.87.87s.37.87.87.87.87-.49.87-.87ZM72.81 32c0-.25-.25-.5-.49-.5s-.49.25-.49.62c0 .25.25.5.49.5s.49-.25.49-.62Zm3.34 1.11c0-.5-.5-.99-.99-.87-.49 0-.99.37-.99.87 0 .62.49.99.99.99s.99-.37.99-.99Zm-10.14.12c0-.37-.37-.74-.74-.74-.49 0-.87.37-.87.87 0 .37.37.74.87.74.37 0 .74-.37.74-.87Zm-4.33 1.98c0-.37-.37-.62-.74-.62s-.74.25-.74.62c0 .49.37.74.74.74s.74-.37.74-.74Zm.74 4.33c0 .49.37.87.87.87s.87-.37.87-.87-.37-.87-.87-.87-.87.37-.87.87Zm2.6 1.11c0 .62.49 1.11 1.11 1.11s1.11-.5 1.11-1.11-.49-1.11-1.11-1.11-1.11.49-1.11 1.11Zm2.84 3.71c0 .25.25.5.62.5.25 0 .5-.25.5-.5 0-.37-.25-.62-.5-.62-.37 0-.62.25-.62.62Zm2.35 3.22c-.49 0-.87.49-.87.99s.37.87.87.87.99-.49.99-.99-.49-.87-.99-.87Zm-.87 4.7c.49 0 .87-.37.87-.87 0-.62-.37-.99-.87-.99-.62 0-.99.37-.99.99 0 .49.37.87.99.87Zm-4.2 1.85c.37 0 .62-.25.62-.49 0-.37-.37-.62-.62-.62-.37 0-.62.25-.62.62 0 .25.37.49.62.49Zm-.87 3.21c.62 0 1.11-.49 1.11-.99 0-.62-.49-.99-1.11-.99s-.99.49-.99.99.49.99.99.99Zm-4.2 1.36c0 .37.25.62.49.62s.49-.25.49-.62c0-.25-.25-.49-.49-.49s-.49.25-.49.49Zm48.84 25.47c0 .49.37.99.87.99.62 0 .99-.49.99-.99s-.49-.87-.99-.87-.87.37-.87.87Zm2.97 1.24c0 .49.37.87.87.87s.99-.37.99-.87-.49-.99-.99-.99c-.5.12-.87.49-.87.99Zm4.08-2.1c0 .49.49.87.99.87s.87-.37.87-.87-.37-.99-.87-.87c-.49 0-.99.37-.99.87Zm13.72-12.61c0 .49.37.99.87.99.5-.12.99-.49.87-.99 0-.5-.37-.87-.87-.87s-.87.37-.87.87Zm4.2-2.1c0 .5.49.99.99.99s.99-.49.99-.99c0-.62-.5-.99-.99-.99s-.99.49-.99.99Zm-9.03 7.17c.12.5.49.87.99.87s.87-.37.87-.87-.37-.99-.87-.99-.99.49-.99.99Zm-4.95 5.19c0 .5.37.87.87.87s.87-.37.87-.87-.37-.86-.87-.86-.87.37-.87.86Zm-14.1-7.91c0 .37.37.74.74.74s.74-.37.74-.74-.37-.74-.74-.74-.74.37-.74.74Zm-11.62 3.34c0 .62.5 1.24 1.24 1.11.62 0 1.11-.49 1.11-1.11s-.49-1.11-1.24-1.11c-.62 0-1.11.49-1.11 1.11Zm-4.2 2.35c0 .5.37.86.87.86.62 0 .99-.37.99-.86 0-.62-.49-.99-.99-.99s-.87.49-.87.99ZM60.43 61.8c0-.49-.37-.87-.86-.87s-.87.37-.87.87.37.87.87.87.86-.37.86-.87Zm-.86 3.09c0-.62-.49-1.11-1.11-1.11s-1.11.5-1.11 1.11.49 1.11 1.11 1.11 1.11-.49 1.11-1.11Zm-.74 3.22c0-.62-.62-1.24-1.24-1.24s-1.24.62-1.24 1.24c0 .74.62 1.24 1.24 1.24.74 0 1.24-.62 1.24-1.24Zm-3.34 2.97c0 .62.49 1.11 1.24 1.11.62 0 1.24-.5 1.24-1.24-.12-.62-.62-1.11-1.24-1.11-.74 0-1.24.49-1.24 1.24Zm.25 4.08c.62 0 1.11-.37 1.11-.99s-.49-1.11-1.11-.99c-.62 0-.99.37-.99.99s.49.99.99.99Zm-.86 3.09c.62 0 .99-.49.99-.99 0-.62-.49-1.11-.99-1.11-.62 0-1.11.49-1.11 1.11 0 .5.49.99 1.11.99Zm-1.11 2.97c.49 0 .87-.37.87-.87s-.37-.86-.87-.86-.87.37-.87.86.37.87.87.87Zm-.99 1.24c-.37 0-.74.37-.74.87 0 .37.37.74.74.74.5 0 .87-.37.87-.74 0-.5-.37-.87-.87-.87Zm-.74 3.09c-.5 0-.74.37-.74.74 0 .49.25.74.74.74.37 0 .74-.25.74-.74 0-.37-.37-.74-.74-.74Zm-.12 3.71c0-.37-.37-.74-.87-.74-.37 0-.74.37-.74.87 0 .37.37.74.87.74.37 0 .74-.37.74-.87Zm-2.47 3.21c0 .37.25.62.62.62s.62-.25.62-.62-.25-.62-.62-.62-.62.25-.62.62Zm-.87 2.97c0 .37.25.62.62.62.25 0 .5-.25.5-.62 0-.25-.25-.62-.62-.62-.25.12-.5.37-.5.62Zm-.99 3.09c0 .37.37.74.74.74s.62-.37.62-.74-.25-.62-.62-.62-.74.25-.74.62Zm-.87 2.97c0 .37.25.62.62.62.25 0 .62-.25.62-.62s-.37-.62-.62-.62c-.37 0-.62.25-.62.62Zm-.62 3.09c0 .12.12.25.25.25s.25-.12.25-.25c0-.25-.12-.37-.25-.37s-.25.12-.25.37Zm10.02-40.43c0-.25-.12-.49-.37-.49s-.49.25-.49.49.25.37.49.37.37-.12.37-.37Zm-.87 2.72c0-.37-.25-.62-.62-.62s-.74.25-.74.74c0 .37.37.62.74.62s.62-.25.62-.74Zm-.49 3.09c-.12-.49-.49-.87-.99-.87-.62 0-.99.37-.99.99 0 .49.5.87.99.87s.99-.37.99-.99Zm-1.11 3.22c0-.49-.49-.99-.99-.99s-.99.5-.87.99c0 .49.37.99.87.99.62 0 .99-.49.99-.99Zm-.99 3.09c0-.5-.37-.87-.87-.87s-.87.37-.87.87.49.87.87.87c.49 0 .87-.37.87-.87Zm-.87 2.84c0-.49-.37-.86-.87-.86s-.87.37-.87.86.37.87.87.87.87-.37.87-.87Zm-1.85 2.23c-.37 0-.87.37-.87.87s.49.87.99.87c.37 0 .87-.49.87-.87-.12-.49-.5-.87-.99-.87Zm-.99 3.22c-.37 0-.74.37-.74.87 0 .37.37.74.87.74.37 0 .74-.37.74-.74 0-.5-.37-.87-.87-.87Zm-.87 4.45c.37 0 .62-.25.62-.62s-.25-.62-.62-.62-.62.25-.62.62.25.62.62.62Zm-.12 2.35c0-.25-.37-.62-.62-.5-.37 0-.62.25-.62.5 0 .37.25.62.62.62.25 0 .62-.25.62-.62Zm-2.35 3.09c0 .25.25.37.5.37s.49-.12.49-.37c0-.37-.25-.49-.49-.49s-.5.12-.5.49Zm-.74 2.97c0 .25.12.37.37.37.12 0 .25-.12.25-.37 0-.12-.12-.37-.25-.37-.25 0-.37.25-.37.37Zm-.99 3.34c0 .12.12.37.37.37s.37-.25.37-.37c0-.25-.12-.5-.37-.5s-.37.25-.37.5Zm-.87 2.97c0 .25.12.37.37.37s.37-.12.37-.37-.25-.37-.37-.37c-.25 0-.37.25-.37.37Zm7.79-34.38c0-.12-.12-.25-.37-.25s-.37.12-.37.25c0 .25.25.37.37.37.25 0 .37-.12.37-.37Zm-.87 2.72c0-.25-.25-.37-.37-.37-.25 0-.49.13-.49.37s.25.49.49.49c.12 0 .37-.25.37-.49Zm-.74 3.21c0-.25-.25-.49-.62-.49-.25 0-.49.25-.49.49 0 .37.25.49.62.49.25 0 .49-.25.49-.49Zm-.99 3.09c0-.25-.25-.5-.49-.5-.37 0-.62.25-.62.5.12.37.25.62.62.49.25 0 .49-.12.49-.49Zm-1.24 2.47c-.37 0-.62.25-.62.49 0 .37.25.62.62.62.25 0 .49-.25.49-.62 0-.25-.25-.49-.49-.49Zm-1.61 3.59c0 .25.25.49.62.49s.62-.25.62-.49c0-.37-.37-.62-.62-.62-.37 0-.62.25-.62.62Zm.25 2.97c0-.37-.25-.62-.62-.62s-.62.37-.62.62c0 .37.37.62.62.62.37 0 .62-.25.62-.62Zm-2.1 3.09c0 .37.25.62.62.62s.62-.25.62-.62-.37-.62-.62-.62c-.37 0-.74.25-.62.62Zm-.87 3.09c.12.25.25.49.49.49s.49-.25.49-.49-.25-.37-.49-.37-.49.12-.49.37Zm-.87 3.09c0 .25.12.37.37.37s.37-.12.37-.37-.12-.37-.37-.37-.37.12-.37.37Zm-.87 2.97c0 .12.12.25.25.25s.25-.12.25-.25-.12-.25-.25-.25-.25.12-.25.25Zm-.99 3.21c0 .12.25.37.37.37.25 0 .37-.25.37-.37 0-.25-.12-.37-.37-.37s-.37.13-.37.37Zm3.34-19.16c0-.25-.25-.37-.37-.37s-.25.12-.25.37c0 .12.12.25.25.25s.37-.12.37-.25Zm.74-2.97c0-.12-.12-.25-.25-.25-.25 0-.37.12-.37.25 0 .25.12.37.37.37.12 0 .25-.12.25-.37Zm-1.73 5.93c0-.12-.12-.25-.25-.25s-.25.12-.25.25.12.25.25.25.25-.12.25-.25Zm-1.48 3.09c0 .12.12.25.25.25.25 0 .37-.12.37-.37 0-.12-.12-.25-.37-.25-.12 0-.25.12-.25.37Zm-.74 2.72c-.12 0-.25.12-.25.25s.12.25.25.25c.25 0 .37-.12.37-.25s-.12-.25-.37-.25Zm-1.24 3.21c0 .12.12.25.37.25.12 0 .25-.12.25-.25 0-.25-.12-.37-.25-.37-.25 0-.37.12-.37.37Zm0-9.64c.12.12.25.25.37.25s.25-.12.25-.25-.12-.37-.25-.37c-.12.12-.37.25-.37.37Zm-.37 2.97c0-.12-.12-.25-.25-.25s-.25.12-.25.25c0 .25.12.37.25.37s.25-.12.25-.37Zm-1.48 3.09c0 .12.12.25.25.25.25 0 .37-.12.37-.25 0-.25-.25-.37-.37-.37s-.25.12-.25.37Zm-.99 2.84c0 .25.12.37.25.37.25 0 .37-.12.37-.37 0-.12-.12-.25-.37-.25-.12 0-.25.12-.25.25Zm2.1 3.83c0 .12.12.25.25.25.25 0 .37-.12.37-.25 0-.25-.12-.37-.37-.37-.12 0-.25.12-.25.37Zm-2.97-.87c0 .25.12.37.37.37.12 0 .25-.12.25-.37 0-.12-.12-.25-.25-.25-.25 0-.37.12-.37.25Zm-.99 3.09c0 .25.12.37.37.37.12 0 .25-.12.25-.37 0-.12-.12-.25-.37-.25-.12 0-.25.12-.25.25Zm2.84.99c0 .12.25.25.37.25s.25-.12.25-.25c0-.25-.12-.37-.25-.37-.25 0-.37.12-.37.37ZM60.18 66c.12.74.62 1.36 1.36 1.36s1.36-.62 1.36-1.36-.62-1.36-1.36-1.36-1.36.62-1.36 1.36Zm.87-3.34c0 .74.62 1.36 1.36 1.36s1.36-.62 1.36-1.36-.62-1.36-1.36-1.24c-.74 0-1.36.5-1.36 1.24Zm-1.73 6.31c0 .74.62 1.24 1.36 1.24s1.36-.62 1.36-1.36-.62-1.24-1.36-1.24-1.36.62-1.36 1.36Zm.49 4.33c.74 0 1.24-.5 1.24-1.24s-.62-1.24-1.24-1.24c-.74 0-1.36.5-1.36 1.24.12.74.62 1.24 1.36 1.24Zm-.99 2.84c.62 0 1.11-.5 1.11-1.11s-.5-1.11-1.11-.99c-.62 0-1.11.5-1.11 1.11 0 .49.49.99 1.11.99Zm-1.98 1.98c0 .49.5.99.99.99.62 0 .99-.49.99-.99 0-.62-.49-.99-.99-.99s-.99.37-.99.99Zm0 1.98c-.49 0-.99.37-.99.99 0 .49.49.86.99.86.62 0 .99-.37.99-.99 0-.49-.37-.99-.99-.86Zm-.74 3.34c-.49 0-.87.37-.87.87 0 .37.37.74.87.74.37 0 .74-.37.74-.74 0-.49-.37-.87-.74-.87Zm-1.11 2.97c-.5 0-.87.5-.87.99 0 .37.37.87.87.87.49-.12.86-.5.86-.99 0-.37-.37-.87-.86-.87Zm-.12 3.83c0-.37-.37-.74-.87-.74-.37 0-.74.37-.74.87 0 .37.37.74.74.74.49 0 .87-.37.87-.87Zm-2.47 3.09c0 .37.25.74.74.74.37-.12.62-.37.62-.74s-.25-.74-.74-.74c-.37 0-.62.37-.62.74Zm-1.11 3.09c0 .37.37.74.87.74s.87-.37.87-.74c0-.5-.37-.86-.87-.86s-.87.37-.87.86Zm-.74 2.97c0 .37.25.74.74.62.37 0 .62-.25.62-.62 0-.49-.25-.74-.62-.74-.49 0-.74.37-.74.74Zm-.49 3.22c0 .12.12.37.37.25.12 0 .25-.12.25-.25 0-.25-.12-.37-.25-.37-.25 0-.37.12-.37.37Zm-.87 2.84c0 .12.12.25.25.25s.25-.12.25-.25-.12-.25-.25-.25-.25.12-.25.25Zm12.98-35.61c0 .87.74 1.48 1.48 1.48s1.48-.62 1.48-1.48c0-.74-.74-1.36-1.48-1.36-.87 0-1.48.62-1.48 1.36Zm.99-2.84c0 .74.62 1.36 1.36 1.36.87 0 1.48-.62 1.48-1.48 0-.74-.62-1.36-1.48-1.36-.74 0-1.48.62-1.36 1.48Zm3.59-12.49c.12.87.74 1.48 1.48 1.48.87 0 1.48-.62 1.48-1.48 0-.74-.62-1.36-1.48-1.36-.74 0-1.48.62-1.48 1.36Zm-4.58 5.07c0 .62.62 1.24 1.24 1.11.62 0 1.24-.49 1.24-1.11-.12-.62-.62-1.24-1.24-1.24s-1.24.62-1.24 1.24Zm-.25 17.68c.62 0 1.24-.62 1.24-1.24 0-.74-.62-1.24-1.24-1.24-.74 0-1.24.62-1.24 1.24s.49 1.24 1.24 1.24Zm-.99.74c-.62 0-1.11.49-1.11 1.11s.62 1.11 1.11 1.11c.62-.12 1.11-.62 1.11-1.11 0-.62-.5-1.11-1.11-1.11Zm-1.11 3.09c-.49 0-.99.49-.99.99 0 .62.49 1.11.99 1.11.62 0 1.11-.49 1.11-1.11 0-.49-.49-.99-1.11-.99Zm-.87 3.21c-.62 0-.99.49-.99.99s.5.99.99.99.99-.49.99-.99c0-.62-.5-.99-.99-.99Zm0 3.83c0-.49-.37-.87-.87-.87s-.87.37-.87.87.37.87.87.87.87-.37.87-.87Zm-2.6 3.22c0 .37.37.74.74.74.49 0 .74-.37.74-.74 0-.5-.37-.74-.74-.74s-.74.25-.74.74Zm-1.11 2.97c0 .5.49.99.99.99s.99-.5.99-.99-.49-.99-.99-.99-.99.49-.99.99Zm-.99 3.09c0 .49.49.86.99.86s.87-.37.87-.86-.37-.99-.87-.99-.99.49-.99.99Zm-.49 3.09c0 .25.25.37.37.37.25 0 .37-.12.37-.37s-.12-.37-.37-.37c-.12 0-.37.12-.37.37Zm-.74 2.84c0 .12.12.25.25.25s.25-.12.25-.25-.12-.25-.25-.25-.25.12-.25.25Zm12.74-28.07c.74 0 1.36-.62 1.36-1.36s-.62-1.36-1.36-1.36c-.74.12-1.36.62-1.36 1.36s.62 1.36 1.36 1.36Zm-2.97-.99c.74 0 1.36-.62 1.36-1.36s-.62-1.24-1.36-1.24-1.36.62-1.36 1.36.62 1.24 1.36 1.24Zm2.1 1.48c-.62 0-1.24.5-1.24 1.24 0 .62.62 1.24 1.24 1.11.74 0 1.24-.5 1.24-1.11 0-.74-.62-1.24-1.24-1.24Zm-.87 3.09c-.62 0-1.11.49-1.11 1.11s.49 1.11 1.11 1.11 1.11-.49 1.11-1.11-.49-1.11-1.11-1.11Zm-.99 3.21c-.62 0-1.11.5-1.11 1.11s.49 1.11 1.11.99c.62 0 1.11-.49 1.11-1.11 0-.49-.49-.99-1.11-.99Zm0 3.96c0-.5-.49-.99-.99-.99s-.99.49-.99.99c0 .62.49.99.99.99.62 0 .99-.37.99-.99Zm-2.72 3.21c0 .49.37.87.87.87.62 0 .99-.37.99-.87 0-.62-.49-.99-.99-.99s-.87.49-.87.99Zm-1.24 2.97c0 .62.49 1.11 1.11 1.11.74 0 1.24-.5 1.24-1.11 0-.74-.62-1.24-1.24-1.24s-1.11.62-1.11 1.24Zm-.87 2.97c0 .49.37.86.87.86.62 0 .99-.37.99-.86s-.49-.99-.99-.99-.87.49-.87.99Zm-.25 3.09c0 .25.12.37.37.37s.37-.25.37-.37c0-.25-.12-.37-.37-.37s-.37.12-.37.37ZM68.09 76.5c-.87.12-1.48.74-1.48 1.48s.74 1.36 1.48 1.36 1.36-.62 1.36-1.36c0-.86-.62-1.48-1.36-1.48Zm.25 4.33c0-.74-.62-1.24-1.36-1.24s-1.36.62-1.36 1.36.62 1.24 1.36 1.24 1.36-.62 1.36-1.36Zm-2.23 1.85c-.62 0-1.24.62-1.24 1.24 0 .74.62 1.36 1.36 1.36.62 0 1.24-.62 1.24-1.36s-.62-1.24-1.36-1.24Zm-2.23 4.33c0 .62.5 1.11 1.11 1.11s1.11-.49 1.11-1.11c0-.74-.49-1.24-1.11-1.24s-1.11.62-1.11 1.24Zm-.86 2.97c.12.74.62 1.24 1.36 1.24.62 0 1.24-.62 1.24-1.24-.12-.74-.62-1.24-1.36-1.24-.62 0-1.24.62-1.24 1.24Zm-.74 3.22c0 .62.49 1.11.99 1.11.62 0 1.11-.49 1.11-1.11s-.5-.99-1.11-.99-.99.49-.99.99Zm-.37 3.09c0 .12.12.25.37.25.12 0 .25-.12.25-.25 0-.25-.12-.37-.25-.37-.25 0-.37.12-.37.37Zm8.41-11.38c0-.87-.62-1.48-1.36-1.36-.74 0-1.36.62-1.36 1.36s.62 1.36 1.36 1.36c.86 0 1.48-.62 1.36-1.36Zm-1.98-2.97c0 .87.74 1.48 1.48 1.48.87 0 1.61-.74 1.61-1.48 0-.86-.74-1.61-1.61-1.61-.86.12-1.48.74-1.48 1.61Zm-1.73 6.18c0 .74.62 1.48 1.48 1.48s1.48-.74 1.48-1.61c0-.74-.74-1.48-1.48-1.48-.87.12-1.48.74-1.48 1.61Zm-.37 3.09c0 .49.5.87.99.87s.87-.37.87-.87-.37-.99-.87-.99-.99.49-.99.99Zm4.08-2.23c0 .49.37.87.87.87.37 0 .74-.37.74-.87s-.37-.87-.74-.87c-.49 0-.87.37-.87.87Zm-3.09-13.85c.12.74.74 1.36 1.48 1.36.87 0 1.48-.62 1.48-1.48 0-.74-.62-1.36-1.48-1.36-.74 0-1.48.62-1.48 1.48Zm-2.1-4.2c0 .87.62 1.48 1.48 1.48s1.48-.62 1.48-1.48-.74-1.48-1.48-1.48c-.87 0-1.61.62-1.48 1.48ZM74.16 87c0 .62.49.99.99.99.62 0 .99-.5.99-.99s-.5-.99-.99-.99-.99.49-.99.99Zm3.96-2.23c0 .62.37.99.99.99.49 0 .87-.37.87-.99 0-.49-.37-.87-.99-.87-.49 0-.87.37-.87.87Zm3.71-1.85c0 .5.37.99.87.99.62 0 .99-.49.99-.99 0-.62-.37-.99-.99-.99-.5 0-.99.5-.87.99Zm4.57-2.35c0 .49.37.99.87.99.62 0 .99-.49.99-.99s-.37-.99-.99-.99c-.49 0-.87.5-.87.99Zm91.26-22.13c-1.11-.99-1.85-2.23-2.22-2.97-.62-1.73-3.09-5.56-5.69-7.91-4.57-4.45-9.03-5.94-16.94-7.42 0 0-9.64-1.86-22.63-1.36-.87 0-1.48.62-1.61 1.36 0-.12-.12-.25-.12-.25h-.25c.12-.12.25-.37.25-.62 0-.74-.62-1.36-1.36-1.36s-1.36.62-1.36 1.36v.12c-.12-.25-.25-.37-.5-.37s-.49.25-.49.62v.12c-.25-.37-.74-.62-1.24-.62-.74 0-1.36.37-1.48 1.11 0-.25-.25-.37-.37-.37h-.25v-.37c0-.62-.49-1.24-1.11-1.24s-1.11.62-1.11 1.24c-.12-.12-.25-.25-.49-.25-.12 0-.37.12-.37.25v-.12c0-.87-.74-1.48-1.48-1.48-.87 0-1.48.74-1.48 1.48 0 .25 0 .5.12.74 0-.12-.12-.12-.25-.12-.25 0-.49.25-.49.5-.25-.74-.87-1.11-1.61-1.11s-1.24.37-1.48.99c-.25-.74-.86-1.24-1.61-1.11-.99 0-1.73.74-1.73 1.61 0 .12.12.25.12.37-.12-.12-.25-.25-.49-.25s-.49.25-.49.49c-.12-.37-.37-.62-.62-.74.62-.12.99-.62.99-1.24s-.5-1.11-1.24-1.11c-.62 0-1.11.5-1.11 1.11 0 .37.12.62.37.87-.74 0-1.36.49-1.61 1.11v-.12c0-.87-.62-1.48-1.48-1.48-.62 0-1.24.49-1.36 1.11l-.12-.12s0 .12-.12.12l.12-.12c-.12-.87-.74-1.48-1.61-1.48s-1.61.74-1.48 1.48v.37c-.25 0-.5.12-.62.25-.25-.25-.37-.49-.62-.62.5-.12.87-.62.87-1.11-.12-.74-.62-1.24-1.24-1.24-.74 0-1.24.62-1.24 1.24 0 .25.12.62.37.74-.49 0-.87.25-1.11.37-.12-.37-.37-.62-.62-.87.5-.12.87-.62.87-1.24s-.49-1.24-1.24-1.24c-.74.12-1.24.62-1.24 1.36 0 .25.12.49.25.74-.37 0-.74.12-.99.25-.12-.37-.37-.62-.62-.87.5-.25.74-.62.74-1.24s-.49-1.24-1.24-1.24c-.62.12-1.24.62-1.24 1.36 0 .25.12.37.25.62-.37 0-.62.12-.99.25-.12-.25-.25-.62-.62-.74.49-.12.87-.62.87-1.24s-.49-1.11-1.11-1.11c-.74 0-1.24.5-1.24 1.11 0 .37.12.62.25.74-.37 0-.87.12-1.11.37-.12-.37-.37-.62-.74-.87.49-.12.87-.62.87-1.11 0-.74-.62-1.24-1.24-1.24s-1.24.62-1.24 1.24c0 .25.12.49.37.74-.49 0-.86.12-1.11.37-.12-.5-.37-.74-.62-1.11.37-.12.62-.5.62-.99 0-.74-.62-1.24-1.24-1.24s-1.24.62-1.24 1.24c0 .25.12.37.25.62-.49 0-.74.12-1.11.37-.12-.37-.37-.74-.62-.87.37-.12.74-.62.74-1.11 0-.62-.49-.99-1.11-.99-.49 0-.99.5-.99.99 0 .25.12.49.25.74l-.12-.12c-.62 0-1.11.25-1.48.62-.25-.49-.74-.87-1.48-.87-.49 0-.87.25-1.11.5-.25-.74-.87-1.24-1.73-1.24s-1.61.74-1.61 1.61c0 .37.12.74.37.99h-.12c-.37 0-.74.25-.99.49-.12-.37-.37-.74-.62-.99.5-.25.87-.74.87-1.36 0-.74-.62-1.48-1.36-1.36-.87 0-1.48.62-1.48 1.36 0 .37.12.62.37.87-.49.12-.99.37-1.24.74-.25-.62-.87-1.11-1.48-1.11-.87 0-1.61.74-1.61 1.61s.74 1.61 1.61 1.61c.37 0 .74-.12.99-.37.25.87.99 1.61 1.98 1.61.49 0 .87-.12 1.11-.37v.12c0 .37.12.74.37.99-.5.25-.99.87-.87 1.48 0 .87.62 1.48 1.48 1.48.5 0 .87-.12 1.11-.37.25.87 1.11 1.61 2.1 1.61.25 0 .49-.12.74-.12 0 .12.12.25.12.37-.25.25-.62.62-.74.99-.12-.62-.62-1.11-1.24-1.11s-1.24.62-1.24 1.24c0 .74.62 1.24 1.24 1.24.49 0 .87-.25.99-.5v.25c0 .37.12.87.37 1.24-.62.25-.99.87-.99 1.61 0 .37.12.86.37 1.11 0 .12-.12.25-.12.37-.74.12-1.48.87-1.48 1.73 0 .49.37.99.74 1.24-.87.12-1.61.99-1.61 1.86 0 .49.25.99.49 1.23-.12 0-.74.12-1.24.62 0-.74-.62-1.36-1.36-1.36-.86 0-1.48.74-1.48 1.48 0 .87.74 1.48 1.48 1.48.37 0 .74-.25.99-.5 0 .74.25 1.24.62 1.48-.37.12-.74.37-.99.74 0-.99-.87-1.73-1.73-1.73-.99 0-1.73.74-1.61 1.73 0 .5.12.87.49 1.11-.87.12-1.48.87-1.48 1.73 0 .99.74 1.73 1.73 1.73.49-.12.86-.25 1.24-.74 0 .12-.12 1.23.74 1.61-.74.12-1.36.74-1.36 1.48 0 .87.62 1.48 1.48 1.48.49 0 .99-.12 1.24-.49v.12c0 .62.37 1.11.87 1.48-.87 0-1.61.74-1.61 1.61s.74 1.48 1.61 1.48c.37 0 .74-.12 1.11-.37 0 .49.25.99.62 1.24-.62.25-1.24.87-1.11 1.61 0 .49.25.99.62 1.36-.74 0-1.48.62-1.48 1.48.12.87.74 1.48 1.61 1.48.5 0 .87-.12 1.11-.5-.25 1.11.87 1.61.74 1.61-.99.12-1.61.74-1.48 1.61 0 .62.25.99.62 1.36-.87 0-1.61.74-1.61 1.61s.74 1.48 1.61 1.48 1.61-.74 1.61-1.61c0-.49-.25-.87-.62-1.24.86 0 1.61-.74 1.48-1.61 0-.49-.25-1.11-.74-1.36.49.12 1.24-.25 1.48-.62 0 .49.37 1.11.87 1.36-.87 0-1.61.74-1.61 1.61s.74 1.61 1.61 1.48c.87 0 1.61-.62 1.61-1.48 0-.62-.74-1.36-.74-1.36.62 0 1.11-.25 1.36-.62 0 0 .25 1.61 1.73 1.61.86 0 1.61-.74 1.61-1.61 0-.37-.25-.74-.49-1.11 0 0 .74 0 1.11-.25.25.74.99 1.24 1.85 1.24 1.11 0 1.98-.86 1.98-1.98 0-.87-.49-1.61-1.11-1.85.49 0 .87-.25 1.11-.5v.12c.12.99.87 1.73 1.85 1.73s1.85-.74 1.85-1.86c0-.49-.25-.99-.74-1.24.62-.12.99-.37 1.36-.74v.25c0 .99.74 1.73 1.73 1.73 1.11 0 1.85-.87 1.85-1.85 0-.62-.37-1.11-.87-1.48.49 0 .99-.25 1.36-.62.12.87.87 1.61 1.73 1.61.62 0 1.11-.37 1.48-.74.12.74.74 1.24 1.48 1.24.86 0 1.48-.74 1.48-1.61 0-.49-.25-.99-.62-1.24.99 0 1.85-.87 1.85-1.85 0-.37-.12-.62-.25-.87.25-.12.37-.12.62-.37 0 .62.37.99.74 1.24-.49.25-.87.74-.87 1.24 0 .74.62 1.36 1.36 1.36.62 0 1.24-.62 1.24-1.36 0-.37-.12-.62-.37-.87.49 0 .87-.25 1.24-.62.25.5.87.74 1.48.74.99 0 1.85-.87 1.85-1.86v-.25h.37c.12.25.25.49.49.62-.37.25-.62.62-.62.99.12.74.62 1.24 1.24 1.24.74 0 1.24-.62 1.24-1.24 0-.37-.12-.62-.37-.87.12.12.25.12.25.12.25 0 .37-.12.5-.12.12.25.25.5.62.62-.37.37-.62.74-.62 1.24 0 .87.74 1.61 1.61 1.48h.49c0 .25.12.37.25.49-.25.12-.62.25-.74.5-.12-.5-.62-.74-1.11-.74-.74 0-1.36.62-1.36 1.36 0 .62.62 1.24 1.36 1.24.12 0 .25 0 .49-.12 0 .25.12.49.25.62-.25.12-.49.25-.49.62-.37-.37-.74-.62-1.11-.62-.87 0-1.48.62-1.48 1.48.12.74.74 1.36 1.48 1.36.12 0 .37 0 .49-.12v.25c0 .25.12.62.37.74-.25.25-.37.49-.49.74-.12-.74-.74-1.36-1.48-1.36s-1.36.62-1.36 1.36.62 1.36 1.36 1.36c.62 0 .99-.25 1.24-.74v.12c0 .99.87 1.85 1.85 1.85s1.73-.86 1.73-1.85c0-.37-.12-.62-.25-.86.37-.12.62-.25.87-.37.25.62.87.99 1.61.99.99 0 1.85-.87 1.73-1.85 0 0 0-.12.12-.49.37-.12.62-.37.87-.62.12.49.62.74 1.24.74.74 0 1.36-.62 1.36-1.36-.12-.74-.62-1.36-1.48-1.24 0-.25-.12-.37-.25-.5h.37c.37.12.74.37 1.11.37.99-.12 1.85-.87 1.73-1.85 0-.25 0-.49-.12-.74.37-.12.62-.49.86-.74.25.49.74.86 1.36.86.87 0 1.48-.62 1.48-1.48 0-.74-.74-1.36-1.48-1.36-.25 0-.62 0-.74.25 0-.37-.12-.74-.25-.99.25-.12.49-.12.74-.25.25.5.74.87 1.48.87.87 0 1.61-.74 1.61-1.61 0-.25 0-.37-.12-.62.37-.25.74-.62.99-1.11 0 .74.74 1.36 1.48 1.36.87 0 1.61-.74 1.61-1.61 0-.25-.12-.5-.25-.62.37-.25.62-.37.87-.62.37.5.99.74 1.61.74.99 0 1.86-.86 1.86-1.85h.37c0 .12.12.12.12.12-.25.25-.37.62-.37.99 0 .74.62 1.24 1.36 1.24s1.24-.62 1.24-1.24c0-.37-.12-.62-.25-.86q.12 0 .25-.12c13.6-.87 15.33-.99 15.33-.99s1.48-.12 11.5.12c7.79.25 9.27.49 9.27.49.99 0 7.29.87 7.67-1.61.25-2.23-1.61-2.6-2.47-2.97-.62-.25-2.84-1.48-3.83-2.22ZM66.62 62.52c.37 0 .86-.25 1.11-.62 0 .49.12.99.49 1.36-.49 0-1.24.49-1.24.49 0-.37-.12-.87-.37-1.24Zm5.56 6.18c0-.37-.12-.74-.37-.99.25 0 .74-.25.99-.49 0 .25.12.74.37.99-.37 0-.74.25-.99.5Zm2.72-20.4c.12 0 .37 0 .49-.25 0 .25.12.37.25.49-.25 0-.37.12-.49.25 0-.12-.12-.37-.25-.49Zm.49-10.39c-.12 0-.37.12-.49.25 0-.12-.12-.37-.37-.5.25 0 .5-.12.62-.25 0 .12.12.37.25.49Zm-1.11 13.85c0-.25-.12-.5-.37-.62.25 0 .5-.12.62-.25 0 .25.12.37.37.62-.25 0-.49 0-.62.25Zm.25-9.89c-.25 0-.37.12-.62.25 0-.25-.12-.5-.25-.62.25 0 .37-.12.62-.25 0 .25.12.5.25.62Zm-4.2-1.48c.37 0 .74-.12.99-.37 0 .37.25.62.49.87-.37 0-.74.12-.99.37 0-.25-.12-.62-.49-.86Zm1.36-3.59c.37 0 .87-.25 1.11-.62 0 .49.25.87.62 1.24-.49 0-.86.12-1.11.49-.12-.49-.37-.87-.62-1.11Zm2.23 17.68c-.25 0-.37.12-.62.37a.68.68 0 0 0-.37-.62c.37-.12.49-.12.74-.37 0 .25.12.37.25.62Zm-.49 3.34c-.49.12-.86.25-1.11.62-.12-.37-.37-.87-.62-1.11.49-.12.74-.25 1.11-.49 0 .37.37.74.62.99Zm-1.11 3.21c-.25 0-.74.37-.99.62-.12-.49-.37-.87-.62-1.11.49-.12.74-.25 1.11-.62 0 .37.25.87.49 1.11Zm-3.71 5.69c.74 0 1.11-.37 1.24-.62 0 .49.12.87.37 1.11-.37.12-.74.37-.99.74-.12-.49-.25-.99-.62-1.24Zm2.47-3.71c0 .49.12.99.5 1.24-.25.12-.99.37-1.24.5 0-.37-.25-.87-.5-1.11.5 0 .99-.37 1.24-.62Zm-.49 7.67c.49 0 .87-.25 1.11-.5.12.37.37.74.62.99-.37.12-.74.25-1.11.62 0-.5-.25-.87-.62-1.11Zm1.36 6.92c.49 0 .87-.25 1.24-.62 0 .49.25.99.62 1.24-.49 0-.99.25-1.24.62 0 0-.12-.99-.62-1.24Zm6.18 2.23c.49 0 .99-.25 1.24-.62 0 .49.25.99.62 1.36-.49 0-.99.25-1.24.62 0-.12 0-.99-.62-1.36Zm-5.19-5.07c.49-.12.87-.37 1.11-.62 0 .37.25.74.5.99-.37.12-.87.37-1.11.74 0-.49-.25-.87-.49-1.11Zm1.98 3.83c.49 0 .99-.25 1.36-.62 0 .49.12.87.5 1.24-.5.12-.87.37-1.11.62 0-.49-.25-.99-.74-1.24Zm1.36-2.84c.37 0 .74-.25.87-.49.12.37.25.74.37.99-.25.12-.62.25-.87.49 0-.37-.12-.74-.37-.99Zm7.3-.99c.25 0 .49-.12.62-.37 0 .25.12.49.25.62-.12 0-.37.12-.5.25-.12-.12-.12-.37-.37-.49Zm4.08-2.1c.12 0 .37-.12.49-.25 0 .25.12.37.25.62-.12 0-.37 0-.49.25 0-.25-.12-.5-.25-.62Zm3.09.87c.25 0 .37-.12.49-.25.12.25.12.5.37.62-.25 0-.49.12-.62.25 0-.25-.12-.49-.25-.62Zm.99-2.97c.12 0 .37-.12.49-.25 0 .12.12.37.37.49-.25 0-.49.12-.62.25 0-.12-.12-.37-.25-.5Zm2.97.87c.25 0 .37 0 .62-.25 0 .25.12.49.25.62-.25 0-.49.12-.62.25 0-.12-.12-.37-.25-.62Zm.99-2.72c.25 0 .37-.12.62-.37 0 .25 0 .49.25.62-.25 0-.49.12-.62.25 0-.25 0-.37-.25-.49Zm2.1 3.71q0-.12-.12-.25c.25 0 .5-.12.74-.25.12.25.49.62.74.74-.37 0-.74.25-.99.49-.12-.25-.12-.49-.37-.74Zm.74-2.72c.25-.12.49-.12.62-.37 0 .25.12.5.37.62-.25 0-.49.12-.62.25 0-.25-.12-.37-.37-.5Zm7.3-1.24c.25 0 .37-.12.62-.25 0 .25.12.37.25.5-.25 0-.37.12-.62.37 0-.25-.12-.5-.25-.62Zm5.32-26.21c0-.12.12-.37.37-.37.12 0 .37.25.37.37 0 .25-.12.37-.37.37-.12 0-.37-.12-.37-.37Zm5.32 36.11c.25 0 .37 0 .62-.25 0 .25.12.49.25.62-.25 0-.37.12-.62.25 0-.25-.12-.37-.25-.62Zm1.73-37.59c0-.25.25-.37.49-.37s.37.12.37.37-.12.49-.37.49-.49-.25-.49-.49Zm2.35 1.24c0-.37.25-.74.62-.74s.74.37.74.74-.25.74-.74.74c-.37 0-.62-.37-.62-.74Zm10.26-.37c0-.5.37-.74.87-.74.37-.12.74.25.74.74 0 .37-.37.74-.74.74-.49 0-.87-.37-.87-.74Zm2.35 4.45c0-.37.25-.62.62-.62s.62.25.62.62-.25.62-.62.62-.62-.25-.62-.62Zm.74-3.09c0-.5.37-.99.99-.99.49 0 .99.49.99.99s-.5.99-.99.99-.99-.37-.99-.99Zm1.98 4.08c0-.25.25-.49.62-.49.25-.12.5.25.5.49.12.37-.25.62-.5.62-.37 0-.62-.25-.62-.62Zm.87-3.09c0-.49.37-.87.87-.87s.87.37.87.87-.37.87-.87.87-.87-.37-.87-.87Z"></path>
  <path fill="#0032c6" class="logo-svg-path" d="M97.25 82.46h8.66v44.64h-8.66V82.46Zm18.3 16.2v-6.18h5.69v-4.82c0-4.95 2.35-9.52 10.02-9.52 2.23 0 4.33.49 5.94.86l-.37 6.06c-.99-.25-2.1-.62-3.21-.62-2.47 0-3.96 1.73-3.96 4.33v3.71h6.31v6.18h-6.31v28.44h-8.41V98.66h-5.69Zm29.31-6.18h7.54c.12 2.1.25 4.33.25 6.31h.12c.99-2.59 3.71-6.8 8.78-6.8.62 0 .99.12 1.48.25v7.79c-.74-.25-1.48-.37-2.35-.37-3.46 0-7.17 2.1-7.17 8.53v18.92h-8.41V98.3c0-2.22 0-4.2-.25-5.81Zm37.47 35.12c-11.13 0-15.95-7.91-15.95-17.31 0-10.26 5.44-18.3 14.22-18.3 7.42 0 13.85 4.33 13.85 18.42v1.61h-20.03c0 5.93 2.35 9.52 8.78 9.52 5.19 0 7.54-1.61 9.15-2.72l.37 6.55c-1.73.74-5.32 2.23-10.39 2.23Zm-1.73-29.92c-4.33 0-6.18 4.58-6.18 9.15h11.99c0-6.06-1.98-9.15-5.81-9.15Zm23.37-5.19h8.41c0 1.85.25 3.71.25 5.44h.12c1.24-2.6 3.95-5.93 8.78-5.93 5.81 0 7.67 3.59 8.66 5.57 1.73-2.47 4.2-5.57 9.27-5.57 7.54 0 9.89 5.32 9.89 13.72v21.39h-8.29v-21.76c0-4.33-1.36-6.55-4.45-6.55-3.71 0-5.56 3.59-5.56 7.42v20.9h-8.41v-21.76c0-4.33-1.36-6.55-4.45-6.55-3.59 0-5.57 3.59-5.57 7.42v20.9h-8.28V98.2c0-2.47-.25-4.33-.37-5.69Zm70.85 35.12c-11.13 0-15.95-7.91-15.95-17.31 0-10.26 5.44-18.3 14.22-18.3 7.54 0 13.85 4.33 13.85 18.42v1.61h-20.03c0 5.93 2.35 9.52 8.78 9.52 5.2 0 7.54-1.61 9.15-2.72l.37 6.55c-1.73.74-5.32 2.23-10.39 2.23Zm-1.73-29.92c-4.33 0-6.18 4.58-6.18 9.15h11.99c0-6.06-1.98-9.15-5.81-9.15Zm24.61-5.19h7.42c.12 2.1.25 4.33.25 6.31h.25c.99-2.59 3.59-6.8 8.78-6.8.49 0 .87.12 1.36.25v7.79c-.74-.25-1.48-.37-2.35-.37-3.46 0-7.17 2.1-7.17 8.53v18.92h-8.29V98.32c0-2.22-.12-4.2-.25-5.81Z"></path>
</svg>