<?xml version="1.0" encoding="utf-8"?>
<!-- Generator: Adobe Illustrator 23.0.6, SVG Export Plug-In . SVG Version: 6.00 Build 0)  -->
<svg version="1.1" id="Calque_1" xmlns="http://www.w3.org/2000/svg" xmlns:xlink="http://www.w3.org/1999/xlink" x="0px" y="0px"
	 viewBox="0 0 388.9 156.7" enable-background="new 0 0 388.9 156.7" xml:space="preserve">
<path fill="#112970" d="M44.9,49h5.2V37.5c0-1.4-1.2-2.6-2.6-2.6s-2.6,1.2-2.6,2.6V49z"/>
<path fill="#112970" d="M33.8,49h5.2V37.5c0-1.4-1.2-2.6-2.6-2.6c-1.4,0-2.6,1.2-2.6,2.6V49z"/>
<path fill="#112970" d="M55.9,49h5.2V37.5c0-1.4-1.2-2.6-2.6-2.6c-1.4,0-2.6,1.2-2.6,2.6V49z"/>
<path fill="#112970" d="M48.8,6.7c3.5,0.6,4.8,3.7,4.8,5.8V17h3.2v2.5C65.1,23.4,71,32.2,71,41.1c0,0.1,0,0.1,0,0.2V49h19.3v-7.9
	C89.9,15.8,71.9,0.3,48.1,0L48.8,6.7z"/>
<path fill="#112970" d="M45.1,12.4V17h4.7v-4.6c0-1.3-1.1-2.4-2.4-2.4C46.2,10,45.1,11.1,45.1,12.4"/>
<path fill="#112970" d="M51,61.3c-19.9-5.1-27.4-9.4-27.4-22.1c0-9.1,6-16.9,14.5-20.2V17h3.2v-4.5c0-2.2,1.3-5.3,4.9-5.8L47,0
	C23,0.2,2.5,16.9,3.5,39.3c1.1,25.1,28.6,32.1,43.4,35.3c11.7,2.5,39.7,9,46.7,28.8C93.6,103.3,96.2,70.6,51,61.3"/>
<path fill="#112970" d="M44.4,96.2c20.1,6.1,25.2,13.6,25.2,24.2c0,16.1-12.5,22.8-28.2,22.8c-15,0-27.9-7-36.5-16.1
	c0,0-3.2,6.6-3.2,6.6c6.3,11.9,24.1,22.8,43.9,22.8h0c0,0,0,0,0,0v0c25.4,0.2,47-11.7,47-35.6c0-25.7-28-35.8-43.6-39.2
	C36.9,78.9,6,70.8,0.5,53.5C0.5,53.5-5.6,83.4,44.4,96.2"/>
<path fill="#EF4136" d="M121.7,63.5c0,0,3.4,3.2,7.9,3.2c2.4,0,4.6-1.2,4.6-3.7c0-5.4-14.9-4.5-14.9-13.8c0-5.1,4.6-8.8,10.6-8.8
	c6.2,0,9.5,3.3,9.5,3.3l-2.5,4.5c0,0-3-2.7-7-2.7c-2.7,0-4.8,1.5-4.8,3.6c0,5.4,14.9,4.1,14.9,13.8c0,4.8-3.8,8.9-10.4,8.9
	c-7,0-10.9-4.2-10.9-4.2L121.7,63.5z"/>
<path fill="#EF4136" d="M164.3,66.8c5.8,0,10.4-4.6,10.4-10.9c0-6-4.6-10.5-10.4-10.5c-5.8,0-10.4,4.5-10.4,10.5
	C153.8,62.2,158.5,66.8,164.3,66.8 M164.3,40.4c9.3,0,16.4,6.8,16.4,15.5c0,9-7,15.9-16.4,15.9c-9.3,0-16.4-7-16.4-15.9
	C147.9,47.2,154.9,40.4,164.3,40.4"/>
<path fill="#EF4136" d="M200.8,55.2c3.1,0,5-1.8,5-4.8c0-2.9-1.3-4.7-5.8-4.7h-4.4v9.5H200.8z M189.9,40.9h10.2c3.4,0,5,0.3,6.4,0.9
	c3.2,1.4,5.2,4.3,5.2,8.3c0,3.6-2,7-5.4,8.3v0.1c0,0,0.4,0.4,1.1,1.5l6.5,11.4h-6.4L201.2,60h-5.5v11.4h-5.8V40.9z"/>
<path fill="#EF4136" d="M234,66.6c2.9,0,4.6-1.8,4.6-4.4c0-2.5-1.7-4.4-4.6-4.4h-6.2v8.8H234z M233.4,53.3c2.5,0,3.9-1.7,3.9-3.9
	c0-2.2-1.3-3.8-4-3.8h-5.5v7.7H233.4z M222.1,40.9h11.3c5.7,0,9.8,2.8,9.8,7.8c0,2.8-1.4,5.3-3.8,6.5v0.1c3.5,1,5.1,4.1,5.1,7.2
	c0,6.1-5.1,8.8-10.9,8.8h-11.5V40.9z"/>
<path fill="#EF4136" d="M268.3,66.8c5.8,0,10.4-4.6,10.4-10.9c0-6-4.6-10.5-10.4-10.5c-5.8,0-10.4,4.5-10.4,10.5
	C257.9,62.2,262.5,66.8,268.3,66.8 M268.3,40.4c9.3,0,16.4,6.8,16.4,15.5c0,9-7,15.9-16.4,15.9c-9.3,0-16.4-7-16.4-15.9
	C251.9,47.2,259,40.4,268.3,40.4"/>
<path fill="#EF4136" d="M294.5,40.9h5.8l12,17.6c1.2,1.8,2.6,4.7,2.6,4.7h0.1c0,0-0.3-2.9-0.3-4.7V40.9h5.7v30.4h-5.7l-12-17.5
	c-1.2-1.8-2.6-4.7-2.6-4.7H300c0,0,0.3,2.9,0.3,4.7v17.5h-5.8V40.9z"/>
<path fill="#EF4136" d="M331.8,40.9h5.8l12,17.6c1.2,1.8,2.6,4.7,2.6,4.7h0.1c0,0-0.3-2.9-0.3-4.7V40.9h5.7v30.4H352l-12-17.5
	c-1.2-1.8-2.6-4.7-2.6-4.7h-0.1c0,0,0.3,2.9,0.3,4.7v17.5h-5.8V40.9z"/>
<polygon fill="#EF4136" points="369.2,40.9 369.2,71.3 388.9,71.3 388.9,66.6 375,66.6 375,58.4 385.6,58.4 385.6,53.6 375,53.6 
	375,45.7 388.2,45.7 388.2,40.9 "/>
<path fill="#EF4136" d="M119.1,84.7h5.8v19.7c0,4.1,2.8,6.4,7.1,6.4c4.3,0,7.1-2.3,7.1-6.5V84.7h5.8v19.7c0,6.9-5.2,11.5-12.9,11.5
	c-7.7,0-12.9-4.7-12.9-11.5V84.7z"/>
<path fill="#EF4136" d="M154.5,85h5.8l12,17.6c1.2,1.8,2.6,4.7,2.6,4.7h0.1c0,0-0.3-2.9-0.3-4.7V85h5.7v30.4h-5.7l-12-17.5
	c-1.2-1.8-2.6-4.7-2.6-4.7h-0.1c0,0,0.3,2.9,0.3,4.7v17.5h-5.8V85z"/>
<rect x="190.6" y="85" fill="#EF4136" width="5.8" height="30.4"/>
<path fill="#EF4136" d="M202.6,85h6.2l7,19.8c0.6,1.8,1.2,4.5,1.2,4.5h0.1c0,0,0.6-2.7,1.2-4.5l7-19.8h6.2l-11.6,30.4h-5.7L202.6,85
	z"/>
<polygon fill="#EF4136" points="237.6,85 256.6,85 256.6,89.7 243.4,89.7 243.4,97.7 254,97.7 254,102.5 243.4,102.5 243.4,110.7 
	257.3,110.7 257.3,115.4 237.6,115.4 "/>
<path fill="#EF4136" d="M276.5,99.3c3.1,0,5-1.8,5-4.8c0-2.9-1.3-4.7-5.8-4.7h-4.4v9.5H276.5z M265.5,85h10.2c3.4,0,5,0.3,6.4,0.9
	c3.2,1.4,5.2,4.3,5.2,8.3c0,3.6-2,7-5.4,8.3v0.1c0,0,0.4,0.4,1.1,1.5l6.5,11.4h-6.4l-6.3-11.4h-5.5v11.4h-5.8V85z"/>
<path fill="#EF4136" d="M297.8,107.6c0,0,3.4,3.2,7.9,3.2c2.4,0,4.6-1.2,4.6-3.7c0-5.4-14.9-4.5-14.9-13.8c0-5.1,4.5-8.8,10.6-8.8
	c6.2,0,9.5,3.3,9.5,3.3l-2.5,4.5c0,0-3-2.7-7-2.7c-2.7,0-4.8,1.5-4.8,3.6c0,5.4,14.9,4.1,14.9,13.8c0,4.8-3.8,8.9-10.4,8.9
	c-7,0-10.9-4.2-10.9-4.2L297.8,107.6z"/>
<rect x="324.1" y="85" fill="#EF4136" width="5.8" height="30.4"/>
<polygon fill="#EF4136" points="346.7,89.7 336.3,89.7 336.3,85 362.8,85 362.8,89.7 352.4,89.7 352.4,115.4 346.7,115.4 "/>
<path fill="#EF4136" d="M369.2,85v30.4h19.7v-4.8H375v-8.2h10.7v-4.8H375v-8h13.2V85H369.2z M380.1,77.2l-3.4,5.8h4.6l4.7-5.8H380.1
	z"/>
</svg>
