
<svg width="421px" height="148px" viewBox="325 220 421 148" version="1.1" xmlns="http://www.w3.org/2000/svg" xmlns:xlink="http://www.w3.org/1999/xlink">
    <g id="Group-30" stroke="none" stroke-width="1" fill="none" fill-rule="evenodd" transform="translate(325.000000, 220.276000)">
        <path d="M175.1575,36.8 L175.1575,61.901 C175.1575,65.329 176.6485,67.117 179.9795,67.117 C183.3095,67.117 184.8495,65.329 184.8495,61.901 L184.8495,36.8 L191.7075,36.8 L191.7075,61.95 C191.7075,69.851 187.0355,73.182 179.9795,73.182 C172.9225,73.182 168.2995,69.851 168.2995,61.95 L168.2995,36.8 L175.1575,36.8 Z" id="Fill-6" fill="#1A171A"></path>
        <polygon id="Fill-8" fill="#1A171A" points="196.6503 72.6851 196.6503 36.7991 204.1563 36.7991 213.6993 58.0731 213.8003 58.0731 213.8003 36.7991 220.0613 36.7991 220.0613 72.6851 213.5003 72.6851 203.0113 49.5251 202.9133 49.5251 202.9133 72.6851"></polygon>
        <polygon id="Fill-9" fill="#1A171A" points="225.026 72.686 231.884 72.686 231.884 36.8 225.026 36.8"></polygon>
        <polygon id="Fill-10" fill="#1A171A" points="235.1067 36.8 241.8667 36.8 248.1817 62.446 248.2797 62.446 254.5437 36.8 261.2517 36.8 252.1067 72.686 244.3027 72.686"></polygon>
        <polygon id="Fill-11" fill="#1A171A" points="264.4651 72.6851 264.4651 36.7991 283.2531 36.7991 283.2531 42.8641 271.3231 42.8641 271.3231 51.1141 280.4181 51.1141 280.4181 57.1791 271.3231 57.1791 271.3231 66.6231 283.7491 66.6231 283.7491 72.6851"></polygon>
        <path d="M295.0616,52.4062 L298.5886,52.4062 C301.6256,52.4062 303.4616,50.9152 303.4616,47.4342 C303.4616,43.9572 301.6256,42.4662 298.5886,42.4662 L295.0616,42.4662 L295.0616,52.4062 Z M304.3066,72.6852 L298.3406,58.0732 L295.0616,58.0732 L295.0616,72.6852 L288.2036,72.6852 L288.2036,36.7992 L298.1446,36.7992 C306.3946,36.7992 310.3196,40.7762 310.3196,47.5352 C310.3196,52.0082 308.7306,55.2382 304.9036,56.6802 L311.6636,72.6852 L304.3066,72.6852 Z" id="Fill-12" fill="#1A171A"></path>
        <path d="M329.2513,46.79 C328.1093,43.41 326.6183,41.968 324.2303,41.968 C321.7963,41.968 320.4553,43.459 320.4553,45.896 C320.4553,51.312 335.7623,51.71 335.7623,62.942 C335.7623,69.108 331.5383,73.183 324.3343,73.183 C318.7653,73.183 314.4403,70.149 312.6033,63.092 L319.3623,61.65 C320.1553,65.976 322.6413,67.516 324.6803,67.516 C327.0653,67.516 328.9053,65.924 328.9053,63.242 C328.9053,56.483 313.5953,56.382 313.5953,46.343 C313.5953,40.177 317.2753,36.302 324.3803,36.302 C330.4943,36.302 334.2233,39.929 335.4173,45.002 L329.2513,46.79 Z" id="Fill-13" fill="#1A171A"></path>
        <polygon id="Fill-14" fill="#1A171A" points="339.101 72.686 345.959 72.686 345.959 36.8 339.101 36.8"></polygon>
        <polygon id="Fill-15" fill="#1A171A" points="372.0692 36.8 372.0692 42.862 364.0662 42.862 364.0662 72.686 357.2092 72.686 357.2092 42.862 349.2062 42.862 349.2062 36.8"></polygon>
        <path d="M392.7073,27.5052 L385.3993,34.7612 L380.3823,34.7612 L385.0013,27.5052 L392.7073,27.5052 Z M375.2633,72.6862 L375.2633,36.8002 L394.0483,36.8002 L394.0483,42.8642 L382.1213,42.8642 L382.1213,51.1152 L391.2163,51.1152 L391.2163,57.1762 L382.1213,57.1762 L382.1213,66.6212 L394.5473,66.6212 L394.5473,72.6862 L375.2633,72.6862 Z" id="Fill-16" fill="#1A171A"></path>
        <path d="M174.7603,110.2443 L177.1453,110.2443 C180.9223,110.2443 183.1113,108.4533 183.1113,103.0863 L183.1113,93.6423 C183.1113,88.5723 181.4213,86.4843 177.1453,86.4843 L174.7603,86.4843 L174.7603,110.2443 Z M167.9023,80.4233 L177.4453,80.4233 C185.2973,80.4233 189.6723,83.8003 189.9693,92.8463 L189.9693,103.8823 C189.6723,112.9263 185.2973,116.3063 177.4453,116.3063 L167.9023,116.3063 L167.9023,80.4233 Z" id="Fill-17" fill="#1A171A"></path>
        <polygon id="Fill-18" fill="#1A171A" points="194.9224 116.3074 194.9224 80.4214 213.7104 80.4214 213.7104 86.4864 201.7804 86.4864 201.7804 94.7364 210.8754 94.7364 210.8754 100.8014 201.7804 100.8014 201.7804 110.2454 214.2064 110.2454 214.2064 116.3074"></polygon>
        <polygon id="Fill-19" fill="#1A171A" points="231.0912 116.3074 231.0912 80.4214 237.9492 80.4214 237.9492 110.2454 248.9852 110.2454 248.9852 116.3074"></polygon>
        <path d="M258.4916,105.6702 C258.4916,109.6472 260.2306,110.7402 262.9676,110.7402 C265.6976,110.7402 267.4396,109.6472 267.4396,105.6702 L267.4396,91.0612 C267.4396,87.0842 265.6976,85.9882 262.9676,85.9882 C260.2306,85.9882 258.4916,87.0842 258.4916,91.0612 L258.4916,105.6702 Z M251.6336,91.9552 C251.6336,83.1072 256.3056,79.9262 262.9676,79.9262 C269.6256,79.9262 274.2976,83.1072 274.2976,91.9552 L274.2976,104.7762 C274.2976,113.6242 269.6256,116.8042 262.9676,116.8042 C256.3056,116.8042 251.6336,113.6242 251.6336,104.7762 L251.6336,91.9552 Z" id="Fill-20" fill="#1A171A"></path>
        <path d="M286.1823,96.0284 L289.7093,96.0284 C292.7463,96.0284 294.5823,94.5374 294.5823,91.0594 C294.5823,87.5794 292.7463,86.0884 289.7093,86.0884 L286.1823,86.0884 L286.1823,96.0284 Z M295.4273,116.3074 L289.4613,101.6954 L286.1823,101.6954 L286.1823,116.3074 L279.3243,116.3074 L279.3243,80.4214 L289.2653,80.4214 C297.5153,80.4214 301.4403,84.3984 301.4403,91.1574 C301.4403,95.6304 299.8513,98.8634 296.0243,100.3024 L302.7843,116.3074 L295.4273,116.3074 Z" id="Fill-21" fill="#1A171A"></path>
        <path d="M312.8859,96.0284 L316.4129,96.0284 C319.4499,96.0284 321.2859,94.5374 321.2859,91.0594 C321.2859,87.5794 319.4499,86.0884 316.4129,86.0884 L312.8859,86.0884 L312.8859,96.0284 Z M322.1309,116.3074 L316.1649,101.6954 L312.8859,101.6954 L312.8859,116.3074 L306.0279,116.3074 L306.0279,80.4214 L315.9689,80.4214 C324.2189,80.4214 328.1439,84.3984 328.1439,91.1574 C328.1439,95.6304 326.5549,98.8634 322.7279,100.3024 L329.4879,116.3074 L322.1309,116.3074 Z" id="Fill-22" fill="#1A171A"></path>
        <path d="M341.3057,102.6896 L348.1177,102.6896 L344.7867,88.1756 L344.6857,88.1756 L341.3057,102.6896 Z M331.5147,116.3066 L340.4117,80.4236 L349.2107,80.4236 L357.8557,116.3066 L351.2977,116.3066 L349.5557,108.7516 L340.0657,108.7516 L338.1247,116.3066 L331.5147,116.3066 Z" id="Fill-23" fill="#1A171A"></path>
        <polygon id="Fill-24" fill="#1A171A" points="361.143 116.308 368.001 116.308 368.001 80.422 361.143 80.422"></polygon>
        <polygon id="Fill-25" fill="#1A171A" points="373.0291 116.3074 373.0291 80.4214 380.5331 80.4214 390.0751 101.6954 390.1761 101.6954 390.1761 80.4214 396.4371 80.4214 396.4371 116.3074 389.8791 116.3074 379.3901 93.1474 379.2901 93.1474 379.2901 116.3074"></polygon>
        <polygon id="Fill-26" fill="#1A171A" points="401.2278 116.3074 401.2278 80.4214 420.0158 80.4214 420.0158 86.4864 408.0858 86.4864 408.0858 94.7364 417.1808 94.7364 417.1808 100.8014 408.0858 100.8014 408.0858 110.2454 420.5118 110.2454 420.5118 116.3074"></polygon>
        <path d="M146.5151,73.5968 C146.5151,113.7778 113.9351,146.3608 73.7511,146.3608 C33.5611,146.3608 0.9841,113.7778 0.9841,73.5968 C0.9841,33.4098 33.5611,0.8268 73.7511,0.8268 C113.9351,0.8268 146.5151,33.4098 146.5151,73.5968" id="Fill-27" fill="#1A171A"></path>
        <path d="M72.6582,94.8716 C71.0352,95.7566 69.0302,96.2276 66.6362,96.2276 C59.6652,96.2276 55.3432,93.5306 55.3432,80.0726 L55.3432,36.8516 L32.8722,36.8516 L32.8722,80.3846 C32.8722,103.4346 45.1792,116.6536 66.6362,116.6536 C73.1452,116.6536 78.0952,115.5786 82.9752,113.2006 C78.0832,108.5376 74.5712,102.3786 72.6582,94.8716" id="Fill-28" fill="#FFFFFF"></path>
        <path d="M100.7223,80.0635 L100.7223,36.8425 L78.2513,36.8425 L78.2513,80.3785 C78.2513,103.4225 90.5643,116.6445 112.0153,116.6445 L120.9213,116.6445 L120.9213,96.2215 L112.0153,96.2215 C105.0453,96.2215 100.7223,93.5215 100.7223,80.0635" id="Fill-29" fill="#FFF043"></path>
    </g>
</svg>
