<svg id="Calque_1" data-name="Calque 1" xmlns="http://www.w3.org/2000/svg" viewBox="0 0 761.12 322.23"><path d="M102.41,173.26V82.73H83.69v92.52c0,39.54,22.93,63.29,59.19,63.29H182.3l8-17.78H148.22C118.42,220.76,102.41,205.47,102.41,173.26Z"/><path d="M178.73,150.19V82.73H161.37v79.44a4.31,4.31,0,0,0,4.43,4.44H215l7.32-16.42Z"/><path d="M140.89,171.27V82.73h-18v89.21c0,19.32,11.35,30.41,31.16,30.41h44.75L206.54,185H154.91C145.78,185,140.89,180.59,140.89,171.27Z"/><path d="M381.31,81.79a5.71,5.71,0,0,0-6,6,5.85,5.85,0,0,0,6,6.07,6,6,0,0,0,0-12Z"/><path d="M340.51,189.4c-14.54,0-24.37,9.92-24.37,24.65,0,16,9.63,25.42,24.66,25.42,11.07,0,20.12-6.06,22.24-14.83H352.83c-1.73,3.85-6.06,6.65-12.13,6.65-8.28,0-13.48-4.53-14.64-13.29h37.46a27.14,27.14,0,0,0,.29-3.95C363.81,199.32,355.34,189.4,340.51,189.4Zm-14.45,20.8c1.16-7.71,6.17-12.62,14.16-12.62S354,203,354,210.2Z"/><path d="M347.89,101.05c-6.45,0-12.23,2.5-15.7,6.84V102h-9.63v48.15h9.63l.1-27.64c0-8,4.62-12.9,12.13-12.9,7.23,0,11.08,4.43,11.08,12.9v27.64h9.63V120.41C365.13,108.75,359.25,101.05,347.89,101.05Z"/><rect x="376.39" y="102.01" width="9.63" height="48.15"/><path d="M297.85,197.1c-3.47-4.43-9.63-7.7-17.05-7.7-13.58,0-23.59,10.3-23.59,25.23s9.72,24.84,23.4,24.84c7.8,0,13.77-2.4,17.24-7.6v6.64h9.63V171.1h-9.63ZM282.73,231c-9.82,0-15.41-7.22-15.41-16.37s5.68-16.37,15.41-16.37c9.15,0,15.5,7.22,15.5,16.37S292.16,231,282.73,231Z"/><path d="M510.25,110.68h17V102h-14a12.2,12.2,0,0,0-12.62,12.62v35.53h9.63Z"/><polygon points="668.95 82.75 657.59 82.75 651.23 96.72 659.9 96.72 668.95 82.75"/><path d="M301.18,124.16c0,11.56-5.1,17.62-16.27,17.62s-16.47-6.06-16.47-17.62V82.75h-10.3V124c0,18.2,9.82,27.15,26.77,27.15s26.58-9,26.58-27.15V82.75H301.18Z"/><polygon points="422.62 150.16 440.92 102.01 430.51 102.01 416.65 142.07 402.59 102.01 392.19 102.01 410.49 150.16 422.62 150.16"/><path d="M557.53,122l-11.07-1.83c-3.76-.58-5.78-2.41-5.78-5.49,0-3.85,4-6,9.53-6,6.46,0,10.12,2.89,10.5,7.71h9.34c-.48-10-7.32-15.51-19.84-15.51-11.94,0-18.49,5.78-18.49,14.16,0,8.09,5,12.23,13.2,13.58l10.21,1.63c4.62.78,6.45,3.76,6.45,6.55,0,3.86-4.05,6.16-10.69,6.16-7.22,0-10.59-3.56-11.17-7.41h-9.53c.57,9.44,8.56,15.5,20.7,15.5,12.42,0,19.93-5.29,19.93-14.82C570.82,128,566.2,123.49,557.53,122Z"/><path d="M585.36,81.79a5.71,5.71,0,0,0-6,6,5.85,5.85,0,0,0,6,6.07,6,6,0,0,0,0-12Z"/><rect x="580.45" y="102.01" width="9.63" height="48.15"/><polygon points="405.22 171.1 394.91 171.1 394.91 238.51 433.82 238.51 433.82 229.65 405.22 229.65 405.22 171.1"/><path d="M611.65,87H602v50.75c0,7.32,5.2,12.42,12.52,12.42h12V141.5H611.65V110.68h14.93V102H611.65Z"/><path d="M679,125.7c0-14.73-8.48-24.65-23.31-24.65-14.54,0-24.36,9.92-24.36,24.65,0,16,9.63,25.42,24.65,25.42,11.08,0,20.13-6.06,22.25-14.82H668c-1.73,3.85-6.07,6.64-12.13,6.64-8.29,0-13.49-4.53-14.64-13.29h37.46A28.61,28.61,0,0,0,679,125.7Zm-37.75-3.85c1.15-7.7,6.16-12.61,14.15-12.61s13.77,5.39,13.77,12.61Z"/><path d="M538.5,189.4c-14.54,0-24.37,9.92-24.37,24.65,0,16,9.63,25.42,24.65,25.42,11.08,0,20.13-6.06,22.25-14.83H550.82c-1.73,3.85-6.06,6.65-12.13,6.65-8.28,0-13.48-4.53-14.64-13.29h37.46a28.61,28.61,0,0,0,.29-3.95C561.8,199.32,553.32,189.4,538.5,189.4Zm-14.45,20.8c1.16-7.71,6.16-12.62,14.16-12.62S552,203,552,210.2Z"/><path d="M445.66,170.14a5.71,5.71,0,0,0-6,6,5.85,5.85,0,0,0,6,6.07,6,6,0,0,0,0-12Z"/><path d="M499.3,171.1h-9.63v55.08c0,7.71,4.53,12.33,12.42,12.33h9.63v-8.86H499.3Z"/><rect x="440.75" y="190.36" width="9.63" height="48.15"/><path d="M472,171.1h-9.63v55.08c0,7.71,4.53,12.33,12.43,12.33h9.63v-8.86H472Z"/><path d="M480,136.3c-1.73,3.85-6.06,6.64-12.13,6.64-8.28,0-13.48-4.53-14.64-13.29H490.7a28.61,28.61,0,0,0,.29-4c0-14.73-8.47-24.65-23.3-24.65-14.55,0-24.37,9.92-24.37,24.65,0,16,9.63,25.42,24.65,25.42,11.08,0,20.13-6.06,22.25-14.82ZM467.4,109.24c8.09,0,13.77,5.39,13.77,12.61H453.24C454.4,114.15,459.4,109.24,467.4,109.24Z"/></svg>