<?xml version="1.0" encoding="UTF-8"?>
<svg xmlns="http://www.w3.org/2000/svg" xmlns:xlink="http://www.w3.org/1999/xlink" width="135px" height="65px" viewBox="0 0 135 65" version="1.1">
<g id="surface1">
<path style=" stroke:none;fill-rule:nonzero;fill:rgb(45.490196%,70.980392%,0%);fill-opacity:1;" d="M 9.109375 26.980469 C 9.117188 27.34375 9.125 27.699219 9.125 28.050781 C 9.128906 31.011719 9.128906 33.96875 9.128906 36.929688 C 9.128906 37.21875 9.117188 37.511719 9.136719 37.800781 C 9.183594 38.476562 9.300781 39.140625 9.628906 39.746094 C 9.9375 40.316406 10.390625 40.710938 11.003906 40.9375 C 11.492188 41.113281 11.992188 41.191406 12.507812 41.207031 C 13.445312 41.230469 14.371094 41.125 15.296875 41.007812 C 15.40625 40.996094 15.511719 40.949219 15.632812 40.914062 L 15.632812 40.566406 C 15.632812 37.363281 15.632812 34.160156 15.632812 30.957031 C 15.632812 30.382812 15.640625 29.8125 15.632812 29.238281 C 15.632812 29.066406 15.683594 28.9375 15.796875 28.808594 C 16.5 28.015625 17.378906 27.5 18.375 27.171875 C 18.632812 27.082031 18.902344 27.015625 19.195312 26.933594 C 19.203125 27.054688 19.214844 27.132812 19.214844 27.214844 C 19.214844 32.523438 19.214844 37.832031 19.214844 43.136719 C 19.214844 43.40625 19.210938 43.40625 18.957031 43.46875 C 18.429688 43.589844 17.910156 43.726562 17.378906 43.824219 C 16.886719 43.917969 16.386719 43.972656 15.886719 44.027344 C 15.226562 44.101562 14.570312 44.179688 13.910156 44.210938 C 13.078125 44.246094 12.25 44.28125 11.421875 44.171875 C 10.960938 44.109375 10.496094 44.066406 10.042969 43.953125 C 8.703125 43.625 7.515625 43.042969 6.664062 41.898438 C 6.269531 41.371094 5.996094 40.785156 5.820312 40.148438 C 5.59375 39.335938 5.523438 38.511719 5.527344 37.671875 C 5.53125 34.898438 5.53125 32.128906 5.523438 29.355469 C 5.523438 29.105469 5.59375 28.917969 5.765625 28.734375 C 6.457031 27.980469 7.308594 27.496094 8.257812 27.171875 C 8.488281 27.09375 8.71875 27.03125 8.949219 26.96875 C 8.992188 26.957031 9.039062 26.972656 9.109375 26.980469 "/>
<path style=" stroke:none;fill-rule:nonzero;fill:rgb(45.490196%,70.980392%,0%);fill-opacity:1;" d="M 129.746094 15.859375 C 129.699219 15.902344 129.640625 15.976562 129.566406 16.003906 C 129.203125 16.144531 128.832031 16.261719 128.464844 16.398438 C 127.816406 16.640625 127.167969 16.890625 126.519531 17.140625 C 125.792969 17.421875 125.070312 17.707031 124.347656 17.996094 C 123.894531 18.179688 123.441406 18.375 122.988281 18.566406 C 122.851562 18.621094 122.773438 18.703125 122.761719 18.875 C 122.71875 19.613281 122.671875 20.355469 122.59375 21.089844 C 122.53125 21.667969 122.421875 22.238281 122.324219 22.808594 C 122.265625 23.160156 122.203125 23.511719 122.109375 23.855469 C 121.96875 24.378906 121.800781 24.890625 121.632812 25.40625 C 121.558594 25.625 121.46875 25.644531 121.292969 25.488281 C 120.65625 24.917969 120.019531 24.347656 119.382812 23.773438 C 118.515625 23 117.652344 22.21875 116.785156 21.449219 C 116.410156 21.117188 115.964844 21.078125 115.535156 21.273438 C 114.265625 21.84375 113.011719 22.441406 111.75 23.023438 C 110.3125 23.691406 108.871094 24.351562 107.433594 25.019531 C 107.070312 25.183594 106.707031 25.351562 106.34375 25.519531 C 106.3125 25.535156 106.28125 25.570312 106.25 25.570312 C 106.179688 25.570312 106.074219 25.574219 106.050781 25.535156 C 106.015625 25.476562 106.015625 25.367188 106.050781 25.308594 C 106.15625 25.125 106.289062 24.953125 106.414062 24.78125 C 107.835938 22.792969 109.355469 20.890625 111.027344 19.105469 C 112.203125 17.851562 113.441406 16.65625 114.769531 15.558594 C 116.179688 14.386719 117.671875 13.335938 119.269531 12.433594 C 119.992188 12.023438 120.753906 11.675781 121.503906 11.3125 C 121.808594 11.167969 121.941406 11.226562 122.046875 11.546875 C 122.148438 11.859375 122.222656 12.179688 122.296875 12.496094 C 122.453125 13.152344 122.554688 13.820312 122.617188 14.492188 C 122.632812 14.625 122.699219 14.695312 122.828125 14.707031 C 122.921875 14.71875 123.011719 14.738281 123.105469 14.738281 C 124.042969 14.734375 124.964844 14.871094 125.894531 14.957031 C 126.246094 14.988281 126.589844 15.070312 126.9375 15.128906 C 127.324219 15.195312 127.710938 15.257812 128.09375 15.335938 C 128.574219 15.433594 129.054688 15.542969 129.535156 15.65625 C 129.613281 15.675781 129.722656 15.695312 129.746094 15.859375 "/>
<path style=" stroke:none;fill-rule:nonzero;fill:rgb(13.72549%,12.156863%,12.54902%);fill-opacity:1;" d="M 76.972656 31.488281 C 76.703125 31.289062 76.496094 31.136719 76.289062 30.984375 C 75.703125 30.5625 75.070312 30.226562 74.386719 30.015625 C 73.507812 29.746094 72.597656 29.632812 71.6875 29.882812 C 71.1875 30.015625 70.78125 30.292969 70.558594 30.792969 C 70.207031 31.578125 70.425781 32.453125 71.160156 32.90625 C 71.472656 33.101562 71.808594 33.265625 72.15625 33.390625 C 72.773438 33.613281 73.414062 33.78125 74.035156 33.996094 C 74.945312 34.304688 75.8125 34.710938 76.53125 35.367188 C 77.167969 35.945312 77.574219 36.664062 77.773438 37.511719 C 77.992188 38.441406 78.027344 39.378906 77.839844 40.304688 C 77.589844 41.523438 76.949219 42.503906 75.886719 43.179688 C 75.210938 43.613281 74.480469 43.882812 73.699219 44.046875 C 72.84375 44.226562 71.980469 44.292969 71.113281 44.222656 C 70.464844 44.171875 69.820312 44.074219 69.195312 43.886719 C 68.59375 43.707031 68.023438 43.480469 67.476562 43.171875 C 67.273438 43.058594 67.199219 42.914062 67.203125 42.679688 C 67.210938 41.710938 67.207031 40.742188 67.207031 39.777344 C 67.207031 39.679688 67.226562 39.582031 67.238281 39.4375 C 67.492188 39.609375 67.707031 39.75 67.917969 39.894531 C 68.535156 40.332031 69.214844 40.660156 69.933594 40.886719 C 70.539062 41.078125 71.167969 41.160156 71.808594 41.140625 C 72.273438 41.125 72.734375 41.089844 73.183594 40.929688 C 73.855469 40.6875 74.328125 40.261719 74.4375 39.53125 C 74.554688 38.75 74.265625 38.132812 73.597656 37.710938 C 73.089844 37.394531 72.527344 37.199219 71.960938 37.027344 C 71.117188 36.777344 70.269531 36.523438 69.488281 36.109375 C 68.554688 35.617188 67.773438 34.960938 67.34375 33.953125 C 67.144531 33.488281 67.023438 33 66.984375 32.492188 C 66.945312 32.003906 66.929688 31.519531 66.980469 31.03125 C 67.09375 29.894531 67.550781 28.929688 68.367188 28.144531 C 69.054688 27.484375 69.886719 27.09375 70.804688 26.859375 C 71.644531 26.644531 72.503906 26.605469 73.359375 26.6875 C 74.535156 26.796875 75.652344 27.117188 76.679688 27.734375 C 76.886719 27.855469 76.980469 27.988281 76.976562 28.242188 C 76.960938 29.207031 76.972656 30.175781 76.972656 31.144531 C 76.972656 31.234375 76.972656 31.328125 76.972656 31.488281 "/>
<path style=" stroke:none;fill-rule:nonzero;fill:rgb(13.72549%,12.156863%,12.54902%);fill-opacity:1;" d="M 113.011719 36.421875 C 112.964844 36.128906 112.933594 35.878906 112.890625 35.632812 C 112.800781 35.152344 112.605469 34.730469 112.269531 34.367188 C 111.601562 33.648438 110.277344 33.53125 109.371094 34.046875 C 108.753906 34.398438 108.367188 34.945312 108.125 35.601562 C 108.027344 35.859375 107.902344 36.113281 107.941406 36.421875 Z M 115.722656 40.210938 C 115.730469 40.332031 115.742188 40.414062 115.742188 40.496094 C 115.742188 41.265625 115.738281 42.035156 115.746094 42.804688 C 115.75 42.996094 115.691406 43.117188 115.523438 43.214844 C 115.046875 43.492188 114.546875 43.699219 114.023438 43.867188 C 113.394531 44.066406 112.75 44.152344 112.101562 44.207031 C 111.457031 44.265625 110.804688 44.28125 110.152344 44.171875 C 109.773438 44.109375 109.394531 44.066406 109.027344 43.960938 C 107.113281 43.421875 105.734375 42.273438 105.015625 40.375 C 104.816406 39.835938 104.695312 39.285156 104.621094 38.714844 C 104.5625 38.265625 104.527344 37.816406 104.554688 37.367188 C 104.640625 35.828125 105 34.375 105.96875 33.132812 C 106.730469 32.15625 107.703125 31.5 108.890625 31.152344 C 109.847656 30.871094 110.820312 30.832031 111.796875 30.96875 C 112.964844 31.136719 114 31.597656 114.792969 32.519531 C 115.265625 33.074219 115.578125 33.714844 115.796875 34.40625 C 116.066406 35.253906 116.125 36.132812 116.140625 37.015625 C 116.148438 37.398438 116.144531 37.785156 116.140625 38.171875 C 116.140625 38.507812 116.136719 38.511719 115.792969 38.511719 C 114.867188 38.511719 113.941406 38.511719 113.019531 38.511719 C 111.414062 38.511719 109.808594 38.511719 108.203125 38.511719 C 107.835938 38.511719 107.84375 38.511719 107.925781 38.859375 C 108.167969 39.882812 108.839844 40.515625 109.761719 40.921875 C 110.4375 41.222656 111.152344 41.339844 111.886719 41.292969 C 112.949219 41.226562 113.992188 41.054688 114.953125 40.558594 C 115.140625 40.457031 115.332031 40.363281 115.523438 40.269531 C 115.570312 40.246094 115.625 40.238281 115.722656 40.210938 "/>
<path style=" stroke:none;fill-rule:nonzero;fill:rgb(45.490196%,70.980392%,0%);fill-opacity:1;" d="M 33.746094 43.925781 C 33.632812 43.9375 33.535156 43.953125 33.4375 43.953125 C 32.511719 43.953125 31.589844 43.953125 30.664062 43.953125 C 30.34375 43.953125 30.339844 43.949219 30.339844 43.621094 C 30.339844 41.261719 30.34375 38.90625 30.339844 36.546875 C 30.339844 36.265625 30.328125 35.984375 30.304688 35.703125 C 30.226562 34.867188 29.679688 34.25 28.886719 34.078125 C 28.3125 33.953125 27.746094 33.960938 27.171875 34.066406 C 26.804688 34.132812 26.4375 34.199219 26.074219 34.273438 C 25.960938 34.296875 25.851562 34.351562 25.730469 34.398438 L 25.730469 43.902344 C 25.476562 43.972656 22.628906 43.96875 22.375 43.902344 C 22.371094 43.808594 22.359375 43.707031 22.359375 43.609375 C 22.359375 39.851562 22.359375 36.09375 22.359375 32.335938 C 22.359375 32.03125 22.355469 32.015625 22.652344 31.921875 C 23.191406 31.75 23.730469 31.582031 24.277344 31.441406 C 24.835938 31.300781 25.398438 31.15625 25.96875 31.082031 C 27.03125 30.949219 28.097656 30.839844 29.171875 30.929688 C 29.855469 30.988281 30.519531 31.089844 31.160156 31.339844 C 32.261719 31.769531 33.015625 32.53125 33.410156 33.664062 C 33.671875 34.421875 33.753906 35.203125 33.757812 35.988281 C 33.773438 38.542969 33.761719 41.097656 33.761719 43.652344 C 33.761719 43.734375 33.753906 43.816406 33.746094 43.925781 "/>
<path style=" stroke:none;fill-rule:nonzero;fill:rgb(13.72549%,12.156863%,12.54902%);fill-opacity:1;" d="M 86.320312 38.574219 C 85.859375 38.574219 85.453125 38.570312 85.042969 38.574219 C 84.585938 38.574219 84.132812 38.628906 83.699219 38.78125 C 83.351562 38.902344 83.050781 39.085938 82.859375 39.425781 C 82.703125 39.703125 82.675781 39.992188 82.699219 40.292969 C 82.734375 40.730469 82.9375 41.070312 83.300781 41.3125 C 83.703125 41.582031 84.164062 41.644531 84.625 41.6875 C 85.070312 41.730469 85.515625 41.6875 85.960938 41.613281 C 86.3125 41.554688 86.316406 41.578125 86.316406 41.230469 C 86.320312 40.449219 86.320312 39.671875 86.320312 38.894531 C 86.320312 38.800781 86.320312 38.710938 86.320312 38.574219 M 86.304688 36.332031 C 86.316406 35.839844 86.378906 35.367188 86.199219 34.921875 C 86 34.425781 85.597656 34.148438 85.109375 33.992188 C 84.460938 33.789062 83.792969 33.828125 83.140625 33.90625 C 82.304688 34.007812 81.519531 34.300781 80.777344 34.699219 C 80.738281 34.722656 80.703125 34.753906 80.660156 34.773438 C 80.613281 34.796875 80.558594 34.816406 80.488281 34.847656 C 80.46875 34.785156 80.4375 34.726562 80.4375 34.667969 C 80.433594 33.824219 80.433594 32.976562 80.433594 32.132812 C 80.433594 31.988281 80.488281 31.902344 80.625 31.828125 C 81.210938 31.515625 81.828125 31.300781 82.476562 31.148438 C 83.578125 30.886719 84.691406 30.828125 85.808594 30.964844 C 86.804688 31.089844 87.742188 31.390625 88.496094 32.121094 C 89.027344 32.640625 89.34375 33.269531 89.511719 33.984375 C 89.648438 34.582031 89.6875 35.1875 89.6875 35.800781 C 89.679688 38.300781 89.683594 40.800781 89.683594 43.296875 C 89.683594 43.375 89.679688 43.449219 89.683594 43.523438 C 89.6875 43.664062 89.617188 43.722656 89.484375 43.742188 C 88.792969 43.84375 88.105469 43.972656 87.414062 44.050781 C 86.683594 44.132812 85.949219 44.199219 85.210938 44.214844 C 84.589844 44.230469 83.960938 44.191406 83.34375 44.117188 C 82.492188 44.011719 81.664062 43.800781 80.917969 43.34375 C 80.261719 42.941406 79.769531 42.390625 79.519531 41.660156 C 79.277344 40.953125 79.25 40.226562 79.382812 39.492188 C 79.519531 38.734375 79.867188 38.101562 80.445312 37.605469 C 80.945312 37.175781 81.53125 36.902344 82.164062 36.714844 C 83.136719 36.425781 84.140625 36.375 85.148438 36.359375 C 85.464844 36.355469 85.785156 36.359375 86.101562 36.355469 C 86.15625 36.355469 86.210938 36.34375 86.304688 36.332031 "/>
<path style=" stroke:none;fill-rule:nonzero;fill:rgb(13.72549%,12.156863%,12.54902%);fill-opacity:1;" d="M 61.722656 38.589844 C 61.664062 38.582031 61.628906 38.570312 61.59375 38.570312 C 60.960938 38.585938 60.328125 38.535156 59.695312 38.644531 C 59.371094 38.703125 59.0625 38.78125 58.777344 38.941406 C 58.125 39.3125 58.011719 39.953125 58.203125 40.648438 C 58.320312 41.074219 58.648438 41.332031 59.046875 41.476562 C 59.253906 41.554688 59.480469 41.574219 59.695312 41.628906 C 60.128906 41.75 60.566406 41.703125 61.003906 41.671875 C 61.238281 41.65625 61.472656 41.59375 61.722656 41.550781 Z M 61.742188 36.359375 C 61.714844 35.878906 61.796875 35.449219 61.65625 35.023438 C 61.511719 34.585938 61.214844 34.296875 60.8125 34.105469 C 60.511719 33.960938 60.183594 33.890625 59.847656 33.871094 C 59.21875 33.835938 58.59375 33.863281 57.984375 34.007812 C 57.445312 34.136719 56.921875 34.328125 56.421875 34.589844 C 56.261719 34.671875 56.097656 34.757812 55.902344 34.863281 C 55.882812 34.765625 55.855469 34.699219 55.855469 34.632812 C 55.855469 33.804688 55.855469 32.980469 55.855469 32.152344 C 55.855469 32 55.902344 31.90625 56.054688 31.824219 C 56.640625 31.515625 57.257812 31.300781 57.902344 31.148438 C 59.003906 30.886719 60.117188 30.832031 61.234375 30.964844 C 62.078125 31.066406 62.886719 31.308594 63.585938 31.835938 C 64.132812 32.25 64.515625 32.785156 64.765625 33.429688 C 65.039062 34.132812 65.101562 34.871094 65.105469 35.609375 C 65.121094 38.183594 65.113281 40.757812 65.113281 43.332031 C 65.113281 43.398438 65.113281 43.464844 65.105469 43.527344 C 65.09375 43.65625 65.027344 43.726562 64.894531 43.746094 C 64.203125 43.84375 63.515625 43.972656 62.824219 44.054688 C 61.925781 44.164062 61.023438 44.257812 60.121094 44.222656 C 59.21875 44.183594 58.3125 44.117188 57.445312 43.839844 C 56.65625 43.585938 55.945312 43.195312 55.417969 42.527344 C 55.035156 42.042969 54.832031 41.484375 54.765625 40.882812 C 54.695312 40.257812 54.726562 39.636719 54.929688 39.023438 C 55.167969 38.296875 55.613281 37.742188 56.230469 37.328125 C 56.753906 36.980469 57.339844 36.769531 57.949219 36.621094 C 58.875 36.402344 59.8125 36.367188 60.753906 36.359375 C 61.066406 36.355469 61.382812 36.359375 61.742188 36.359375 "/>
<path style=" stroke:none;fill-rule:nonzero;fill:rgb(13.72549%,12.156863%,12.54902%);fill-opacity:1;" d="M 43.296875 43.941406 C 43.296875 43.808594 43.296875 43.707031 43.296875 43.601562 C 43.296875 38.832031 43.296875 34.058594 43.292969 29.289062 C 43.292969 29.066406 43.351562 28.902344 43.5 28.742188 C 44.199219 27.980469 45.058594 27.488281 46.023438 27.167969 C 46.230469 27.097656 46.445312 27.035156 46.65625 26.972656 C 46.789062 26.933594 46.851562 26.976562 46.863281 27.113281 C 46.871094 27.1875 46.867188 27.261719 46.867188 27.339844 C 46.871094 31.6875 46.875 36.035156 46.878906 40.382812 C 46.878906 40.503906 46.878906 40.621094 46.878906 40.785156 C 49.066406 40.789062 51.21875 40.78125 53.359375 40.785156 C 53.441406 41.046875 53.445312 43.660156 53.375 43.941406 Z M 43.296875 43.941406 "/>
<path style=" stroke:none;fill-rule:nonzero;fill:rgb(13.72549%,12.156863%,12.54902%);fill-opacity:1;" d="M 102.382812 27.242188 L 102.382812 43.90625 C 102.15625 43.96875 99.347656 43.980469 99.023438 43.921875 C 99.019531 43.835938 99.011719 43.746094 99.011719 43.652344 C 99.007812 38.910156 99.007812 34.167969 99.003906 29.421875 C 99.003906 29.242188 99.050781 29.105469 99.171875 28.96875 C 99.695312 28.375 100.324219 27.945312 101.046875 27.644531 C 101.386719 27.5 101.746094 27.394531 102.097656 27.28125 C 102.179688 27.253906 102.273438 27.253906 102.382812 27.242188 "/>
<path style=" stroke:none;fill-rule:nonzero;fill:rgb(13.72549%,12.156863%,12.54902%);fill-opacity:1;" d="M 95.90625 43.9375 L 92.53125 43.9375 C 92.527344 43.828125 92.515625 43.738281 92.515625 43.644531 C 92.511719 38.902344 92.511719 34.160156 92.507812 29.417969 C 92.507812 29.234375 92.570312 29.105469 92.6875 28.96875 C 93.25 28.324219 93.953125 27.882812 94.734375 27.566406 C 95.09375 27.421875 95.464844 27.292969 95.828125 27.238281 C 95.859375 27.253906 95.867188 27.257812 95.875 27.265625 C 95.882812 27.269531 95.890625 27.277344 95.890625 27.289062 C 95.894531 27.351562 95.90625 27.417969 95.90625 27.480469 C 95.90625 32.957031 95.90625 38.429688 95.90625 43.9375 "/>
<path style=" stroke:none;fill-rule:nonzero;fill:rgb(45.490196%,70.980392%,0%);fill-opacity:1;" d="M 39.984375 31.246094 C 40.046875 31.589844 40.035156 43.714844 39.976562 43.9375 L 36.691406 43.9375 C 36.683594 43.835938 36.667969 43.746094 36.667969 43.65625 C 36.667969 40.246094 36.671875 36.835938 36.664062 33.425781 C 36.664062 33.222656 36.726562 33.070312 36.863281 32.925781 C 37.4375 32.308594 38.128906 31.867188 38.90625 31.5625 C 39.25 31.429688 39.601562 31.3125 39.984375 31.246094 "/>
<path style=" stroke:none;fill-rule:nonzero;fill:rgb(45.490196%,70.980392%,0%);fill-opacity:1;" d="M 38.320312 29.332031 C 37.171875 29.355469 36.277344 28.359375 36.316406 27.265625 C 36.363281 26.046875 37.234375 25.210938 38.367188 25.226562 C 39.511719 25.238281 40.375 26.125 40.375 27.339844 C 40.375 28.421875 39.445312 29.378906 38.320312 29.332031 "/>
<path style=" stroke:none;fill-rule:nonzero;fill:rgb(45.490196%,70.980392%,0%);fill-opacity:1;" d="M 114.09375 15.3125 C 114.015625 15.371094 113.941406 15.4375 113.859375 15.492188 C 112.648438 16.308594 111.511719 17.222656 110.421875 18.195312 C 110.246094 18.359375 110.105469 18.398438 109.859375 18.296875 C 109.214844 18.023438 108.542969 17.804688 107.882812 17.566406 C 107.515625 17.4375 107.144531 17.3125 106.777344 17.195312 C 106.6875 17.167969 106.601562 17.132812 106.617188 17.039062 C 106.625 16.984375 106.699219 16.917969 106.757812 16.898438 C 107.058594 16.796875 107.359375 16.703125 107.664062 16.621094 C 108.261719 16.457031 108.859375 16.289062 109.460938 16.144531 C 109.976562 16.019531 110.5 15.929688 111.015625 15.824219 C 111.390625 15.75 111.761719 15.664062 112.132812 15.59375 C 112.464844 15.535156 112.796875 15.488281 113.125 15.433594 C 113.433594 15.378906 113.746094 15.324219 114.054688 15.269531 C 114.066406 15.28125 114.082031 15.296875 114.09375 15.3125 "/>
<path style=" stroke:none;fill-rule:nonzero;fill:rgb(13.72549%,12.156863%,12.54902%);fill-opacity:1;" d="M 36.515625 53.71875 L 36.515625 49.109375 L 36.4375 48.046875 L 37.5625 47.957031 L 37.5625 53.71875 Z M 36.515625 53.71875 "/>
<path style=" stroke:none;fill-rule:nonzero;fill:rgb(13.72549%,12.156863%,12.54902%);fill-opacity:1;" d="M 38.828125 53.71875 L 38.828125 50.421875 L 38.75 49.355469 L 39.867188 49.265625 L 39.867188 50.007812 C 40.191406 49.539062 40.703125 49.265625 41.273438 49.265625 C 42.035156 49.265625 42.433594 49.828125 42.433594 50.628906 L 42.433594 53.71875 L 41.394531 53.71875 L 41.394531 50.882812 C 41.394531 50.296875 41.160156 50.007812 40.726562 50.007812 C 40.433594 50.007812 40.128906 50.148438 39.867188 50.410156 L 39.867188 53.71875 Z M 38.828125 53.71875 "/>
<path style=" stroke:none;fill-rule:nonzero;fill:rgb(13.72549%,12.156863%,12.54902%);fill-opacity:1;" d="M 44.621094 53.808594 C 44.125 53.808594 43.554688 53.695312 43.179688 53.535156 L 43.25 52.679688 C 43.597656 52.898438 44.152344 53.074219 44.609375 53.074219 C 45.097656 53.074219 45.332031 52.855469 45.332031 52.558594 C 45.332031 52.148438 44.855469 52 44.316406 51.738281 C 43.777344 51.484375 43.292969 51.171875 43.292969 50.535156 C 43.292969 49.773438 44.003906 49.265625 45.042969 49.265625 C 45.476562 49.265625 45.902344 49.355469 46.25 49.503906 L 46.179688 50.351562 C 45.832031 50.148438 45.390625 49.992188 45.011719 49.992188 C 44.585938 49.992188 44.324219 50.21875 44.324219 50.523438 C 44.324219 50.898438 44.765625 51.09375 45.183594 51.285156 C 45.746094 51.546875 46.355469 51.871094 46.355469 52.566406 C 46.355469 53.292969 45.730469 53.808594 44.621094 53.808594 "/>
<path style=" stroke:none;fill-rule:nonzero;fill:rgb(13.72549%,12.156863%,12.54902%);fill-opacity:1;" d="M 48.285156 49.941406 L 48.285156 52.15625 C 48.285156 52.59375 48.375 53.039062 48.9375 53.039062 C 49.222656 53.039062 49.535156 52.925781 49.699219 52.820312 L 49.71875 53.546875 C 49.507812 53.667969 49.066406 53.808594 48.589844 53.808594 C 47.730469 53.808594 47.246094 53.386719 47.246094 52.367188 L 47.246094 49.921875 L 46.769531 49.90625 L 46.769531 49.609375 L 47.332031 49.503906 L 47.515625 48.308594 L 48.285156 48.253906 L 48.285156 49.503906 L 49.683594 49.503906 L 49.640625 49.976562 Z M 48.285156 49.941406 "/>
<path style=" stroke:none;fill-rule:nonzero;fill:rgb(13.72549%,12.156863%,12.54902%);fill-opacity:1;" d="M 50.445312 53.71875 L 50.445312 50.429688 L 50.367188 49.355469 L 51.484375 49.265625 L 51.484375 53.71875 Z M 50.929688 48.542969 C 50.59375 48.542969 50.359375 48.34375 50.359375 48.019531 C 50.359375 47.660156 50.636719 47.382812 51.035156 47.382812 C 51.363281 47.382812 51.597656 47.574219 51.597656 47.914062 C 51.597656 48.296875 51.304688 48.542969 50.929688 48.542969 "/>
<path style=" stroke:none;fill-rule:nonzero;fill:rgb(13.72549%,12.156863%,12.54902%);fill-opacity:1;" d="M 53.707031 49.941406 L 53.707031 52.15625 C 53.707031 52.59375 53.792969 53.039062 54.355469 53.039062 C 54.640625 53.039062 54.953125 52.925781 55.117188 52.820312 L 55.136719 53.546875 C 54.929688 53.667969 54.484375 53.808594 54.007812 53.808594 C 53.152344 53.808594 52.664062 53.386719 52.664062 52.367188 L 52.664062 49.921875 L 52.1875 49.90625 L 52.1875 49.609375 L 52.75 49.503906 L 52.933594 48.308594 L 53.707031 48.253906 L 53.707031 49.503906 L 55.101562 49.503906 L 55.058594 49.976562 Z M 53.707031 49.941406 "/>
<path style=" stroke:none;fill-rule:nonzero;fill:rgb(13.72549%,12.156863%,12.54902%);fill-opacity:1;" d="M 55.792969 49.355469 L 56.835938 49.265625 L 56.835938 52.332031 C 56.835938 52.917969 57.078125 53.203125 57.46875 53.203125 C 57.710938 53.203125 58.015625 53.074219 58.265625 52.839844 L 58.265625 49.355469 L 59.304688 49.265625 L 59.304688 52.59375 C 59.304688 52.953125 59.347656 53.371094 59.496094 53.71875 L 58.507812 53.808594 C 58.402344 53.625 58.300781 53.308594 58.273438 53.058594 C 57.960938 53.492188 57.460938 53.808594 56.90625 53.808594 C 56.160156 53.808594 55.792969 53.230469 55.792969 52.480469 Z M 55.792969 49.355469 "/>
<path style=" stroke:none;fill-rule:nonzero;fill:rgb(13.72549%,12.156863%,12.54902%);fill-opacity:1;" d="M 61.613281 49.941406 L 61.613281 52.15625 C 61.613281 52.59375 61.699219 53.039062 62.261719 53.039062 C 62.546875 53.039062 62.859375 52.925781 63.023438 52.820312 L 63.042969 53.546875 C 62.835938 53.667969 62.390625 53.808594 61.914062 53.808594 C 61.058594 53.808594 60.570312 53.386719 60.570312 52.367188 L 60.570312 49.921875 L 60.09375 49.90625 L 60.09375 49.609375 L 60.660156 49.503906 L 60.839844 48.308594 L 61.613281 48.253906 L 61.613281 49.503906 L 63.007812 49.503906 L 62.964844 49.976562 Z M 61.613281 49.941406 "/>
<path style=" stroke:none;fill-rule:nonzero;fill:rgb(13.72549%,12.156863%,12.54902%);fill-opacity:1;" d="M 66.578125 48.65625 L 66.578125 51.308594 L 67.054688 51.308594 C 67.863281 51.308594 68.210938 50.742188 68.210938 49.964844 C 68.210938 49.207031 67.871094 48.65625 67.03125 48.65625 Z M 65.53125 53.71875 L 65.53125 49.109375 L 65.453125 48.046875 L 67.152344 48.046875 C 68.519531 48.046875 69.292969 48.8125 69.292969 49.957031 C 69.292969 51.207031 68.375 51.921875 67.066406 51.921875 L 66.578125 51.921875 L 66.578125 53.71875 Z M 65.53125 53.71875 "/>
<path style=" stroke:none;fill-rule:nonzero;fill:rgb(13.72549%,12.156863%,12.54902%);fill-opacity:1;" d="M 71.574219 53.222656 C 72.117188 53.222656 72.535156 52.714844 72.535156 51.484375 C 72.535156 50.375 72.214844 49.851562 71.640625 49.851562 C 71.070312 49.851562 70.664062 50.359375 70.664062 51.589844 C 70.664062 52.585938 70.972656 53.222656 71.574219 53.222656 M 71.503906 53.808594 C 70.394531 53.808594 69.585938 53.058594 69.585938 51.625 C 69.585938 50.019531 70.59375 49.265625 71.695312 49.265625 C 72.804688 49.265625 73.609375 50.027344 73.609375 51.457031 C 73.609375 53.058594 72.605469 53.808594 71.503906 53.808594 "/>
<path style=" stroke:none;fill-rule:nonzero;fill:rgb(13.72549%,12.156863%,12.54902%);fill-opacity:1;" d="M 74.382812 53.71875 L 74.382812 48.804688 L 74.304688 47.738281 L 75.421875 47.652344 L 75.421875 53.71875 Z M 74.382812 53.71875 "/>
<path style=" stroke:none;fill-rule:nonzero;fill:rgb(13.72549%,12.156863%,12.54902%);fill-opacity:1;" d="M 75.515625 55.328125 L 75.515625 54.523438 C 75.820312 54.601562 76.269531 54.664062 76.574219 54.664062 C 77.269531 54.664062 77.925781 54.296875 78.144531 53.617188 L 77.257812 53.617188 L 76.105469 49.347656 L 77.183594 49.265625 L 78.117188 53.089844 L 78.136719 53.089844 L 79.011719 49.265625 L 79.980469 49.347656 C 79.695312 50.683594 79.167969 52.558594 78.75 53.730469 C 78.28125 55.03125 77.589844 55.421875 76.394531 55.421875 C 76.027344 55.421875 75.777344 55.386719 75.515625 55.328125 "/>
<path style=" stroke:none;fill-rule:nonzero;fill:rgb(13.72549%,12.156863%,12.54902%);fill-opacity:1;" d="M 81.800781 49.941406 L 81.800781 52.15625 C 81.800781 52.59375 81.890625 53.039062 82.453125 53.039062 C 82.738281 53.039062 83.050781 52.925781 83.214844 52.820312 L 83.234375 53.546875 C 83.023438 53.667969 82.582031 53.808594 82.105469 53.808594 C 81.246094 53.808594 80.761719 53.386719 80.761719 52.367188 L 80.761719 49.921875 L 80.285156 49.90625 L 80.285156 49.609375 L 80.847656 49.503906 L 81.03125 48.308594 L 81.800781 48.253906 L 81.800781 49.503906 L 83.199219 49.503906 L 83.15625 49.976562 Z M 81.800781 49.941406 "/>
<path style=" stroke:none;fill-rule:nonzero;fill:rgb(13.72549%,12.156863%,12.54902%);fill-opacity:1;" d="M 84.742188 51.285156 L 86.320312 51.222656 C 86.328125 51.09375 86.335938 50.96875 86.335938 50.847656 C 86.335938 50.21875 86.085938 49.835938 85.632812 49.835938 C 85.097656 49.835938 84.742188 50.410156 84.742188 51.285156 M 85.824219 53.808594 C 84.542969 53.808594 83.667969 53.046875 83.667969 51.589844 C 83.667969 50.125 84.550781 49.265625 85.667969 49.265625 C 86.675781 49.265625 87.34375 49.929688 87.34375 50.898438 C 87.34375 51.074219 87.324219 51.277344 87.300781 51.46875 L 87.210938 51.617188 L 84.75 51.617188 C 84.8125 52.578125 85.242188 53.046875 86.09375 53.046875 C 86.492188 53.046875 86.882812 52.933594 87.152344 52.804688 L 87.132812 53.546875 C 86.855469 53.683594 86.335938 53.808594 85.824219 53.808594 "/>
<path style=" stroke:none;fill-rule:nonzero;fill:rgb(13.72549%,12.156863%,12.54902%);fill-opacity:1;" d="M 91.128906 50.386719 C 90.898438 50.183594 90.558594 50.007812 90.167969 50.007812 C 89.5625 50.007812 89.042969 50.480469 89.042969 51.546875 C 89.042969 52.480469 89.441406 53.046875 90.230469 53.046875 C 90.585938 53.046875 90.929688 52.933594 91.199219 52.804688 L 91.183594 53.546875 C 90.941406 53.683594 90.507812 53.808594 90.03125 53.808594 C 88.851562 53.808594 87.964844 53.039062 87.964844 51.589844 C 87.964844 50.007812 88.980469 49.265625 90.132812 49.265625 C 90.566406 49.265625 90.929688 49.363281 91.226562 49.519531 Z M 91.128906 50.386719 "/>
<path style=" stroke:none;fill-rule:nonzero;fill:rgb(13.72549%,12.156863%,12.54902%);fill-opacity:1;" d="M 91.996094 53.71875 L 91.996094 48.804688 L 91.917969 47.738281 L 93.039062 47.652344 L 93.039062 50.019531 C 93.359375 49.539062 93.871094 49.265625 94.425781 49.265625 C 95.207031 49.265625 95.605469 49.828125 95.605469 50.628906 L 95.605469 53.71875 L 94.5625 53.71875 L 94.5625 50.882812 C 94.5625 50.296875 94.328125 50.007812 93.894531 50.007812 C 93.601562 50.007812 93.296875 50.148438 93.039062 50.410156 L 93.039062 53.71875 Z M 91.996094 53.71875 "/>
<path style=" stroke:none;fill-rule:nonzero;fill:rgb(13.72549%,12.156863%,12.54902%);fill-opacity:1;" d="M 96.703125 53.71875 L 96.703125 50.421875 L 96.625 49.355469 L 97.746094 49.265625 L 97.746094 50.007812 C 98.066406 49.539062 98.578125 49.265625 99.148438 49.265625 C 99.914062 49.265625 100.3125 49.828125 100.3125 50.628906 L 100.3125 53.71875 L 99.269531 53.71875 L 99.269531 50.882812 C 99.269531 50.296875 99.035156 50.007812 98.605469 50.007812 C 98.308594 50.007812 98.003906 50.148438 97.746094 50.410156 L 97.746094 53.71875 Z M 96.703125 53.71875 "/>
<path style=" stroke:none;fill-rule:nonzero;fill:rgb(13.72549%,12.156863%,12.54902%);fill-opacity:1;" d="M 101.414062 53.71875 L 101.414062 50.429688 L 101.335938 49.355469 L 102.453125 49.265625 L 102.453125 53.71875 Z M 101.898438 48.542969 C 101.558594 48.542969 101.324219 48.34375 101.324219 48.019531 C 101.324219 47.660156 101.601562 47.382812 102 47.382812 C 102.332031 47.382812 102.566406 47.574219 102.566406 47.914062 C 102.566406 48.296875 102.269531 48.542969 101.898438 48.542969 "/>
<path style=" stroke:none;fill-rule:nonzero;fill:rgb(13.72549%,12.156863%,12.54902%);fill-opacity:1;" d="M 105.332031 53.195312 C 105.597656 53.207031 105.851562 53.082031 106.03125 52.875 L 106.03125 49.921875 C 105.902344 49.886719 105.746094 49.851562 105.574219 49.851562 C 104.855469 49.851562 104.378906 50.375 104.378906 51.675781 C 104.378906 52.566406 104.6875 53.195312 105.332031 53.195312 M 106.03125 55.40625 L 106.03125 53.207031 C 105.753906 53.570312 105.3125 53.808594 104.828125 53.808594 C 103.933594 53.808594 103.300781 53.023438 103.300781 51.703125 C 103.300781 50.121094 104.210938 49.269531 105.503906 49.269531 C 105.730469 49.269531 105.980469 49.300781 106.1875 49.335938 L 107.074219 49.269531 L 107.074219 54.113281 C 107.074219 54.539062 107.097656 54.90625 107.160156 55.316406 Z M 106.03125 55.40625 "/>
<path style=" stroke:none;fill-rule:nonzero;fill:rgb(13.72549%,12.156863%,12.54902%);fill-opacity:1;" d="M 108.164062 49.355469 L 109.207031 49.265625 L 109.207031 52.332031 C 109.207031 52.917969 109.449219 53.203125 109.839844 53.203125 C 110.082031 53.203125 110.386719 53.074219 110.636719 52.839844 L 110.636719 49.355469 L 111.675781 49.265625 L 111.675781 52.59375 C 111.675781 52.953125 111.71875 53.371094 111.867188 53.71875 L 110.878906 53.808594 C 110.773438 53.625 110.671875 53.308594 110.644531 53.058594 C 110.332031 53.492188 109.832031 53.808594 109.273438 53.808594 C 108.53125 53.808594 108.164062 53.230469 108.164062 52.480469 Z M 108.164062 49.355469 "/>
<path style=" stroke:none;fill-rule:nonzero;fill:rgb(13.72549%,12.156863%,12.54902%);fill-opacity:1;" d="M 113.644531 51.285156 L 115.222656 51.222656 C 115.230469 51.09375 115.238281 50.96875 115.238281 50.847656 C 115.238281 50.21875 114.988281 49.835938 114.539062 49.835938 C 114 49.835938 113.644531 50.410156 113.644531 51.285156 M 114.726562 53.808594 C 113.445312 53.808594 112.570312 53.046875 112.570312 51.589844 C 112.570312 50.125 113.453125 49.265625 114.570312 49.265625 C 115.578125 49.265625 116.246094 49.929688 116.246094 50.898438 C 116.246094 51.074219 116.226562 51.277344 116.203125 51.46875 L 116.117188 51.617188 L 113.652344 51.617188 C 113.714844 52.578125 114.148438 53.046875 114.996094 53.046875 C 115.394531 53.046875 115.785156 52.933594 116.054688 52.804688 L 116.039062 53.546875 C 115.761719 53.683594 115.238281 53.808594 114.726562 53.808594 "/>
</g>
</svg>
