<?xml version="1.0" encoding="utf-8"?>
<!-- Generator: Adobe Illustrator 21.1.0, SVG Export Plug-In . SVG Version: 6.00 Build 0)  -->
<svg version="1.1" id="Layer_1" xmlns="http://www.w3.org/2000/svg" xmlns:xlink="http://www.w3.org/1999/xlink" x="0px" y="0px"
	 viewBox="0 0 190 66.7" style="enable-background:new 0 0 190 66.7;" xml:space="preserve">
<style type="text/css">
	.st0{fill:#62003C;}
</style>
<title>logo</title>
<desc>Created with Sketch.</desc>
<g>
	<g>
		<path class="st0" d="M184.6,0c-3,0-5.4,2.4-5.4,5.4s2.4,5.4,5.4,5.4c3,0,5.4-2.4,5.4-5.4S187.6,0,184.6,0"/>
	</g>
	<g>
		<path class="st0" d="M173.1,18.8c1.8,0,3.3-1.5,3.3-3.3c0-1.8-1.5-3.3-3.3-3.3c-1.8,0-3.3,1.5-3.3,3.3
			C169.7,17.3,171.2,18.8,173.1,18.8"/>
	</g>
</g>
<rect x="48.4" y="24.4" class="st0" width="3.6" height="20.1"/>
<g>
	<path class="st0" d="M82.8,33.1c0.5-3.5,2.9-5.9,5.9-5.9c3.8,0,5.5,3,5.8,5.9H82.8z M88.8,24c-5.5,0-9.7,4.5-9.7,10.5
		S83.5,45,89.2,45c3.4,0,5.9-1.2,8.2-3.8l0.2-0.3l-2.3-2.1l-0.2,0.2c-1.7,1.8-3.6,2.6-5.9,2.6c-3.4,0-6-2.3-6.5-5.9h15.3l0-0.3
		c0-0.4,0-0.7,0-0.9C98.2,28.3,94.5,24,88.8,24"/>
	<path class="st0" d="M14.1,44.5h3.5V24.4h-3.5v11.5c0,3.4-2.3,5.7-5.5,5.7c-3.2,0-5-2.1-5-5.5V24.4H0v12.4c0,4.9,3.1,8.1,7.8,8.1
		c2.6,0,4.7-1,6.3-3.1L14.1,44.5L14.1,44.5z"/>
	<path class="st0" d="M38.3,32.8v11.7h3.6V32.1c0-4.9-3.1-8.1-7.8-8.1c-2.6,0-4.8,1-6.3,3v-2.6h-3.6v20.1h3.6V33.1
		c0-3.4,2.3-5.7,5.5-5.7C36.4,27.3,38.3,29.4,38.3,32.8"/>
</g>
<polygon class="st0" points="68.3,44.7 77.1,24.4 73.2,24.4 66.9,40 60.6,24.4 56.6,24.4 65.3,44.7 "/>
<g>
	<g>
		<path class="st0" d="M107,36.4c0-5.2,2.9-8.6,7.4-8.6h0.6v-3.8l-0.3,0c-3.1-0.1-5.9,1.5-7.6,4.4v-4h-3.6v20.1h3.6L107,36.4
			L107,36.4z"/>
	</g>
	<g>
		<path class="st0" d="M156.5,44.9c1.4,0,2.5-0.3,3.7-0.9l0.2-0.1v-3.2l-0.5,0.2c-1,0.5-1.7,0.6-2.7,0.6c-2,0-2.9-0.9-2.9-2.9v-11
			h6.2v-3.2h-6.2v-6.6l-3.6,2v4.7h-3.8v3.2h3.8V39C150.7,42.8,152.8,44.9,156.5,44.9"/>
	</g>
	<g>
		<path class="st0" d="M173.2,27.1c3.8,0,5.5,3,5.8,5.9h-11.7C167.8,29.6,170.2,27.1,173.2,27.1 M173.7,45c3.4,0,5.9-1.2,8.2-3.8
			l0.2-0.3l-2.3-2.1l-0.2,0.2c-1.7,1.8-3.6,2.6-5.9,2.6c-3.4,0-6-2.4-6.5-5.9h15.3l0-0.3c0-0.4,0-0.7,0-0.9c0-6.4-3.8-10.6-9.4-10.6
			c-5.5,0-9.7,4.5-9.7,10.5C163.6,40.5,167.9,45,173.7,45"/>
	</g>
	<g>
		<path class="st0" d="M126.9,32.8L126.9,32.8c-2.5-0.8-4.8-1.4-4.8-3.1c0-1.5,1.4-2.5,3.4-2.5c1.8,0,3.7,0.6,5.6,1.8l0.3,0.2
			l1.7-2.8l-0.3-0.2c-2.1-1.4-4.8-2.2-7.2-2.2c-4.1,0-7,2.4-7,5.9v0.1c0,3.9,3.9,5,6.7,5.8c2.6,0.7,4.6,1.4,4.6,3.2
			c0,1.6-1.5,2.7-3.7,2.7c-2.2,0-4.4-0.8-6.5-2.4l-0.3-0.2l-1.9,2.6l0.2,0.2c2.2,1.8,5.4,2.9,8.3,2.9c4.3,0,7.2-2.5,7.2-6.2v-0.1
			C133.4,34.7,129.5,33.5,126.9,32.8"/>
	</g>
</g>
<rect x="139.1" y="24.4" class="st0" width="3.6" height="20.1"/>
<path class="st0" d="M19.5,60l2-5l2,5C23.6,60,19.5,60,19.5,60z M20,51l-6.6,15.4h3.4l1.4-3.4h6.5l1.4,3.4h3.5L23.1,51
	C23.1,51,20,51,20,51z"/>
<path class="st0" d="M157.4,60l2-5l2,5C161.5,60,157.4,60,157.4,60z M157.9,51l-6.6,15.4h3.4l1.4-3.4h6.5l1.4,3.4h3.5L161,51
	C161,51,157.9,51,157.9,51z"/>
<polygon class="st0" points="175.2,57.3 171.5,51.1 167.6,51.1 173.5,60.4 173.5,66.4 176.9,66.4 176.9,60.3 182.7,51.1 178.9,51.1 
	"/>
<g>
	<g>
		<path class="st0" d="M8.8,56.5c0,1.3-1,2.3-2.7,2.3H3.5v-4.7h2.6C7.7,54.2,8.8,55,8.8,56.5L8.8,56.5L8.8,56.5z M6.3,51.1H0.1v15.3
			h3.4v-4.6H6c3.4,0,6.2-1.8,6.2-5.4v0C12.2,53.3,10,51.1,6.3,51.1"/>
	</g>
	<g>
		<path class="st0" d="M127,63.6c-2.6,0-4.4-2.2-4.4-4.8v0c0-2.6,1.9-4.8,4.4-4.8c1.5,0,2.7,0.7,3.9,1.7l2.1-2.5
			c-1.4-1.4-3.1-2.4-6-2.4c-4.7,0-8,3.6-8,7.9v0c0,4.4,3.3,7.9,7.9,7.9c3,0,4.7-1.1,6.3-2.7l-2.1-2.2
			C129.8,62.9,128.7,63.6,127,63.6"/>
	</g>
	<g>
		<path class="st0" d="M92.6,57.3c-2.7-0.7-3.3-1-3.3-2v0c0-0.7,0.7-1.3,2-1.3c1.3,0,2.6,0.6,4,1.5l1.8-2.5c-1.5-1.2-3.5-2-5.7-2
			c-3.1,0-5.4,1.8-5.4,4.6v0c0,3,2,3.9,5.1,4.7c2.6,0.7,3.1,1.1,3.1,1.9v0c0,0.9-0.8,1.4-2.2,1.4c-1.8,0-3.2-0.7-4.6-1.9l-2,2.4
			c1.8,1.6,4.2,2.4,6.5,2.4c3.3,0,5.6-1.7,5.6-4.7v-0.1C97.5,59.2,95.7,58.1,92.6,57.3"/>
	</g>
</g>
<polygon class="st0" points="140.8,51.1 137.5,51.1 137.5,66.4 148.5,66.4 148.5,63.4 140.8,63.4 "/>
<path class="st0" d="M106.5,60l2-5l2,5C110.5,60,106.5,60,106.5,60z M107,51l-6.6,15.4h3.4l1.4-3.4h6.5l1.4,3.4h3.5L110.1,51
	C110.1,51,107,51,107,51z"/>
<rect x="75.1" y="58.1" class="st0" width="6.7" height="3.2"/>
<g>
	<g>
		<path class="st0" d="M43.1,56.4c0,1.3-0.9,2.2-2.6,2.2h-3.4v-4.4h3.3C42.1,54.2,43.1,54.9,43.1,56.4L43.1,56.4L43.1,56.4z
			 M46.5,56.2L46.5,56.2c0-3.2-2.2-5.1-5.8-5.1h-7v15.3h3.4v-4.9h2.7l3.3,4.9H47L43.2,61C45.2,60.2,46.5,58.7,46.5,56.2"/>
	</g>
</g>
<rect x="51.4" y="51.1" class="st0" width="3.4" height="15.3"/>
<g>
	<g>
		<path class="st0" d="M66.4,57.3c-2.7-0.7-3.3-1-3.3-2v0c0-0.7,0.7-1.3,2-1.3c1.3,0,2.6,0.6,4,1.5l1.8-2.5c-1.5-1.2-3.5-2-5.7-2
			c-3.1,0-5.4,1.8-5.4,4.6v0c0,3,2,3.9,5.1,4.7c2.6,0.7,3.1,1.1,3.1,1.9v0c0,0.9-0.8,1.4-2.2,1.4c-1.8,0-3.2-0.7-4.6-1.9l-2,2.4
			c1.8,1.6,4.2,2.4,6.5,2.4c3.3,0,5.6-1.7,5.6-4.7v-0.1C71.3,59.2,69.5,58.1,66.4,57.3"/>
	</g>
</g>
</svg>
