<svg width="80" height="80" viewBox="0 0 80 80" fill="none" xmlns="http://www.w3.org/2000/svg" class="icon-bssoo-23">
    <title>nationalité</title>
    <g id="icon-bsso-nationalite">
        <path id="icon-back"
              class="color-2"
              d="M24 60V19H29V60M32 19.5H62L51.6721 30.2556L62 41.5H56.5M32 41.5H37M37 65V64C37 61.7909 35.2091 60 33 60H20C17.7909 60 16 61.7909 16 64V65H37ZM45.5104 64.4878C45.9557 65.1707 46.9948 65.1707 47.4401 64.4878C54.6641 54.2439 56 53.1707 56 49.3659C56 44.1951 51.7448 40 46.5 40C41.2057 40 37 44.1951 37 49.3659C37 53.1707 38.2865 54.2439 45.5104 64.4878ZM46.5 53.2683C44.2734 53.2683 42.5417 51.561 42.5417 49.3659C42.5417 47.2195 44.2734 45.4634 46.5 45.4634C48.6771 45.4634 50.4583 47.2195 50.4583 49.3659C50.4583 51.561 48.6771 53.2683 46.5 53.2683Z"
              stroke="#D5DBEF" stroke-width="6" stroke-linecap="round" stroke-linejoin="round"/>
        <path id="icon-front"
              class="color-1"
              d="M24 60V19H29V60M32 19.5H62L51.6721 30.2556L62 41.5H56.5M32 41.5H37M37 65V64C37 61.7909 35.2091 60 33 60H20C17.7909 60 16 61.7909 16 64V65H37ZM45.5104 64.4878C45.9557 65.1707 46.9948 65.1707 47.4401 64.4878C54.6641 54.2439 56 53.1707 56 49.3659C56 44.1951 51.7448 40 46.5 40C41.2057 40 37 44.1951 37 49.3659C37 53.1707 38.2865 54.2439 45.5104 64.4878ZM46.5 53.2683C44.2734 53.2683 42.5417 51.561 42.5417 49.3659C42.5417 47.2195 44.2734 45.4634 46.5 45.4634C48.6771 45.4634 50.4583 47.2195 50.4583 49.3659C50.4583 51.561 48.6771 53.2683 46.5 53.2683Z"
              stroke="#3D4167" stroke-width="2" stroke-linecap="round" stroke-linejoin="round"/>
    </g>
</svg>
