<svg width="86" height="63" viewBox="0 0 86 63" fill="none" xmlns="http://www.w3.org/2000/svg" class="icon-bssoo-6">
    <title>chart tree map</title>
    <g id="icon-bsso-icon-bsso-charttreemap">
        <path id="icon-back"
              class="color-2"
              d="M3 60H83M13 36H48C49.1046 36 50 35.1046 50 34M13 36C11.8954 36 11 35.1046 11 34V12C11 10.8954 11.8954 10 13 10H48C49.1046 10 50 10.8954 50 12M13 36H43C44.1046 36 45 36.8954 45 38M13 36C11.8954 36 11 36.8954 11 38V48C11 49.1046 11.8954 50 13 50H43C44.1046 50 45 49.1046 45 48M50 34V12M50 34C50 35.1046 50.8954 36 52 36H71M50 12C50 10.8954 50.8954 10 52 10H71C72.1046 10 73 10.8954 73 12V34C73 35.1046 72.1046 36 71 36M71 36H63C61.8954 36 61 36.8954 61 38M71 36C72.1046 36 73 36.8954 73 38V48C73 49.1046 72.1046 50 71 50H63C61.8954 50 61 49.1046 61 48M61 48V38M61 48C61 49.1046 60.1046 50 59 50H47C45.8954 50 45 49.1046 45 48M61 38C61 36.8954 60.1046 36 59 36H47C45.8954 36 45 36.8954 45 38M45 48V38"
              stroke="#D5DBEF" stroke-width="6" stroke-linecap="round" stroke-linejoin="round"/>
        <path id="icon-front"
              class="color-1"
              d="M3 60H83M13 36H48C49.1046 36 50 35.1046 50 34M13 36C11.8954 36 11 35.1046 11 34V12C11 10.8954 11.8954 10 13 10H48C49.1046 10 50 10.8954 50 12M13 36H43C44.1046 36 45 36.8954 45 38M13 36C11.8954 36 11 36.8954 11 38V48C11 49.1046 11.8954 50 13 50H43C44.1046 50 45 49.1046 45 48M50 34V12M50 34C50 35.1046 50.8954 36 52 36H71M50 12C50 10.8954 50.8954 10 52 10H71C72.1046 10 73 10.8954 73 12V34C73 35.1046 72.1046 36 71 36M71 36H63C61.8954 36 61 36.8954 61 38M71 36C72.1046 36 73 36.8954 73 38V48C73 49.1046 72.1046 50 71 50H63C61.8954 50 61 49.1046 61 48M61 48V38M61 48C61 49.1046 60.1046 50 59 50H47C45.8954 50 45 49.1046 45 48M61 38C61 36.8954 60.1046 36 59 36H47C45.8954 36 45 36.8954 45 38M45 48V38"
              stroke="#3D4167" stroke-width="2" stroke-linecap="round" stroke-linejoin="round"/>
    </g>
</svg>
