<svg width="80" height="80" viewBox="0 0 80 80" fill="none" xmlns="http://www.w3.org/2000/svg" class="icon-bssoo-17">
    <title>études observationnelles</title>
    <g id="icon-bsso-etudesobservationnelles">
        <path id="icon-back"
              class="color-2"
              d="M53 16H59C61.2091 16 63 17.7909 63 20V69C63 71.2091 61.2091 73 59 73H20C17.7909 73 16 71.2091 16 69V20C16 17.7909 17.7909 16 20 16H27M53 16V22H27V16M53 16C53 13.2386 50.7614 11 48 11H44C44 8.79086 42.2091 7 40 7C37.7909 7 36 8.79086 36 11H32C29.2386 11 27 13.2386 27 16M52 34.5V37H44V29H48.5M46.5 32L48.5 34L53 29.5M52 47.5V50H44V42H48.5M46.5 45L48.5 47L53 42.5M52 60.5V63H44V55H48.5M46.5 58L48.5 60L53 55.5M27 19.5H21.5V69H58V19.5H53M27 30L40 30M27 33L40 33M27 42H40M27 45H40M27 55H40M27 58H40M42 15C42 16.1046 41.1046 17 40 17C38.8954 17 38 16.1046 38 15C38 13.8954 38.8954 13 40 13C41.1046 13 42 13.8954 42 15Z"
              stroke="#D5DBEF" stroke-width="6" stroke-linecap="round" stroke-linejoin="round"/>
        <path id="icon-front"
              class="color-1"
              d="M53 16H59C61.2091 16 63 17.7909 63 20V69C63 71.2091 61.2091 73 59 73H20C17.7909 73 16 71.2091 16 69V20C16 17.7909 17.7909 16 20 16H27M53 16V22H27V16M53 16C53 13.2386 50.7614 11 48 11H44C44 8.79086 42.2091 7 40 7C37.7909 7 36 8.79086 36 11H32C29.2386 11 27 13.2386 27 16M52 34.5V37H44V29H48.5M46.5 32L48.5 34L53 29.5M52 47.5V50H44V42H48.5M46.5 45L48.5 47L53 42.5M52 60.5V63H44V55H48.5M46.5 58L48.5 60L53 55.5M27 19.5H21.5V69H58V19.5H53M27 30L40 30M27 33L40 33M27 42H40M27 45H40M27 55H40M27 58H40M42 15C42 16.1046 41.1046 17 40 17C38.8954 17 38 16.1046 38 15C38 13.8954 38.8954 13 40 13C41.1046 13 42 13.8954 42 15Z"
              stroke="#3D4167" stroke-width="2" stroke-linecap="round" stroke-linejoin="round"/>
    </g>
</svg>
