<svg width="80" height="80" viewBox="0 0 80 80" fill="none" xmlns="http://www.w3.org/2000/svg" class="icon-bssoo-14">
    <title>éditeurs</title>
    <g id="icon-bsso-editeurs">
        <path id="icon-back"
              class="color-2"
              d="M46 71V55L63 55M46 71H63M46 71H35M46 71V13H35M63 55H76V71H63M63 55C58.5817 55 55 58.5817 55 63C55 67.4183 58.5817 71 63 71M74 67C74 67 66.2484 67 60 67M74 63H57M74 59H60M50 8H60V55H50V8ZM50 8H26C23.7909 8 22 9.79086 22 12V12.5M53.5 52C53.5 35.9885 53.5 27.0115 53.5 11M56.5 52C56.5 35.9885 56.5 27.0115 56.5 11M35 13V71M35 13H8C5.79086 13 4 14.7909 4 17V67C4 69.2091 5.79086 71 8 71H35M39 69.0435C39 47.9042 39 36.0523 39 14.913M42.5 69.0435V14.913M18 13H25V34L21.5 29.5455L18 34V13Z"
              stroke="#D5DBEF" stroke-width="6" stroke-linecap="round" stroke-linejoin="round"/>
        <path id="icon-front"
              class="color-1"
              d="M46 71V55L63 55M46 71H63M46 71H35M46 71V13H35M63 55H76V71H63M63 55C58.5817 55 55 58.5817 55 63C55 67.4183 58.5817 71 63 71M74 67C74 67 66.2484 67 60 67M74 63H57M74 59H60M50 8H60V55H50V8ZM50 8H26C23.7909 8 22 9.79086 22 12V12.5M53.5 52C53.5 35.9885 53.5 27.0115 53.5 11M56.5 52C56.5 35.9885 56.5 27.0115 56.5 11M35 13V71M35 13H8C5.79086 13 4 14.7909 4 17V67C4 69.2091 5.79086 71 8 71H35M39 69.0435C39 47.9042 39 36.0523 39 14.913M42.5 69.0435V14.913M18 13H25V34L21.5 29.5455L18 34V13Z"
              stroke="#3D4167" stroke-width="2" stroke-linejoin="round"/>
    </g>
</svg>
