<svg width="80" height="80" viewBox="0 0 80 80" fill="none" xmlns="http://www.w3.org/2000/svg" class="icon-bssoo-18">
    <title>financement</title>
    <g id="icon-bsso-financement">
        <path id="icon-back"
              class="color-2"
              d="M58.9566 38C58.1802 24.6149 47.0797 14 33.5 14C19.4167 14 8 25.4167 8 39.5C8 53.5833 19.4167 65 33.5 65C38.6704 65 43.4814 63.4612 47.5 60.8166M53.976 38.5C53.4545 27.6426 44.4866 19 33.5 19C22.1782 19 13 28.1782 13 39.5C13 50.8218 22.1782 60 33.5 60C37.745 60 41.6886 58.7097 44.9602 56.5M20 44.3644H23.4247C24.5161 50.1943 27.7903 53 33.0591 53C36.5591 53 39.2312 51.5425 41 49.2834L37.1613 46.5142C36.2581 47.753 34.9785 48.7004 33.1344 48.7004C30.8387 48.7004 29.2581 47.6802 28.5806 44.3644H37.6505V40.502H28.1667C28.1667 40.1741 28.1667 39.8097 28.1667 39.4453C28.1667 39.081 28.1667 38.753 28.1667 38.4251H37.6505V34.5628H28.5806C29.2957 31.3198 30.8763 30.2996 33.1344 30.2996C35.0161 30.2996 36.2957 31.2105 37.1613 32.4858L41 29.6802C39.2312 27.4211 36.5591 26 33.0591 26C27.7903 26 24.5161 28.8057 23.4247 34.5628H20V38.4251H23.0108C23.0108 38.753 23.0108 39.081 23.0108 39.4453C23.0108 39.8097 23.0108 40.1741 23.0108 40.502H20V44.3644ZM71 51.5C71 58.9558 64.9558 65 57.5 65C50.0442 65 44 58.9558 44 51.5C44 44.0442 50.0442 38 57.5 38C64.9558 38 71 44.0442 71 51.5ZM67 51.5C67 56.7467 62.7467 61 57.5 61C52.2533 61 48 56.7467 48 51.5C48 46.2533 52.2533 42 57.5 42C62.7467 42 67 46.2533 67 51.5Z"
              stroke="#D5DBEF" stroke-width="6" stroke-linecap="round" stroke-linejoin="round"/>
        <path id="icon-front"
              class="color-1"
              d="M58.9566 38C58.1802 24.6149 47.0797 14 33.5 14C19.4167 14 8 25.4167 8 39.5C8 53.5833 19.4167 65 33.5 65C38.6704 65 43.4814 63.4612 47.5 60.8166M53.976 38.5C53.4545 27.6426 44.4866 19 33.5 19C22.1782 19 13 28.1782 13 39.5C13 50.8218 22.1782 60 33.5 60C37.745 60 41.6886 58.7097 44.9602 56.5M20 44.3644H23.4247C24.5161 50.1943 27.7903 53 33.0591 53C36.5591 53 39.2312 51.5425 41 49.2834L37.1613 46.5142C36.2581 47.753 34.9785 48.7004 33.1344 48.7004C30.8387 48.7004 29.2581 47.6802 28.5806 44.3644H37.6505V40.502H28.1667C28.1667 40.1741 28.1667 39.8097 28.1667 39.4453C28.1667 39.081 28.1667 38.753 28.1667 38.4251H37.6505V34.5628H28.5806C29.2957 31.3198 30.8763 30.2996 33.1344 30.2996C35.0161 30.2996 36.2957 31.2105 37.1613 32.4858L41 29.6802C39.2312 27.4211 36.5591 26 33.0591 26C27.7903 26 24.5161 28.8057 23.4247 34.5628H20V38.4251H23.0108C23.0108 38.753 23.0108 39.081 23.0108 39.4453C23.0108 39.8097 23.0108 40.1741 23.0108 40.502H20V44.3644ZM71 51.5C71 58.9558 64.9558 65 57.5 65C50.0442 65 44 58.9558 44 51.5C44 44.0442 50.0442 38 57.5 38C64.9558 38 71 44.0442 71 51.5ZM67 51.5C67 56.7467 62.7467 61 57.5 61C52.2533 61 48 56.7467 48 51.5C48 46.2533 52.2533 42 57.5 42C62.7467 42 67 46.2533 67 51.5Z"
              stroke="#3D4167" stroke-width="2" stroke-linecap="round" stroke-linejoin="round"/>
    </g>
</svg>
