<svg width="86" height="63" viewBox="0 0 86 63" fill="none" xmlns="http://www.w3.org/2000/svg" class="icon-bssoo-2">
    <title>chart bar stacked</title>
    <g id="icon-bsso-chartbarstacked">
        <path id="icon-back"
              class="color-2"
              d="M3 60H83M13 37H21M13 37V60H21V37M13 37V28M21 37V28M26 30H34M26 30V60H34V30M26 30V26M34 30V26M39 32H47M39 32V60H47V32M39 32V24M47 32V24M52 29H60M52 29V60H60V29M52 29V18M60 29V18M65 32H73M65 32V60H73V32M65 32V16M73 32V16M21 28H13M21 28V25H13V28M34 26H26M34 26V21H26V26M47 24H39M47 24V16H39V24M60 18H52M60 18V14H52V18M73 16H65M73 16V12H65V16"
              stroke="#D5DBEF" stroke-width="6" stroke-linecap="round" stroke-linejoin="round"/>
        <path id="icon-front"
              class="color-1"
              d="M3 60H83M13 37H21M13 37V60H21V37M13 37V28M21 37V28M26 30H34M26 30V60H34V30M26 30V26M34 30V26M39 32H47M39 32V60H47V32M39 32V24M47 32V24M52 29H60M52 29V60H60V29M52 29V18M60 29V18M65 32H73M65 32V60H73V32M65 32V16M73 32V16M21 28H13M21 28V25H13V28M34 26H26M34 26V21H26V26M47 24H39M47 24V16H39V24M60 18H52M60 18V14H52V18M73 16H65M73 16V12H65V16"
              stroke="#3D4167" stroke-width="2" stroke-linecap="round" stroke-linejoin="round"/>
    </g>
</svg>
