<svg width="80" height="80" viewBox="0 0 80 80" fill="none" xmlns="http://www.w3.org/2000/svg" class="icon-bsso-32">
    <g id="icon-back">
        <path class="color-2"
              d="M70 17C70 12.5817 66.4183 9 62 9H18C13.5817 9 10 12.5817 10 17V73L22 61H62C66.4183 61 70 57.4183 70 53V17Z"
              stroke="#ABB8DE" stroke-width="6" stroke-linecap="round" stroke-linejoin="round"/>
        <path class="color-2"
              d="M48.1429 49.6825L47.5841 51.9683C45.9079 52.6286 44.5704 53.128 43.5714 53.4667C42.5725 53.8222 41.4127 54 40.0921 54C38.0603 54 36.4772 53.509 35.3429 52.527C34.2254 51.528 33.6667 50.2667 33.6667 48.7429C33.6667 48.1503 33.709 47.5492 33.7937 46.9397C33.8783 46.3132 34.0138 45.6106 34.2 44.8317L36.2825 37.4159C36.4688 36.7048 36.6212 36.036 36.7397 35.4095C36.8751 34.7661 36.9429 34.182 36.9429 33.6571C36.9429 32.709 36.7481 32.0487 36.3587 31.6762C35.9693 31.3037 35.2243 31.1175 34.1238 31.1175C33.582 31.1175 33.0233 31.2021 32.4476 31.3714C31.8889 31.5407 31.4063 31.7016 31 31.854L31.5587 29.5683C32.9302 29.0095 34.2423 28.5355 35.4952 28.146C36.7481 27.7397 37.9333 27.5365 39.0508 27.5365C41.0656 27.5365 42.6148 28.0275 43.6984 29.0095C44.7989 29.9746 45.3492 31.236 45.3492 32.7937C45.3492 33.1153 45.3069 33.6825 45.2222 34.4952C45.1545 35.3079 45.019 36.0529 44.8159 36.7302L42.7333 44.1206C42.564 44.7132 42.4116 45.3905 42.2762 46.1524C42.1407 46.9143 42.073 47.4899 42.073 47.8794C42.073 48.8614 42.2931 49.5302 42.7333 49.8857C43.1735 50.2413 43.9354 50.419 45.019 50.419C45.527 50.419 46.1026 50.3344 46.746 50.1651C47.3894 49.9788 47.855 49.818 48.1429 49.6825ZM48.6762 18.673C48.6762 19.9598 48.1852 21.0603 47.2032 21.9746C46.2381 22.872 45.0698 23.3206 43.6984 23.3206C42.327 23.3206 41.1503 22.872 40.1683 21.9746C39.1862 21.0603 38.6952 19.9598 38.6952 18.673C38.6952 17.3862 39.1862 16.2857 40.1683 15.3714C41.1503 14.4571 42.327 14 43.6984 14C45.0698 14 46.2381 14.4571 47.2032 15.3714C48.1852 16.2857 48.6762 17.3862 48.6762 18.673Z"
              stroke="#ABB8DE" stroke-width="6" stroke-linecap="round" stroke-linejoin="round"/>
    </g>
    <g id="icon-front">
        <path class="color-1"
              d="M70 17C70 12.5817 66.4183 9 62 9H18C13.5817 9 10 12.5817 10 17V73L22 61H62C66.4183 61 70 57.4183 70 53V17Z"
              stroke="#5266A1" stroke-width="2" stroke-linecap="round" stroke-linejoin="round"/>
        <path class="color-1"
              d="M48.1429 49.6825L47.5841 51.9683C45.9079 52.6286 44.5704 53.128 43.5714 53.4667C42.5725 53.8222 41.4127 54 40.0921 54C38.0603 54 36.4772 53.509 35.3429 52.527C34.2254 51.528 33.6667 50.2667 33.6667 48.7429C33.6667 48.1503 33.709 47.5492 33.7937 46.9397C33.8783 46.3132 34.0138 45.6106 34.2 44.8317L36.2825 37.4159C36.4688 36.7048 36.6212 36.036 36.7397 35.4095C36.8751 34.7661 36.9429 34.182 36.9429 33.6571C36.9429 32.709 36.7481 32.0487 36.3587 31.6762C35.9693 31.3037 35.2243 31.1175 34.1238 31.1175C33.582 31.1175 33.0233 31.2021 32.4476 31.3714C31.8889 31.5407 31.4063 31.7016 31 31.854L31.5587 29.5683C32.9302 29.0095 34.2423 28.5355 35.4952 28.146C36.7481 27.7397 37.9333 27.5365 39.0508 27.5365C41.0656 27.5365 42.6148 28.0275 43.6984 29.0095C44.7989 29.9746 45.3492 31.236 45.3492 32.7937C45.3492 33.1153 45.3069 33.6825 45.2222 34.4952C45.1545 35.3079 45.019 36.0529 44.8159 36.7302L42.7333 44.1206C42.564 44.7132 42.4116 45.3905 42.2762 46.1524C42.1407 46.9143 42.073 47.4899 42.073 47.8794C42.073 48.8614 42.2931 49.5302 42.7333 49.8857C43.1735 50.2413 43.9354 50.419 45.019 50.419C45.527 50.419 46.1026 50.3344 46.746 50.1651C47.3894 49.9788 47.855 49.818 48.1429 49.6825ZM48.6762 18.673C48.6762 19.9598 48.1852 21.0603 47.2032 21.9746C46.2381 22.872 45.0698 23.3206 43.6984 23.3206C42.327 23.3206 41.1503 22.872 40.1683 21.9746C39.1862 21.0603 38.6952 19.9598 38.6952 18.673C38.6952 17.3862 39.1862 16.2857 40.1683 15.3714C41.1503 14.4571 42.327 14 43.6984 14C45.0698 14 46.2381 14.4571 47.2032 15.3714C48.1852 16.2857 48.6762 17.3862 48.6762 18.673Z"
              stroke="#5266A1" stroke-width="2" stroke-linecap="round" stroke-linejoin="round"/>
    </g>
</svg>
