<svg width="62" height="40" viewBox="0 0 62 40" fill="none" xmlns="http://www.w3.org/2000/svg" class="icon-bsso-35">
    <title>binoculars</title>
    <path d="M37.6667 21.1176C37.6667 24.8212 34.6819 27.8235 31 27.8235C27.3181 27.8235 24.3333 24.8212 24.3333 21.1176M37.6667 21.1176C37.6667 17.4141 34.6819 14.4118 31 14.4118C27.3181 14.4118 24.3333 17.4141 24.3333 21.1176M37.6667 21.1176V13.3686C37.6667 9.62392 34.6819 6.58823 31 6.58823C27.3181 6.58824 24.3333 9.62392 24.3333 13.3686L24.3333 21.1176M5.44445 27.2647C5.44445 23.2525 8.67795 20 12.6667 20M42.1111 27.2647C42.1111 23.2525 45.3446 20 49.3333 20M1 27.8235L1 14.4118C1 7.93054 6.22334 2.67647 12.6667 2.67647C19.11 2.67647 24.3333 7.93054 24.3333 14.4118L24.3333 27.8235M37.6667 27.8235V14.4118C37.6667 7.93054 42.89 2.67647 49.3333 2.67647C55.7767 2.67647 61 7.93054 61 14.4118V27.8235M47.9722 2.67647C46.8777 1.63714 45.4017 1 43.7778 1C40.4027 1 37.6667 3.75213 37.6667 7.14706C37.6667 8.15319 37.907 9.10287 38.333 9.94118M14.3338 2.67647C15.4283 1.63714 16.9043 1 18.5282 1C21.9033 1 24.6393 3.75213 24.6393 7.14706C24.6393 8.15319 24.399 9.10287 23.973 9.94118M24.3333 27.2647C24.3333 33.7459 19.11 39 12.6667 39C6.22335 39 1 33.7459 1 27.2647C1 20.7835 6.22335 15.5294 12.6667 15.5294C19.11 15.5294 24.3333 20.7835 24.3333 27.2647ZM61 27.2647C61 33.7459 55.7767 39 49.3333 39C42.89 39 37.6667 33.7459 37.6667 27.2647C37.6667 20.7835 42.89 15.5294 49.3333 15.5294C55.7767 15.5294 61 20.7835 61 27.2647ZM34.3333 21.1176C34.3333 22.9694 32.841 24.4706 31 24.4706C29.1591 24.4706 27.6667 22.9694 27.6667 21.1176C27.6667 19.2659 29.1591 17.7647 31 17.7647C32.841 17.7647 34.3333 19.2659 34.3333 21.1176Z"
        stroke="#D5DBEF" stroke-width="6" stroke-linecap="round" stroke-linejoin="round" class="color-2" />
    <path d="M37.6667 21.1176C37.6667 24.8212 34.6819 27.8235 31 27.8235C27.3181 27.8235 24.3333 24.8212 24.3333 21.1176M37.6667 21.1176C37.6667 17.4141 34.6819 14.4118 31 14.4118C27.3181 14.4118 24.3333 17.4141 24.3333 21.1176M37.6667 21.1176V13.3686C37.6667 9.62392 34.6819 6.58823 31 6.58823C27.3181 6.58824 24.3333 9.62392 24.3333 13.3686L24.3333 21.1176M5.44445 27.2647C5.44445 23.2525 8.67795 20 12.6667 20M42.1111 27.2647C42.1111 23.2525 45.3446 20 49.3333 20M1 27.8235L1 14.4118C1 7.93054 6.22334 2.67647 12.6667 2.67647C19.11 2.67647 24.3333 7.93054 24.3333 14.4118L24.3333 27.8235M37.6667 27.8235V14.4118C37.6667 7.93054 42.89 2.67647 49.3333 2.67647C55.7767 2.67647 61 7.93054 61 14.4118V27.8235M47.9722 2.67647C46.8777 1.63714 45.4017 1 43.7778 1C40.4027 1 37.6667 3.75213 37.6667 7.14706C37.6667 8.15319 37.907 9.10287 38.333 9.94118M14.3338 2.67647C15.4283 1.63714 16.9043 1 18.5282 1C21.9033 1 24.6393 3.75213 24.6393 7.14706C24.6393 8.15319 24.399 9.10287 23.973 9.94118M24.3333 27.2647C24.3333 33.7459 19.11 39 12.6667 39C6.22335 39 1 33.7459 1 27.2647C1 20.7835 6.22335 15.5294 12.6667 15.5294C19.11 15.5294 24.3333 20.7835 24.3333 27.2647ZM61 27.2647C61 33.7459 55.7767 39 49.3333 39C42.89 39 37.6667 33.7459 37.6667 27.2647C37.6667 20.7835 42.89 15.5294 49.3333 15.5294C55.7767 15.5294 61 20.7835 61 27.2647ZM34.3333 21.1176C34.3333 22.9694 32.841 24.4706 31 24.4706C29.1591 24.4706 27.6667 22.9694 27.6667 21.1176C27.6667 19.2659 29.1591 17.7647 31 17.7647C32.841 17.7647 34.3333 19.2659 34.3333 21.1176Z"
        stroke="#3D4167" stroke-width="2" stroke-linecap="round" stroke-linejoin="round" class="color-1" />
</svg>
