<svg width="80" height="80" viewBox="0 0 80 80" fill="none" xmlns="http://www.w3.org/2000/svg" class="icon-bssoo-8">
    <title>accès ouvert</title>
    <g id="icon-bsso-accesouvert">
        <path id="icon-back"
              class="color-2"
              d="M31.8889 34.5714V20.4286C31.8889 15.6947 35.7442 11.8571 40.5 11.8571C45.2558 11.8571 49.1111 15.6947 49.1111 20.4286V24.5714H56V20.4286C56 11.9076 49.0604 5 40.5 5C31.9396 5 25 11.9076 25 20.4286V34.5714M36.6984 51.773C35.0638 50.5924 34 48.6704 34 46.5C34 42.9101 36.9101 40 40.5 40C44.0899 40 47 42.9101 47 46.5C47 48.6704 45.9362 50.5924 44.3016 51.773M36.5 52L34 64H47.5952L44.5 52M20 35H61V70H20V35Z"
              stroke="#D5DBEF" stroke-width="6" stroke-linecap="round" stroke-linejoin="round"/>
        <path id="icon-front"
              class="color-1"
              d="M31.8889 34.5714V20.4286C31.8889 15.6947 35.7442 11.8571 40.5 11.8571C45.2558 11.8571 49.1111 15.6947 49.1111 20.4286V24.5714H56V20.4286C56 11.9076 49.0604 5 40.5 5C31.9396 5 25 11.9076 25 20.4286V34.5714M36.6984 51.773C35.0638 50.5924 34 48.6704 34 46.5C34 42.9101 36.9101 40 40.5 40C44.0899 40 47 42.9101 47 46.5C47 48.6704 45.9362 50.5924 44.3016 51.773M36.5 52L34 64H47.5952L44.5 52M22 70H59C60.1046 70 61 69.1046 61 68V37C61 35.8954 60.1046 35 59 35H22C20.8954 35 20 35.8954 20 37V68C20 69.1046 20.8954 70 22 70Z"
              stroke="#3D4167" stroke-width="2" stroke-linecap="round" stroke-linejoin="round"/>
    </g>
</svg>
