<svg width="80" height="80" viewBox="0 0 80 80" fill="none" xmlns="http://www.w3.org/2000/svg" class="icon-bssoo-25">
    <title>témoignages</title>
    <g id="icon-bsso-ouvrirlascience-temoignages">
        <path id="icon-back"
              class="color-2"
              d="M32.7586 51.2643V48.2643C32.2929 48.2643 31.8335 48.3727 31.417 48.581L32.7586 51.2643ZM20.6302 51.2643L21.9719 48.581C21.5553 48.3727 21.096 48.2643 20.6302 48.2643V51.2643ZM46.1632 28.9035L49.0703 29.6445C49.3318 28.6186 49.0332 27.5308 48.2846 26.7822L46.1632 28.9035ZM43.0963 34.2567L45.2176 36.3781C45.7802 35.8154 46.0963 35.0524 46.0963 34.2567H43.0963ZM42.9848 34.7586L40.1387 35.7073C40.223 35.9602 40.3407 36.2008 40.4886 36.4227L42.9848 34.7586ZM51.2376 32.1378L52.2629 29.3184C51.2593 28.9534 50.1374 29.1495 49.3171 29.8331L51.2376 32.1378ZM26.7362 51.5876C34.2329 51.5876 40.4427 45.492 40.4427 37.8812H34.4427C34.4427 42.1479 30.9497 45.5876 26.7362 45.5876V51.5876ZM40.4427 37.8812C40.4427 30.3693 34.2482 24.1748 26.7362 24.1748V30.1748C30.9345 30.1748 34.4427 33.683 34.4427 37.8812H40.4427ZM26.7362 24.1748C19.1254 24.1748 13.0298 30.3846 13.0298 37.8812H19.0298C19.0298 33.6677 22.4696 30.1748 26.7362 30.1748V24.1748ZM13.0298 37.8812C13.0298 45.4768 19.1407 51.5876 26.7362 51.5876V45.5876C22.4544 45.5876 19.0298 42.1631 19.0298 37.8812H13.0298ZM34.1805 48.2643H32.7586V54.2643H34.1805V48.2643ZM31.417 48.581C30.0518 49.2636 28.5153 49.6026 26.7362 49.6026V55.6026C29.3067 55.6026 31.7851 55.1051 34.1002 53.9475L31.417 48.581ZM26.7362 49.6026C24.9383 49.6026 23.3226 49.2563 21.9719 48.581L19.2886 53.9475C21.6182 55.1123 24.1847 55.6026 26.7362 55.6026V49.6026ZM20.6302 48.2643H19.2083V54.2643H20.6302V48.2643ZM19.2083 48.2643C11.3328 48.2643 5 54.7388 5 62.5562H11C11 57.9943 14.7044 54.2643 19.2083 54.2643V48.2643ZM5 62.5562V65.9856H11V62.5562H5ZM5 65.9856C5 69.9008 8.09967 73.0005 12.0149 73.0005V67.0005C11.6829 67.0005 11.4418 66.8785 11.2819 66.7186C11.122 66.5587 11 66.3176 11 65.9856H5ZM12.0149 73.0005H41.4576V67.0005H12.0149V73.0005ZM41.4576 73.0005C45.2483 73.0005 48.4725 69.9414 48.4725 65.9856H42.4725C42.4725 66.5466 42.0163 67.0005 41.4576 67.0005V73.0005ZM48.4725 65.9856V62.5562H42.4725V65.9856H48.4725ZM48.4725 62.5562C48.4725 54.7097 42.027 48.2643 34.1805 48.2643V54.2643C38.7133 54.2643 42.4725 58.0234 42.4725 62.5562H48.4725ZM57.26 7C48.2831 7 39.9848 13.0441 39.9848 21.5986H45.9848C45.9848 17.4393 50.4003 13 57.26 13V7ZM39.9848 21.5986C39.9848 25.2852 41.549 28.5319 44.0419 31.0248L48.2846 26.7822C46.7626 25.2602 45.9848 23.4883 45.9848 21.5986H39.9848ZM43.2562 28.1625C43.0204 29.0874 42.4777 30.0717 41.892 30.9171C41.6124 31.3207 41.3488 31.6559 41.1514 31.8974C41.0511 32.0199 40.9722 32.1132 40.9005 32.1986C40.8724 32.2321 40.8223 32.2918 40.7774 32.348C40.7594 32.3707 40.7051 32.4387 40.645 32.5246C40.6189 32.562 40.5494 32.6623 40.4745 32.7972C40.4379 32.8633 40.369 32.9926 40.3022 33.1639C40.2576 33.2781 40.0963 33.6946 40.0963 34.2567H46.0963C46.0963 34.818 45.9353 35.2333 45.8913 35.3461C45.825 35.5159 45.757 35.6434 45.7214 35.7076C45.6488 35.8384 45.5828 35.9334 45.561 35.9645C45.5099 36.0376 45.4688 36.0884 45.4681 36.0893C45.4579 36.1021 45.4588 36.1006 45.4962 36.0561C45.5554 35.9855 45.6651 35.8558 45.7957 35.696C46.0601 35.3728 46.4274 34.9065 46.8239 34.3342C47.5904 33.228 48.5811 31.5636 49.0703 29.6445L43.2562 28.1625ZM40.975 32.1354C40.4286 32.6818 40.1687 33.3179 40.0546 33.8122C39.9377 34.319 39.9006 34.9929 40.1387 35.7073L45.8308 33.8099C46.0132 34.357 45.9761 34.8358 45.901 35.1613C45.8287 35.4744 45.6525 35.9432 45.2176 36.3781L40.975 32.1354ZM40.4886 36.4227C40.7159 36.7636 41.1284 37.2681 41.8243 37.6161C42.4856 37.9467 43.0995 37.9816 43.4309 37.9816V31.9816C43.5392 31.9816 43.9858 31.9887 44.5077 32.2496C45.0642 32.5279 45.3652 32.9209 45.4809 33.0945L40.4886 36.4227ZM43.4309 37.9816C48.0472 37.9816 51.4932 35.8299 53.1582 34.4424L49.3171 29.8331C48.3055 30.6761 46.1752 31.9816 43.4309 31.9816V37.9816ZM50.2124 34.9571C52.3648 35.7398 54.7186 36.1972 57.26 36.1972V30.1972C55.4519 30.1972 53.7908 29.874 52.2629 29.3184L50.2124 34.9571ZM57.26 36.1972C66.1628 36.1972 74.5352 30.2238 74.5352 21.5986H68.5352C68.5352 25.7988 64.0822 30.1972 57.26 30.1972V36.1972ZM74.5352 21.5986C74.5352 13.0374 66.1729 7 57.26 7V13C64.0721 13 68.5352 17.446 68.5352 21.5986H74.5352Z"
              fill="#D5DBEF"/>
        <g id="icon-front">
            <path d="M26.7362 48.5876C32.5913 48.5876 37.4427 43.8199 37.4427 37.8812C37.4427 32.0262 32.5913 27.1748 26.7362 27.1748C20.7975 27.1748 16.0298 32.0262 16.0298 37.8812C16.0298 43.8199 20.7975 48.5876 26.7362 48.5876ZM34.1805 51.2643H32.7586C30.9184 52.1843 28.911 52.6026 26.7362 52.6026C24.5615 52.6026 22.4704 52.1843 20.6302 51.2643H19.2083C13.0186 51.2643 8 56.3665 8 62.5562V65.9856C8 68.244 9.75652 70.0005 12.0149 70.0005H41.4576C43.6323 70.0005 45.4725 68.244 45.4725 65.9856V62.5562C45.4725 56.3665 40.3702 51.2643 34.1805 51.2643Z"
                  stroke="#3D4167" stroke-width="2" stroke-linejoin="round"/>
            <path d="M57.26 10C49.3417 10 42.9848 15.2417 42.9848 21.5986C42.9848 24.3868 44.1558 26.8961 46.1632 28.9035C45.4383 31.7474 43.0963 34.201 43.0963 34.2567C42.9848 34.3683 42.929 34.5913 42.9848 34.7586C43.0963 34.9259 43.2078 34.9816 43.4309 34.9816C47.1112 34.9816 49.8993 33.253 51.2376 32.1378C53.0778 32.8069 55.0853 33.1972 57.26 33.1972C65.1225 33.1972 71.5352 28.0113 71.5352 21.5986C71.5352 15.2417 65.1225 10 57.26 10Z"
                  stroke="#3D4167" stroke-width="2" stroke-linejoin="round"/>
        </g>
    </g>
</svg>
