<svg width="80" height="80" viewBox="0 0 80 80" fill="none" xmlns="http://www.w3.org/2000/svg">
<path d="M32.509 21.3642L14.4218 11.1243C13.7843 10.7634 13 11.2318 13 11.9734L13 32.0267C13 32.7606 13.7697 33.2298 14.4068 32.8841L32.494 23.0708C33.1618 22.7085 33.1704 21.7386 32.509 21.3642Z" fill="#FFC6BF"/>
<path d="M48 12C48 11.4477 48.4477 11 49 11H65C65.5523 11 66 11.4477 66 12V32C66 32.5523 65.5523 33 65 33H49C48.4477 33 48 32.5523 48 32V12Z" fill="#FFC6BF"/>
<path d="M59 12C59 11.4477 59.4477 11 60 11H65C65.5523 11 66 11.4477 66 12V17C66 17.5523 65.5523 18 65 18H60C59.4477 18 59 17.5523 59 17V12Z" fill="#FFC6BF"/>
<path d="M13 44C13 43.4477 13.4477 43 14 43H16C16.5523 43 17 43.4477 17 44V63C17 63.5523 16.5523 64 16 64H14C13.4477 64 13 63.5523 13 63V44Z" fill="#FFC6BF"/>
<path d="M21 55C21 54.4477 21.4477 54 22 54H24C24.5523 54 25 54.4477 25 55V63C25 63.5523 24.5523 64 24 64H22C21.4477 64 21 63.5523 21 63V55Z" fill="#FFC6BF"/>
<path d="M29 48C29 47.4477 29.4477 47 30 47H32C32.5523 47 33 47.4477 33 48V63C33 63.5523 32.5523 64 32 64H30C29.4477 64 29 63.5523 29 63V48Z" fill="#FFC6BF"/>
<path d="M56 47C56 49.7614 53.7614 52 51 52C48.2386 52 46 49.7614 46 47C46 44.2386 48.2386 42 51 42C53.7614 42 56 44.2386 56 47Z" fill="#FFC6BF"/>
<path d="M68 63C68 65.7614 65.7614 68 63 68C60.2386 68 58 65.7614 58 63C58 60.2386 60.2386 58 63 58C65.7614 58 68 60.2386 68 63Z" fill="#FFC6BF"/>
<path d="M65 11H49C48.4477 11 48 11.4477 48 12V32C48 32.5523 48.4477 33 49 33H65C65.5523 33 66 32.5523 66 32V12M65 11C65.5523 11 66 11.4477 66 12M65 11H60C59.4477 11 59 11.4477 59 12V17C59 17.5523 59.4477 18 60 18H65C65.5523 18 66 17.5523 66 17V12M59 11L66 18M13 67.5H33M48.5 66.5L65.5 43M14.4218 11.1243L32.509 21.3642C33.1704 21.7386 33.1618 22.7085 32.494 23.0708L14.4068 32.8841C13.7697 33.2298 13 32.7606 13 32.0267L13 11.9734C13 11.2318 13.7843 10.7634 14.4218 11.1243ZM14 64H16C16.5523 64 17 63.5523 17 63V44C17 43.4477 16.5523 43 16 43H14C13.4477 43 13 43.4477 13 44V63C13 63.5523 13.4477 64 14 64ZM22 64H24C24.5523 64 25 63.5523 25 63V55C25 54.4477 24.5523 54 24 54H22C21.4477 54 21 54.4477 21 55V63C21 63.5523 21.4477 64 22 64ZM30 64H32C32.5523 64 33 63.5523 33 63V48C33 47.4477 32.5523 47 32 47H30C29.4477 47 29 47.4477 29 48V63C29 63.5523 29.4477 64 30 64ZM56 47C56 49.7614 53.7614 52 51 52C48.2386 52 46 49.7614 46 47C46 44.2386 48.2386 42 51 42C53.7614 42 56 44.2386 56 47ZM68 63C68 65.7614 65.7614 68 63 68C60.2386 68 58 65.7614 58 63C58 60.2386 60.2386 58 63 58C65.7614 58 68 60.2386 68 63Z" stroke="#FFC6BF" stroke-width="10" stroke-linecap="round" stroke-linejoin="round"/>
<path d="M65 11H49C48.4477 11 48 11.4477 48 12V32C48 32.5523 48.4477 33 49 33H65C65.5523 33 66 32.5523 66 32V12M65 11C65.5523 11 66 11.4477 66 12M65 11H60C59.4477 11 59 11.4477 59 12V17C59 17.5523 59.4477 18 60 18H65C65.5523 18 66 17.5523 66 17V12M59 11L66 18M13 67.5H33M48.5 66.5L65.5 43M14.4218 11.1243L32.509 21.3642C33.1704 21.7386 33.1618 22.7085 32.494 23.0708L14.4068 32.8841C13.7697 33.2298 13 32.7606 13 32.0267L13 11.9734C13 11.2318 13.7843 10.7634 14.4218 11.1243ZM14 64H16C16.5523 64 17 63.5523 17 63V44C17 43.4477 16.5523 43 16 43H14C13.4477 43 13 43.4477 13 44V63C13 63.5523 13.4477 64 14 64ZM22 64H24C24.5523 64 25 63.5523 25 63V55C25 54.4477 24.5523 54 24 54H22C21.4477 54 21 54.4477 21 55V63C21 63.5523 21.4477 64 22 64ZM30 64H32C32.5523 64 33 63.5523 33 63V48C33 47.4477 32.5523 47 32 47H30C29.4477 47 29 47.4477 29 48V63C29 63.5523 29.4477 64 30 64ZM56 47C56 49.7614 53.7614 52 51 52C48.2386 52 46 49.7614 46 47C46 44.2386 48.2386 42 51 42C53.7614 42 56 44.2386 56 47ZM68 63C68 65.7614 65.7614 68 63 68C60.2386 68 58 65.7614 58 63C58 60.2386 60.2386 58 63 58C65.7614 58 68 60.2386 68 63Z" stroke="#3D4167" stroke-width="2" stroke-linecap="round" stroke-linejoin="round"/>
</svg>
