<svg width="80" height="80" viewBox="0 0 80 80" fill="none" xmlns="http://www.w3.org/2000/svg" class="icon-bssoo-29">
    <title>revues</title>
    <g id="icon-bsso-revues">
        <path id="icon-back"
              class="color-2"
              d="M40 15H73V68H44C41.7909 68 40 66.2091 40 64M40 15V64M40 15H7V68H36C38.2091 68 40 66.2091 40 64M40 56V58.5M40 58.5C40 61.8137 42.6863 64.5 46 64.5H61M40 58.5C40 61.8137 37.3137 64.5 34 64.5H7M40 52V54.5M40 54.5C40 57.8137 42.6863 60.5 46 60.5H61M40 54.5C40 57.8137 37.3137 60.5 34 60.5H7M46 32L66 32M46 35L66 35M46 38L66 38M46 41L66 41M46 44L61 44M46 49H66M46 52H66M13 32L33 32M13 35L33 35M13 38H33M13 41H33M13 44H28M13 49H33M13 52H33M13 29L33 29M13 26L33 26M13 23L33 23M65 68L73 60H65V68ZM46 21H66V27H46V21Z"
              stroke="#D5DBEF" stroke-width="6" stroke-linecap="round" stroke-linejoin="round"/>
        <path id="icon-front"
              class="color-1"
              d="M40 15H73V68H44C41.7909 68 40 66.2091 40 64M40 15V64M40 15H7V68H36C38.2091 68 40 66.2091 40 64M40 56V58.5M40 58.5C40 61.8137 42.6863 64.5 46 64.5H61M40 58.5C40 61.8137 37.3137 64.5 34 64.5H7M40 52V54.5M40 54.5C40 57.8137 42.6863 60.5 46 60.5H61M40 54.5C40 57.8137 37.3137 60.5 34 60.5H7M46 32L66 32M46 35L66 35M46 38L66 38M46 41L66 41M46 44L61 44M46 49H66M46 52H66M13 32L33 32M13 35L33 35M13 38H33M13 41H33M13 44H28M13 49H33M13 52H33M13 29L33 29M13 26L33 26M13 23L33 23M65 68L73 60H65V68ZM46 21H66V27H46V21Z"
              stroke="#3D4167" stroke-width="2" stroke-linecap="round" stroke-linejoin="round"/>
    </g>
</svg>
