<svg width="80" height="80" viewBox="0 0 80 80" fill="none" xmlns="http://www.w3.org/2000/svg" class="icon-bssoo-21">
    <title>méthodologie</title>
    <g id="icon-bsso-feuillet">
        <path id="icon-back"
              class="color-2"
              d="M16 55V12H68V55C68 58.0376 65.5376 60.5 62.5 60.5M62.5 60.5C59.4624 60.5 57 58.0376 57 55M62.5 60.5H11.5C8.46243 60.5 6 58.0376 6 55H56.5M18 61V65.5H68V53.5M20 65.5V68.5H70.5V15M42 28C42 29.4203 41.6639 30.8204 41.0191 32.0859C40.3743 33.3514 39.4391 34.4463 38.2901 35.2812C37.141 36.116 35.8107 36.667 34.4079 36.8892C33.0051 37.1114 31.5696 36.9984 30.2188 36.5595C28.8681 36.1206 27.6403 35.3683 26.636 34.364C25.6317 33.3597 24.8794 32.1319 24.4405 30.7812C24.0016 29.4304 23.8886 27.9949 24.1108 26.5921C24.333 25.1893 24.884 23.859 25.7188 22.7099M42 28C42 26.0994 41.3983 24.2476 40.2812 22.7099C39.164 21.1723 37.5887 20.0278 35.7812 19.4405C33.9736 18.8532 32.0264 18.8532 30.2189 19.4405C28.4113 20.0278 26.836 21.1723 25.7188 22.7099M42 28H38.625M25.7188 22.7099L28.4996 24.625M38.625 28C38.625 31.1066 36.1066 33.625 33 33.625C29.8934 33.625 27.375 31.1066 27.375 28C27.375 24.8934 29.8934 22.375 33 22.375C36.1066 22.375 38.625 24.8934 38.625 28ZM33 22V19M46 20H61M46 23H61M46 26H61M46 29H55M24 41H47V44H24V41ZM24 47H58V50H24V47Z"
              stroke="#D5DBEF" stroke-width="6" stroke-linecap="round" stroke-linejoin="round"/>
        <path id="icon-front"
              class="color-1"
              d="M16 55V12H68V55C68 58.0376 65.5376 60.5 62.5 60.5M62.5 60.5C59.4624 60.5 57 58.0376 57 55M62.5 60.5H11.5C8.46243 60.5 6 58.0376 6 55H56.5M18 61V65.5H68V53.5M20 65.5V68.5H70.5V15M42 28C42 29.4203 41.6639 30.8204 41.0191 32.0859C40.3743 33.3514 39.4391 34.4463 38.2901 35.2812C37.141 36.116 35.8107 36.667 34.4079 36.8892C33.0051 37.1114 31.5696 36.9984 30.2188 36.5595C28.8681 36.1206 27.6403 35.3683 26.636 34.364C25.6317 33.3597 24.8794 32.1319 24.4405 30.7812C24.0016 29.4304 23.8886 27.9949 24.1108 26.5921C24.333 25.1893 24.884 23.859 25.7188 22.7099M42 28C42 26.0994 41.3983 24.2476 40.2812 22.7099C39.164 21.1723 37.5887 20.0278 35.7812 19.4405C33.9736 18.8532 32.0264 18.8532 30.2189 19.4405C28.4113 20.0278 26.836 21.1723 25.7188 22.7099M42 28H38.625M25.7188 22.7099L28.4996 24.625M38.625 28C38.625 31.1066 36.1066 33.625 33 33.625C29.8934 33.625 27.375 31.1066 27.375 28C27.375 24.8934 29.8934 22.375 33 22.375C36.1066 22.375 38.625 24.8934 38.625 28ZM33 22V19M46 20H61M46 23H61M46 26H61M46 29H55M24 41H47V44H24V41ZM24 47H58V50H24V47Z"
              stroke="#3D4167" stroke-width="2" stroke-linecap="round" stroke-linejoin="round"/>
    </g>
</svg>
