<svg width="80" height="80" viewBox="0 0 80 80" fill="none" xmlns="http://www.w3.org/2000/svg" class="icon-bssoo-9">
    <title>affiliations</title>
    <g id="icon-bsso-affiliations">
        <path id="icon-back"
              class="color-2"
              d="M64 14H73V71H64M64 14V71M64 14H32V48.5M64 71H48M41 53H8V71H41M41 53V71M41 53H6V49H41M41 53V49M41 53H50V49H41M41 53H48V71M41 71H48M63 9H30V14H63M63 9V14M63 9H75V14H63M28 62V57H12V62M28 62H12M28 62V67H12V62M36.5 20.5H41.5V25.5H36.5V20.5ZM36.5 29.5H41.5V34.5H36.5V29.5ZM36.5 38.5H41.5V43.5H36.5V38.5ZM45.5 20.5H50.5V25.5H45.5V20.5ZM45.5 29.5H50.5V34.5H45.5V29.5ZM45.5 38.5H50.5V43.5H45.5V38.5ZM54.5 20.5H59.5V25.5H54.5V20.5ZM54.5 29.5H59.5V34.5H54.5V29.5ZM54.5 38.5H59.5V43.5H54.5V38.5ZM54.5 47.5H59.5V52.5H54.5V47.5ZM54.5 56.5H59.5V61.5H54.5V56.5ZM37 71H31V57H37V71Z"
              stroke="#D5DBEF" stroke-width="6" stroke-linecap="round" stroke-linejoin="round"/>
        <path id="icon-front"
              class="color-1"
              d="M64 14H73V71H64M64 14V71M64 14H32V48.5M64 71H48M41 53H8V71H41M41 53V71M41 53H6V49H41M41 53V49M41 53H50V49H41M41 53H48V71M41 71H48M63 9H30V14H63M63 9V14M63 9H75V14H63M28 62V57H12V62M28 62H12M28 62V67H12V62M36.5 20.5H41.5V25.5H36.5V20.5ZM36.5 29.5H41.5V34.5H36.5V29.5ZM36.5 38.5H41.5V43.5H36.5V38.5ZM45.5 20.5H50.5V25.5H45.5V20.5ZM45.5 29.5H50.5V34.5H45.5V29.5ZM45.5 38.5H50.5V43.5H45.5V38.5ZM54.5 20.5H59.5V25.5H54.5V20.5ZM54.5 29.5H59.5V34.5H54.5V29.5ZM54.5 38.5H59.5V43.5H54.5V38.5ZM54.5 47.5H59.5V52.5H54.5V47.5ZM54.5 56.5H59.5V61.5H54.5V56.5ZM37 71H31V57H37V71Z"
              stroke="#3D4167" stroke-width="2" stroke-linecap="round" stroke-linejoin="round"/>
    </g>
</svg>
