<svg width="80" height="80" viewBox="0 0 80 80" fill="none" xmlns="http://www.w3.org/2000/svg" class="icon-bssoo-15">
    <title>essais cliniques</title>
    <g id="icon-bsso-essaiscliniques">
        <path id="icon-back"
              class="color-2"
              d="M27 54.1V68.1M21.9231 57.6L17.3077 57.6M24.5 11.1H22V43.6C22 46.6376 19.5376 49.1 16.5 49.1C13.4624 49.1 11 46.6376 11 43.6V11.1H8M11 21.1H22M45.5 11.1H43V43.6C43 46.6376 40.5376 49.1 37.5 49.1C34.4624 49.1 32 46.6376 32 43.6V11.1H29M32 26.1H43M53.8021 45.3662H60.305C60.6534 45.3662 60.9437 45.0759 60.9437 44.7275V43.334C60.9437 42.9857 60.6534 42.6954 60.305 42.6954L53.8021 42.6954L53.8021 37.4698L60.305 37.4698C60.6534 37.4698 60.9437 37.1795 60.9437 36.8311L61.0017 35.4957C61.0017 35.1474 60.6534 34.799 60.305 34.799L53.8602 34.857L53.8021 27.7798C53.8021 25.8057 54.7311 23.9477 56.2407 22.6704L60.3631 19.3609V11.6967C60.4211 11.2903 60.7114 11 61.0598 11L62.3372 11C62.6855 11 62.9758 11.2903 62.9758 11.6387L63.0339 19.3609L67.0982 22.6123C68.6078 23.8897 69.5368 25.7476 69.5949 27.7798V52.9142L53.8021 52.9142V45.3662ZM66.2853 68.6489H57.1116C56.7632 68.6489 56.4729 68.3586 56.4729 68.0102L56.4149 66.6748C56.4149 66.3264 56.7052 66.0361 57.0536 66.0361H60.4211L60.3631 60.7525L53.8021 60.8106H51.828C51.4796 60.8106 51.1893 60.5203 51.1893 60.1719V56.2237C51.1893 55.8753 51.4797 55.585 51.8861 55.527L71.5109 55.527C71.9173 55.4689 72.2657 55.8173 72.2076 56.2237V60.1719C72.2076 60.5203 71.9173 60.8106 71.5689 60.8106L63.0339 60.7525L62.9758 66.0361H66.3434C66.6918 66.0361 66.9821 66.3264 66.9821 66.6748L66.924 68.0102C66.924 68.3586 66.6337 68.6489 66.2853 68.6489ZM16 68.1H38C41.866 68.1 45 64.966 45 61.1C45 57.234 41.866 54.1 38 54.1H16C12.134 54.1 9 57.234 9 61.1C9 64.966 12.134 68.1 16 68.1ZM18 27.1C18 28.2046 17.1046 29.1 16 29.1C14.8954 29.1 14 28.2046 14 27.1C14 25.9955 14.8954 25.1 16 25.1C17.1046 25.1 18 25.9955 18 27.1ZM19 34.6C19 35.4285 18.3284 36.1 17.5 36.1C16.6716 36.1 16 35.4285 16 34.6C16 33.7716 16.6716 33.1 17.5 33.1C18.3284 33.1 19 33.7716 19 34.6ZM39 42.1C39 43.2046 38.1046 44.1 37 44.1C35.8954 44.1 35 43.2046 35 42.1C35 40.9955 35.8954 40.1 37 40.1C38.1046 40.1 39 40.9955 39 42.1ZM40 34.6C40 35.4285 39.3284 36.1 38.5 36.1C37.6716 36.1 37 35.4285 37 34.6C37 33.7716 37.6716 33.1 38.5 33.1C39.3284 33.1 40 33.7716 40 34.6Z"
              stroke="#D5DBEF" stroke-width="6" stroke-linecap="round" stroke-linejoin="round"/>
        <path id="icon-front"
              class="color-1"
              d="M27 54.1V68.1M21.9231 57.6L17.3077 57.6M24.5 11.1H22V43.6C22 46.6376 19.5376 49.1 16.5 49.1C13.4624 49.1 11 46.6376 11 43.6V11.1H8M11 21.1H22M45.5 11.1H43V43.6C43 46.6376 40.5376 49.1 37.5 49.1C34.4624 49.1 32 46.6376 32 43.6V11.1H29M32 26.1H43M53.8021 45.3662H60.305C60.6534 45.3662 60.9437 45.0759 60.9437 44.7275V43.334C60.9437 42.9857 60.6534 42.6954 60.305 42.6954L53.8021 42.6954L53.8021 37.4698L60.305 37.4698C60.6534 37.4698 60.9437 37.1795 60.9437 36.8311L61.0017 35.4957C61.0017 35.1474 60.6534 34.799 60.305 34.799L53.8602 34.857L53.8021 27.7798C53.8021 25.8057 54.7311 23.9477 56.2407 22.6704L60.3631 19.3609V11.6967C60.4211 11.2903 60.7114 11 61.0598 11L62.3372 11C62.6855 11 62.9758 11.2903 62.9758 11.6387L63.0339 19.3609L67.0982 22.6123C68.6078 23.8897 69.5368 25.7476 69.5949 27.7798V52.9142L53.8021 52.9142V45.3662ZM66.2853 68.6489H57.1116C56.7632 68.6489 56.4729 68.3586 56.4729 68.0102L56.4149 66.6748C56.4149 66.3264 56.7052 66.0361 57.0536 66.0361H60.4211L60.3631 60.7525L53.8021 60.8106H51.828C51.4796 60.8106 51.1893 60.5203 51.1893 60.1719V56.2237C51.1893 55.8753 51.4797 55.585 51.8861 55.527L71.5109 55.527C71.9173 55.4689 72.2657 55.8173 72.2076 56.2237V60.1719C72.2076 60.5203 71.9173 60.8106 71.5689 60.8106L63.0339 60.7525L62.9758 66.0361H66.3434C66.6918 66.0361 66.9821 66.3264 66.9821 66.6748L66.924 68.0102C66.924 68.3586 66.6337 68.6489 66.2853 68.6489ZM16 68.1H38C41.866 68.1 45 64.966 45 61.1C45 57.234 41.866 54.1 38 54.1H16C12.134 54.1 9 57.234 9 61.1C9 64.966 12.134 68.1 16 68.1ZM18 27.1C18 28.2046 17.1046 29.1 16 29.1C14.8954 29.1 14 28.2046 14 27.1C14 25.9955 14.8954 25.1 16 25.1C17.1046 25.1 18 25.9955 18 27.1ZM19 34.6C19 35.4285 18.3284 36.1 17.5 36.1C16.6716 36.1 16 35.4285 16 34.6C16 33.7716 16.6716 33.1 17.5 33.1C18.3284 33.1 19 33.7716 19 34.6ZM39 42.1C39 43.2046 38.1046 44.1 37 44.1C35.8954 44.1 35 43.2046 35 42.1C35 40.9955 35.8954 40.1 37 40.1C38.1046 40.1 39 40.9955 39 42.1ZM40 34.6C40 35.4285 39.3284 36.1 38.5 36.1C37.6716 36.1 37 35.4285 37 34.6C37 33.7716 37.6716 33.1 38.5 33.1C39.3284 33.1 40 33.7716 40 34.6Z"
              stroke="#3D4167" stroke-width="2" stroke-linecap="round" stroke-linejoin="round"/>
    </g>
</svg>
