<svg width="80" height="80" viewBox="0 0 80 80" fill="none" xmlns="http://www.w3.org/2000/svg" class="icon-bssoo-28">
    <title>publications</title>
    <g id="icon-bsso-publication">
        <path id="icon-back"
              class="color-2"
              d="M45.5 23.5V16H71.5C71.5 36.6978 71.5 48.3022 71.5 69H38M45.5 33C45.5 33 58.6895 33 66.5 33M45.5 36L66.5 36M45.5 39L66.5 39M45.5 42C45.5 42 58.6895 42 66.5 42M45.5 45C45.5 45 55.6421 45 61.5 45M45.5 50H66.5M45.5 53C45.5 53 58.6895 53 66.5 53M8 53V55.5C8 58.8137 10.6863 61.5 14 61.5H34M8 49V51.5C8 54.8137 10.6863 57.5 14 57.5C14 57.5 14 57.5 14 57.5C14 57.5 28.1421 57.5 34 57.5M14 29C14 29 30.6895 29 38.5 29M14 32L38.5 32M14 35L38.5 35M14 38C14 38 30.6895 38 38.5 38M14 41C14 41 27.6421 41 33.5 41M14 46H38.5M14 49C14 49 30.6895 49 38.5 49M45.5 22H54C54 24.3431 54 25.6569 54 28H45.5V22ZM8 12H45.5C45.5 32.6978 45.5 44.3022 45.5 65H12C9.79086 65 8 63.2091 8 61V12ZM37 65L45 57H37V65ZM14 18H26C26 20.3431 26 21.6569 26 24H14V18Z"
              stroke="#D5DBEF" stroke-width="6" stroke-linecap="round" stroke-linejoin="round"/>
        <path id="icon-front"
              class="color-1"
              d="M45.5 23.5V16H71.5C71.5 36.6978 71.5 48.3022 71.5 69H38M45.5 33C45.5 33 58.6895 33 66.5 33M45.5 36L66.5 36M45.5 39L66.5 39M45.5 42C45.5 42 58.6895 42 66.5 42M45.5 45C45.5 45 55.6421 45 61.5 45M45.5 50H66.5M45.5 53C45.5 53 58.6895 53 66.5 53M8 53V55.5C8 58.8137 10.6863 61.5 14 61.5H34M8 49V51.5C8 54.8137 10.6863 57.5 14 57.5C14 57.5 14 57.5 14 57.5C14 57.5 28.1421 57.5 34 57.5M14 29C14 29 30.6895 29 38.5 29M14 32L38.5 32M14 35L38.5 35M14 38C14 38 30.6895 38 38.5 38M14 41C14 41 27.6421 41 33.5 41M14 46H38.5M14 49C14 49 30.6895 49 38.5 49M45.5 22H54C54 24.3431 54 25.6569 54 28H45.5V22ZM8 12H45.5C45.5 32.6978 45.5 44.3022 45.5 65H12C9.79086 65 8 63.2091 8 61V12ZM37 65L45 57H37V65ZM14 18H26C26 20.3431 26 21.6569 26 24H14V18Z"
              stroke="#3D4167" stroke-width="2" stroke-linecap="round" stroke-linejoin="round"/>
    </g>
</svg>
