<svg width="64" height="57" viewBox="0 0 64 57" fill="none" xmlns="http://www.w3.org/2000/svg" class="icon-bsso-37">
    <title>loud speaker</title>
    <path d="M43.5615 10.4668L51.96 3.82617C52.4482 3.33789 53.1318 3.04492 53.9131 3.04492C56.3545 3.04492 57.0381 5.38867 57.0381 6.26758V21.1113C58.8936 22.1855 60.1631 24.2363 60.1631 26.4824C60.1631 28.8262 58.8936 30.877 56.9404 31.9512V46.7949C56.9404 47.7715 56.2568 49.9199 53.8154 49.9199C53.1318 49.9199 52.4482 49.7246 51.96 49.2363L43.5615 42.5957M43.5615 10.4668C39.46 13.7871 34.1865 15.5449 28.9131 15.5449H10.1631C6.64746 15.5449 3.91309 18.377 3.91309 21.7949V31.1699C3.91309 34.6855 6.64746 37.4199 10.1631 37.4199H13.3857C13.2881 38.4941 13.1904 39.5684 13.1904 40.5449C13.1904 44.4512 14.0693 48.1621 15.7295 51.3848C16.2178 52.459 17.292 53.0449 18.4639 53.0449H25.6904C28.2295 53.0449 29.792 50.2129 28.2295 48.1621C26.667 46.0137 25.6904 43.4746 25.6904 40.5449C25.6904 39.4707 25.8857 38.4941 26.0811 37.4199H28.9131C34.1865 37.4199 39.46 39.2754 43.5615 42.5957M43.5615 10.4668V42.5957"
        stroke="#D5DBEF" stroke-width="6" stroke-linecap="round" stroke-linejoin="round" class="color-2" />
    <path d="M43.5615 10.4668L51.96 3.82617C52.4482 3.33789 53.1318 3.04492 53.9131 3.04492C56.3545 3.04492 57.0381 5.38867 57.0381 6.26758V21.1113C58.8936 22.1855 60.1631 24.2363 60.1631 26.4824C60.1631 28.8262 58.8936 30.877 56.9404 31.9512V46.7949C56.9404 47.7715 56.2568 49.9199 53.8154 49.9199C53.1318 49.9199 52.4482 49.7246 51.96 49.2363L43.5615 42.5957M43.5615 10.4668C39.46 13.7871 34.1865 15.5449 28.9131 15.5449H10.1631C6.64746 15.5449 3.91309 18.377 3.91309 21.7949V31.1699C3.91309 34.6855 6.64746 37.4199 10.1631 37.4199H13.3857C13.2881 38.4941 13.1904 39.5684 13.1904 40.5449C13.1904 44.4512 14.0693 48.1621 15.7295 51.3848C16.2178 52.459 17.292 53.0449 18.4639 53.0449H25.6904C28.2295 53.0449 29.792 50.2129 28.2295 48.1621C26.667 46.0137 25.6904 43.4746 25.6904 40.5449C25.6904 39.4707 25.8857 38.4941 26.0811 37.4199H28.9131C34.1865 37.4199 39.46 39.2754 43.5615 42.5957M43.5615 10.4668V42.5957"
        stroke="#3D4167" stroke-width="2" stroke-linecap="round" stroke-linejoin="round" class="color-1" />
</svg>
