<svg width="80" height="80" viewBox="0 0 80 80" fill="none" xmlns="http://www.w3.org/2000/svg" class="icon-bssoo-19">
    <title>lead sponsor</title>
    <g id="icon-bsso-leadsponsor">
        <path id="icon-back"
              d="M26 58.5L37.9578 60.7623C42.2699 61.5781 46.7063 61.4675 50.9724 60.4377L53.1772 59.9055C56.9923 58.9846 60.4993 57.0796 63.3485 54.3804L66.5439 51.3531C67.6156 50.3379 67.6385 48.6385 66.5947 47.5947C65.6778 46.6778 64.2284 46.5686 63.1844 47.3378L58.5712 50.737C56.5762 52.207 54.1632 53 51.6851 53H50.5918C49.204 53 47.8231 52.8066 46.4887 52.4253L38 50H48.1895C49.4655 50 50.5 48.9655 50.5 47.6895C50.5 46.6833 49.8489 45.7928 48.89 45.4877L44.7505 44.1706C41.2888 43.0692 37.6343 42.7073 34.0238 43.1085L26 44M38.5364 40C36.9329 37.5593 36 34.6386 36 31.5C36 22.9396 42.9396 16 51.5 16C60.0604 16 67 22.9396 67 31.5C67 39.0341 61.6247 45.3127 54.5 46.7099M41.3977 26C43.3481 22.4252 47.1407 20 51.4997 20C57.851 20 62.9997 25.1487 62.9997 31.5C62.9997 37.8513 57.851 43 51.4997 43C46.9404 43 43.0007 40.3467 41.1406 36.5M56.1544 25.4062C54.9234 24.5212 53.4132 24 51.7812 24C47.6391 24 44.2812 27.3579 44.2812 31.5C44.2812 35.6421 47.6391 39 51.7812 39C52.7758 39 53.7252 38.8064 54.5938 38.4548M41 30.0938H54.125M41 33.375H52.25M10 41H22V61H12L10 41ZM19 46C19 47.1046 18.1046 48 17 48C15.8954 48 15 47.1046 15 46C15 44.8954 15.8954 44 17 44C18.1046 44 19 44.8954 19 46Z"
              stroke="#D5DBEF" stroke-width="6" stroke-linecap="round" stroke-linejoin="round"/>
        <path id="icon-front"
              class="color-1"
              d="M26 58.5L37.9578 60.7623C42.2699 61.5781 46.7063 61.4675 50.9724 60.4377L53.1772 59.9055C56.9923 58.9846 60.4993 57.0796 63.3485 54.3804L66.5439 51.3531C67.6156 50.3379 67.6385 48.6385 66.5947 47.5947C65.6778 46.6778 64.2284 46.5686 63.1844 47.3378L58.5712 50.737C56.5762 52.207 54.1632 53 51.6851 53H50.5918C49.204 53 47.8231 52.8066 46.4887 52.4253L38 50H48.1895C49.4655 50 50.5 48.9655 50.5 47.6895C50.5 46.6833 49.8489 45.7928 48.89 45.4877L44.7505 44.1706C41.2888 43.0692 37.6343 42.7073 34.0238 43.1085L26 44M38.5364 40C36.9329 37.5593 36 34.6386 36 31.5C36 22.9396 42.9396 16 51.5 16C60.0604 16 67 22.9396 67 31.5C67 39.0341 61.6247 45.3127 54.5 46.7099M41.3977 26C43.3481 22.4252 47.1407 20 51.4997 20C57.851 20 62.9997 25.1487 62.9997 31.5C62.9997 37.8513 57.851 43 51.4997 43C46.9404 43 43.0007 40.3467 41.1406 36.5M56.1544 25.4062C54.9234 24.5212 53.4132 24 51.7812 24C47.6391 24 44.2812 27.3579 44.2812 31.5C44.2812 35.6421 47.6391 39 51.7812 39C52.7758 39 53.7252 38.8064 54.5938 38.4548M41 30.0938H54.125M41 33.375H52.25M10 41H22V61H12L10 41ZM19 46C19 47.1046 18.1046 48 17 48C15.8954 48 15 47.1046 15 46C15 44.8954 15.8954 44 17 44C18.1046 44 19 44.8954 19 46Z"
              stroke="#3D4167" stroke-width="2" stroke-linecap="round" stroke-linejoin="round"/>
    </g>
</svg>
