<svg width="86" height="63" viewBox="0 0 86 63" fill="none" xmlns="http://www.w3.org/2000/svg" class="icon-bssoo-5">
    <title>chart progression</title>
    <g id="icon-bsso-icon-bsso-chartprogression">
        <path id="icon-back"
              class="color-2"
              d="M14 47C14 48.1046 13.1046 49 12 49C10.8954 49 10 48.1046 10 47C10 45.8954 10.8954 45 12 45C13.1046 45 14 45.8954 14 47ZM14 47H21M27 25C27 26.1046 26.1046 27 25 27C23.8954 27 23 26.1046 23 25C23 23.8954 23.8954 23 25 23C26.1046 23 27 23.8954 27 25ZM27 25H33M25 47C25 48.1046 24.1046 49 23 49C21.8954 49 21 48.1046 21 47M25 47C25 45.8954 24.1046 45 23 45C21.8954 45 21 45.8954 21 47M25 47H29M45 37C45 38.1046 44.1046 39 43 39C41.8954 39 41 38.1046 41 37C41 35.8954 41.8954 35 43 35C44.1046 35 45 35.8954 45 37ZM45 37H50M33 47C33 48.1046 32.1046 49 31 49C29.8954 49 29 48.1046 29 47M33 47C33 45.8954 32.1046 45 31 45C29.8954 45 29 45.8954 29 47M33 47H52M54 37C54 38.1046 53.1046 39 52 39C50.8954 39 50 38.1046 50 37M54 37C54 35.8954 53.1046 35 52 35C50.8954 35 50 35.8954 50 37M54 37H60M51 25C51 26.1046 50.1046 27 49 27C47.8954 27 47 26.1046 47 25C47 23.8954 47.8954 23 49 23C50.1046 23 51 23.8954 51 25ZM51 25H59H67M52 47C52 48.1046 52.8954 49 54 49C55.1046 49 56 48.1046 56 47C56 45.8954 55.1046 45 54 45C52.8954 45 52 45.8954 52 47ZM60 37C60 38.1046 60.8954 39 62 39C63.1046 39 64 38.1046 64 37C64 35.8954 63.1046 35 62 35C60.8954 35 60 35.8954 60 37ZM67 25C67 26.1046 67.8954 27 69 27C70.1046 27 71 26.1046 71 25C71 23.8954 70.1046 23 69 23C67.8954 23 67 23.8954 67 25ZM3 60H83M37 37H40M39 25H46M52 14C52 15.1046 51.1046 16 50 16C48.8954 16 48 15.1046 48 14C48 12.8954 48.8954 12 50 12C51.1046 12 52 12.8954 52 14ZM52 14H55M68 14C68 15.1046 67.1046 16 66 16C64.8954 16 64 15.1046 64 14C64 12.8954 64.8954 12 66 12C67.1046 12 68 12.8954 68 14ZM68 14H67H75M75 14C75 15.1046 75.8954 16 77 16C78.1046 16 79 15.1046 79 14C79 12.8954 78.1046 12 77 12C75.8954 12 75 12.8954 75 14ZM61 14L63 14M36 37C36 38.1046 35.1046 39 34 39C32.8954 39 32 38.1046 32 37C32 35.8954 32.8954 35 34 35C35.1046 35 36 35.8954 36 37ZM38 25C38 26.1046 37.1046 27 36 27C34.8954 27 34 26.1046 34 25C34 23.8954 34.8954 23 36 23C37.1046 23 38 23.8954 38 25ZM60 14C60 15.1046 59.1046 16 58 16C56.8954 16 56 15.1046 56 14C56 12.8954 56.8954 12 58 12C59.1046 12 60 12.8954 60 14Z"
              stroke="#D5DBEF" stroke-width="6" stroke-linecap="round" stroke-linejoin="round"/>
        <path id="icon-front"
              class="color-1"
              d="M14 47C14 48.1046 13.1046 49 12 49C10.8954 49 10 48.1046 10 47C10 45.8954 10.8954 45 12 45C13.1046 45 14 45.8954 14 47ZM14 47H21M27 25C27 26.1046 26.1046 27 25 27C23.8954 27 23 26.1046 23 25C23 23.8954 23.8954 23 25 23C26.1046 23 27 23.8954 27 25ZM27 25H33M25 47C25 48.1046 24.1046 49 23 49C21.8954 49 21 48.1046 21 47M25 47C25 45.8954 24.1046 45 23 45C21.8954 45 21 45.8954 21 47M25 47H29M45 37C45 38.1046 44.1046 39 43 39C41.8954 39 41 38.1046 41 37C41 35.8954 41.8954 35 43 35C44.1046 35 45 35.8954 45 37ZM45 37H50M33 47C33 48.1046 32.1046 49 31 49C29.8954 49 29 48.1046 29 47M33 47C33 45.8954 32.1046 45 31 45C29.8954 45 29 45.8954 29 47M33 47H52M54 37C54 38.1046 53.1046 39 52 39C50.8954 39 50 38.1046 50 37M54 37C54 35.8954 53.1046 35 52 35C50.8954 35 50 35.8954 50 37M54 37H60M51 25C51 26.1046 50.1046 27 49 27C47.8954 27 47 26.1046 47 25C47 23.8954 47.8954 23 49 23C50.1046 23 51 23.8954 51 25ZM51 25H59H67M52 47C52 48.1046 52.8954 49 54 49C55.1046 49 56 48.1046 56 47C56 45.8954 55.1046 45 54 45C52.8954 45 52 45.8954 52 47ZM60 37C60 38.1046 60.8954 39 62 39C63.1046 39 64 38.1046 64 37C64 35.8954 63.1046 35 62 35C60.8954 35 60 35.8954 60 37ZM67 25C67 26.1046 67.8954 27 69 27C70.1046 27 71 26.1046 71 25C71 23.8954 70.1046 23 69 23C67.8954 23 67 23.8954 67 25ZM3 60H83M37 37H40M39 25H46M52 14C52 15.1046 51.1046 16 50 16C48.8954 16 48 15.1046 48 14C48 12.8954 48.8954 12 50 12C51.1046 12 52 12.8954 52 14ZM52 14H55M68 14C68 15.1046 67.1046 16 66 16C64.8954 16 64 15.1046 64 14C64 12.8954 64.8954 12 66 12C67.1046 12 68 12.8954 68 14ZM68 14H75M75 14C75 15.1046 75.8954 16 77 16C78.1046 16 79 15.1046 79 14C79 12.8954 78.1046 12 77 12C75.8954 12 75 12.8954 75 14ZM61 14L63 14M36 37C36 38.1046 35.1046 39 34 39C32.8954 39 32 38.1046 32 37C32 35.8954 32.8954 35 34 35C35.1046 35 36 35.8954 36 37ZM38 25C38 26.1046 37.1046 27 36 27C34.8954 27 34 26.1046 34 25C34 23.8954 34.8954 23 36 23C37.1046 23 38 23.8954 38 25ZM60 14C60 15.1046 59.1046 16 58 16C56.8954 16 56 15.1046 56 14C56 12.8954 56.8954 12 58 12C59.1046 12 60 12.8954 60 14Z"
              stroke="#3D4167" stroke-width="2" stroke-linecap="round" stroke-linejoin="round"/>
    </g>
</svg>
