<svg width="80" height="80" viewBox="0 0 80 80" fill="none" xmlns="http://www.w3.org/2000/svg" class="icon-bssoo-12">
    <title>dataset</title>
    <g id="icon-bsso-dataset">
        <path id="icon-front"
              class="color-2"
              d="M62 22H70M62 22V12M62 22H37M62 22V32M62 12H70M62 12H37M70 15H65V19H70M62 32H70M62 32H37M62 32V42M62 42H70M62 42H37M62 42V52M62 52H70M62 52H37M62 52V62M62 62H70M62 62V69M62 62H37M12 62V69M12 62H37M12 62V52M37 62V69M37 62V52M37 12H16C13.7909 12 12 13.7909 12 16V22M37 12V22M37 22H12M37 22V32M12 22V32M37 32H12M37 32V42M12 32V42M37 42H12M37 42V52M12 42V52M37 52H12M40 15H59V19H40V15ZM34 15H17C15.8954 15 15 15.8954 15 17V19H34V15Z"
              stroke="#D5DBEF" stroke-width="6" stroke-linecap="round" stroke-linejoin="round"/>
        <path id="icon-front_2"
              class="color-1"
              d="M62 22H70M62 22V12M62 22H37M62 22V32M62 12H70M62 12H37M70 15H65V19H70M62 32H70M62 32H37M62 32V42M62 42H70M62 42H37M62 42V52M62 52H70M62 52H37M62 52V62M62 62H70M62 62V69M62 62H37M12 62V69M12 62H37M12 62V52M37 62V69M37 62V52M37 12H16C13.7909 12 12 13.7909 12 16V22M37 12V22M37 22H12M37 22V32M12 22V32M37 32H12M37 32V42M12 32V42M37 42H12M37 42V52M12 42V52M37 52H12M40 15H59V19H40V15ZM34 15H17C15.8954 15 15 15.8954 15 17V19H34V15Z"
              stroke="#3D4167" stroke-width="2" stroke-linecap="round" stroke-linejoin="round"/>
    </g>
</svg>
