<svg width="86" height="63" viewBox="0 0 86 63" fill="none" xmlns="http://www.w3.org/2000/svg" class="icon-bssoo-4">
    <title>chart bubble</title>
    <g id="icon-bsso-icon-bsso-chartbubble">
        <path id="icon-back"
              class="color-2"
              d="M3 60H83M54 30.5C54 36.299 49.299 41 43.5 41C37.701 41 33 36.299 33 30.5C33 24.701 37.701 20 43.5 20C49.299 20 54 24.701 54 30.5ZM21 38.5C21 41.5376 18.5376 44 15.5 44C12.4624 44 10 41.5376 10 38.5C10 35.4624 12.4624 33 15.5 33C18.5376 33 21 35.4624 21 38.5ZM27 24C27 26.2091 25.2091 28 23 28C20.7909 28 19 26.2091 19 24C19 21.7909 20.7909 20 23 20C25.2091 20 27 21.7909 27 24ZM67 42C67 45.3137 64.3137 48 61 48C57.6863 48 55 45.3137 55 42C55 38.6863 57.6863 36 61 36C64.3137 36 67 38.6863 67 42ZM65 26C65 27.1046 64.1046 28 63 28C61.8954 28 61 27.1046 61 26C61 24.8954 61.8954 24 63 24C64.1046 24 65 24.8954 65 26ZM74 14C74 15.1046 73.1046 16 72 16C70.8954 16 70 15.1046 70 14C70 12.8954 70.8954 12 72 12C73.1046 12 74 12.8954 74 14ZM35 50C35 52.2091 33.2091 54 31 54C28.7909 54 27 52.2091 27 50C27 47.7909 28.7909 46 31 46C33.2091 46 35 47.7909 35 50Z"
              stroke="#D5DBEF" stroke-width="6" stroke-linecap="round" stroke-linejoin="round"/>
        <path id="icon-front"
              class="color-1"
              d="M3 60H83M54 30.5C54 36.299 49.299 41 43.5 41C37.701 41 33 36.299 33 30.5C33 24.701 37.701 20 43.5 20C49.299 20 54 24.701 54 30.5ZM21 38.5C21 41.5376 18.5376 44 15.5 44C12.4624 44 10 41.5376 10 38.5C10 35.4624 12.4624 33 15.5 33C18.5376 33 21 35.4624 21 38.5ZM27 24C27 26.2091 25.2091 28 23 28C20.7909 28 19 26.2091 19 24C19 21.7909 20.7909 20 23 20C25.2091 20 27 21.7909 27 24ZM67 42C67 45.3137 64.3137 48 61 48C57.6863 48 55 45.3137 55 42C55 38.6863 57.6863 36 61 36C64.3137 36 67 38.6863 67 42ZM65 26C65 27.1046 64.1046 28 63 28C61.8954 28 61 27.1046 61 26C61 24.8954 61.8954 24 63 24C64.1046 24 65 24.8954 65 26ZM74 14C74 15.1046 73.1046 16 72 16C70.8954 16 70 15.1046 70 14C70 12.8954 70.8954 12 72 12C73.1046 12 74 12.8954 74 14ZM35 50C35 52.2091 33.2091 54 31 54C28.7909 54 27 52.2091 27 50C27 47.7909 28.7909 46 31 46C33.2091 46 35 47.7909 35 50Z"
              stroke="#3D4167" stroke-width="2" stroke-linecap="round" stroke-linejoin="round"/>
    </g>
</svg>
