<svg width="80" height="80" viewBox="0 0 80 80" fill="none" xmlns="http://www.w3.org/2000/svg" class="icon-bssoo-20">
    <title>licence</title>
    <g id="icon-bsso-licence">
        <path id="icon-back"
              class="color-2"
              d="M50 28L27 28M50 31L27 31M50 34L27 34M50 37L27 37M50 40L32 40M42 45H27M42 48H27M57 42.5V11H24C21.7909 11 20 12.7909 20 15V64H47M51.3636 62L50 74L55 70.5L60 74L58.6364 62M28 64L20 56H28V64ZM50 17H27V23H50V17ZM58 53C58 54.6569 56.6569 56 55 56C53.3431 56 52 54.6569 52 53C52 51.3431 53.3431 50 55 50C56.6569 50 58 51.3431 58 53ZM52.4472 47.1285L52.2377 46.9745C51.4987 46.4315 50.4795 47.0865 50.6665 47.9842L50.7195 48.2387C50.8541 48.8849 50.3368 49.482 49.678 49.4407L49.4186 49.4244C48.5033 49.3671 48 50.4692 48.6427 51.1233L48.8249 51.3088C49.2875 51.7796 49.1751 52.5616 48.5986 52.883L48.3715 53.0096C47.5706 53.4562 47.743 54.6554 48.6373 54.8582L48.8908 54.9157C49.5345 55.0618 49.8627 55.7803 49.5515 56.3624L49.429 56.5917C48.9966 57.4004 49.79 58.316 50.652 58.0032L50.8964 57.9145C51.5168 57.6893 52.1814 58.1164 52.2343 58.7743L52.2552 59.0335C52.3287 59.9476 53.4911 60.2889 54.0472 59.5597L54.2048 59.3529C54.605 58.828 55.395 58.828 55.7952 59.3529L55.9528 59.5597C56.5089 60.2889 57.6713 59.9476 57.7448 59.0335L57.7657 58.7743C57.8186 58.1164 58.4832 57.6893 59.1036 57.9145L59.348 58.0032C60.21 58.316 61.0034 57.4004 60.571 56.5917L60.4485 56.3624C60.1373 55.7803 60.4655 55.0618 61.1092 54.9157L61.3627 54.8582C62.257 54.6554 62.4294 53.4562 61.6285 53.0096L61.4014 52.883C60.8249 52.5616 60.7125 51.7796 61.1751 51.3088L61.3573 51.1233C62 50.4692 61.4967 49.3671 60.5814 49.4244L60.322 49.4407C59.6632 49.482 59.1459 48.8849 59.2805 48.2387L59.3335 47.9842C59.5205 47.0865 58.5013 46.4315 57.7623 46.9745L57.5528 47.1285C57.0209 47.5193 56.263 47.2968 56.0268 46.6804L55.9338 46.4376C55.6058 45.5813 54.3942 45.5813 54.0662 46.4376L53.9732 46.6804C53.737 47.2968 52.9791 47.5193 52.4472 47.1285Z"
              stroke="#D5DBEF" stroke-width="6" stroke-linecap="round" stroke-linejoin="round"/>
        <path id="icon-front"
              class="color-1"
              d="M50 28L27 28M50 31L27 31M50 34L27 34M50 37L27 37M50 40L32 40M42 45H27M42 48H27M57 42.5V11H24C21.7909 11 20 12.7909 20 15V64H47M51.3636 62L50 74L55 70.5L60 74L58.6364 62M28 64L20 56H28V64ZM50 17H27V23H50V17ZM58 53C58 54.6569 56.6569 56 55 56C53.3431 56 52 54.6569 52 53C52 51.3431 53.3431 50 55 50C56.6569 50 58 51.3431 58 53ZM52.4472 47.1285L52.2377 46.9745C51.4987 46.4315 50.4795 47.0865 50.6665 47.9842L50.7195 48.2387C50.8541 48.8849 50.3368 49.482 49.678 49.4407L49.4186 49.4244C48.5033 49.3671 48 50.4692 48.6427 51.1233L48.8249 51.3088C49.2875 51.7796 49.1751 52.5616 48.5986 52.883L48.3715 53.0096C47.5706 53.4562 47.743 54.6554 48.6373 54.8582L48.8908 54.9157C49.5345 55.0618 49.8627 55.7803 49.5515 56.3624L49.429 56.5917C48.9966 57.4004 49.79 58.316 50.652 58.0032L50.8964 57.9145C51.5168 57.6893 52.1814 58.1164 52.2343 58.7743L52.2552 59.0335C52.3287 59.9476 53.4911 60.2889 54.0472 59.5597L54.2048 59.3529C54.605 58.828 55.395 58.828 55.7952 59.3529L55.9528 59.5597C56.5089 60.2889 57.6713 59.9476 57.7448 59.0335L57.7657 58.7743C57.8186 58.1164 58.4832 57.6893 59.1036 57.9145L59.348 58.0032C60.21 58.316 61.0034 57.4004 60.571 56.5917L60.4485 56.3624C60.1373 55.7803 60.4655 55.0618 61.1092 54.9157L61.3627 54.8582C62.257 54.6554 62.4294 53.4562 61.6285 53.0096L61.4014 52.883C60.8249 52.5616 60.7125 51.7796 61.1751 51.3088L61.3573 51.1233C62 50.4692 61.4967 49.3671 60.5814 49.4244L60.322 49.4407C59.6632 49.482 59.1459 48.8849 59.2805 48.2387L59.3335 47.9842C59.5205 47.0865 58.5013 46.4315 57.7623 46.9745L57.5528 47.1285C57.0209 47.5193 56.263 47.2968 56.0268 46.6804L55.9338 46.4376C55.6058 45.5813 54.3942 45.5813 54.0662 46.4376L53.9732 46.6804C53.737 47.2968 52.9791 47.5193 52.4472 47.1285Z"
              stroke="#3D4167" stroke-width="2" stroke-linecap="round" stroke-linejoin="round"/>
    </g>
</svg>
