<svg width="80" height="80" viewBox="0 0 80 80" fill="none" xmlns="http://www.w3.org/2000/svg" class="icon-bssoo-27">
    <title>patients</title>
    <g id="icon-bsso-patients">
        <path id="icon-back"
              class="color-2"
              d="M26 25.5H14C11.7909 25.5 10 27.2909 10 29.5V63.5C10 65.7091 11.7909 67.5 14 67.5H66C68.2091 67.5 70 65.7091 70 63.5V29.5C70 27.2909 68.2091 25.5 66 25.5H39.5M45 30.5H50.0012C50.5535 30.5 51 30.9477 51 31.5V35.5C51 36.0523 50.5523 36.5 50 36.5H30C29.4477 36.5 29 36.0523 29 35.5V31.5C29 30.9477 29.4469 30.5 29.9992 30.5H31M13 12L34.5 33.5H47L26.5 12M68 12L54.5 25.5M41 25.5L54.5 12M25.5 50.5C28.1562 50.5 30.3571 48.2734 30.3571 45.5C30.3571 42.7656 28.1562 40.5 25.5 40.5C22.8058 40.5 20.6429 42.7656 20.6429 45.5C20.6429 48.2734 22.8058 50.5 25.5 50.5ZM28.8772 52.75H28.2321C27.3973 53.1797 26.4866 53.375 25.5 53.375C24.5134 53.375 23.5647 53.1797 22.7299 52.75H22.0848C19.2768 52.75 17 55.1328 17 58.0234V59.625C17 60.6797 17.7969 61.5 18.8214 61.5H32.1786C33.1652 61.5 34 60.6797 34 59.625V58.0234C34 55.1328 31.6853 52.75 28.8772 52.75ZM39 46.5H60C61.1046 46.5 62 45.6046 62 44.5C62 43.3954 61.1046 42.5 60 42.5H39C37.8954 42.5 37 43.3954 37 44.5C37 45.6046 37.8954 46.5 39 46.5ZM39 53.5H50C51.1046 53.5 52 52.6046 52 51.5C52 50.3954 51.1046 49.5 50 49.5H39C37.8954 49.5 37 50.3954 37 51.5C37 52.6046 37.8954 53.5 39 53.5Z"
              stroke="#D5DBEF" stroke-width="6" stroke-linecap="round" stroke-linejoin="round"/>
        <path id="icon-front"
              class="color-1"
              d="M26 26.5C26.5523 26.5 27 26.0523 27 25.5C27 24.9477 26.5523 24.5 26 24.5V26.5ZM39.5 24.5C38.9477 24.5 38.5 24.9477 38.5 25.5C38.5 26.0523 38.9477 26.5 39.5 26.5V24.5ZM13.7071 11.2929C13.3166 10.9024 12.6834 10.9024 12.2929 11.2929C11.9024 11.6834 11.9024 12.3166 12.2929 12.7071L13.7071 11.2929ZM34.5 33.5L33.7929 34.2071C33.9804 34.3946 34.2348 34.5 34.5 34.5V33.5ZM47 33.5V34.5C47.4001 34.5 47.7617 34.2615 47.9193 33.8937C48.0768 33.5258 47.9999 33.0995 47.7237 32.8099L47 33.5ZM27.2237 11.3099C26.8426 10.9102 26.2096 10.8951 25.8099 11.2763C25.4102 11.6574 25.3951 12.2904 25.7763 12.6901L27.2237 11.3099ZM68.7071 12.7071C69.0976 12.3166 69.0976 11.6834 68.7071 11.2929C68.3166 10.9024 67.6834 10.9024 67.2929 11.2929L68.7071 12.7071ZM53.7929 24.7929C53.4024 25.1834 53.4024 25.8166 53.7929 26.2071C54.1834 26.5976 54.8166 26.5976 55.2071 26.2071L53.7929 24.7929ZM40.2929 24.7929C39.9024 25.1834 39.9024 25.8166 40.2929 26.2071C40.6834 26.5976 41.3166 26.5976 41.7071 26.2071L40.2929 24.7929ZM55.2071 12.7071C55.5976 12.3166 55.5976 11.6834 55.2071 11.2929C54.8166 10.9024 54.1834 10.9024 53.7929 11.2929L55.2071 12.7071ZM28.2321 52.75V51.75C28.0729 51.75 27.916 51.788 27.7745 51.8609L28.2321 52.75ZM22.7299 52.75L23.1876 51.8609C23.046 51.788 22.8891 51.75 22.7299 51.75V52.75ZM69 29.5V63.5H71V29.5H69ZM66 66.5H14V68.5H66V66.5ZM11 63.5V29.5H9V63.5H11ZM14 26.5H26V24.5H14V26.5ZM39.5 26.5H66V24.5H39.5V26.5ZM14 66.5C12.3431 66.5 11 65.1569 11 63.5H9C9 66.2614 11.2386 68.5 14 68.5V66.5ZM69 63.5C69 65.1569 67.6569 66.5 66 66.5V68.5C68.7614 68.5 71 66.2614 71 63.5H69ZM71 29.5C71 26.7386 68.7614 24.5 66 24.5V26.5C67.6569 26.5 69 27.8431 69 29.5H71ZM11 29.5C11 27.8431 12.3431 26.5 14 26.5V24.5C11.2386 24.5 9 26.7386 9 29.5H11ZM50 31.5V35.5H52V31.5H50ZM50 35.5H30V37.5H50V35.5ZM30 35.5V31.5H28V35.5H30ZM45 31.5H50.0012V29.5H45V31.5ZM29.9992 31.5H31V29.5H29.9992V31.5ZM30 35.5H28C28 36.6046 28.8954 37.5 30 37.5V35.5ZM50 35.5V37.5C51.1046 37.5 52 36.6046 52 35.5H50ZM52 31.5C52 30.397 51.1074 29.5 50.0012 29.5V31.5C50.0025 31.5 50.0027 31.5001 50.0021 31.5C50.0016 31.4999 50.001 31.4997 50.0004 31.4995C49.9994 31.499 49.9995 31.4988 50 31.4994C50.0006 31.5 50.0006 31.5002 50.0003 31.4996C50.0001 31.4992 50 31.4988 49.9999 31.4985C49.9999 31.4981 50 31.4985 50 31.5H52ZM30 31.5H29.9992V29.5C28.8936 29.5 28 30.3965 28 31.5H30ZM12.2929 12.7071L33.7929 34.2071L35.2071 32.7929L13.7071 11.2929L12.2929 12.7071ZM34.5 34.5H47V32.5H34.5V34.5ZM47.7237 32.8099L27.2237 11.3099L25.7763 12.6901L46.2763 34.1901L47.7237 32.8099ZM67.2929 11.2929L53.7929 24.7929L55.2071 26.2071L68.7071 12.7071L67.2929 11.2929ZM41.7071 26.2071L55.2071 12.7071L53.7929 11.2929L40.2929 24.7929L41.7071 26.2071ZM25.5 51.5C28.7306 51.5 31.3571 48.8033 31.3571 45.5H29.3571C29.3571 47.7435 27.5819 49.5 25.5 49.5V51.5ZM31.3571 45.5C31.3571 42.2409 28.7357 39.5 25.5 39.5V41.5C27.5768 41.5 29.3571 43.2904 29.3571 45.5H31.3571ZM25.5 39.5C22.2214 39.5 19.6429 42.246 19.6429 45.5H21.6429C21.6429 43.2852 23.3902 41.5 25.5 41.5V39.5ZM19.6429 45.5C19.6429 48.7982 22.2264 51.5 25.5 51.5V49.5C23.3852 49.5 21.6429 47.7487 21.6429 45.5H19.6429ZM28.8772 51.75H28.2321V53.75H28.8772V51.75ZM27.7745 51.8609C27.1003 52.2079 26.3503 52.375 25.5 52.375V54.375C26.6229 54.375 27.6943 54.1515 28.6898 53.6391L27.7745 51.8609ZM25.5 52.375C24.6432 52.375 23.8568 52.2053 23.1876 51.8609L22.2723 53.6391C23.2727 54.154 24.3836 54.375 25.5 54.375V52.375ZM22.7299 51.75H22.0848V53.75H22.7299V51.75ZM22.0848 51.75C18.6879 51.75 16 54.6179 16 58.0234H18C18 55.6477 19.8657 53.75 22.0848 53.75V51.75ZM16 58.0234V59.625H18V58.0234H16ZM16 59.625C16 61.2044 17.2175 62.5 18.8214 62.5V60.5C18.3763 60.5 18 60.1549 18 59.625H16ZM18.8214 62.5H32.1786V60.5H18.8214V62.5ZM32.1786 62.5C33.7312 62.5 35 61.2182 35 59.625H33C33 60.1412 32.5992 60.5 32.1786 60.5V62.5ZM35 59.625V58.0234H33V59.625H35ZM35 58.0234C35 54.6081 32.2647 51.75 28.8772 51.75V53.75C31.1059 53.75 33 55.6576 33 58.0234H35ZM39 43.5H60V41.5H39V43.5ZM60 45.5H39V47.5H60V45.5ZM39 45.5C38.4477 45.5 38 45.0523 38 44.5H36C36 46.1569 37.3431 47.5 39 47.5V45.5ZM61 44.5C61 45.0523 60.5523 45.5 60 45.5V47.5C61.6569 47.5 63 46.1569 63 44.5H61ZM60 43.5C60.5523 43.5 61 43.9477 61 44.5H63C63 42.8431 61.6569 41.5 60 41.5V43.5ZM39 41.5C37.3431 41.5 36 42.8431 36 44.5H38C38 43.9477 38.4477 43.5 39 43.5V41.5ZM39 50.5H50V48.5H39V50.5ZM50 52.5H39V54.5H50V52.5ZM39 52.5C38.4477 52.5 38 52.0523 38 51.5H36C36 53.1569 37.3431 54.5 39 54.5V52.5ZM51 51.5C51 52.0523 50.5523 52.5 50 52.5V54.5C51.6569 54.5 53 53.1569 53 51.5H51ZM50 50.5C50.5523 50.5 51 50.9477 51 51.5H53C53 49.8431 51.6569 48.5 50 48.5V50.5ZM39 48.5C37.3431 48.5 36 49.8431 36 51.5H38C38 50.9477 38.4477 50.5 39 50.5V48.5Z"
              fill="#3D4167"/>
    </g>
</svg>
