<svg width="86" height="63" viewBox="0 0 86 63" fill="none" xmlns="http://www.w3.org/2000/svg" class="icon-bssoo-3">
    <title>chart line</title>
    <g id="icon-bsso-chartline">
        <path id="icon-back"
              class="color-2"
              d="M3 60H83M9 52.5C17.0526 52.5 17.6277 43 23.3158 43C29.1316 43 31.4233 47 36.7368 47C40.3158 47 44.8703 45 50.1579 45C55.9737 45 57.7632 35.5 63.5789 35.5C69.3947 35.5 71.1842 41.5 77 41.5M9 46.5C17.0526 46.5 17.6277 39 23.3158 39C29.1316 39 31.4233 34.5 36.7368 34.5C40.3158 34.5 44.8703 40.5 50.1579 40.5C55.9737 40.5 57.7632 26 63.5789 26C69.3947 26 71.1842 31 77 31M9 39.5C17.0526 39.5 17.6277 35.5 23.3158 35.5C29.1316 35.5 31.4233 31 36.7368 31C40.3158 31 45.3176 34 50.6053 34C56.4211 34 57.7632 18 63.5789 18C69.3947 18 71.1842 20.5 77 20.5M9 23C17.0526 23 17.6277 19 23.3158 19C29.1316 19 31.4233 14.5 36.7368 14.5C40.3158 14.5 45.3176 21.5 50.6053 21.5C56.4211 21.5 57.7632 14.5 63.5789 14.5C69.3947 14.5 71.1842 11 77 11"
              stroke="#D5DBEF" stroke-width="6" stroke-linecap="round" stroke-linejoin="round"/>
        <path id="icon-front"
              class="color-1"
              d="M3 60H83M9 52.5C17.0526 52.5 17.6277 43 23.3158 43C29.1316 43 31.4233 47 36.7368 47C40.3158 47 44.8703 45 50.1579 45C55.9737 45 57.7632 35.5 63.5789 35.5C69.3947 35.5 71.1842 41.5 77 41.5M9 46.5C17.0526 46.5 17.6277 39 23.3158 39C29.1316 39 31.4233 34.5 36.7368 34.5C40.3158 34.5 44.8703 40.5 50.1579 40.5C55.9737 40.5 57.7632 26 63.5789 26C69.3947 26 71.1842 31 77 31M9 39.5C17.0526 39.5 17.6277 35.5 23.3158 35.5C29.1316 35.5 31.4233 31 36.7368 31C40.3158 31 45.3176 34 50.6053 34C56.4211 34 57.7632 18 63.5789 18C69.3947 18 71.1842 20.5 77 20.5M9 23C17.0526 23 17.6277 19 23.3158 19C29.1316 19 31.4233 14.5 36.7368 14.5C40.3158 14.5 45.3176 21.5 50.6053 21.5C56.4211 21.5 57.7632 14.5 63.5789 14.5C69.3947 14.5 71.1842 11 77 11"
              stroke="#3D4167" stroke-width="2" stroke-linecap="round" stroke-linejoin="round"/>
    </g>
</svg>
