<svg width="80" height="80" viewBox="0 0 80 80" fill="none" xmlns="http://www.w3.org/2000/svg" class="icon-bssoo-24">
    <title>outils</title>
    <g id="icon-bsso-ouvrirlascience-outils">
        <path id="icon-back"
              class="color-2"
              d="M66.8521 55.2491L54.0615 42.471C51.4378 39.959 47.7208 39.413 44.6598 40.942L33.0717 29.3652V22.4846L19.0786 12L12.082 18.9898L22.5769 32.9693H29.3548L40.9429 44.6553C39.5217 47.7133 39.959 51.4266 42.4734 53.9386L55.264 66.8259C56.9039 68.3549 59.4183 68.3549 61.0581 66.8259L66.8521 61.0375C68.3826 59.3993 68.3826 56.8874 66.8521 55.2491ZM48.2674 36.5734C51.4378 36.5734 54.2801 37.7747 56.4666 39.959L58.653 42.1433C60.2928 41.3788 61.9327 40.2867 63.3538 38.8669C67.3987 34.8259 68.8199 29.1468 67.5081 24.0137C67.2894 23.0307 66.0869 22.7031 65.3216 23.3584L57.2318 31.5495L49.798 30.2389L48.5954 22.8123L56.6852 14.7304C57.4505 13.9659 57.0132 12.7645 56.0293 12.5461C50.8912 11.2355 45.2064 12.6553 41.1615 16.6962C37.9912 19.7543 36.57 23.9044 36.57 27.9454L45.6437 36.901C46.5183 36.6826 47.3929 36.5734 48.2674 36.5734ZM36.898 45.529L30.776 39.413L14.0498 56.0137C11.3167 58.744 11.3167 63.2218 14.0498 65.9522C16.7828 68.6826 21.265 68.6826 23.998 65.9522L37.4446 52.4096C36.6794 50.2253 36.3514 47.9317 36.898 45.529ZM19.0786 63.5495C17.5481 63.5495 16.4549 62.4573 16.4549 60.9283C16.4549 59.5085 17.5481 58.3072 19.0786 58.3072C20.4998 58.3072 21.7023 59.5085 21.7023 60.9283C21.7023 62.4573 20.4998 63.5495 19.0786 63.5495Z"
              stroke="#D5DBEF" stroke-width="6" stroke-linecap="round" stroke-linejoin="round"/>
        <path id="icon-front"
              class="color-1"
              d="M66.8521 55.2491L54.0615 42.471C51.4378 39.959 47.7208 39.413 44.6598 40.942L33.0717 29.3652V22.4846L19.0786 12L12.082 18.9898L22.5769 32.9693H29.3548L40.9429 44.6553C39.5217 47.7133 39.959 51.4266 42.4734 53.9386L55.264 66.8259C56.9039 68.3549 59.4183 68.3549 61.0581 66.8259L66.8521 61.0375C68.3826 59.3993 68.3826 56.8874 66.8521 55.2491ZM48.2674 36.5734C51.4378 36.5734 54.2801 37.7747 56.4666 39.959L58.653 42.1433C60.2928 41.3788 61.9327 40.2867 63.3538 38.8669C67.3987 34.8259 68.8199 29.1468 67.5081 24.0137C67.2894 23.0307 66.0869 22.7031 65.3216 23.3584L57.2318 31.5495L49.798 30.2389L48.5954 22.8123L56.6852 14.7304C57.4505 13.9659 57.0132 12.7645 56.0293 12.5461C50.8912 11.2355 45.2064 12.6553 41.1615 16.6962C37.9912 19.7543 36.57 23.9044 36.57 27.9454L45.6437 36.901C46.5183 36.6826 47.3929 36.5734 48.2674 36.5734ZM36.898 45.529L30.776 39.413L14.0498 56.0137C11.3167 58.744 11.3167 63.2218 14.0498 65.9522C16.7828 68.6826 21.265 68.6826 23.998 65.9522L37.4446 52.4096C36.6794 50.2253 36.3514 47.9317 36.898 45.529ZM19.0786 63.5495C17.5481 63.5495 16.4549 62.4573 16.4549 60.9283C16.4549 59.5085 17.5481 58.3072 19.0786 58.3072C20.4998 58.3072 21.7023 59.5085 21.7023 60.9283C21.7023 62.4573 20.4998 63.5495 19.0786 63.5495Z"
              stroke="#3D4167" stroke-width="2" stroke-linejoin="round"/>
    </g>
</svg>
