<svg width="80" height="80" viewBox="0 0 80 80" fill="none" xmlns="http://www.w3.org/2000/svg" class="icon-bssoo-11">
    <title>collecte</title>
    <g id="icon-bsso-collecte">
        <path id="icon-back"
              class="color-2"
              d="M31 48V22C31 16.4772 35.4772 12 41 12C46.5228 12 51 16.4772 51 22V36.6575M36 53L71 53M7 53H26M7 48H23M38 48L72 48M37 43L71 43M7 43H25M9 58H70M12 63H67M21 35.5C21 33.567 22.567 32 24.5 32C26.433 32 28 33.567 28 35.5M34 35.5C34 33.567 35.567 32 37.5 32C39.433 32 41 33.567 41 35.5C41 33.567 42.567 32 44.5 32C46.433 32 48 33.567 48 35.5M54 35.5C54 33.567 55.567 32 57.5 32C59.433 32 61 33.567 61 35.5C61 33.567 62.567 32 64.5 32C66.433 32 68 33.567 68 35.5M11 23V18M19 23V21M15 21V12M7 38H72V52C72 60.8366 64.8366 68 56 68H23C14.1634 68 7 60.8366 7 52V38ZM35 48C35 50.2091 33.2091 52 31 52C28.7909 52 27 50.2091 27 48C27 45.7909 28.7909 44 31 44C33.2091 44 35 45.7909 35 48ZM18 28C18 29.6569 16.6569 31 15 31C13.3431 31 12 29.6569 12 28C12 26.3431 13.3431 25 15 25C16.6569 25 18 26.3431 18 28Z"
              stroke="#D5DBEF" stroke-width="6" stroke-linecap="round" stroke-linejoin="round"/>
        <path id="icon-front"
              class="color-1"
              d="M31 48V22C31 16.4772 35.4772 12 41 12C46.5228 12 51 16.4772 51 22V36.6575M36 53L71 53M7 53H26M7 48H23M38 48L72 48M37 43L71 43M7 43H25M9 58H70M12 63H67M21 35.5C21 33.567 22.567 32 24.5 32C26.433 32 28 33.567 28 35.5M34 35.5C34 33.567 35.567 32 37.5 32C39.433 32 41 33.567 41 35.5C41 33.567 42.567 32 44.5 32C46.433 32 48 33.567 48 35.5M54 35.5C54 33.567 55.567 32 57.5 32C59.433 32 61 33.567 61 35.5C61 33.567 62.567 32 64.5 32C66.433 32 68 33.567 68 35.5M11 23V18M19 23V21M15 21V12M7 38H72V52C72 60.8366 64.8366 68 56 68H23C14.1634 68 7 60.8366 7 52V38ZM35 48C35 50.2091 33.2091 52 31 52C28.7909 52 27 50.2091 27 48C27 45.7909 28.7909 44 31 44C33.2091 44 35 45.7909 35 48ZM18 28C18 29.6569 16.6569 31 15 31C13.3431 31 12 29.6569 12 28C12 26.3431 13.3431 25 15 25C16.6569 25 18 26.3431 18 28Z"
              stroke="#3D4167" stroke-width="2" stroke-linecap="round" stroke-linejoin="round"/>
    </g>
</svg>
