<svg width="64" height="48" viewBox="0 0 64 48" fill="none" xmlns="http://www.w3.org/2000/svg" class="icon-bsso-36">
    <title>box</title>
    <path d="M7.23888 21.7732V38.6861C7.23888 40.1113 8.20774 41.3465 9.56415 41.6316L30.4915 46.8574C31.4604 47.0475 32.5261 47.0475 33.495 46.8574L54.4224 41.6316C55.8757 41.3465 56.8446 40.1113 56.8446 38.6861V21.7732M32.0417 7.42583L56.2632 4.48034C56.9414 4.38532 57.5228 4.67037 57.8134 5.24046L62.8515 15.0271C63.239 15.8822 62.8515 16.9274 61.8826 17.2125L42.6992 22.6284C42.021 22.8184 41.2459 22.5334 40.8583 21.9633L32.0417 7.42583ZM32.0417 7.42583L23.1282 21.8682C22.7407 22.5334 21.9656 22.8184 21.2874 22.6284L2.10392 17.2125C1.23195 16.9274 0.747517 15.8822 1.13506 15.0271L6.17314 5.24046C6.46379 4.67037 7.04511 4.38532 7.72331 4.48034L32.0417 7.42583ZM7 4.46237L32 1L57 4.46237M32 14.8494V47"
        stroke="#D5DBEF" stroke-width="6" stroke-linecap="round" stroke-linejoin="round" class="color-2" />
    <path d="M7.23888 21.7732V38.6861C7.23888 40.1113 8.20774 41.3465 9.56415 41.6316L30.4915 46.8574C31.4604 47.0475 32.5261 47.0475 33.495 46.8574L54.4224 41.6316C55.8757 41.3465 56.8446 40.1113 56.8446 38.6861V21.7732M32.0417 7.42583L56.2632 4.48034C56.9414 4.38532 57.5228 4.67037 57.8134 5.24046L62.8515 15.0271C63.239 15.8822 62.8515 16.9274 61.8826 17.2125L42.6992 22.6284C42.021 22.8184 41.2459 22.5334 40.8583 21.9633L32.0417 7.42583ZM32.0417 7.42583L23.1282 21.8682C22.7407 22.5334 21.9656 22.8184 21.2874 22.6284L2.10392 17.2125C1.23195 16.9274 0.747517 15.8822 1.13506 15.0271L6.17314 5.24046C6.46379 4.67037 7.04511 4.38532 7.72331 4.48034L32.0417 7.42583ZM7 4.46237L32 1L57 4.46237M32 14.8494V47"
        stroke="#3D4167" stroke-width="2" stroke-linecap="round" stroke-linejoin="round" class="color-1" />
</svg>
