<svg width="80" height="80" viewBox="0 0 80 80" fill="none" xmlns="http://www.w3.org/2000/svg" class="icon-bssoo-30">
    <title>sous disciplines</title>
    <g id="icon-bsso-sousdisciplines">
        <path id="icon-back"
              class="color-2"
              d="M66 65H12.9814C10.7723 65 9 63.2091 9 61V32C9 30.8954 9.89543 30 11 30H62V61C62 63.2091 63.7909 65 66 65ZM66 65C68.2091 65 70 63.2091 70 61V17H49.6075C47.355 17 45.2495 18.1258 44 20C42.7505 21.8742 40.647 23 38.3944 23H17.5C16.3954 23 15.5 23.8954 15.5 25V30M19.5 30V26H66V61.5H62M51.5 23H64.5C65.3284 23 66 22.3284 66 21.5C66 20.6716 65.3284 20 64.5 20H51.5C50.6716 20 50 20.6716 50 21.5C50 22.3284 50.6716 23 51.5 23Z"
              stroke="#D5DBEF" stroke-width="6" stroke-linecap="round" stroke-linejoin="round"/>
        <path id="icon-front"
              class="color-1"
              d="M66 65H12.9814C10.7723 65 9 63.2091 9 61V32C9 30.8954 9.89543 30 11 30H62V61C62 63.2091 63.7909 65 66 65ZM66 65C68.2091 65 70 63.2091 70 61V17H49.6075C47.355 17 45.2495 18.1258 44 20C42.7505 21.8742 40.647 23 38.3944 23H17.5C16.3954 23 15.5 23.8954 15.5 25V30M19.5 30V26H66V61.5H62M51.5 23H64.5C65.3284 23 66 22.3284 66 21.5C66 20.6716 65.3284 20 64.5 20H51.5C50.6716 20 50 20.6716 50 21.5C50 22.3284 50.6716 23 51.5 23Z"
              stroke="#3D4167" stroke-width="2" stroke-linecap="round" stroke-linejoin="round"/>
    </g>
</svg>
