<svg width="80" height="80" viewBox="0 0 80 80" fill="none" xmlns="http://www.w3.org/2000/svg" class="icon-bssoo-16">
    <title>établissements</title>
    <g id="icon-bsso-etablissements">
        <path id="icon-back"
              class="color-2"
              d="M37 32H10V28C10 28 23.3316 28 37 28M37 32C37 32 37 29.5621 37 28M37 32V50M37 32H62M37 32V28M37 32V72M12 32V50H37M37 28C37 28 48.3316 28 62 28M37 50H69V32M37 50C23.3316 50 10 50 10 50V54H37M37 50C37 51.5621 37 54 37 54M37 50V54M37 50C37 50 48.3316 50 62 50M33 41V36H16V41M33 41H16M33 41V46H16V41M62 32C62 32 62 29.5621 62 28M62 32H71V28H62M62 32V72M58 41V36H41V41M58 41H41M58 41V46H41V41M37 54V72M37 54H62M12 54V72H37M24 63V58H16V63M24 63H16M24 63V68H16V63M62 54C62 54 62 51.5621 62 50M62 54H71V50H62M37 72H69V54M49 63V58H41V63M49 63H41M49 63V68H41V63M33 72H27V58H33V72ZM58 72H52V58H58V72Z"
              stroke="#D5DBEF" stroke-width="6" stroke-linecap="round" stroke-linejoin="round"/>
        <path id="icon-front"
              class="color-1"
              d="M37 32H10V28C10 28 23.3316 28 37 28M37 32C37 32 37 29.5621 37 28M37 32V50M37 32H62M37 32V28M37 32V72M12 32V50H37M37 28C37 28 48.3316 28 62 28M37 50H69V32M37 50C23.3316 50 10 50 10 50V54H37M37 50C37 51.5621 37 54 37 54M37 50V54M37 50C37 50 48.3316 50 62 50M33 41V36H16V41M33 41H16M33 41V46H16V41M62 32C62 32 62 29.5621 62 28M62 32H71V28H62M62 32V72M58 41V36H41V41M58 41H41M58 41V46H41V41M37 54V72M37 54H62M12 54V72H37M24 63V58H16V63M24 63H16M24 63V68H16V63M62 54C62 54 62 51.5621 62 50M62 54H71V50H62M37 72H69V54M49 63V58H41V63M49 63H41M49 63V68H41V63M33 72H27V58H33V72ZM58 72H52V58H58V72Z"
              stroke="#3D4167" stroke-width="2" stroke-linecap="round" stroke-linejoin="round"/>
    </g>
</svg>
