<svg width="80" height="80" viewBox="0 0 80 80" fill="none" xmlns="http://www.w3.org/2000/svg" class="icon-bssoo-7">
    <title>accès fermé</title>
    <g id="icon-bsso-accesferme">
        <path id="icon-back"
              class="color-2"
              d="M31.8889 33.5714V25.4286C31.8889 20.6947 35.7442 16.8571 40.5 16.8571C45.2558 16.8571 49.1111 20.6947 49.1111 25.4286V33.5714M25 33.5714V25.4286C25 16.9076 31.9396 10 40.5 10C49.0604 10 56 16.9076 56 25.4286V33.5714M36.6984 50.773C35.0638 49.5924 34 47.6704 34 45.5C34 41.9101 36.9101 39 40.5 39C44.0899 39 47 41.9101 47 45.5C47 47.6704 45.9362 49.5924 44.3016 50.773M37 51L34 63H47.5952L44 51M20 34H61V69H20V34Z"
              stroke="#D5DBEF" stroke-width="6" stroke-linecap="round" stroke-linejoin="round"/>
        <path id="icon-front"
              class="color-1"
              d="M31.8889 33.5714V25.4286C31.8889 20.6947 35.7442 16.8571 40.5 16.8571C45.2558 16.8571 49.1111 20.6947 49.1111 25.4286V33.5714M25 33.5714V25.4286C25 16.9076 31.9396 10 40.5 10C49.0604 10 56 16.9076 56 25.4286V33.5714M36.6984 50.773C35.0638 49.5924 34 47.6704 34 45.5C34 41.9101 36.9101 39 40.5 39C44.0899 39 47 41.9101 47 45.5C47 47.6704 45.9362 49.5924 44.3016 50.773M37 51L34 63H47.5952L44 51M22 69H59C60.1046 69 61 68.1046 61 67V36C61 34.8954 60.1046 34 59 34H22C20.8954 34 20 34.8954 20 36V67C20 68.1046 20.8954 69 22 69Z"
              stroke="#3D4167" stroke-width="2" stroke-linecap="round" stroke-linejoin="round"/>
    </g>
</svg>
