<svg width="80" height="80" viewBox="0 0 80 80" fill="none" xmlns="http://www.w3.org/2000/svg" class="icon-bsso-31">
    <title>discussions</title>
    <path class="color-2" d="M54.5119 29.5C54.5119 19.875 44.2377 12 31.7774 12C19.2078 12 9.04288 19.875 9.04288 29.5C9.04288 33.3281 10.5731 36.7187 13.1963 39.5625C11.6661 42.9531 9.26148 45.5781 9.26148 45.5781C9.04288 45.7969 8.93358 46.2344 9.04288 46.5625C9.26148 46.8906 9.48008 47 9.91728 47C13.8521 47 17.1311 45.6875 19.5357 44.2656C23.0333 46.0156 27.2961 47 31.7774 47C44.2377 47 54.5119 39.2344 54.5119 29.5ZM67.8466 53.5625C70.3605 50.7187 72 47.3281 72 43.5C72 36.2812 66.0978 29.9375 57.7909 27.3125C57.9002 28.0781 58.0095 28.8437 58.0095 29.5C58.0095 41.0937 46.2051 50.5 31.7774 50.5C30.5751 50.5 29.3728 50.5 28.2798 50.3906C31.6681 56.625 39.7563 61 49.2655 61C53.7468 61 57.9002 60.0156 61.3978 58.2656C63.8025 59.6875 67.0815 61 71.1256 61C71.4535 61 71.7814 60.8906 71.8907 60.5625C72 60.2344 72 59.7969 71.6721 59.5781C71.6721 59.5781 69.2675 56.9531 67.8466 53.5625Z"
          stroke="#FFC29E" stroke-width="6" stroke-linecap="round" stroke-linejoin="round"/>
    <path class="color-1" d="M54.5119 29.5C54.5119 19.875 44.2377 12 31.7774 12C19.2078 12 9.04288 19.875 9.04288 29.5C9.04288 33.3281 10.5731 36.7187 13.1963 39.5625C11.6661 42.9531 9.26148 45.5781 9.26148 45.5781C9.04288 45.7969 8.93358 46.2344 9.04288 46.5625C9.26148 46.8906 9.48008 47 9.91728 47C13.8521 47 17.1311 45.6875 19.5357 44.2656C23.0333 46.0156 27.2961 47 31.7774 47C44.2377 47 54.5119 39.2344 54.5119 29.5ZM67.8466 53.5625C70.3605 50.7187 72 47.3281 72 43.5C72 36.2812 66.0978 29.9375 57.7909 27.3125C57.9002 28.0781 58.0095 28.8437 58.0095 29.5C58.0095 41.0937 46.2051 50.5 31.7774 50.5C30.5751 50.5 29.3728 50.5 28.2798 50.3906C31.6681 56.625 39.7563 61 49.2655 61C53.7468 61 57.9002 60.0156 61.3978 58.2656C63.8025 59.6875 67.0815 61 71.1256 61C71.4535 61 71.7814 60.8906 71.8907 60.5625C72 60.2344 72 59.7969 71.6721 59.5781C71.6721 59.5781 69.2675 56.9531 67.8466 53.5625Z"
          stroke="#3D4167" stroke-width="2" stroke-linecap="round" stroke-linejoin="round"/>
</svg>
