<svg width="80" height="80" viewBox="0 0 80 80" fill="none" xmlns="http://www.w3.org/2000/svg">
<path d="M41 29L18 29M41 32L18 32M34 35H18M26.5 38H18M26.5 46H18M26.5 49H18M48 12H15C12.7909 12 11 13.7909 11 16V65H48M48 12V31M48 12H51M62.7333 55.7332C62.7333 57.8043 58.0323 60.7957 52.2333 60.7957C46.4343 60.7957 41.7333 57.8043 41.7333 55.7332V48.9832M52.2333 43.0769L62.7333 48.9832V69.9832M51 12V30M51 12H54M54 12V30M54 12H57M57 12V31M57 12H60M60 12V32M60 12H63V34M19 65L11 57H19V65ZM41 18H18V24H41V18ZM52 33L73 43.5L52 54L31 43.5L52 33ZM65.3583 69.9832C65.3583 71.4329 64.183 72.6082 62.7333 72.6082C61.2835 72.6082 60.1083 71.4329 60.1083 69.9832C60.1083 68.5334 61.2835 67.3582 62.7333 67.3582C64.183 67.3582 65.3583 68.5334 65.3583 69.9832Z" stroke="#fff" stroke-width="10" stroke-linecap="round" stroke-linejoin="round"/>
<path d="M11 57L19 65V57H11Z" fill="#fff"/>
<path d="M41 18H18V24H41V18Z" fill="#fff"/>
<path d="M52 33L73 43.5L52 54L31 43.5L52 33Z" fill="#fff"/>
<path d="M65.3583 69.9832C65.3583 71.4329 64.183 72.6082 62.7333 72.6082C61.2835 72.6082 60.1083 71.4329 60.1083 69.9832C60.1083 68.5334 61.2835 67.3582 62.7333 67.3582C64.183 67.3582 65.3583 68.5334 65.3583 69.9832Z" fill="#fff"/>
<path d="M11 65H10C10 65.5523 10.4477 66 11 66V65ZM19 65L18.2929 65.7071C18.5789 65.9931 19.009 66.0787 19.3827 65.9239C19.7564 65.7691 20 65.4045 20 65H19ZM11 57V56C10.5955 56 10.2309 56.2436 10.0761 56.6173C9.92134 56.991 10.0069 57.4211 10.2929 57.7071L11 57ZM19 57H20C20 56.4477 19.5523 56 19 56V57ZM41 18H42C42 17.4477 41.5523 17 41 17V18ZM18 18V17C17.4477 17 17 17.4477 17 18H18ZM18 24H17C17 24.5523 17.4477 25 18 25V24ZM41 24V25C41.5523 25 42 24.5523 42 24H41ZM41 30C41.5523 30 42 29.5523 42 29C42 28.4477 41.5523 28 41 28V30ZM18 28C17.4477 28 17 28.4477 17 29C17 29.5523 17.4477 30 18 30V28ZM41 33C41.5523 33 42 32.5523 42 32C42 31.4477 41.5523 31 41 31V33ZM18 31C17.4477 31 17 31.4477 17 32C17 32.5523 17.4477 33 18 33V31ZM34 36C34.5523 36 35 35.5523 35 35C35 34.4477 34.5523 34 34 34V36ZM18 34C17.4477 34 17 34.4477 17 35C17 35.5523 17.4477 36 18 36V34ZM26.5 39C27.0523 39 27.5 38.5523 27.5 38C27.5 37.4477 27.0523 37 26.5 37V39ZM18 37C17.4477 37 17 37.4477 17 38C17 38.5523 17.4477 39 18 39V37ZM26.5 47C27.0523 47 27.5 46.5523 27.5 46C27.5 45.4477 27.0523 45 26.5 45V47ZM18 45C17.4477 45 17 45.4477 17 46C17 46.5523 17.4477 47 18 47V45ZM26.5 50C27.0523 50 27.5 49.5523 27.5 49C27.5 48.4477 27.0523 48 26.5 48V50ZM18 48C17.4477 48 17 48.4477 17 49C17 49.5523 17.4477 50 18 50V48ZM48 66C48.5523 66 49 65.5523 49 65C49 64.4477 48.5523 64 48 64V66ZM47 31C47 31.5523 47.4477 32 48 32C48.5523 32 49 31.5523 49 31H47ZM52 33L52.4472 32.1056C52.1657 31.9648 51.8343 31.9648 51.5528 32.1056L52 33ZM73 43.5L73.4472 44.3944C73.786 44.225 74 43.8788 74 43.5C74 43.1212 73.786 42.775 73.4472 42.6056L73 43.5ZM52 54L51.5528 54.8944C51.8343 55.0352 52.1657 55.0352 52.4472 54.8944L52 54ZM31 43.5L30.5528 42.6056C30.214 42.775 30 43.1212 30 43.5C30 43.8788 30.214 44.225 30.5528 44.3944L31 43.5ZM63.7333 55.7332C63.7333 55.1809 63.2856 54.7332 62.7333 54.7332C62.181 54.7332 61.7333 55.1809 61.7333 55.7332H63.7333ZM42.7333 48.9832C42.7333 48.4309 42.2856 47.9832 41.7333 47.9832C41.181 47.9832 40.7333 48.4309 40.7333 48.9832H42.7333ZM52.7235 42.2054C52.2422 41.9346 51.6325 42.1053 51.3617 42.5867C51.0909 43.068 51.2617 43.6778 51.743 43.9485L52.7235 42.2054ZM62.7333 48.9832H63.7333C63.7333 48.6219 63.5384 48.2887 63.2235 48.1116L62.7333 48.9832ZM61.7333 69.9832C61.7333 70.5355 62.181 70.9832 62.7333 70.9832C63.2856 70.9832 63.7333 70.5355 63.7333 69.9832H61.7333ZM50 30C50 30.5523 50.4477 31 51 31C51.5523 31 52 30.5523 52 30H50ZM53 30C53 30.5523 53.4477 31 54 31C54.5523 31 55 30.5523 55 30H53ZM56 31C56 31.5523 56.4477 32 57 32C57.5523 32 58 31.5523 58 31H56ZM59 32C59 32.5523 59.4477 33 60 33C60.5523 33 61 32.5523 61 32H59ZM63 12H64C64 11.4477 63.5523 11 63 11V12ZM62 34C62 34.5523 62.4477 35 63 35C63.5523 35 64 34.5523 64 34H62ZM10 16V65H12V16H10ZM19.7071 64.2929L11.7071 56.2929L10.2929 57.7071L18.2929 65.7071L19.7071 64.2929ZM11 58H19V56H11V58ZM18 57V65H20V57H18ZM41 17H18V19H41V17ZM17 18V24H19V18H17ZM18 25H41V23H18V25ZM42 24V18H40V24H42ZM41 28L18 28V30L41 30V28ZM41 31L18 31V33L41 33V31ZM34 34H18V36H34V34ZM26.5 37H18V39H26.5V37ZM26.5 45H18V47H26.5V45ZM26.5 48H18V50H26.5V48ZM48 11H15V13H48V11ZM11 66H48V64H11V66ZM12 16C12 14.3431 13.3431 13 15 13V11C12.2386 11 10 13.2386 10 16H12ZM47 12V31H49V12H47ZM51.5528 33.8944L72.5528 44.3944L73.4472 42.6056L52.4472 32.1056L51.5528 33.8944ZM72.5528 42.6056L51.5528 53.1056L52.4472 54.8944L73.4472 44.3944L72.5528 42.6056ZM52.4472 53.1056L31.4472 42.6056L30.5528 44.3944L51.5528 54.8944L52.4472 53.1056ZM31.4472 44.3944L52.4472 33.8944L51.5528 32.1056L30.5528 42.6056L31.4472 44.3944ZM61.7333 55.7332C61.7333 55.8857 61.6314 56.2268 61.1756 56.7172C60.7397 57.1862 60.0695 57.6913 59.1897 58.1575C57.4333 59.0881 54.969 59.7957 52.2333 59.7957V61.7957C55.2966 61.7957 58.0823 61.0076 60.1261 59.9247C61.1464 59.3841 62.0139 58.7531 62.6406 58.0787C63.2476 57.4257 63.7333 56.6163 63.7333 55.7332H61.7333ZM52.2333 59.7957C49.4976 59.7957 47.0333 59.0881 45.2768 58.1575C44.397 57.6913 43.7268 57.1862 43.2909 56.7172C42.8352 56.2268 42.7333 55.8857 42.7333 55.7332H40.7333C40.7333 56.6163 41.219 57.4257 41.8259 58.0787C42.4527 58.7531 43.3202 59.3841 44.3405 59.9247C46.3843 61.0076 49.17 61.7957 52.2333 61.7957V59.7957ZM42.7333 55.7332V48.9832H40.7333V55.7332H42.7333ZM51.743 43.9485L62.243 49.8548L63.2235 48.1116L52.7235 42.2054L51.743 43.9485ZM61.7333 48.9832V69.9832H63.7333V48.9832H61.7333ZM64.3583 69.9832C64.3583 70.8807 63.6307 71.6082 62.7333 71.6082V73.6082C64.7353 73.6082 66.3583 71.9852 66.3583 69.9832H64.3583ZM62.7333 71.6082C61.8358 71.6082 61.1083 70.8807 61.1083 69.9832H59.1083C59.1083 71.9852 60.7312 73.6082 62.7333 73.6082V71.6082ZM61.1083 69.9832C61.1083 69.0857 61.8358 68.3582 62.7333 68.3582V66.3582C60.7312 66.3582 59.1083 67.9812 59.1083 69.9832H61.1083ZM62.7333 68.3582C63.6307 68.3582 64.3583 69.0857 64.3583 69.9832H66.3583C66.3583 67.9812 64.7353 66.3582 62.7333 66.3582V68.3582ZM48 13H51V11H48V13ZM50 12V30H52V12H50ZM51 13H54V11H51V13ZM53 12V30H55V12H53ZM54 13H57V11H54V13ZM56 12V31H58V12H56ZM57 13H60V11H57V13ZM59 12V32H61V12H59ZM60 13H63V11H60V13ZM62 12V34H64V12H62Z" fill="#333"/>
</svg>
