<svg width="80" height="80" viewBox="0 0 80 80" fill="none" xmlns="http://www.w3.org/2000/svg">
<path d="M48.5 19.7803L36.3095 61.8148C35.8333 63.4099 34.2143 64.3481 32.5952 63.879C30.9762 63.4099 30.0238 61.8148 30.5 60.2197L42.6905 18.1852C43.1667 16.5901 44.7857 15.6519 46.4048 16.121C48.0238 16.5901 48.9762 18.1852 48.5 19.7803ZM58.4048 27.3803L69.0714 37.8889C70.3095 39.0148 70.3095 40.9852 69.0714 42.1111L58.4048 52.6197C57.2619 53.8395 55.2619 53.8395 54.1191 52.6197C52.881 51.4938 52.881 49.5234 54.1191 48.3975L62.5952 39.9531L54.1191 31.6025C52.881 30.4766 52.881 28.5062 54.1191 27.3803C55.2619 26.1605 57.2619 26.1605 58.4048 27.3803ZM24.881 31.6025L16.4048 39.9531L24.881 48.3975C26.119 49.5234 26.119 51.4938 24.881 52.6197C23.7381 53.8395 21.7381 53.8395 20.5952 52.6197L9.92857 42.1111C8.69048 40.9852 8.69048 39.0148 9.92857 37.8889L20.5952 27.3803C21.7381 26.1605 23.7381 26.1605 24.881 27.3803C26.119 28.5062 26.119 30.4766 24.881 31.6025Z" stroke="#80D6C6" stroke-width="10" stroke-linecap="round" stroke-linejoin="round"/>
<path d="M48.5 19.7803L36.3095 61.8148C35.8333 63.4099 34.2143 64.3481 32.5952 63.879C30.9762 63.4099 30.0238 61.8148 30.5 60.2197L42.6905 18.1852C43.1667 16.5901 44.7857 15.6519 46.4048 16.121C48.0238 16.5901 48.9762 18.1852 48.5 19.7803ZM58.4048 27.3803L69.0714 37.8889C70.3095 39.0148 70.3095 40.9852 69.0714 42.1111L58.4048 52.6197C57.2619 53.8395 55.2619 53.8395 54.1191 52.6197C52.881 51.4938 52.881 49.5234 54.1191 48.3975L62.5952 39.9531L54.1191 31.6025C52.881 30.4766 52.881 28.5062 54.1191 27.3803C55.2619 26.1605 57.2619 26.1605 58.4048 27.3803ZM24.881 31.6025L16.4048 39.9531L24.881 48.3975C26.119 49.5234 26.119 51.4938 24.881 52.6197C23.7381 53.8395 21.7381 53.8395 20.5952 52.6197L9.92857 42.1111C8.69048 40.9852 8.69048 39.0148 9.92857 37.8889L20.5952 27.3803C21.7381 26.1605 23.7381 26.1605 24.881 27.3803C26.119 28.5062 26.119 30.4766 24.881 31.6025Z" stroke="#3D4167" stroke-width="2" stroke-linecap="round" stroke-linejoin="round"/>
</svg>
