<svg width="80" height="80" viewBox="0 0 80 80" fill="none" xmlns="http://www.w3.org/2000/svg" class="icon-bssoo-22">
    <title>méthodologie</title>
    <g id="icon-bsso-methodologie">
        <path id="icon-back"
              class="color-2"
              d="M40 34V50M40 32.5L40 35.5M40 35.5C40 37.1569 38.6569 38.5 37 38.5H19C17.3431 38.5 16 39.8431 16 41.5V50M40 35.5L40 32M40 35.5C40 37.1569 41.3431 38.5 43 38.5H61C62.6569 38.5 64 39.8431 64 41.5V50M8 70H22C22.5523 70 23 69.5523 23 69V55C23 54.4477 22.5523 54 22 54H8C7.44772 54 7 54.4477 7 55V69C7 69.5523 7.44772 70 8 70ZM48 62C48 66.4183 44.4183 70 40 70C35.5817 70 32 66.4183 32 62C32 57.5817 35.5817 54 40 54C44.4183 54 48 57.5817 48 62ZM64.5 54L74 70H55L64.5 54ZM51.998 14.943L50.6447 11.6761L48.1591 12.4191C47.4673 11.4063 46.592 10.532 45.5784 9.84136L46.3225 7.35333L43.0556 6L41.8221 8.28551C40.617 8.05788 39.38 8.05788 38.1749 8.28551L36.9429 6.00209L33.676 7.35529L34.4191 9.84087C33.4063 10.5326 32.532 11.408 31.8414 12.4216L29.3532 11.6776L28 14.9444L30.2854 16.178C30.0577 17.3832 30.0577 18.6204 30.2854 19.8257L28.002 21.0577L29.3553 24.3245L31.8409 23.5814C32.5327 24.5942 33.408 25.4685 34.4216 26.1591L33.6775 28.6473L36.9444 30.0005L38.1779 27.7151C39.383 27.9427 40.62 27.9427 41.8251 27.7151L43.0571 29.9985L46.324 28.6453L45.5809 26.1596C46.5937 25.4678 47.468 24.5926 48.1586 23.579L50.6468 24.323L52 21.0562L49.7146 19.8226C49.9423 18.6174 49.9423 17.3802 49.7146 16.1749L51.998 14.943ZM45 18C45 20.7614 42.7614 23 40 23C37.2386 23 35 20.7614 35 18C35 15.2386 37.2386 13 40 13C42.7614 13 45 15.2386 45 18Z"
              stroke="#D5DBEF" stroke-width="6" stroke-linecap="round" stroke-linejoin="round"/>
        <path id="icon-front"
              class="color-1"
              d="M40 34V50M40 32.5L40 35.5M40 35.5C40 37.1569 38.6569 38.5 37 38.5H19C17.3431 38.5 16 39.8431 16 41.5V50M40 35.5L40 32M40 35.5C40 37.1569 41.3431 38.5 43 38.5H61C62.6569 38.5 64 39.8431 64 41.5V50M8 70H22C22.5523 70 23 69.5523 23 69V55C23 54.4477 22.5523 54 22 54H8C7.44772 54 7 54.4477 7 55V69C7 69.5523 7.44772 70 8 70ZM48 62C48 66.4183 44.4183 70 40 70C35.5817 70 32 66.4183 32 62C32 57.5817 35.5817 54 40 54C44.4183 54 48 57.5817 48 62ZM64.5 54L74 70H55L64.5 54ZM51.998 14.943L50.6447 11.6761L48.1591 12.4191C47.4673 11.4063 46.592 10.532 45.5784 9.84136L46.3225 7.35333L43.0556 6L41.8221 8.28551C40.617 8.05788 39.38 8.05788 38.1749 8.28551L36.9429 6.00209L33.676 7.35529L34.4191 9.84087C33.4063 10.5326 32.532 11.408 31.8414 12.4216L29.3532 11.6776L28 14.9444L30.2854 16.178C30.0577 17.3832 30.0577 18.6204 30.2854 19.8257L28.002 21.0577L29.3553 24.3245L31.8409 23.5814C32.5327 24.5942 33.408 25.4685 34.4216 26.1591L33.6775 28.6473L36.9444 30.0005L38.1779 27.7151C39.383 27.9427 40.62 27.9427 41.8251 27.7151L43.0571 29.9985L46.324 28.6453L45.5809 26.1596C46.5937 25.4678 47.468 24.5926 48.1586 23.579L50.6468 24.323L52 21.0562L49.7146 19.8226C49.9423 18.6174 49.9423 17.3802 49.7146 16.1749L51.998 14.943ZM45 18C45 20.7614 42.7614 23 40 23C37.2386 23 35 20.7614 35 18C35 15.2386 37.2386 13 40 13C42.7614 13 45 15.2386 45 18Z"
              stroke="#3D4167" stroke-width="2" stroke-linecap="round" stroke-linejoin="round"/>
    </g>
</svg>
