<svg width="80" height="80" viewBox="0 0 80 80" fill="none" xmlns="http://www.w3.org/2000/svg" class="icon-bssoo-26">
    <title>tutoriels</title>
    <g id="icon-bsso-ouvrirlascience-tutoriels">
        <path id="icon-back"
              class="color-2"
              d="M27.7516 50.5C27.4235 50.5 27.2047 50.6094 26.8766 50.7187C25.4547 51.1562 24.0329 51.375 22.5016 51.375C20.861 51.375 19.4391 51.1562 18.0172 50.7187C17.6891 50.6094 17.4704 50.5 17.2516 50.5C10.361 50.5 4.89224 56.0781 5.00161 62.8594C5.00161 65.7031 7.29849 68 10.2516 68H34.7516C37.5954 68 39.8922 65.7031 40.0016 62.8594C40.0016 56.0781 34.5329 50.5 27.7516 50.5ZM22.5016 47C28.2985 47 33.0016 42.4062 33.0016 36.5C33.0016 30.7031 28.2985 26 22.5016 26C16.5954 26 12.0016 30.7031 12.0016 36.5C12.0016 42.4062 16.5954 47 22.5016 47ZM69.7516 12H27.7516C24.7985 12 22.5016 14.5156 22.5016 17.4687V22.5C25.0172 22.5 27.4235 23.2656 29.5016 24.4687V19H68.0016V50.5H61.0016V43.5H47.0016V50.5H38.5797C40.6579 52.3594 42.1891 54.7656 42.9547 57.5H69.7516C72.5954 57.5 75.0016 55.0937 75.0016 52.1406V17.4687C75.0016 14.5156 72.5954 12 69.7516 12Z"
              stroke="#D5DBEF" stroke-width="6" stroke-linecap="round" stroke-linejoin="round"/>
        <path id="icon-front"
              class="color-1"
              d="M27.7516 50.5C27.4235 50.5 27.2047 50.6094 26.8766 50.7188C25.4547 51.1562 24.0329 51.375 22.5016 51.375C20.861 51.375 19.4391 51.1562 18.0172 50.7188C17.6891 50.6094 17.4704 50.5 17.2516 50.5C10.361 50.5 4.89224 56.0781 5.00161 62.8594C5.00161 65.7031 7.29849 68 10.2516 68H34.7516C37.5954 68 39.8922 65.7031 40.0016 62.8594C40.0016 56.0781 34.5329 50.5 27.7516 50.5ZM22.5016 47C28.2985 47 33.0016 42.4062 33.0016 36.5C33.0016 30.7031 28.2985 26 22.5016 26C16.5954 26 12.0016 30.7031 12.0016 36.5C12.0016 42.4062 16.5954 47 22.5016 47ZM69.7516 12H27.7516C24.7985 12 22.5016 14.5156 22.5016 17.4688V22.5C25.0172 22.5 27.4235 23.2656 29.5016 24.4688V19H68.0016V50.5H61.0016V43.5H47.0016V50.5H38.5797C40.6579 52.3594 42.1891 54.7656 42.9547 57.5H69.7516C72.5954 57.5 75.0016 55.0938 75.0016 52.1406V17.4688C75.0016 14.5156 72.5954 12 69.7516 12Z"
              stroke="#3D4167" stroke-width="2" stroke-linejoin="round"/>
    </g>
</svg>
