<svg width="385" height="296" viewBox="0 0 385 296" fill="none" xmlns="http://www.w3.org/2000/svg">
<circle cx="198" cy="148" r="148" fill="white"/>
<path d="M238.18 176H239.992L240.796 173.816H244.156L244.96 176H246.772L243.592 167.6H241.36L238.18 176ZM241.324 172.364L242.476 169.208L243.628 172.364H241.324ZM246.858 169.952V171.32H247.986V176H249.522V171.32H251.37V169.952H249.522V169.28C249.522 168.728 249.858 168.368 250.374 168.368C250.686 168.368 250.926 168.476 251.106 168.608L251.754 167.336C251.37 167.132 250.902 167 250.35 167C248.838 167 247.986 168.032 247.986 169.316V169.952H246.858ZM251.727 169.952V171.32H252.855V176H254.391V171.32H256.239V169.952H254.391V169.28C254.391 168.728 254.727 168.368 255.243 168.368C255.555 168.368 255.795 168.476 255.975 168.608L256.623 167.336C256.239 167.132 255.771 167 255.219 167C253.707 167 252.855 168.032 252.855 169.316V169.952H251.727ZM257.909 168.896C258.449 168.896 258.893 168.44 258.893 167.9C258.893 167.36 258.449 166.904 257.909 166.904C257.369 166.904 256.913 167.36 256.913 167.9C256.913 168.44 257.369 168.896 257.909 168.896ZM257.141 176H258.665V169.952H257.141V176ZM260.253 176H261.777V167H260.253V176ZM264.132 168.896C264.672 168.896 265.116 168.44 265.116 167.9C265.116 167.36 264.672 166.904 264.132 166.904C263.592 166.904 263.136 167.36 263.136 167.9C263.136 168.44 263.592 168.896 264.132 168.896ZM263.364 176H264.888V169.952H263.364V176ZM268.18 176.18C268.888 176.18 269.608 175.88 269.992 175.412V176H271.516V172.088C271.516 170.756 270.616 169.712 268.864 169.712C267.76 169.712 266.872 170.168 266.332 170.912L267.448 171.764C267.772 171.32 268.228 171.044 268.816 171.044C269.512 171.044 269.992 171.452 269.992 172.088V172.244L268.144 172.556C266.848 172.772 266.14 173.456 266.14 174.368C266.14 175.484 266.968 176.18 268.18 176.18ZM267.652 174.296C267.652 173.924 267.916 173.66 268.552 173.552L269.992 173.312V174.164C269.692 174.644 269.188 174.968 268.492 174.968C267.976 174.968 267.652 174.704 267.652 174.296ZM273.405 173.792C273.405 175.268 274.125 176.12 275.637 176.12C276.141 176.12 276.501 176.06 276.801 175.928V174.596C276.597 174.68 276.321 174.728 275.901 174.728C275.301 174.728 274.941 174.464 274.941 173.792V171.32H276.789V169.952H274.941V168.44H273.405V169.952H272.277V171.32H273.405V173.792ZM278.682 168.896C279.222 168.896 279.666 168.44 279.666 167.9C279.666 167.36 279.222 166.904 278.682 166.904C278.142 166.904 277.686 167.36 277.686 167.9C277.686 168.44 278.142 168.896 278.682 168.896ZM277.914 176H279.438V169.952H277.914V176ZM283.905 169.712C281.937 169.712 280.593 171.164 280.593 172.976C280.593 174.788 281.937 176.24 283.905 176.24C285.873 176.24 287.217 174.788 287.217 172.976C287.217 171.164 285.873 169.712 283.905 169.712ZM283.929 174.8C282.921 174.8 282.177 174.032 282.177 172.976C282.177 171.92 282.921 171.152 283.929 171.152C284.901 171.152 285.633 171.92 285.633 172.976C285.633 174.02 284.901 174.8 283.929 174.8ZM288.367 176H289.891V172.052C290.119 171.668 290.527 171.152 291.295 171.152C292.039 171.152 292.495 171.656 292.495 172.46V176H294.031V172.4C294.031 170.612 292.987 169.712 291.679 169.712C290.875 169.712 290.311 170.024 289.891 170.432V169.952H288.367V176ZM304.996 172.976C304.996 171.212 303.844 169.712 301.924 169.712C301.096 169.712 300.508 169.976 300.04 170.444V167H298.516V176H300.04V175.508C300.508 175.976 301.096 176.24 301.924 176.24C303.844 176.24 304.996 174.74 304.996 172.976ZM301.708 171.152C302.74 171.152 303.412 171.92 303.412 172.976C303.412 174.032 302.74 174.8 301.708 174.8C301.024 174.8 300.448 174.5 300.04 173.936V172.016C300.412 171.464 301 171.152 301.708 171.152ZM306.151 176H307.675V172.124C307.903 171.74 308.383 171.332 309.127 171.332C309.403 171.332 309.607 171.368 309.799 171.416V169.916C309.655 169.868 309.475 169.832 309.271 169.832C308.587 169.832 308.071 170.144 307.675 170.552V169.952H306.151V176ZM314.946 173.384C314.946 174.26 314.49 174.8 313.662 174.8C312.822 174.8 312.366 174.26 312.366 173.384V169.952H310.83V173.312C310.83 175.124 311.874 176.24 313.65 176.24C315.426 176.24 316.482 175.124 316.482 173.312V169.952H314.946V173.384ZM318.407 173.792C318.407 175.268 319.127 176.12 320.639 176.12C321.143 176.12 321.503 176.06 321.803 175.928V174.596C321.599 174.68 321.323 174.728 320.903 174.728C320.303 174.728 319.943 174.464 319.943 173.792V171.32H321.791V169.952H319.943V168.44H318.407V169.952H317.279V171.32H318.407V173.792ZM328.367 175.016L327.275 174.152C326.951 174.584 326.375 174.872 325.715 174.872C324.767 174.872 324.071 174.416 323.927 173.288H328.163C328.211 173.084 328.259 172.772 328.259 172.436C328.259 170.852 327.155 169.712 325.475 169.712C323.495 169.712 322.367 171.188 322.367 172.976C322.367 174.74 323.579 176.24 325.727 176.24C326.867 176.24 327.803 175.772 328.367 175.016ZM325.439 170.96C326.291 170.96 326.735 171.572 326.759 172.184H323.975C324.143 171.392 324.659 170.96 325.439 170.96ZM242.512 184.672L241.888 184C239.596 185.776 238.408 188.044 238.408 190.72C238.408 192.844 239.08 194.296 239.992 195.4L240.784 194.86C239.872 193.612 239.44 192.484 239.44 190.72C239.44 188.404 240.412 186.424 242.512 184.672ZM244.343 193.24C245.483 193.24 246.455 192.784 247.067 192.04L246.383 191.38C245.951 191.944 245.231 192.316 244.403 192.316C243.191 192.316 242.531 191.536 242.531 190.36C242.531 190.228 242.531 190.108 242.543 189.988H247.127C247.247 189.688 247.319 189.292 247.319 188.968C247.319 187.672 246.263 186.712 244.823 186.712C242.711 186.712 241.475 188.392 241.475 190.348C241.475 191.968 242.483 193.24 244.343 193.24ZM244.799 187.564C245.879 187.564 246.407 188.392 246.287 189.208H242.699C242.999 188.248 243.695 187.564 244.799 187.564ZM248.323 193L250.399 190.564L251.683 193H252.787L251.143 189.928L253.699 186.952H252.499L250.615 189.172L249.451 186.952H248.347L249.871 189.808L247.123 193H248.323ZM258.381 188.344C258.801 188.344 259.149 187.996 259.149 187.576C259.149 187.156 258.801 186.82 258.381 186.82C257.937 186.82 257.601 187.156 257.601 187.576C257.601 187.996 257.937 188.344 258.381 188.344ZM257.541 193.132C257.973 193.132 258.321 192.796 258.321 192.376C258.321 191.956 257.973 191.608 257.541 191.608C257.109 191.608 256.773 191.956 256.773 192.376C256.773 192.796 257.109 193.132 257.541 193.132ZM264.08 184.6L262.304 187.816H263.516L265.064 184.6H264.08ZM266.396 184.6L264.62 187.816H265.832L267.38 184.6H266.396ZM271.631 186.628C271.631 185.944 272.219 185.368 273.011 185.368C273.791 185.368 274.307 185.788 274.655 186.424L275.543 185.764C275.063 184.936 274.295 184.36 273.059 184.36C271.547 184.36 270.455 185.44 270.455 186.7C270.455 189.076 273.527 189.076 273.527 190.828C273.527 191.596 272.927 192.232 271.991 192.232C271.259 192.232 270.623 191.872 270.107 191.128L269.231 191.8C269.855 192.76 270.755 193.24 271.967 193.24C273.599 193.24 274.691 192.148 274.691 190.744C274.691 188.344 271.631 188.356 271.631 186.628ZM279.4 186.712C277.24 186.712 275.812 188.44 275.812 190.348C275.812 191.968 276.892 193.24 278.728 193.24C280.864 193.24 282.292 191.512 282.292 189.604C282.292 187.984 281.224 186.712 279.4 186.712ZM278.74 192.28C277.624 192.28 276.892 191.44 276.892 190.36C276.892 188.944 277.888 187.672 279.364 187.672C280.48 187.672 281.212 188.512 281.212 189.592C281.212 191.008 280.216 192.28 278.74 192.28ZM283.026 193H284.046L284.766 188.944C285.246 188.32 285.822 187.828 286.614 187.828C286.83 187.828 286.986 187.864 287.154 187.9L287.334 186.904C287.178 186.856 286.986 186.832 286.782 186.832C285.99 186.832 285.462 187.192 284.97 187.756L285.114 186.952H284.094L283.026 193ZM294.111 189.544C294.111 187.9 293.115 186.712 291.387 186.712C290.667 186.712 289.995 186.964 289.419 187.456L290.031 184H289.011L287.415 193H288.447L288.579 192.244C289.059 192.88 289.839 193.24 290.727 193.24C292.791 193.24 294.111 191.524 294.111 189.544ZM291.147 187.672C292.323 187.672 293.031 188.5 293.031 189.604C293.031 191.104 292.047 192.28 290.655 192.28C289.779 192.28 289.131 191.812 288.783 191.056L289.203 188.68C289.695 188.008 290.403 187.672 291.147 187.672ZM298.485 186.712C296.325 186.712 294.897 188.44 294.897 190.348C294.897 191.968 295.977 193.24 297.813 193.24C299.949 193.24 301.377 191.512 301.377 189.604C301.377 187.984 300.309 186.712 298.485 186.712ZM297.825 192.28C296.709 192.28 295.977 191.44 295.977 190.36C295.977 188.944 296.973 187.672 298.449 187.672C299.565 187.672 300.297 188.512 300.297 189.592C300.297 191.008 299.301 192.28 297.825 192.28ZM302.111 193H303.131L303.875 188.812C304.331 188.128 304.991 187.672 305.771 187.672C306.695 187.672 307.187 188.296 306.995 189.376L306.347 193H307.367L308.015 189.34C308.315 187.624 307.463 186.712 306.071 186.712C305.279 186.712 304.631 187.048 304.091 187.588L304.199 186.952H303.179L302.111 193ZM309.089 193H310.109L310.853 188.812C311.309 188.128 311.969 187.672 312.749 187.672C313.673 187.672 314.165 188.296 313.973 189.376L313.325 193H314.345L314.993 189.34C315.293 187.624 314.441 186.712 313.049 186.712C312.257 186.712 311.609 187.048 311.069 187.588L311.177 186.952H310.157L309.089 193ZM318.924 193.24C320.064 193.24 321.036 192.784 321.648 192.04L320.964 191.38C320.532 191.944 319.812 192.316 318.984 192.316C317.772 192.316 317.112 191.536 317.112 190.36C317.112 190.228 317.112 190.108 317.124 189.988H321.708C321.828 189.688 321.9 189.292 321.9 188.968C321.9 187.672 320.844 186.712 319.404 186.712C317.292 186.712 316.056 188.392 316.056 190.348C316.056 191.968 317.064 193.24 318.924 193.24ZM319.38 187.564C320.46 187.564 320.988 188.392 320.868 189.208H317.28C317.58 188.248 318.276 187.564 319.38 187.564ZM331.356 189.904C331.092 191.392 330.312 192.184 329.04 192.184C327.696 192.184 327.024 191.356 327.3 189.784L328.212 184.6H327.084L326.172 189.724C325.764 192.016 327.012 193.24 328.968 193.24C330.96 193.24 332.1 192.076 332.484 189.928L333.42 184.6H332.292L331.356 189.904ZM333.747 193H334.767L335.511 188.812C335.967 188.128 336.627 187.672 337.407 187.672C338.331 187.672 338.823 188.296 338.631 189.376L337.983 193H339.003L339.651 189.34C339.951 187.624 339.099 186.712 337.707 186.712C336.915 186.712 336.267 187.048 335.727 187.588L335.835 186.952H334.815L333.747 193ZM342.705 185.38C343.101 185.38 343.413 185.056 343.413 184.66C343.413 184.276 343.101 183.952 342.705 183.952C342.309 183.952 341.985 184.276 341.985 184.66C341.985 185.056 342.309 185.38 342.705 185.38ZM340.737 193H341.745L342.813 186.952H341.793L340.737 193ZM343.771 186.952L344.983 193H346.327L349.675 186.952H348.535L345.823 191.896L344.839 186.952H343.771ZM352.312 193.24C353.452 193.24 354.424 192.784 355.036 192.04L354.352 191.38C353.92 191.944 353.2 192.316 352.372 192.316C351.16 192.316 350.5 191.536 350.5 190.36C350.5 190.228 350.5 190.108 350.512 189.988H355.096C355.216 189.688 355.288 189.292 355.288 188.968C355.288 187.672 354.232 186.712 352.792 186.712C350.68 186.712 349.444 188.392 349.444 190.348C349.444 191.968 350.452 193.24 352.312 193.24ZM352.768 187.564C353.848 187.564 354.376 188.392 354.256 189.208H350.668C350.968 188.248 351.664 187.564 352.768 187.564ZM355.978 193H356.998L357.718 188.944C358.198 188.32 358.774 187.828 359.566 187.828C359.782 187.828 359.938 187.864 360.106 187.9L360.286 186.904C360.13 186.856 359.938 186.832 359.734 186.832C358.942 186.832 358.414 187.192 357.922 187.756L358.066 186.952H357.046L355.978 193ZM361.843 188.464C361.843 187.996 362.275 187.564 362.887 187.564C363.439 187.564 363.835 187.888 364.075 188.368L364.855 187.816C364.519 187.18 363.811 186.712 362.911 186.712C361.687 186.712 360.847 187.54 360.847 188.512C360.847 190.336 363.235 190.18 363.235 191.392C363.235 191.956 362.815 192.388 362.179 192.388C361.591 192.388 361.087 192.1 360.703 191.488L359.935 192.064C360.403 192.82 361.195 193.24 362.131 193.24C363.439 193.24 364.231 192.316 364.231 191.344C364.231 189.532 361.843 189.676 361.843 188.464ZM367.24 185.38C367.636 185.38 367.948 185.056 367.948 184.66C367.948 184.276 367.636 183.952 367.24 183.952C366.844 183.952 366.52 184.276 366.52 184.66C366.52 185.056 366.844 185.38 367.24 185.38ZM365.272 193H366.28L367.348 186.952H366.328L365.272 193ZM368.833 190.816C368.545 192.448 369.241 193.12 370.549 193.12C370.945 193.12 371.245 193.048 371.533 192.94L371.689 192.028C371.461 192.112 371.161 192.184 370.801 192.184C370.093 192.184 369.673 191.92 369.853 190.888L370.393 187.876H372.421L372.577 186.952H370.561L370.825 185.44H369.793L369.529 186.952H368.425L368.257 187.876H369.361L368.833 190.816ZM376.606 185.992L378.334 184H377.146L375.574 185.992H376.606ZM375.358 193.24C376.498 193.24 377.47 192.784 378.082 192.04L377.398 191.38C376.966 191.944 376.246 192.316 375.418 192.316C374.206 192.316 373.546 191.536 373.546 190.36C373.546 190.228 373.546 190.108 373.558 189.988H378.142C378.262 189.688 378.334 189.292 378.334 188.968C378.334 187.672 377.278 186.712 375.838 186.712C373.726 186.712 372.49 188.392 372.49 190.348C372.49 191.968 373.498 193.24 375.358 193.24ZM375.814 187.564C376.894 187.564 377.422 188.392 377.302 189.208H373.714C374.014 188.248 374.71 187.564 375.814 187.564ZM379.098 194.92L380.862 191.74H379.65L378.102 194.92H379.098ZM238.756 210H239.884L240.532 206.316H241.96C243.82 206.316 244.924 205.212 244.924 203.76C244.924 202.368 243.94 201.6 242.404 201.6H240.244L238.756 210ZM242.344 202.56C243.22 202.56 243.736 202.98 243.736 203.796C243.736 204.732 243.064 205.356 241.936 205.356H240.712L241.204 202.56H242.344ZM246.449 210.168C247.253 210.168 247.901 209.868 248.381 209.34L248.261 210H249.269L249.953 206.184C250.217 204.696 249.473 203.712 247.853 203.712C246.785 203.712 245.897 204.204 245.345 204.864L246.077 205.476C246.533 204.96 247.133 204.624 247.793 204.624C248.645 204.624 249.113 205.128 248.969 205.992L248.909 206.34L246.737 206.7C245.297 206.952 244.601 207.648 244.601 208.62C244.601 209.616 245.357 210.168 246.449 210.168ZM245.657 208.512C245.657 207.96 246.077 207.564 246.953 207.42L248.777 207.108L248.549 208.344C248.093 208.956 247.457 209.328 246.677 209.328C246.017 209.328 245.657 209.004 245.657 208.512ZM251.008 210H252.028L252.748 205.944C253.228 205.32 253.804 204.828 254.596 204.828C254.812 204.828 254.968 204.864 255.136 204.9L255.316 203.904C255.16 203.856 254.968 203.832 254.764 203.832C253.972 203.832 253.444 204.192 252.952 204.756L253.096 203.952H252.076L251.008 210ZM257.377 202.38C257.773 202.38 258.085 202.056 258.085 201.66C258.085 201.276 257.773 200.952 257.377 200.952C256.981 200.952 256.657 201.276 256.657 201.66C256.657 202.056 256.981 202.38 257.377 202.38ZM255.409 210H256.417L257.485 203.952H256.465L255.409 210ZM259.704 205.464C259.704 204.996 260.136 204.564 260.748 204.564C261.3 204.564 261.696 204.888 261.936 205.368L262.716 204.816C262.38 204.18 261.672 203.712 260.772 203.712C259.548 203.712 258.708 204.54 258.708 205.512C258.708 207.336 261.096 207.18 261.096 208.392C261.096 208.956 260.676 209.388 260.04 209.388C259.452 209.388 258.948 209.1 258.564 208.488L257.796 209.064C258.264 209.82 259.056 210.24 259.992 210.24C261.3 210.24 262.092 209.316 262.092 208.344C262.092 206.532 259.704 206.676 259.704 205.464ZM264.653 204.816L266.429 201.6H265.217L263.669 204.816H264.653ZM266.969 204.816L268.745 201.6H267.533L265.985 204.816H266.969ZM267.412 211.728L268.024 212.4C270.328 210.624 271.516 208.356 271.516 205.68C271.516 203.556 270.844 202.104 269.932 201L269.14 201.54C270.052 202.788 270.484 203.916 270.484 205.68C270.484 207.996 269.512 209.976 267.412 211.728Z" fill="black"/>
<path d="M0.18 193H1.992L2.796 190.816H6.156L6.96 193H8.772L5.592 184.6H3.36L0.18 193ZM3.324 189.364L4.476 186.208L5.628 189.364H3.324ZM8.85769 186.952V188.32H9.98569V193H11.5217V188.32H13.3697V186.952H11.5217V186.28C11.5217 185.728 11.8577 185.368 12.3737 185.368C12.6857 185.368 12.9257 185.476 13.1057 185.608L13.7537 184.336C13.3697 184.132 12.9017 184 12.3497 184C10.8377 184 9.98569 185.032 9.98569 186.316V186.952H8.85769ZM13.7271 186.952V188.32H14.8551V193H16.3911V188.32H18.2391V186.952H16.3911V186.28C16.3911 185.728 16.7271 185.368 17.2431 185.368C17.5551 185.368 17.7951 185.476 17.9751 185.608L18.6231 184.336C18.2391 184.132 17.7711 184 17.2191 184C15.7071 184 14.8551 185.032 14.8551 186.316V186.952H13.7271ZM19.9092 185.896C20.4492 185.896 20.8932 185.44 20.8932 184.9C20.8932 184.36 20.4492 183.904 19.9092 183.904C19.3692 183.904 18.9132 184.36 18.9132 184.9C18.9132 185.44 19.3692 185.896 19.9092 185.896ZM19.1412 193H20.6652V186.952H19.1412V193ZM22.2528 193H23.7768V184H22.2528V193ZM26.1323 185.896C26.6723 185.896 27.1163 185.44 27.1163 184.9C27.1163 184.36 26.6723 183.904 26.1323 183.904C25.5923 183.904 25.1363 184.36 25.1363 184.9C25.1363 185.44 25.5923 185.896 26.1323 185.896ZM25.3643 193H26.8883V186.952H25.3643V193ZM30.1799 193.18C30.8879 193.18 31.6079 192.88 31.9919 192.412V193H33.5159V189.088C33.5159 187.756 32.6159 186.712 30.8639 186.712C29.7599 186.712 28.8719 187.168 28.3319 187.912L29.4479 188.764C29.7719 188.32 30.2279 188.044 30.8159 188.044C31.5119 188.044 31.9919 188.452 31.9919 189.088V189.244L30.1439 189.556C28.8479 189.772 28.1399 190.456 28.1399 191.368C28.1399 192.484 28.9679 193.18 30.1799 193.18ZM29.6519 191.296C29.6519 190.924 29.9159 190.66 30.5519 190.552L31.9919 190.312V191.164C31.6919 191.644 31.1879 191.968 30.4919 191.968C29.9759 191.968 29.6519 191.704 29.6519 191.296ZM35.4051 190.792C35.4051 192.268 36.1251 193.12 37.6371 193.12C38.1411 193.12 38.5011 193.06 38.8011 192.928V191.596C38.5971 191.68 38.3211 191.728 37.9011 191.728C37.3011 191.728 36.9411 191.464 36.9411 190.792V188.32H38.7891V186.952H36.9411V185.44H35.4051V186.952H34.2771V188.32H35.4051V190.792ZM40.6819 185.896C41.2219 185.896 41.6659 185.44 41.6659 184.9C41.6659 184.36 41.2219 183.904 40.6819 183.904C40.1419 183.904 39.6859 184.36 39.6859 184.9C39.6859 185.44 40.1419 185.896 40.6819 185.896ZM39.9139 193H41.4379V186.952H39.9139V193ZM45.9054 186.712C43.9374 186.712 42.5934 188.164 42.5934 189.976C42.5934 191.788 43.9374 193.24 45.9054 193.24C47.8734 193.24 49.2174 191.788 49.2174 189.976C49.2174 188.164 47.8734 186.712 45.9054 186.712ZM45.9294 191.8C44.9214 191.8 44.1774 191.032 44.1774 189.976C44.1774 188.92 44.9214 188.152 45.9294 188.152C46.9014 188.152 47.6334 188.92 47.6334 189.976C47.6334 191.02 46.9014 191.8 45.9294 191.8ZM50.3675 193H51.8915V189.052C52.1195 188.668 52.5275 188.152 53.2955 188.152C54.0395 188.152 54.4955 188.656 54.4955 189.46V193H56.0315V189.4C56.0315 187.612 54.9875 186.712 53.6795 186.712C52.8755 186.712 52.3115 187.024 51.8915 187.432V186.952H50.3675V193ZM59.9884 192.124C60.5644 192.808 61.3324 193.24 62.4124 193.24C63.5524 193.24 64.5724 192.544 64.5964 191.272C64.5964 189.184 61.7044 189.544 61.7044 188.512C61.7044 188.2 61.9324 187.936 62.4124 187.936C62.8804 187.936 63.2764 188.248 63.5884 188.632L64.5964 187.744C64.1644 187.156 63.3244 186.712 62.4004 186.712C61.1404 186.712 60.2404 187.516 60.2404 188.584C60.2404 190.708 63.1324 190.312 63.1324 191.368C63.1324 191.728 62.8804 192.016 62.3884 192.016C61.8124 192.016 61.3684 191.68 60.9964 191.212L59.9884 192.124ZM66.2385 190.792C66.2385 192.268 66.9585 193.12 68.4705 193.12C68.9745 193.12 69.3345 193.06 69.6345 192.928V191.596C69.4305 191.68 69.1545 191.728 68.7345 191.728C68.1345 191.728 67.7745 191.464 67.7745 190.792V188.32H69.6225V186.952H67.7745V185.44H66.2385V186.952H65.1105V188.32H66.2385V190.792ZM70.7473 193H72.2713V189.124C72.4993 188.74 72.9793 188.332 73.7233 188.332C73.9993 188.332 74.2033 188.368 74.3953 188.416V186.916C74.2513 186.868 74.0713 186.832 73.8673 186.832C73.1833 186.832 72.6673 187.144 72.2713 187.552V186.952H70.7473V193ZM79.5421 190.384C79.5421 191.26 79.0861 191.8 78.2581 191.8C77.4181 191.8 76.9621 191.26 76.9621 190.384V186.952H75.4261V190.312C75.4261 192.124 76.4701 193.24 78.2461 193.24C80.0221 193.24 81.0781 192.124 81.0781 190.312V186.952H79.5421V190.384ZM85.4291 191.8C84.4091 191.8 83.6771 191.044 83.6771 189.976C83.6771 188.92 84.4091 188.152 85.4051 188.152C86.0291 188.152 86.5091 188.428 86.7971 188.848L87.9851 187.936C87.4211 187.192 86.5331 186.712 85.4291 186.712C83.3411 186.712 82.0931 188.212 82.0931 189.976C82.0931 191.74 83.3411 193.24 85.4291 193.24C86.5331 193.24 87.4211 192.76 87.9851 192.016L86.7971 191.104C86.5091 191.524 86.0291 191.8 85.4291 191.8ZM89.3254 190.792C89.3254 192.268 90.0454 193.12 91.5574 193.12C92.0614 193.12 92.4214 193.06 92.7214 192.928V191.596C92.5174 191.68 92.2414 191.728 91.8214 191.728C91.2214 191.728 90.8614 191.464 90.8614 190.792V188.32H92.7094V186.952H90.8614V185.44H89.3254V186.952H88.1974V188.32H89.3254V190.792ZM97.8065 190.384C97.8065 191.26 97.3505 191.8 96.5225 191.8C95.6825 191.8 95.2265 191.26 95.2265 190.384V186.952H93.6905V190.312C93.6905 192.124 94.7345 193.24 96.5105 193.24C98.2865 193.24 99.3425 192.124 99.3425 190.312V186.952H97.8065V190.384ZM100.79 193H102.314V189.124C102.542 188.74 103.022 188.332 103.766 188.332C104.042 188.332 104.246 188.368 104.438 188.416V186.916C104.294 186.868 104.114 186.832 103.91 186.832C103.226 186.832 102.71 187.144 102.314 187.552V186.952H100.79V193ZM108.683 185.992L110.123 184H108.467L107.219 185.992H108.683ZM110.735 192.016L109.643 191.152C109.319 191.584 108.743 191.872 108.083 191.872C107.135 191.872 106.439 191.416 106.295 190.288H110.531C110.579 190.084 110.627 189.772 110.627 189.436C110.627 187.852 109.523 186.712 107.843 186.712C105.863 186.712 104.735 188.188 104.735 189.976C104.735 191.74 105.947 193.24 108.095 193.24C109.235 193.24 110.171 192.772 110.735 192.016ZM107.807 187.96C108.659 187.96 109.103 188.572 109.127 189.184H106.343C106.511 188.392 107.027 187.96 107.807 187.96ZM117.397 192.016L116.305 191.152C115.981 191.584 115.405 191.872 114.745 191.872C113.797 191.872 113.101 191.416 112.957 190.288H117.193C117.241 190.084 117.289 189.772 117.289 189.436C117.289 187.852 116.185 186.712 114.505 186.712C112.525 186.712 111.397 188.188 111.397 189.976C111.397 191.74 112.609 193.24 114.757 193.24C115.897 193.24 116.833 192.772 117.397 192.016ZM114.469 187.96C115.321 187.96 115.765 188.572 115.789 189.184H113.005C113.173 188.392 113.689 187.96 114.469 187.96ZM4.512 201.672L3.888 201C1.596 202.776 0.408 205.044 0.408 207.72C0.408 209.844 1.08 211.296 1.992 212.4L2.784 211.86C1.872 210.612 1.44 209.484 1.44 207.72C1.44 205.404 2.412 203.424 4.512 201.672ZM6.34266 210.24C7.48266 210.24 8.45466 209.784 9.06666 209.04L8.38266 208.38C7.95066 208.944 7.23066 209.316 6.40266 209.316C5.19066 209.316 4.53066 208.536 4.53066 207.36C4.53066 207.228 4.53066 207.108 4.54266 206.988H9.12666C9.24666 206.688 9.31866 206.292 9.31866 205.968C9.31866 204.672 8.26266 203.712 6.82266 203.712C4.71066 203.712 3.47466 205.392 3.47466 207.348C3.47466 208.968 4.48266 210.24 6.34266 210.24ZM6.79866 204.564C7.87866 204.564 8.40666 205.392 8.28666 206.208H4.69866C4.99866 205.248 5.69466 204.564 6.79866 204.564ZM10.3232 210L12.3992 207.564L13.6832 210H14.7872L13.1432 206.928L15.6992 203.952H14.4992L12.6152 206.172L11.4512 203.952H10.3472L11.8712 206.808L9.12319 210H10.3232ZM20.3811 205.344C20.8011 205.344 21.1491 204.996 21.1491 204.576C21.1491 204.156 20.8011 203.82 20.3811 203.82C19.9371 203.82 19.6011 204.156 19.6011 204.576C19.6011 204.996 19.9371 205.344 20.3811 205.344ZM19.5411 210.132C19.9731 210.132 20.3211 209.796 20.3211 209.376C20.3211 208.956 19.9731 208.608 19.5411 208.608C19.1091 208.608 18.7731 208.956 18.7731 209.376C18.7731 209.796 19.1091 210.132 19.5411 210.132ZM27.1498 203.628C27.1498 202.944 27.7378 202.368 28.5298 202.368C29.3098 202.368 29.8258 202.788 30.1738 203.424L31.0618 202.764C30.5818 201.936 29.8138 201.36 28.5778 201.36C27.0658 201.36 25.9738 202.44 25.9738 203.7C25.9738 206.076 29.0458 206.076 29.0458 207.828C29.0458 208.596 28.4458 209.232 27.5098 209.232C26.7778 209.232 26.1418 208.872 25.6258 208.128L24.7498 208.8C25.3738 209.76 26.2738 210.24 27.4858 210.24C29.1178 210.24 30.2098 209.148 30.2098 207.744C30.2098 205.344 27.1498 205.356 27.1498 203.628ZM34.9192 203.712C32.7592 203.712 31.3312 205.44 31.3312 207.348C31.3312 208.968 32.4112 210.24 34.2472 210.24C36.3832 210.24 37.8113 208.512 37.8113 206.604C37.8113 204.984 36.7433 203.712 34.9192 203.712ZM34.2592 209.28C33.1432 209.28 32.4112 208.44 32.4112 207.36C32.4112 205.944 33.4072 204.672 34.8832 204.672C35.9992 204.672 36.7312 205.512 36.7312 206.592C36.7312 208.008 35.7352 209.28 34.2592 209.28ZM38.5449 210H39.5649L40.2849 205.944C40.7649 205.32 41.3409 204.828 42.1329 204.828C42.3489 204.828 42.5049 204.864 42.6729 204.9L42.8529 203.904C42.6969 203.856 42.5049 203.832 42.3009 203.832C41.5089 203.832 40.9809 204.192 40.4889 204.756L40.6329 203.952H39.6129L38.5449 210ZM49.6298 206.544C49.6298 204.9 48.6338 203.712 46.9058 203.712C46.1858 203.712 45.5138 203.964 44.9378 204.456L45.5498 201H44.5298L42.9338 210H43.9658L44.0978 209.244C44.5778 209.88 45.3578 210.24 46.2458 210.24C48.3098 210.24 49.6298 208.524 49.6298 206.544ZM46.6658 204.672C47.8418 204.672 48.5498 205.5 48.5498 206.604C48.5498 208.104 47.5658 209.28 46.1738 209.28C45.2978 209.28 44.6498 208.812 44.3018 208.056L44.7218 205.68C45.2138 205.008 45.9218 204.672 46.6658 204.672ZM54.0039 203.712C51.8439 203.712 50.4159 205.44 50.4159 207.348C50.4159 208.968 51.4959 210.24 53.3319 210.24C55.4679 210.24 56.8959 208.512 56.8959 206.604C56.8959 204.984 55.8279 203.712 54.0039 203.712ZM53.3439 209.28C52.2279 209.28 51.4959 208.44 51.4959 207.36C51.4959 205.944 52.4919 204.672 53.9679 204.672C55.0839 204.672 55.8159 205.512 55.8159 206.592C55.8159 208.008 54.8199 209.28 53.3439 209.28ZM57.6296 210H58.6496L59.3936 205.812C59.8496 205.128 60.5096 204.672 61.2896 204.672C62.2136 204.672 62.7056 205.296 62.5136 206.376L61.8656 210H62.8856L63.5336 206.34C63.8336 204.624 62.9816 203.712 61.5896 203.712C60.7976 203.712 60.1496 204.048 59.6096 204.588L59.7176 203.952H58.6976L57.6296 210ZM64.6084 210H65.6284L66.3724 205.812C66.8284 205.128 67.4884 204.672 68.2684 204.672C69.1924 204.672 69.6844 205.296 69.4924 206.376L68.8444 210H69.8644L70.5124 206.34C70.8124 204.624 69.9604 203.712 68.5684 203.712C67.7764 203.712 67.1284 204.048 66.5884 204.588L66.6964 203.952H65.6764L64.6084 210ZM74.4431 210.24C75.5831 210.24 76.5551 209.784 77.1671 209.04L76.4831 208.38C76.0511 208.944 75.3311 209.316 74.5031 209.316C73.2911 209.316 72.6311 208.536 72.6311 207.36C72.6311 207.228 72.6311 207.108 72.6431 206.988H77.2271C77.3471 206.688 77.4191 206.292 77.4191 205.968C77.4191 204.672 76.3631 203.712 74.9231 203.712C72.8111 203.712 71.5751 205.392 71.5751 207.348C71.5751 208.968 72.5831 210.24 74.4431 210.24ZM74.8991 204.564C75.9791 204.564 76.5071 205.392 76.3871 206.208H72.7991C73.0991 205.248 73.7951 204.564 74.8991 204.564ZM86.8752 206.904C86.6112 208.392 85.8312 209.184 84.5592 209.184C83.2152 209.184 82.5432 208.356 82.8192 206.784L83.7312 201.6H82.6032L81.6912 206.724C81.2832 209.016 82.5312 210.24 84.4872 210.24C86.4792 210.24 87.6192 209.076 88.0032 206.928L88.9392 201.6H87.8112L86.8752 206.904ZM89.2656 210H90.2856L91.0296 205.812C91.4856 205.128 92.1456 204.672 92.9256 204.672C93.8496 204.672 94.3416 205.296 94.1496 206.376L93.5016 210H94.5216L95.1696 206.34C95.4696 204.624 94.6176 203.712 93.2256 203.712C92.4336 203.712 91.7856 204.048 91.2456 204.588L91.3536 203.952H90.3336L89.2656 210ZM98.2243 202.38C98.6203 202.38 98.9323 202.056 98.9323 201.66C98.9323 201.276 98.6203 200.952 98.2243 200.952C97.8283 200.952 97.5043 201.276 97.5043 201.66C97.5043 202.056 97.8283 202.38 98.2243 202.38ZM96.2563 210H97.2643L98.3323 203.952H97.3123L96.2563 210ZM99.2901 203.952L100.502 210H101.846L105.194 203.952H104.054L101.342 208.896L100.358 203.952H99.2901ZM107.831 210.24C108.971 210.24 109.943 209.784 110.555 209.04L109.871 208.38C109.439 208.944 108.719 209.316 107.891 209.316C106.679 209.316 106.019 208.536 106.019 207.36C106.019 207.228 106.019 207.108 106.031 206.988H110.615C110.735 206.688 110.807 206.292 110.807 205.968C110.807 204.672 109.751 203.712 108.311 203.712C106.199 203.712 104.963 205.392 104.963 207.348C104.963 208.968 105.971 210.24 107.831 210.24ZM108.287 204.564C109.367 204.564 109.895 205.392 109.775 206.208H106.187C106.487 205.248 107.183 204.564 108.287 204.564ZM111.497 210H112.517L113.237 205.944C113.717 205.32 114.293 204.828 115.085 204.828C115.301 204.828 115.457 204.864 115.625 204.9L115.805 203.904C115.649 203.856 115.457 203.832 115.253 203.832C114.461 203.832 113.933 204.192 113.441 204.756L113.585 203.952H112.565L111.497 210ZM117.362 205.464C117.362 204.996 117.794 204.564 118.406 204.564C118.958 204.564 119.354 204.888 119.594 205.368L120.374 204.816C120.038 204.18 119.33 203.712 118.43 203.712C117.206 203.712 116.366 204.54 116.366 205.512C116.366 207.336 118.754 207.18 118.754 208.392C118.754 208.956 118.334 209.388 117.698 209.388C117.11 209.388 116.606 209.1 116.222 208.488L115.454 209.064C115.922 209.82 116.714 210.24 117.65 210.24C118.958 210.24 119.75 209.316 119.75 208.344C119.75 206.532 117.362 206.676 117.362 205.464ZM122.759 202.38C123.155 202.38 123.467 202.056 123.467 201.66C123.467 201.276 123.155 200.952 122.759 200.952C122.363 200.952 122.039 201.276 122.039 201.66C122.039 202.056 122.363 202.38 122.759 202.38ZM120.791 210H121.799L122.867 203.952H121.847L120.791 210ZM124.352 207.816C124.064 209.448 124.76 210.12 126.068 210.12C126.464 210.12 126.764 210.048 127.052 209.94L127.208 209.028C126.98 209.112 126.68 209.184 126.32 209.184C125.612 209.184 125.192 208.92 125.372 207.888L125.912 204.876H127.94L128.096 203.952H126.08L126.344 202.44H125.312L125.048 203.952H123.944L123.776 204.876H124.88L124.352 207.816ZM132.125 202.992L133.853 201H132.665L131.093 202.992H132.125ZM130.877 210.24C132.017 210.24 132.989 209.784 133.601 209.04L132.917 208.38C132.485 208.944 131.765 209.316 130.937 209.316C129.725 209.316 129.065 208.536 129.065 207.36C129.065 207.228 129.065 207.108 129.077 206.988H133.661C133.781 206.688 133.853 206.292 133.853 205.968C133.853 204.672 132.797 203.712 131.357 203.712C129.245 203.712 128.009 205.392 128.009 207.348C128.009 208.968 129.017 210.24 130.877 210.24ZM131.333 204.564C132.413 204.564 132.941 205.392 132.821 206.208H129.233C129.533 205.248 130.229 204.564 131.333 204.564ZM134.617 211.92L136.381 208.74H135.169L133.621 211.92H134.617ZM140.714 210H141.842L142.49 206.316H143.918C145.778 206.316 146.882 205.212 146.882 203.76C146.882 202.368 145.898 201.6 144.362 201.6H142.202L140.714 210ZM144.302 202.56C145.178 202.56 145.694 202.98 145.694 203.796C145.694 204.732 145.022 205.356 143.894 205.356H142.67L143.162 202.56H144.302ZM148.407 210.168C149.211 210.168 149.859 209.868 150.339 209.34L150.219 210H151.227L151.911 206.184C152.175 204.696 151.431 203.712 149.811 203.712C148.743 203.712 147.855 204.204 147.303 204.864L148.035 205.476C148.491 204.96 149.091 204.624 149.751 204.624C150.603 204.624 151.071 205.128 150.927 205.992L150.867 206.34L148.695 206.7C147.255 206.952 146.559 207.648 146.559 208.62C146.559 209.616 147.315 210.168 148.407 210.168ZM147.615 208.512C147.615 207.96 148.035 207.564 148.911 207.42L150.735 207.108L150.507 208.344C150.051 208.956 149.415 209.328 148.635 209.328C147.975 209.328 147.615 209.004 147.615 208.512ZM152.966 210H153.986L154.706 205.944C155.186 205.32 155.762 204.828 156.554 204.828C156.77 204.828 156.926 204.864 157.094 204.9L157.274 203.904C157.118 203.856 156.926 203.832 156.722 203.832C155.93 203.832 155.402 204.192 154.91 204.756L155.054 203.952H154.034L152.966 210ZM159.335 202.38C159.731 202.38 160.043 202.056 160.043 201.66C160.043 201.276 159.731 200.952 159.335 200.952C158.939 200.952 158.615 201.276 158.615 201.66C158.615 202.056 158.939 202.38 159.335 202.38ZM157.367 210H158.375L159.443 203.952H158.423L157.367 210ZM161.661 205.464C161.661 204.996 162.093 204.564 162.705 204.564C163.257 204.564 163.653 204.888 163.893 205.368L164.673 204.816C164.337 204.18 163.629 203.712 162.729 203.712C161.505 203.712 160.665 204.54 160.665 205.512C160.665 207.336 163.053 207.18 163.053 208.392C163.053 208.956 162.633 209.388 161.997 209.388C161.409 209.388 160.905 209.1 160.521 208.488L159.753 209.064C160.221 209.82 161.013 210.24 161.949 210.24C163.257 210.24 164.049 209.316 164.049 208.344C164.049 206.532 161.661 206.676 161.661 205.464ZM165.093 211.92L166.857 208.74H165.645L164.097 211.92H165.093ZM0.756 227H1.884L3.372 218.6H2.244L0.756 227ZM3.89653 224.408C3.89653 226.052 4.85653 227.24 6.59653 227.24C7.35253 227.24 8.02453 226.94 8.61253 226.388L8.50453 227H9.52453L11.1085 218H10.0885L9.44053 221.708C8.94853 221.072 8.16853 220.712 7.28053 220.712C5.27653 220.712 3.89653 222.428 3.89653 224.408ZM4.97653 224.348C4.97653 222.848 5.96053 221.672 7.35253 221.672C8.22853 221.672 8.88853 222.14 9.22453 222.908L8.81653 225.26C8.31253 225.944 7.60453 226.28 6.86053 226.28C5.68453 226.28 4.97653 225.452 4.97653 224.348ZM14.1886 227.24C15.3286 227.24 16.3006 226.784 16.9126 226.04L16.2286 225.38C15.7966 225.944 15.0766 226.316 14.2486 226.316C13.0366 226.316 12.3766 225.536 12.3766 224.36C12.3766 224.228 12.3766 224.108 12.3886 223.988H16.9726C17.0926 223.688 17.1646 223.292 17.1646 222.968C17.1646 221.672 16.1086 220.712 14.6686 220.712C12.5566 220.712 11.3206 222.392 11.3206 224.348C11.3206 225.968 12.3286 227.24 14.1886 227.24ZM14.6446 221.564C15.7246 221.564 16.2526 222.392 16.1326 223.208H12.5446C12.8446 222.248 13.5406 221.564 14.6446 221.564ZM17.8543 227H18.8743L19.6183 222.812C20.0743 222.128 20.7343 221.672 21.5143 221.672C22.4383 221.672 22.9303 222.296 22.7383 223.376L22.0903 227H23.1103L23.7583 223.34C24.0583 221.624 23.2063 220.712 21.8143 220.712C21.0223 220.712 20.3743 221.048 19.8343 221.588L19.9423 220.952H18.9223L17.8543 227ZM25.5531 224.816C25.2651 226.448 25.9611 227.12 27.2691 227.12C27.6651 227.12 27.9651 227.048 28.2531 226.94L28.4091 226.028C28.1811 226.112 27.8811 226.184 27.5211 226.184C26.8131 226.184 26.3931 225.92 26.5731 224.888L27.1131 221.876H29.1411L29.2971 220.952H27.2811L27.5451 219.44H26.5131L26.2491 220.952H25.1451L24.9771 221.876H26.0811L25.5531 224.816ZM31.4715 219.38C31.8675 219.38 32.1795 219.056 32.1795 218.66C32.1795 218.276 31.8675 217.952 31.4715 217.952C31.0755 217.952 30.7515 218.276 30.7515 218.66C30.7515 219.056 31.0755 219.38 31.4715 219.38ZM29.5035 227H30.5115L31.5795 220.952H30.5595L29.5035 227ZM32.6572 220.952L32.4772 221.876H33.5932L32.1772 229.952H33.2092L34.6252 221.876H36.6532L36.8092 220.952H34.7812L34.9252 220.136C35.0692 219.308 35.5732 218.924 36.1612 218.924C36.5092 218.924 36.7852 219.044 37.0012 219.212L37.5532 218.408C37.2412 218.192 36.7852 218 36.1492 218C34.9972 218 34.1452 218.696 33.9052 220.136L33.7612 220.952H32.6572ZM38.6673 219.38C39.0633 219.38 39.3753 219.056 39.3753 218.66C39.3753 218.276 39.0633 217.952 38.6673 217.952C38.2713 217.952 37.9473 218.276 37.9473 218.66C37.9473 219.056 38.2713 219.38 38.6673 219.38ZM36.6993 227H37.7073L38.7753 220.952H37.7553L36.6993 227ZM41.281 227.168C42.085 227.168 42.733 226.868 43.213 226.34L43.093 227H44.101L44.785 223.184C45.049 221.696 44.305 220.712 42.685 220.712C41.617 220.712 40.729 221.204 40.177 221.864L40.909 222.476C41.365 221.96 41.965 221.624 42.625 221.624C43.477 221.624 43.945 222.128 43.801 222.992L43.741 223.34L41.569 223.7C40.129 223.952 39.433 224.648 39.433 225.62C39.433 226.616 40.189 227.168 41.281 227.168ZM40.489 225.512C40.489 224.96 40.909 224.564 41.785 224.42L43.609 224.108L43.381 225.344C42.925 225.956 42.289 226.328 41.509 226.328C40.849 226.328 40.489 226.004 40.489 225.512ZM45.8401 227H46.8601L47.6041 222.812C48.0601 222.128 48.7201 221.672 49.5001 221.672C50.4241 221.672 50.9161 222.296 50.7241 223.376L50.0761 227H51.0961L51.7441 223.34C52.0441 221.624 51.1921 220.712 49.8001 220.712C49.0081 220.712 48.3601 221.048 47.8201 221.588L47.9281 220.952H46.9081L45.8401 227ZM53.5388 224.816C53.2508 226.448 53.9468 227.12 55.2548 227.12C55.6508 227.12 55.9508 227.048 56.2388 226.94L56.3948 226.028C56.1668 226.112 55.8668 226.184 55.5068 226.184C54.7988 226.184 54.3788 225.92 54.5588 224.888L55.0988 221.876H57.1268L57.2828 220.952H55.2668L55.5308 219.44H54.4988L54.2348 220.952H53.1308L52.9628 221.876H54.0668L53.5388 224.816ZM60.7237 227H61.8517L62.4997 223.316H63.7837L65.5837 227H66.8437L64.8397 223.16C65.9917 222.8 66.6877 221.888 66.6877 220.76C66.6877 219.368 65.7277 218.6 64.1677 218.6H62.2117L60.7237 227ZM64.1077 219.56C64.9957 219.56 65.4997 219.98 65.4997 220.796C65.4997 221.732 64.8277 222.356 63.7117 222.356H62.6797L63.1717 219.56H64.1077ZM71.1316 220.712C68.9716 220.712 67.5436 222.44 67.5436 224.348C67.5436 225.968 68.6236 227.24 70.4596 227.24C72.5956 227.24 74.0236 225.512 74.0236 223.604C74.0236 221.984 72.9556 220.712 71.1316 220.712ZM70.4716 226.28C69.3556 226.28 68.6236 225.44 68.6236 224.36C68.6236 222.944 69.6196 221.672 71.0956 221.672C72.2116 221.672 72.9436 222.512 72.9436 223.592C72.9436 225.008 71.9476 226.28 70.4716 226.28ZM74.9624 227H76.0904L76.7384 223.316H78.0224L79.8224 227H81.0824L79.0784 223.16C80.2304 222.8 80.9264 221.888 80.9264 220.76C80.9264 219.368 79.9664 218.6 78.4064 218.6H76.4504L74.9624 227ZM78.3464 219.56C79.2344 219.56 79.7384 219.98 79.7384 220.796C79.7384 221.732 79.0664 222.356 77.9504 222.356H76.9184L77.4104 219.56H78.3464ZM86.4893 222.344C86.9093 222.344 87.2573 221.996 87.2573 221.576C87.2573 221.156 86.9093 220.82 86.4893 220.82C86.0453 220.82 85.7093 221.156 85.7093 221.576C85.7093 221.996 86.0453 222.344 86.4893 222.344ZM85.6493 227.132C86.0813 227.132 86.4293 226.796 86.4293 226.376C86.4293 225.956 86.0813 225.608 85.6493 225.608C85.2173 225.608 84.8813 225.956 84.8813 226.376C84.8813 226.796 85.2173 227.132 85.6493 227.132ZM94.7581 218.36C92.3701 218.36 91.0501 221.036 91.0501 223.832C91.0501 225.896 91.8901 227.24 93.7141 227.24C96.1021 227.24 97.4221 224.564 97.4221 221.768C97.4221 219.704 96.5821 218.36 94.7581 218.36ZM93.7021 226.232C92.6341 226.232 92.1541 225.26 92.1541 223.832C92.1541 221.552 93.1621 219.368 94.7701 219.368C95.8381 219.368 96.3061 220.34 96.3061 221.768C96.3061 224.048 95.3101 226.232 93.7021 226.232ZM97.6008 227H103.073L103.241 226.028H99.1968L101.825 223.76C103.349 222.44 104.021 221.696 104.021 220.52C104.021 219.26 103.001 218.36 101.645 218.36C100.361 218.36 99.4248 218.984 98.7528 220.04L99.6048 220.628C100.205 219.728 100.805 219.332 101.561 219.332C102.329 219.332 102.905 219.86 102.905 220.616C102.905 221.408 102.485 221.936 101.225 223.04L97.7808 226.028L97.6008 227ZM107.556 227.24C108.696 227.24 109.668 226.784 110.28 226.04L109.596 225.38C109.164 225.944 108.444 226.316 107.616 226.316C106.404 226.316 105.744 225.536 105.744 224.36C105.744 224.228 105.744 224.108 105.756 223.988H110.34C110.46 223.688 110.532 223.292 110.532 222.968C110.532 221.672 109.476 220.712 108.036 220.712C105.924 220.712 104.688 222.392 104.688 224.348C104.688 225.968 105.696 227.24 107.556 227.24ZM108.012 221.564C109.092 221.564 109.62 222.392 109.5 223.208H105.912C106.212 222.248 106.908 221.564 108.012 221.564ZM111.222 227H112.242L112.986 222.812C113.442 222.128 114.102 221.672 114.882 221.672C115.806 221.672 116.298 222.296 116.106 223.376L115.458 227H116.478L117.126 223.34C117.426 221.624 116.574 220.712 115.182 220.712C114.39 220.712 113.742 221.048 113.202 221.588L113.31 220.952H112.29L111.222 227ZM119.173 223.016H121.093C122.401 223.016 122.953 223.676 122.953 224.576C122.953 225.548 122.245 226.268 121.093 226.268C120.145 226.268 119.449 225.836 118.993 225.02L118.045 225.536C118.597 226.592 119.605 227.24 121.081 227.24C122.953 227.24 124.069 226.016 124.069 224.504C124.069 223.136 123.301 222.032 121.213 222.032H120.493L121.057 219.572H124.525L124.693 218.6H120.193L119.173 223.016ZM125.348 220.952L126.56 227H127.904L131.252 220.952H130.112L127.4 225.896L126.416 220.952H125.348ZM131.139 227H132.147L132.891 222.812C133.347 222.14 133.935 221.672 134.667 221.672C135.495 221.672 135.963 222.236 135.771 223.316L135.123 227H136.143L136.803 223.28C136.827 223.136 136.851 222.992 136.851 222.848C137.319 222.188 137.919 221.672 138.663 221.672C139.491 221.672 139.959 222.236 139.767 223.316L139.119 227H140.151L140.799 223.28C141.099 221.624 140.271 220.712 138.963 220.712C138.051 220.712 137.343 221.168 136.743 221.864C136.479 221.108 135.831 220.712 134.967 220.712C134.223 220.712 133.623 221.048 133.107 221.576L133.215 220.952H132.195L131.139 227ZM142.839 223.016H144.759C146.067 223.016 146.619 223.676 146.619 224.576C146.619 225.548 145.911 226.268 144.759 226.268C143.811 226.268 143.115 225.836 142.659 225.02L141.711 225.536C142.263 226.592 143.271 227.24 144.747 227.24C146.619 227.24 147.735 226.016 147.735 224.504C147.735 223.136 146.967 222.032 144.879 222.032H144.159L144.723 219.572H148.191L148.359 218.6H143.859L142.839 223.016ZM148.491 227H153.963L154.131 226.028H150.087L152.715 223.76C154.239 222.44 154.911 221.696 154.911 220.52C154.911 219.26 153.891 218.36 152.535 218.36C151.251 218.36 150.315 218.984 149.643 220.04L150.495 220.628C151.095 219.728 151.695 219.332 152.451 219.332C153.219 219.332 153.795 219.86 153.795 220.616C153.795 221.408 153.375 221.936 152.115 223.04L148.671 226.028L148.491 227ZM155.559 228.92L157.323 225.74H156.111L154.563 228.92H155.559ZM5.484 235.36C2.652 235.36 0.72 237.688 0.72 240.34C0.72 242.608 2.292 244.24 4.584 244.24C6.024 244.24 7.26 243.676 8.1 242.656L7.296 241.924C6.6 242.704 5.772 243.184 4.632 243.184C2.952 243.184 1.896 241.864 1.896 240.268C1.896 238.156 3.372 236.428 5.448 236.428C6.504 236.428 7.428 237.016 7.872 237.832L8.844 237.184C8.232 236.152 7.056 235.36 5.484 235.36ZM12.5116 237.712C10.3516 237.712 8.92359 239.44 8.92359 241.348C8.92359 242.968 10.0036 244.24 11.8396 244.24C13.9756 244.24 15.4036 242.512 15.4036 240.604C15.4036 238.984 14.3356 237.712 12.5116 237.712ZM11.8516 243.28C10.7356 243.28 10.0036 242.44 10.0036 241.36C10.0036 239.944 10.9996 238.672 12.4756 238.672C13.5916 238.672 14.3236 239.512 14.3236 240.592C14.3236 242.008 13.3276 243.28 11.8516 243.28ZM16.1839 241.408C16.1839 243.052 17.1439 244.24 18.8839 244.24C19.6399 244.24 20.3119 243.94 20.8999 243.388L20.7919 244H21.8119L23.3959 235H22.3759L21.7279 238.708C21.2359 238.072 20.4559 237.712 19.5679 237.712C17.5639 237.712 16.1839 239.428 16.1839 241.408ZM17.2639 241.348C17.2639 239.848 18.2479 238.672 19.6399 238.672C20.5159 238.672 21.1759 239.14 21.5119 239.908L21.1039 242.26C20.5999 242.944 19.8919 243.28 19.1479 243.28C17.9719 243.28 17.2639 242.452 17.2639 241.348ZM26.4759 244.24C27.6159 244.24 28.5879 243.784 29.1999 243.04L28.5159 242.38C28.0839 242.944 27.3639 243.316 26.5359 243.316C25.3239 243.316 24.6639 242.536 24.6639 241.36C24.6639 241.228 24.6639 241.108 24.6759 240.988H29.2599C29.3799 240.688 29.4519 240.292 29.4519 239.968C29.4519 238.672 28.3959 237.712 26.9559 237.712C24.8439 237.712 23.6079 239.392 23.6079 241.348C23.6079 242.968 24.6159 244.24 26.4759 244.24ZM26.9319 238.564C28.0119 238.564 28.5399 239.392 28.4199 240.208H24.8319C25.1319 239.248 25.8279 238.564 26.9319 238.564ZM33.388 244H34.516L35.164 240.316H36.592C38.452 240.316 39.556 239.212 39.556 237.76C39.556 236.368 38.572 235.6 37.036 235.6H34.876L33.388 244ZM36.976 236.56C37.852 236.56 38.368 236.98 38.368 237.796C38.368 238.732 37.696 239.356 36.568 239.356H35.344L35.836 236.56H36.976ZM41.0813 244.168C41.8853 244.168 42.5333 243.868 43.0133 243.34L42.8933 244H43.9013L44.5853 240.184C44.8493 238.696 44.1053 237.712 42.4853 237.712C41.4173 237.712 40.5293 238.204 39.9773 238.864L40.7093 239.476C41.1653 238.96 41.7653 238.624 42.4253 238.624C43.2773 238.624 43.7453 239.128 43.6013 239.992L43.5413 240.34L41.3693 240.7C39.9293 240.952 39.2333 241.648 39.2333 242.62C39.2333 243.616 39.9893 244.168 41.0813 244.168ZM40.2893 242.512C40.2893 241.96 40.7093 241.564 41.5853 241.42L43.4093 241.108L43.1813 242.344C42.7253 242.956 42.0893 243.328 41.3093 243.328C40.6493 243.328 40.2893 243.004 40.2893 242.512ZM47.4187 245.464L51.8107 237.952H50.6827L47.9107 242.716L46.8187 237.952H45.7387L47.1787 243.988L46.5307 245.092C46.0987 245.824 45.6547 246.064 45.1387 246.064C44.8027 246.064 44.5267 245.98 44.3107 245.86L44.1547 246.76C44.4067 246.916 44.7907 247 45.2467 247C46.1707 247 46.7947 246.544 47.4187 245.464ZM52.9819 239.464C52.9819 238.996 53.4139 238.564 54.0259 238.564C54.5779 238.564 54.9739 238.888 55.2139 239.368L55.9939 238.816C55.6579 238.18 54.9499 237.712 54.0499 237.712C52.8259 237.712 51.9859 238.54 51.9859 239.512C51.9859 241.336 54.3739 241.18 54.3739 242.392C54.3739 242.956 53.9539 243.388 53.3179 243.388C52.7299 243.388 52.2259 243.1 51.8419 242.488L51.0739 243.064C51.5419 243.82 52.3339 244.24 53.2699 244.24C54.5779 244.24 55.3699 243.316 55.3699 242.344C55.3699 240.532 52.9819 240.676 52.9819 239.464ZM60.9411 239.344C61.3611 239.344 61.7091 238.996 61.7091 238.576C61.7091 238.156 61.3611 237.82 60.9411 237.82C60.4971 237.82 60.1611 238.156 60.1611 238.576C60.1611 238.996 60.4971 239.344 60.9411 239.344ZM60.1011 244.132C60.5331 244.132 60.8811 243.796 60.8811 243.376C60.8811 242.956 60.5331 242.608 60.1011 242.608C59.6691 242.608 59.3331 242.956 59.3331 243.376C59.3331 243.796 59.6691 244.132 60.1011 244.132ZM65.6338 244H66.7618L67.4338 240.196H70.2418L70.4098 239.248H67.6018L68.0818 236.56H71.3458L71.5138 235.6H67.1218L65.6338 244ZM71.4876 244H72.6156L73.2636 240.316H74.5476L76.3476 244H77.6076L75.6036 240.16C76.7556 239.8 77.4516 238.888 77.4516 237.76C77.4516 236.368 76.4916 235.6 74.9316 235.6H72.9756L71.4876 244ZM74.8716 236.56C75.7596 236.56 76.2636 236.98 76.2636 237.796C76.2636 238.732 75.5916 239.356 74.4756 239.356H73.4436L73.9356 236.56H74.8716ZM77.3081 245.728L77.9201 246.4C80.2241 244.624 81.4121 242.356 81.4121 239.68C81.4121 237.556 80.7401 236.104 79.8281 235L79.0361 235.54C79.9481 236.788 80.3801 237.916 80.3801 239.68C80.3801 241.996 79.4081 243.976 77.3081 245.728Z" fill="black"/>
<path d="M221.251 216H211.041M190 220.875C190 218.196 192.244 216 194.982 216H199.541M194.982 240C192.244 240 190 237.804 190 235.125V225.375M224.7 238.554L232.912 230.518C234.335 229.125 234.39 226.821 232.912 225.375L228 220.568M221.525 226.232C220.54 227.196 220.595 228.75 221.525 229.661C222.511 230.625 224.043 230.625 225.029 229.661C225.959 228.75 226.014 227.196 225.029 226.232M204 240H211.041" stroke="black"/>
<path d="M54.4129 51H56.1169V47.604H57.1849C59.0329 47.604 60.1609 46.656 60.1609 45.108C60.1609 43.548 59.0329 42.6 57.1849 42.6H54.4129V51ZM57.2569 44.016C57.9769 44.016 58.4089 44.448 58.4089 45.084C58.4089 45.768 57.9769 46.188 57.2569 46.188H56.1169V44.016H57.2569ZM62.5958 51.18C63.3038 51.18 64.0238 50.88 64.4078 50.412V51H65.9318V47.088C65.9318 45.756 65.0318 44.712 63.2798 44.712C62.1758 44.712 61.2878 45.168 60.7478 45.912L61.8638 46.764C62.1878 46.32 62.6438 46.044 63.2318 46.044C63.9278 46.044 64.4078 46.452 64.4078 47.088V47.244L62.5598 47.556C61.2638 47.772 60.5558 48.456 60.5558 49.368C60.5558 50.484 61.3838 51.18 62.5958 51.18ZM62.0678 49.296C62.0678 48.924 62.3318 48.66 62.9678 48.552L64.4078 48.312V49.164C64.1078 49.644 63.6038 49.968 62.9078 49.968C62.3918 49.968 62.0678 49.704 62.0678 49.296ZM66.909 50.124C67.485 50.808 68.253 51.24 69.333 51.24C70.473 51.24 71.493 50.544 71.517 49.272C71.517 47.184 68.625 47.544 68.625 46.512C68.625 46.2 68.853 45.936 69.333 45.936C69.801 45.936 70.197 46.248 70.509 46.632L71.517 45.744C71.085 45.156 70.245 44.712 69.321 44.712C68.061 44.712 67.161 45.516 67.161 46.584C67.161 48.708 70.053 48.312 70.053 49.368C70.053 49.728 69.801 50.016 69.309 50.016C68.733 50.016 68.289 49.68 67.917 49.212L66.909 50.124ZM75.2437 47.976C75.2437 49.74 76.4077 51.24 78.3157 51.24C79.1317 51.24 79.7197 50.988 80.1877 50.52V51H81.7237V42H80.1877V45.432C79.7197 44.964 79.1317 44.712 78.3157 44.712C76.4077 44.712 75.2437 46.212 75.2437 47.976ZM76.8397 47.976C76.8397 46.92 77.4997 46.152 78.5317 46.152C79.2157 46.152 79.7797 46.44 80.1877 46.992V48.96C79.7797 49.512 79.2157 49.8 78.5317 49.8C77.4997 49.8 76.8397 49.032 76.8397 47.976ZM88.8787 50.016L87.7867 49.152C87.4627 49.584 86.8867 49.872 86.2267 49.872C85.2787 49.872 84.5827 49.416 84.4387 48.288H88.6747C88.7227 48.084 88.7707 47.772 88.7707 47.436C88.7707 45.852 87.6667 44.712 85.9867 44.712C84.0067 44.712 82.8787 46.188 82.8787 47.976C82.8787 49.74 84.0907 51.24 86.2387 51.24C87.3787 51.24 88.3147 50.772 88.8787 50.016ZM85.9507 45.96C86.8027 45.96 87.2467 46.572 87.2707 47.184H84.4867C84.6547 46.392 85.1707 45.96 85.9507 45.96ZM92.5823 47.976C92.5823 49.74 93.7463 51.24 95.6543 51.24C96.4703 51.24 97.0583 50.988 97.5263 50.52V51H99.0623V42H97.5263V45.432C97.0583 44.964 96.4703 44.712 95.6543 44.712C93.7463 44.712 92.5823 46.212 92.5823 47.976ZM94.1783 47.976C94.1783 46.92 94.8383 46.152 95.8703 46.152C96.5543 46.152 97.1183 46.44 97.5263 46.992V48.96C97.1183 49.512 96.5543 49.8 95.8703 49.8C94.8383 49.8 94.1783 49.032 94.1783 47.976ZM103.529 44.712C101.561 44.712 100.217 46.164 100.217 47.976C100.217 49.788 101.561 51.24 103.529 51.24C105.497 51.24 106.841 49.788 106.841 47.976C106.841 46.164 105.497 44.712 103.529 44.712ZM103.553 49.8C102.545 49.8 101.801 49.032 101.801 47.976C101.801 46.92 102.545 46.152 103.553 46.152C104.525 46.152 105.257 46.92 105.257 47.976C105.257 49.02 104.525 49.8 103.553 49.8ZM107.991 51H109.515V47.052C109.743 46.668 110.151 46.152 110.919 46.152C111.663 46.152 112.119 46.656 112.119 47.46V51H113.655V47.4C113.655 45.612 112.611 44.712 111.303 44.712C110.499 44.712 109.935 45.024 109.515 45.432V44.952H107.991V51ZM115.146 51H116.67V47.052C116.898 46.668 117.306 46.152 118.074 46.152C118.818 46.152 119.274 46.656 119.274 47.46V51H120.81V47.4C120.81 45.612 119.766 44.712 118.458 44.712C117.654 44.712 117.09 45.024 116.67 45.432V44.952H115.146V51ZM125.816 43.992L127.256 42H125.6L124.352 43.992H125.816ZM127.868 50.016L126.776 49.152C126.452 49.584 125.876 49.872 125.216 49.872C124.268 49.872 123.572 49.416 123.428 48.288H127.664C127.712 48.084 127.76 47.772 127.76 47.436C127.76 45.852 126.656 44.712 124.976 44.712C122.996 44.712 121.868 46.188 121.868 47.976C121.868 49.74 123.08 51.24 125.228 51.24C126.368 51.24 127.304 50.772 127.868 50.016ZM124.94 45.96C125.792 45.96 126.236 46.572 126.26 47.184H123.476C123.644 46.392 124.16 45.96 124.94 45.96ZM134.531 50.016L133.439 49.152C133.115 49.584 132.539 49.872 131.879 49.872C130.931 49.872 130.235 49.416 130.091 48.288H134.327C134.375 48.084 134.423 47.772 134.423 47.436C134.423 45.852 133.319 44.712 131.639 44.712C129.659 44.712 128.531 46.188 128.531 47.976C128.531 49.74 129.743 51.24 131.891 51.24C133.031 51.24 133.967 50.772 134.531 50.016ZM131.603 45.96C132.455 45.96 132.899 46.572 132.923 47.184H130.139C130.307 46.392 130.823 45.96 131.603 45.96ZM70.5319 64.976C70.5319 66.74 71.6959 68.24 73.6039 68.24C74.4199 68.24 75.0079 67.988 75.4759 67.52V68H77.0119V59H75.4759V62.432C75.0079 61.964 74.4199 61.712 73.6039 61.712C71.6959 61.712 70.5319 63.212 70.5319 64.976ZM72.1279 64.976C72.1279 63.92 72.7879 63.152 73.8199 63.152C74.5039 63.152 75.0679 63.44 75.4759 63.992V65.96C75.0679 66.512 74.5039 66.8 73.8199 66.8C72.7879 66.8 72.1279 66.032 72.1279 64.976ZM79.4126 63.056L80.8046 59.6H79.0766L77.9966 63.056H79.4126ZM82.9105 68.18C83.6185 68.18 84.3385 67.88 84.7225 67.412V68H86.2465V64.088C86.2465 62.756 85.3465 61.712 83.5945 61.712C82.4905 61.712 81.6025 62.168 81.0625 62.912L82.1785 63.764C82.5025 63.32 82.9585 63.044 83.5465 63.044C84.2425 63.044 84.7225 63.452 84.7225 64.088V64.244L82.8745 64.556C81.5785 64.772 80.8705 65.456 80.8705 66.368C80.8705 67.484 81.6985 68.18 82.9105 68.18ZM82.3825 66.296C82.3825 65.924 82.6465 65.66 83.2825 65.552L84.7225 65.312V66.164C84.4225 66.644 83.9185 66.968 83.2225 66.968C82.7065 66.968 82.3825 66.704 82.3825 66.296ZM87.0077 61.952V63.32H88.1357V68H89.6717V63.32H91.5197V61.952H89.6717V61.28C89.6717 60.728 90.0077 60.368 90.5237 60.368C90.8357 60.368 91.0757 60.476 91.2557 60.608L91.9037 59.336C91.5197 59.132 91.0517 59 90.4997 59C88.9877 59 88.1357 60.032 88.1357 61.316V61.952H87.0077ZM91.8771 61.952V63.32H93.0051V68H94.5411V63.32H96.3891V61.952H94.5411V61.28C94.5411 60.728 94.8771 60.368 95.3931 60.368C95.7051 60.368 95.9451 60.476 96.1251 60.608L96.7731 59.336C96.3891 59.132 95.9211 59 95.3691 59C93.8571 59 93.0051 60.032 93.0051 61.316V61.952H91.8771ZM98.0592 60.896C98.5992 60.896 99.0432 60.44 99.0432 59.9C99.0432 59.36 98.5992 58.904 98.0592 58.904C97.5192 58.904 97.0632 59.36 97.0632 59.9C97.0632 60.44 97.5192 60.896 98.0592 60.896ZM97.2912 68H98.8152V61.952H97.2912V68ZM100.403 68H101.927V59H100.403V68ZM104.282 60.896C104.822 60.896 105.266 60.44 105.266 59.9C105.266 59.36 104.822 58.904 104.282 58.904C103.742 58.904 103.286 59.36 103.286 59.9C103.286 60.44 103.742 60.896 104.282 60.896ZM103.514 68H105.038V61.952H103.514V68ZM108.33 68.18C109.038 68.18 109.758 67.88 110.142 67.412V68H111.666V64.088C111.666 62.756 110.766 61.712 109.014 61.712C107.91 61.712 107.022 62.168 106.482 62.912L107.598 63.764C107.922 63.32 108.378 63.044 108.966 63.044C109.662 63.044 110.142 63.452 110.142 64.088V64.244L108.294 64.556C106.998 64.772 106.29 65.456 106.29 66.368C106.29 67.484 107.118 68.18 108.33 68.18ZM107.802 66.296C107.802 65.924 108.066 65.66 108.702 65.552L110.142 65.312V66.164C109.842 66.644 109.338 66.968 108.642 66.968C108.126 66.968 107.802 66.704 107.802 66.296ZM113.555 65.792C113.555 67.268 114.275 68.12 115.787 68.12C116.291 68.12 116.651 68.06 116.951 67.928V66.596C116.747 66.68 116.471 66.728 116.051 66.728C115.451 66.728 115.091 66.464 115.091 65.792V63.32H116.939V61.952H115.091V60.44H113.555V61.952H112.427V63.32H113.555V65.792ZM118.832 60.896C119.372 60.896 119.816 60.44 119.816 59.9C119.816 59.36 119.372 58.904 118.832 58.904C118.292 58.904 117.836 59.36 117.836 59.9C117.836 60.44 118.292 60.896 118.832 60.896ZM118.064 68H119.588V61.952H118.064V68ZM124.055 61.712C122.087 61.712 120.743 63.164 120.743 64.976C120.743 66.788 122.087 68.24 124.055 68.24C126.023 68.24 127.367 66.788 127.367 64.976C127.367 63.164 126.023 61.712 124.055 61.712ZM124.079 66.8C123.071 66.8 122.327 66.032 122.327 64.976C122.327 63.92 123.071 63.152 124.079 63.152C125.051 63.152 125.783 63.92 125.783 64.976C125.783 66.02 125.051 66.8 124.079 66.8ZM128.517 68H130.041V64.052C130.269 63.668 130.677 63.152 131.445 63.152C132.189 63.152 132.645 63.656 132.645 64.46V68H134.181V64.4C134.181 62.612 133.137 61.712 131.829 61.712C131.025 61.712 130.461 62.024 130.041 62.432V61.952H128.517V68Z" fill="black"/>
<path d="M194.912 161.375L186.755 153.393C185.824 152.482 184.565 152 183.251 152H173.041H144.541H139.982C137.244 152 135 154.196 135 156.875V171.125C135 173.804 137.244 176 139.982 176H148.541H173.041H183.251C184.565 176 185.77 175.464 186.7 174.554L194.912 166.518C196.335 165.125 196.39 162.821 194.912 161.375ZM183.525 165.661C182.595 164.75 182.54 163.196 183.525 162.232C184.456 161.321 186.098 161.321 187.029 162.232C188.014 163.196 187.959 164.75 187.029 165.661C186.043 166.625 184.511 166.625 183.525 165.661Z" fill="#EEF1F8" stroke="#5770BE"/>
<circle cx="144" cy="159" r="2" fill="#5770BE"/>
<circle cx="144" cy="164" r="2" fill="#5770BE"/>
<circle cx="144" cy="169" r="2" fill="#5770BE"/>
<path d="M148.5 159H170" stroke="#5770BE" stroke-width="3"/>
<path d="M148.5 164H164" stroke="#5770BE" stroke-width="3"/>
<path d="M148.5 169H174" stroke="#5770BE" stroke-width="3"/>
<path d="M250.178 60.0312L244.015 54.0446C243.312 53.3616 242.36 53 241.368 53H233.653H224.208H220.764C218.696 53 217 54.6473 217 56.6562V67.3438C217 69.3527 218.696 71 220.764 71H227.231H233.653H241.368C242.36 71 243.27 70.5982 243.974 69.9152L250.178 63.8884C251.253 62.8438 251.295 61.1161 250.178 60.0312ZM241.575 63.2455C240.871 62.5625 240.83 61.3973 241.575 60.6741C242.278 59.9911 243.519 59.9911 244.222 60.6741C244.966 61.3973 244.925 62.5625 244.222 63.2455C243.477 63.9688 242.319 63.9688 241.575 63.2455Z" stroke="black"/>
<path d="M202.677 165.859L207.752 160.871C208.331 160.301 209.115 160 209.932 160H216.286H224.064H226.9C228.603 160 230 161.373 230 163.047V171.953C230 173.627 228.603 175 226.9 175H221.575H216.286H209.932C209.115 175 208.366 174.665 207.786 174.096L202.677 169.074C201.791 168.203 201.757 166.763 202.677 165.859ZM209.762 168.538C210.341 167.969 210.375 166.998 209.762 166.395C209.183 165.826 208.161 165.826 207.582 166.395C206.969 166.998 207.003 167.969 207.582 168.538C208.195 169.141 209.149 169.141 209.762 168.538Z" stroke="black"/>
<path d="M129.912 127.375L121.755 119.393C120.824 118.482 119.565 118 118.251 118H108.041H103.541H98.9817C96.2445 118 94 120.196 94 122.875V137.125C94 139.804 96.2445 142 98.9817 142H107.541H108.041H118.251C119.565 142 120.77 141.464 121.7 140.554L129.912 132.518C131.335 131.125 131.39 128.821 129.912 127.375ZM118.525 131.661C117.595 130.75 117.54 129.196 118.525 128.232C119.456 127.321 121.098 127.321 122.029 128.232C123.014 129.196 122.959 130.75 122.029 131.661C121.043 132.625 119.511 132.625 118.525 131.661Z" stroke="black"/>
<path d="M160.982 138C158.244 138 156 135.804 156 133.125V118.875C156 116.196 158.244 114 160.982 114H165.541M207.7 136.554L215.912 128.518C217.335 127.125 217.39 124.821 215.912 123.375L207.755 115.393C206.824 114.482 205.565 114 204.251 114H194.041M169.541 138H194.041M204.525 127.661C203.595 126.75 203.54 125.196 204.525 124.232C205.456 123.321 207.098 123.321 208.029 124.232C209.014 125.196 208.959 126.75 208.029 127.661C207.043 128.625 205.511 128.625 204.525 127.661Z" stroke="black"/>
<path d="M195.368 89C194.067 89 193 87.9933 193 86.7656V80.2344C193 79.0067 194.067 78 195.368 78H197.536M211.579 88.3371L215.483 84.654C216.159 84.0156 216.185 82.9598 215.483 82.2969L211.605 78.6384C211.162 78.221 210.564 78 209.939 78H205.085M199.437 89H205.085M210.069 84.2612C209.627 83.8438 209.601 83.1317 210.069 82.6897C210.512 82.2723 211.293 82.2723 211.735 82.6897C212.203 83.1317 212.177 83.8438 211.735 84.2612C211.267 84.7031 210.538 84.7031 210.069 84.2612Z" stroke="black"/>
<path d="M282.018 108C284.756 108 287 105.804 287 103.125V88.875C287 86.1964 284.756 84 282.018 84H277.459M241.3 106.554L233.088 98.5179C231.665 97.125 231.61 94.8214 233.088 93.375L241.245 85.3929C242.176 84.4821 243.435 84 244.749 84H254.959M273.459 108H254.959M244.475 97.6607C245.405 96.75 245.46 95.1964 244.475 94.2321C243.544 93.3214 241.902 93.3214 240.971 94.2321C239.986 95.1964 240.041 96.75 240.971 97.6607C241.957 98.625 243.489 98.625 244.475 97.6607Z" stroke="black"/>
<path d="M203.468 187.688L199.48 183.696C199.025 183.241 198.41 183 197.767 183H192.775H186.664H184.435C183.097 183 182 184.098 182 185.438V192.562C182 193.902 183.097 195 184.435 195H188.62H192.775H197.767C198.41 195 198.999 194.732 199.453 194.277L203.468 190.259C204.164 189.563 204.191 188.411 203.468 187.688ZM197.901 189.83C197.446 189.375 197.419 188.598 197.901 188.116C198.356 187.661 199.159 187.661 199.614 188.116C200.096 188.598 200.069 189.375 199.614 189.83C199.132 190.313 198.383 190.313 197.901 189.83Z" stroke="black"/>
<path d="M124.353 166.162C114.24 161.721 102.441 166.32 98 176.434M124.353 166.162L122.042 160.233M124.353 166.162L119.138 169.333" stroke="black" stroke-width="2" stroke-linecap="round" stroke-linejoin="round"/>
<path d="M303.228 141.455C314.246 142.236 322.545 151.8 321.764 162.818M303.228 141.455L308.034 137.284M303.228 141.455L306.365 146.69" stroke="black" stroke-width="2" stroke-linecap="round" stroke-linejoin="round"/>
<path d="M119.885 92.9911C109.375 96.3898 98.0998 90.6251 94.7012 80.1152M119.885 92.9911L116.988 98.6574M119.885 92.9911L115.016 89.3106" stroke="black" stroke-width="2" stroke-linecap="round" stroke-linejoin="round"/>
<path d="M178.067 96.7969L171.075 103.781C170.277 104.578 169.198 105 168.072 105H153.319H140.178H136.27C133.924 105 132 103.078 132 100.734V88.2656C132 85.9219 133.924 84 136.27 84H143.607H153.319H168.072C169.198 84 170.23 84.4688 171.028 85.2656L178.067 92.2969C179.287 93.5156 179.334 95.5312 178.067 96.7969ZM168.306 93.0469C167.509 93.8437 167.462 95.2031 168.306 96.0469C169.104 96.8437 170.512 96.8437 171.31 96.0469C172.154 95.2031 172.108 93.8437 171.31 93.0469C170.465 92.2031 169.151 92.2031 168.306 93.0469Z" fill="#F3DADA"/>
<path d="M132 88.2656C132 85.9219 133.99 84 136.418 84H140.46M132 100.734C132 103.078 133.99 105 136.418 105M178.035 96.7031C179.297 95.4844 179.346 93.4688 178.035 92.2031L170.802 85.2188C169.976 84.4219 168.86 84 167.695 84H158.5M167.937 92.9531C168.763 92.1562 170.219 92.1562 171.044 92.9531C171.918 93.7969 171.87 95.1563 171.044 95.9531" stroke="#E37171"/>
<path d="M150.1 97.58H152.4L152.56 96.36C154.92 95.96 156.58 94.5 156.58 92.2C156.58 89.54 154.34 88 151.98 88C149.82 88 148.18 88.94 147 90.94L149.72 92.62C150.4 91.54 150.92 91 151.82 91C152.54 91 153.14 91.48 153.14 92.2C153.14 93.74 151.66 93.92 149.7 94.1L150.1 97.58ZM151.26 102.66C152.38 102.66 153.36 101.7 153.36 100.56C153.36 99.44 152.38 98.48 151.26 98.48C150.1 98.48 149.14 99.44 149.14 100.56C149.14 101.7 150.1 102.66 151.26 102.66Z" fill="#E37171"/>
<path d="M227.57 141.328L239.337 152.969C240.68 154.297 242.496 155 244.391 155H259.122H281.237H287.813C291.762 155 295 151.797 295 147.891V127.109C295 123.203 291.762 120 287.813 120H275.466H259.122H244.391C242.496 120 240.759 120.781 239.416 122.109L227.57 133.828C225.516 135.859 225.437 139.219 227.57 141.328ZM243.996 135.078C245.339 136.406 245.418 138.672 243.996 140.078C242.654 141.406 240.285 141.406 238.942 140.078C237.521 138.672 237.6 136.406 238.942 135.078C240.364 133.672 242.575 133.672 243.996 135.078Z" fill="#FFDBD2"/>
<path d="M227.597 133.672C225.428 135.781 225.508 139.141 227.597 141.172L239.653 152.891M239.572 122.031C240.939 120.703 242.787 120 244.716 120H259.706M287.686 155C291.705 155 295 151.797 295 147.891V127.109C295 123.203 291.705 120 287.686 120H280.994M275.121 155H259.706M244.314 139.922C245.68 138.594 245.761 136.328 244.314 134.922C242.948 133.594 240.537 133.594 239.171 134.922C237.724 136.328 237.804 138.594 239.171 139.922C240.617 141.328 242.867 141.328 244.314 139.922Z" stroke="#FF6F4C"/>
<path d="M255 132H280.5" stroke="#FF6F4C" stroke-width="3"/>
<path d="M255 138H286" stroke="#FF6F4C" stroke-width="3"/>
<path d="M255 144H270" stroke="#FF6F4C" stroke-width="3"/>
</svg>
