<svg width="308" height="308" viewBox="0 0 308 308" fill="none" xmlns="http://www.w3.org/2000/svg">
<circle cx="154" cy="154" r="151" fill="white" stroke="#EEF1F8" stroke-width="6"/>
<path d="M131.912 95.375L123.755 87.3929C122.824 86.4821 121.565 86 120.251 86H110.041H81.5405H76.9817C74.2445 86 72 88.1964 72 90.875V105.125C72 107.804 74.2445 110 76.9817 110H85.5405H110.041H120.251C121.565 110 122.77 109.464 123.7 108.554L131.912 100.518C133.335 99.125 133.39 96.8214 131.912 95.375ZM120.525 99.6607C119.595 98.75 119.54 97.1964 120.525 96.2321C121.456 95.3214 123.098 95.3214 124.029 96.2321C125.014 97.1964 124.959 98.75 124.029 99.6607C123.043 100.625 121.511 100.625 120.525 99.6607Z" stroke="black"/>
<path d="M169.984 201.594L162.371 194.277C161.503 193.442 160.328 193 159.101 193H149.571H137.904H133.65C131.095 193 129 195.013 129 197.469V210.531C129 212.987 131.095 215 133.65 215H141.638H149.571H159.101C160.328 215 161.452 214.509 162.32 213.674L169.984 206.308C171.313 205.031 171.364 202.92 169.984 201.594ZM159.357 205.522C158.488 204.688 158.437 203.263 159.357 202.379C160.225 201.545 161.758 201.545 162.627 202.379C163.547 203.263 163.495 204.688 162.627 205.522C161.707 206.406 160.277 206.406 159.357 205.522Z" stroke="black"/>
<path d="M212.846 134.422L219.191 128.103C219.914 127.382 220.894 127 221.916 127H229.857H239.58H243.125C245.254 127 247 128.739 247 130.859V142.141C247 144.261 245.254 146 243.125 146H236.468H229.857H221.916C220.894 146 219.957 145.576 219.233 144.855L212.846 138.493C211.739 137.391 211.697 135.567 212.846 134.422ZM221.703 137.815C222.426 137.094 222.469 135.864 221.703 135.1C220.979 134.379 219.701 134.379 218.978 135.1C218.211 135.864 218.254 137.094 218.978 137.815C219.744 138.578 220.936 138.578 221.703 137.815Z" stroke="black"/>
<path d="M190.532 225.688L194.52 221.696C194.975 221.241 195.59 221 196.233 221H201.225H207.336H209.565C210.903 221 212 222.098 212 223.438V230.562C212 231.902 210.903 233 209.565 233H205.38H201.225H196.233C195.59 233 195.001 232.732 194.547 232.277L190.532 228.259C189.836 227.563 189.809 226.411 190.532 225.688ZM196.099 227.83C196.554 227.375 196.581 226.598 196.099 226.116C195.644 225.661 194.841 225.661 194.386 226.116C193.904 226.598 193.931 227.375 194.386 227.83C194.868 228.313 195.617 228.313 196.099 227.83Z" stroke="black"/>
<path d="M77.9119 131.375L69.7551 123.393C68.8244 122.482 67.5653 122 66.2515 122H56.0405H51.5405H46.9817C44.2445 122 42 124.196 42 126.875V141.125C42 143.804 44.2445 146 46.9817 146H55.5405H56.0405H66.2515C67.5653 146 68.7697 145.464 69.7003 144.554L77.9119 136.518C79.3352 135.125 79.39 132.821 77.9119 131.375ZM66.5252 135.661C65.5945 134.75 65.5398 133.196 66.5252 132.232C67.4558 131.321 69.0981 131.321 70.0288 132.232C71.0142 133.196 70.9594 134.75 70.0288 135.661C69.0434 136.625 67.5106 136.625 66.5252 135.661Z" stroke="black"/>
<path d="M141.982 139C139.244 139 137 136.804 137 134.125V119.875C137 117.196 139.244 115 141.982 115H146.541M188.7 137.554L196.912 129.518C198.335 128.125 198.39 125.821 196.912 124.375L188.755 116.393C187.824 115.482 186.565 115 185.251 115H175.041M150.541 139H175.041M185.525 128.661C184.595 127.75 184.54 126.196 185.525 125.232C186.456 124.321 188.098 124.321 189.029 125.232C190.014 126.196 189.959 127.75 189.029 128.661C188.043 129.625 186.511 129.625 185.525 128.661Z" stroke="black"/>
<path d="M143.368 91C142.067 91 141 89.9933 141 88.7656V82.2344C141 81.0067 142.067 80 143.368 80H145.536M159.579 90.3371L163.483 86.654C164.159 86.0156 164.185 84.9598 163.483 84.2969L159.605 80.6384C159.162 80.221 158.564 80 157.939 80H153.085M147.437 91H153.085M158.069 86.2612C157.627 85.8438 157.601 85.1317 158.069 84.6897C158.512 84.2723 159.293 84.2723 159.735 84.6897C160.203 85.1317 160.177 85.8438 159.735 86.2612C159.267 86.7031 158.538 86.7031 158.069 86.2612Z" stroke="black"/>
<path d="M65.4177 228C62.9904 228 61 226.078 61 223.734V211.266C61 208.922 62.9904 207 65.4177 207H69.4605M99.7531 226.734L107.035 219.703C108.297 218.484 108.346 216.469 107.035 215.203L99.8017 208.219C98.9764 207.422 97.8598 207 96.6947 207H81.3962M96.9374 215.953C97.7627 215.156 99.2191 215.156 100.044 215.953C100.918 216.797 100.87 218.156 100.044 218.953M73.0076 228H92.0377" stroke="black"/>
<path d="M230.018 110C232.756 110 235 107.804 235 105.125V90.875C235 88.1964 232.756 86 230.018 86H225.459M189.3 108.554L181.088 100.518C179.665 99.125 179.61 96.8214 181.088 95.375L189.245 87.3929C190.176 86.4821 191.435 86 192.749 86H202.959M221.459 110H202.959M192.475 99.6607C193.405 98.75 193.46 97.1964 192.475 96.2321C191.544 95.3214 189.902 95.3214 188.971 96.2321C187.986 97.1964 188.041 98.75 188.971 99.6607C189.957 100.625 191.489 100.625 192.475 99.6607Z" stroke="black"/>
<path d="M179.597 173.672C177.428 175.781 177.508 179.141 179.597 181.172L191.653 192.891M191.572 162.031C192.939 160.703 194.787 160 196.716 160H211.706M239.686 195C243.705 195 247 191.797 247 187.891V167.109C247 163.203 243.705 160 239.686 160H232.994M227.121 195H211.706M196.314 179.922C197.68 178.594 197.761 176.328 196.314 174.922C194.948 173.594 192.537 173.594 191.171 174.922C189.724 176.328 189.804 178.594 191.171 179.922C192.617 181.328 194.867 181.328 196.314 179.922Z" stroke="black"/>
<path d="M131.251 153H121.041M83 157.875C83 155.196 85.2445 153 87.9817 153H92.5405M87.9817 177C85.2445 177 83 174.804 83 172.125V162.375M134.7 175.554L142.912 167.518C144.335 166.125 144.39 163.821 142.912 162.375L138 157.568M131.525 163.232C130.54 164.196 130.595 165.75 131.525 166.661C132.511 167.625 134.043 167.625 135.029 166.661C135.959 165.75 136.014 164.196 135.029 163.232M114 177H121.041" stroke="black"/>
<path d="M146.5 77H152" stroke="#FF6F4C" stroke-width="2"/>
<path d="M107.033 215.203L99.7823 208.219C98.955 207.422 97.8358 207 96.668 207H87.5916L69.5523 207H65.5C63.0669 207 61.0718 208.922 61.0718 211.266V223.734C61.0718 226.078 63.0669 228 65.5 228H80.036H87.5916H96.668C97.8358 228 98.9064 227.531 99.7336 226.734L107.033 219.703C108.298 218.484 108.347 216.469 107.033 215.203ZM96.9113 218.953C96.084 218.156 96.0354 216.797 96.9113 215.953C97.7385 215.156 99.1983 215.156 100.026 215.953C100.901 216.797 100.853 218.156 100.026 218.953C99.1497 219.797 97.7872 219.797 96.9113 218.953Z" stroke="#5770BE"/>
<path d="M196.912 124.375L188.755 116.393C187.824 115.482 186.565 115 185.251 115H175.041H146.541H141.982C139.244 115 137 117.196 137 119.875V134.125C137 136.804 139.244 139 141.982 139H150.541H175.041H185.251C186.565 139 187.77 138.464 188.7 137.554L196.912 129.518C198.335 128.125 198.39 125.821 196.912 124.375ZM185.525 128.661C184.595 127.75 184.54 126.196 185.525 125.232C186.456 124.321 188.098 124.321 189.029 125.232C190.014 126.196 189.959 127.75 189.029 128.661C188.043 129.625 186.511 129.625 185.525 128.661Z" stroke="#FF6F4C"/>
<path d="M131.912 95.375L123.755 87.3929C122.824 86.4821 121.565 86 120.251 86H110.041H81.5405H76.9817C74.2445 86 72 88.1964 72 90.875V105.125C72 107.804 74.2445 110 76.9817 110H85.5405H110.041H120.251C121.565 110 122.77 109.464 123.7 108.554L131.912 100.518C133.335 99.125 133.39 96.8214 131.912 95.375ZM120.525 99.6607C119.595 98.75 119.54 97.1964 120.525 96.2321C121.456 95.3214 123.098 95.3214 124.029 96.2321C125.014 97.1964 124.959 98.75 124.029 99.6607C123.043 100.625 121.511 100.625 120.525 99.6607Z" stroke="black"/>
<path d="M179.588 173.672L191.489 162.031C192.846 160.703 194.683 160 196.6 160H211.498H233.08H239.732C243.725 160 247 163.203 247 167.109V187.891C247 191.797 243.725 195 239.732 195H227.244H211.498H196.6C194.683 195 192.926 194.219 191.568 192.891L179.588 181.172C177.511 179.141 177.431 175.781 179.588 173.672ZM196.201 179.922C197.559 178.594 197.639 176.328 196.201 174.922C194.843 173.594 192.447 173.594 191.089 174.922C189.651 176.328 189.731 178.594 191.089 179.922C192.527 181.328 194.763 181.328 196.201 179.922Z" fill="white" stroke="#00AC8C"/>
<path d="M142.912 162.375L134.755 154.393C133.824 153.482 132.565 153 131.251 153H121.041H92.5405H87.9817C85.2445 153 83 155.196 83 157.875V172.125C83 174.804 85.2445 177 87.9817 177H96.5405H121.041H131.251C132.565 177 133.77 176.464 134.7 175.554L142.912 167.518C144.335 166.125 144.39 163.821 142.912 162.375ZM131.525 166.661C130.595 165.75 130.54 164.196 131.525 163.232C132.456 162.321 134.098 162.321 135.029 163.232C136.014 164.196 135.959 165.75 135.029 166.661C134.043 167.625 132.511 167.625 131.525 166.661Z" stroke="#FFC29E"/>
<path d="M169.984 201.594L162.371 194.277C161.503 193.442 160.328 193 159.101 193H149.571H137.904H133.65C131.095 193 129 195.013 129 197.469V210.531C129 212.987 131.095 215 133.65 215H141.638H149.571H159.101C160.328 215 161.452 214.509 162.32 213.674L169.984 206.308C171.313 205.031 171.364 202.92 169.984 201.594ZM159.357 205.522C158.488 204.688 158.437 203.263 159.357 202.379C160.225 201.545 161.758 201.545 162.627 202.379C163.547 203.263 163.495 204.688 162.627 205.522C161.707 206.406 160.277 206.406 159.357 205.522Z" stroke="black"/>
<path d="M212.846 134.422L219.191 128.103C219.914 127.382 220.894 127 221.916 127H229.857H239.58H243.125C245.254 127 247 128.739 247 130.859V142.141C247 144.261 245.254 146 243.125 146H236.468H229.857H221.916C220.894 146 219.957 145.576 219.233 144.855L212.846 138.493C211.739 137.391 211.697 135.567 212.846 134.422ZM221.703 137.815C222.426 137.094 222.469 135.864 221.703 135.1C220.979 134.379 219.701 134.379 218.978 135.1C218.211 135.864 218.254 137.094 218.978 137.815C219.744 138.578 220.936 138.578 221.703 137.815Z" fill="white" stroke="black"/>
<path d="M190.532 225.688L194.52 221.696C194.975 221.241 195.59 221 196.233 221H201.225H207.336H209.565C210.903 221 212 222.098 212 223.438V230.562C212 231.902 210.903 233 209.565 233H205.38H201.225H196.233C195.59 233 195.001 232.732 194.547 232.277L190.532 228.259C189.836 227.563 189.809 226.411 190.532 225.688ZM196.099 227.83C196.554 227.375 196.581 226.598 196.099 226.116C195.644 225.661 194.841 225.661 194.386 226.116C193.904 226.598 193.931 227.375 194.386 227.83C194.868 228.313 195.617 228.313 196.099 227.83Z" stroke="black"/>
<path d="M77.9119 131.375L69.7551 123.393C68.8244 122.482 67.5653 122 66.2515 122H56.0405H51.5405H46.9817C44.2445 122 42 124.196 42 126.875V141.125C42 143.804 44.2445 146 46.9817 146H55.5405H56.0405H66.2515C67.5653 146 68.7697 145.464 69.7003 144.554L77.9119 136.518C79.3352 135.125 79.39 132.821 77.9119 131.375ZM66.5252 135.661C65.5945 134.75 65.5398 133.196 66.5252 132.232C67.4558 131.321 69.0981 131.321 70.0288 132.232C71.0142 133.196 70.9594 134.75 70.0288 135.661C69.0434 136.625 67.5106 136.625 66.5252 135.661Z" stroke="black"/>
<path d="M141.982 139C139.244 139 137 136.804 137 134.125V119.875C137 117.196 139.244 115 141.982 115H146.541M188.7 137.554L196.912 129.518C198.335 128.125 198.39 125.821 196.912 124.375L188.755 116.393C187.824 115.482 186.565 115 185.251 115H175.041M150.541 139H175.041M185.525 128.661C184.595 127.75 184.54 126.196 185.525 125.232C186.456 124.321 188.098 124.321 189.029 125.232C190.014 126.196 189.959 127.75 189.029 128.661C188.043 129.625 186.511 129.625 185.525 128.661Z" stroke="black"/>
<path d="M143.368 91C142.067 91 141 89.9933 141 88.7656V82.2344C141 81.0067 142.067 80 143.368 80H145.536M159.579 90.3371L163.483 86.654C164.159 86.0156 164.185 84.9598 163.483 84.2969L159.605 80.6384C159.162 80.221 158.564 80 157.939 80H153.085M147.437 91H153.085M158.069 86.2612C157.627 85.8438 157.601 85.1317 158.069 84.6897C158.512 84.2723 159.293 84.2723 159.735 84.6897C160.203 85.1317 160.177 85.8438 159.735 86.2612C159.267 86.7031 158.538 86.7031 158.069 86.2612Z" stroke="black"/>
<path d="M65.4177 228C62.9904 228 61 226.078 61 223.734V211.266C61 208.922 62.9904 207 65.4177 207H69.4605M99.7531 226.734L107.035 219.703C108.297 218.484 108.346 216.469 107.035 215.203L99.8017 208.219C98.9764 207.422 97.8598 207 96.6947 207H81.3962M96.9374 215.953C97.7627 215.156 99.2191 215.156 100.044 215.953C100.918 216.797 100.87 218.156 100.044 218.953M73.0076 228H92.0377" stroke="black"/>
<path d="M230.018 110C232.756 110 235 107.804 235 105.125V90.875C235 88.1964 232.756 86 230.018 86H225.459M189.3 108.554L181.088 100.518C179.665 99.125 179.61 96.8214 181.088 95.375L189.245 87.3929C190.176 86.4821 191.435 86 192.749 86H202.959M221.459 110H202.959M192.475 99.6607C193.405 98.75 193.46 97.1964 192.475 96.2321C191.544 95.3214 189.902 95.3214 188.971 96.2321C187.986 97.1964 188.041 98.75 188.971 99.6607C189.957 100.625 191.489 100.625 192.475 99.6607Z" stroke="black"/>
<path d="M179.597 173.672C177.428 175.781 177.508 179.141 179.597 181.172L191.653 192.891M191.572 162.031C192.939 160.703 194.787 160 196.716 160H211.706M239.686 195C243.705 195 247 191.797 247 187.891V167.109C247 163.203 243.705 160 239.686 160H232.994M227.121 195H211.706M196.314 179.922C197.68 178.594 197.761 176.328 196.314 174.922C194.948 173.594 192.537 173.594 191.171 174.922C189.724 176.328 189.804 178.594 191.171 179.922C192.617 181.328 194.867 181.328 196.314 179.922Z" stroke="black"/>
<path d="M131.251 153H121.041M83 157.875C83 155.196 85.2445 153 87.9817 153H92.5405M87.9817 177C85.2445 177 83 174.804 83 172.125V162.375M134.7 175.554L142.912 167.518C144.335 166.125 144.39 163.821 142.912 162.375L138 157.568M131.525 163.232C130.54 164.196 130.595 165.75 131.525 166.661C132.511 167.625 134.043 167.625 135.029 166.661C135.959 165.75 136.014 164.196 135.029 163.232M114 177H121.041" stroke="black"/>
<path d="M205 79H224" stroke="#FF6F4C" stroke-width="2"/>
<path d="M214 72C214 60.9543 205.046 52 194 52M214 72L219 64.5M214 72L207 66" stroke="black" stroke-width="2" stroke-linecap="round" stroke-linejoin="round"/>
<path d="M149.5 72C149.5 66.4772 153.977 62 159.5 62M149.5 72L146 68.5M149.5 72L154 69.5" stroke="black" stroke-width="2" stroke-linecap="round" stroke-linejoin="round"/>
<path d="M146.5 77H152" stroke="#FF6F4C"/>
<mask id="path-33-outside-1_3752_180669" maskUnits="userSpaceOnUse" x="211" y="171" width="16" height="13" fill="black">
<rect fill="white" x="211" y="171" width="16" height="13"/>
<path d="M225.696 172.304C226.101 172.679 226.101 173.334 225.696 173.709L217.705 181.7C217.33 182.106 216.674 182.106 216.3 181.7L212.304 177.705C211.899 177.33 211.899 176.674 212.304 176.3C212.679 175.894 213.334 175.894 213.709 176.3L216.987 179.577L224.291 172.304C224.666 171.899 225.321 171.899 225.696 172.304Z"/>
</mask>
<path d="M225.696 172.304C226.101 172.679 226.101 173.334 225.696 173.709L217.705 181.7C217.33 182.106 216.674 182.106 216.3 181.7L212.304 177.705C211.899 177.33 211.899 176.674 212.304 176.3C212.679 175.894 213.334 175.894 213.709 176.3L216.987 179.577L224.291 172.304C224.666 171.899 225.321 171.899 225.696 172.304Z" stroke="black" stroke-width="2" mask="url(#path-33-outside-1_3752_180669)"/>
<mask id="path-34-outside-2_3752_180669" maskUnits="userSpaceOnUse" x="156" y="121" width="16" height="13" fill="black">
<rect fill="white" x="156" y="121" width="16" height="13"/>
<path d="M170.696 122.304C171.101 122.679 171.101 123.334 170.696 123.709L162.705 131.7C162.33 132.106 161.674 132.106 161.3 131.7L157.304 127.705C156.899 127.33 156.899 126.674 157.304 126.3C157.679 125.894 158.334 125.894 158.709 126.3L161.987 129.577L169.291 122.304C169.666 121.899 170.321 121.899 170.696 122.304Z"/>
</mask>
<path d="M170.696 122.304C171.101 122.679 171.101 123.334 170.696 123.709L162.705 131.7C162.33 132.106 161.674 132.106 161.3 131.7L157.304 127.705C156.899 127.33 156.899 126.674 157.304 126.3C157.679 125.894 158.334 125.894 158.709 126.3L161.987 129.577L169.291 122.304C169.666 121.899 170.321 121.899 170.696 122.304Z" stroke="black" stroke-width="2" mask="url(#path-34-outside-2_3752_180669)"/>
<mask id="path-35-outside-3_3752_180669" maskUnits="userSpaceOnUse" x="90" y="92" width="16" height="13" fill="black">
<rect fill="white" x="90" y="92" width="16" height="13"/>
<path d="M104.696 93.3043C105.101 93.6789 105.101 94.3344 104.696 94.709L96.7046 102.7C96.33 103.106 95.6745 103.106 95.2999 102.7L91.3043 98.7046C90.8986 98.33 90.8986 97.6745 91.3043 97.2999C91.6789 96.8941 92.3344 96.8941 92.709 97.2999L95.9866 100.577L103.291 93.3043C103.666 92.8986 104.321 92.8986 104.696 93.3043Z"/>
</mask>
<path d="M104.696 93.3043C105.101 93.6789 105.101 94.3344 104.696 94.709L96.7046 102.7C96.33 103.106 95.6745 103.106 95.2999 102.7L91.3043 98.7046C90.8986 98.33 90.8986 97.6745 91.3043 97.2999C91.6789 96.8941 92.3344 96.8941 92.709 97.2999L95.9866 100.577L103.291 93.3043C103.666 92.8986 104.321 92.8986 104.696 93.3043Z" stroke="black" stroke-width="2" mask="url(#path-35-outside-3_3752_180669)"/>
<mask id="path-36-outside-4_3752_180669" maskUnits="userSpaceOnUse" x="46" y="128" width="16" height="13" fill="black">
<rect fill="white" x="46" y="128" width="16" height="13"/>
<path d="M60.6957 129.304C61.1014 129.679 61.1014 130.334 60.6957 130.709L52.7046 138.7C52.33 139.106 51.6745 139.106 51.2999 138.7L47.3043 134.705C46.8986 134.33 46.8986 133.674 47.3043 133.3C47.6789 132.894 48.3344 132.894 48.709 133.3L51.9866 136.577L59.291 129.304C59.6656 128.899 60.3211 128.899 60.6957 129.304Z"/>
</mask>
<path d="M60.6957 129.304C61.1014 129.679 61.1014 130.334 60.6957 130.709L52.7046 138.7C52.33 139.106 51.6745 139.106 51.2999 138.7L47.3043 134.705C46.8986 134.33 46.8986 133.674 47.3043 133.3C47.6789 132.894 48.3344 132.894 48.709 133.3L51.9866 136.577L59.291 129.304C59.6656 128.899 60.3211 128.899 60.6957 129.304Z" stroke="black" stroke-width="2" mask="url(#path-36-outside-4_3752_180669)"/>
<mask id="path-37-outside-5_3752_180669" maskUnits="userSpaceOnUse" x="70" y="212" width="16" height="13" fill="black">
<rect fill="white" x="70" y="212" width="16" height="13"/>
<path d="M84.6957 213.304C85.1014 213.679 85.1014 214.334 84.6957 214.709L76.7046 222.7C76.33 223.106 75.6745 223.106 75.2999 222.7L71.3043 218.705C70.8986 218.33 70.8986 217.674 71.3043 217.3C71.6789 216.894 72.3344 216.894 72.709 217.3L75.9866 220.577L83.291 213.304C83.6656 212.899 84.3211 212.899 84.6957 213.304Z"/>
</mask>
<path d="M84.6957 213.304C85.1014 213.679 85.1014 214.334 84.6957 214.709L76.7046 222.7C76.33 223.106 75.6745 223.106 75.2999 222.7L71.3043 218.705C70.8986 218.33 70.8986 217.674 71.3043 217.3C71.6789 216.894 72.3344 216.894 72.709 217.3L75.9866 220.577L83.291 213.304C83.6656 212.899 84.3211 212.899 84.6957 213.304Z" stroke="black" stroke-width="2" mask="url(#path-37-outside-5_3752_180669)"/>
<mask id="path-38-outside-6_3752_180669" maskUnits="userSpaceOnUse" x="137" y="198" width="16" height="13" fill="black">
<rect fill="white" x="137" y="198" width="16" height="13"/>
<path d="M151.696 199.304C152.101 199.679 152.101 200.334 151.696 200.709L143.705 208.7C143.33 209.106 142.674 209.106 142.3 208.7L138.304 204.705C137.899 204.33 137.899 203.674 138.304 203.3C138.679 202.894 139.334 202.894 139.709 203.3L142.987 206.577L150.291 199.304C150.666 198.899 151.321 198.899 151.696 199.304Z"/>
</mask>
<path d="M151.696 199.304C152.101 199.679 152.101 200.334 151.696 200.709L143.705 208.7C143.33 209.106 142.674 209.106 142.3 208.7L138.304 204.705C137.899 204.33 137.899 203.674 138.304 203.3C138.679 202.894 139.334 202.894 139.709 203.3L142.987 206.577L150.291 199.304C150.666 198.899 151.321 198.899 151.696 199.304Z" stroke="black" stroke-width="2" mask="url(#path-38-outside-6_3752_180669)"/>
<mask id="path-39-outside-7_3752_180669" maskUnits="userSpaceOnUse" x="228" y="132" width="13" height="10" fill="black">
<rect fill="white" x="228" y="132" width="13" height="10"/>
<path d="M239.761 133.243C240.08 133.543 240.08 134.067 239.761 134.367L233.482 140.757C233.188 141.081 232.673 141.081 232.378 140.757L229.239 137.562C228.92 137.262 228.92 136.738 229.239 136.438C229.533 136.114 230.048 136.114 230.343 136.438L232.918 139.059L238.657 133.243C238.952 132.919 239.467 132.919 239.761 133.243Z"/>
</mask>
<path d="M239.761 133.243C240.08 133.543 240.08 134.067 239.761 134.367L233.482 140.757C233.188 141.081 232.673 141.081 232.378 140.757L229.239 137.562C228.92 137.262 228.92 136.738 229.239 136.438C229.533 136.114 230.048 136.114 230.343 136.438L232.918 139.059L238.657 133.243C238.952 132.919 239.467 132.919 239.761 133.243Z" stroke="black" stroke-width="2" mask="url(#path-39-outside-7_3752_180669)"/>
<mask id="path-40-outside-8_3752_180669" maskUnits="userSpaceOnUse" x="200" y="224" width="7" height="6" fill="black">
<rect fill="white" x="200" y="224" width="7" height="6"/>
<path d="M205.891 225.122C206.036 225.271 206.036 225.534 205.891 225.683L203.037 228.878C202.904 229.041 202.669 229.041 202.536 228.878L201.109 227.281C200.964 227.131 200.964 226.869 201.109 226.719C201.242 226.557 201.477 226.557 201.61 226.719L202.781 228.03L205.39 225.122C205.523 224.959 205.758 224.959 205.891 225.122Z"/>
</mask>
<path d="M205.891 225.122C206.036 225.271 206.036 225.534 205.891 225.683L203.037 228.878C202.904 229.041 202.669 229.041 202.536 228.878L201.109 227.281C200.964 227.131 200.964 226.869 201.109 226.719C201.242 226.557 201.477 226.557 201.61 226.719L202.781 228.03L205.39 225.122C205.523 224.959 205.758 224.959 205.891 225.122Z" stroke="black" stroke-width="2" mask="url(#path-40-outside-8_3752_180669)"/>
<mask id="path-41-outside-9_3752_180669" maskUnits="userSpaceOnUse" x="102" y="159" width="16" height="13" fill="black">
<rect fill="white" x="102" y="159" width="16" height="13"/>
<path d="M116.696 160.304C117.101 160.679 117.101 161.334 116.696 161.709L108.705 169.7C108.33 170.106 107.674 170.106 107.3 169.7L103.304 165.705C102.899 165.33 102.899 164.674 103.304 164.3C103.679 163.894 104.334 163.894 104.709 164.3L107.987 167.577L115.291 160.304C115.666 159.899 116.321 159.899 116.696 160.304Z"/>
</mask>
<path d="M116.696 160.304C117.101 160.679 117.101 161.334 116.696 161.709L108.705 169.7C108.33 170.106 107.674 170.106 107.3 169.7L103.304 165.705C102.899 165.33 102.899 164.674 103.304 164.3C103.679 163.894 104.334 163.894 104.709 164.3L107.987 167.577L115.291 160.304C115.666 159.899 116.321 159.899 116.696 160.304Z" stroke="black" stroke-width="2" mask="url(#path-41-outside-9_3752_180669)"/>
</svg>
