<svg width="171" height="139" viewBox="0 0 171 139" fill="none" xmlns="http://www.w3.org/2000/svg">
<path d="M137.709 65.6492C135.632 29.8442 105.938 1.44922 69.6124 1.44922C31.9397 1.44922 1.3999 31.989 1.3999 69.6617C1.3999 107.334 31.9397 137.874 69.6124 137.874C83.4432 137.874 96.3127 133.758 107.062 126.684M124.386 66.9867C122.991 37.9432 99.0015 14.8242 69.6124 14.8242C39.3265 14.8242 14.7749 39.3758 14.7749 69.6617C14.7749 99.9476 39.3265 124.499 69.6124 124.499C80.9678 124.499 91.517 121.048 100.268 115.137M33.4999 82.6739H42.6611C45.5805 98.2691 54.339 105.774 68.4331 105.774C77.7956 105.774 84.9433 101.875 89.6749 95.8323L79.4064 88.4246C76.9902 91.7386 73.5674 94.2728 68.6344 94.2728C62.4935 94.2728 58.2652 91.5436 56.4531 82.6739H80.7151V72.3421H55.3457C55.3457 71.4649 55.3457 70.4902 55.3457 69.5155C55.3457 68.5408 55.3457 67.6636 55.3457 66.7864H80.7151V56.4546H56.4531C58.3659 47.7798 62.5941 45.0506 68.6344 45.0506C73.668 45.0506 77.0909 47.4874 79.4064 50.8988L89.6749 43.3937C84.9433 37.3505 77.7956 33.5492 68.4331 33.5492C54.339 33.5492 45.5805 41.0544 42.6611 56.4546H33.4999V66.7864H41.5537C41.5537 67.6636 41.5537 68.5408 41.5537 69.5155C41.5537 70.4902 41.5537 71.4649 41.5537 72.3421H33.4999V82.6739ZM169.925 101.762C169.925 121.706 153.757 137.874 133.812 137.874C113.868 137.874 97.6999 121.706 97.6999 101.762C97.6999 81.8173 113.868 65.6492 133.812 65.6492C153.757 65.6492 169.925 81.8173 169.925 101.762ZM159.225 101.762C159.225 115.797 147.847 127.174 133.812 127.174C119.777 127.174 108.4 115.797 108.4 101.762C108.4 87.7268 119.777 76.3492 133.812 76.3492C147.847 76.3492 159.225 87.7268 159.225 101.762Z" stroke="#ABB8DE" stroke-linecap="round" stroke-linejoin="round"/>
</svg>
