<svg width="455" height="274" viewBox="0 0 455 274" fill="none" xmlns="http://www.w3.org/2000/svg">
<g style="mix-blend-mode:multiply">
<path d="M353.44 214.26V207.96H331.6C331.6 225.346 331.6 235.093 331.6 252.48H359.74M353.44 222.24C353.44 222.24 342.361 222.24 335.8 222.24M353.44 224.76L335.8 224.76M353.44 227.28L335.8 227.28M353.44 229.8C353.44 229.8 342.361 229.8 335.8 229.8M353.44 232.32C353.44 232.32 344.921 232.32 340 232.32M353.44 236.52H335.8M353.44 239.04C353.44 239.04 342.361 239.04 335.8 239.04M384.94 239.04V241.14C384.94 243.923 382.683 246.18 379.9 246.18H363.1M384.94 235.68V237.78C384.94 240.563 382.683 242.82 379.9 242.82C379.9 242.82 379.9 242.82 379.9 242.82C379.9 242.82 368.021 242.82 363.1 242.82M379.9 218.88C379.9 218.88 365.881 218.88 359.32 218.88M379.9 221.4L359.32 221.4M379.9 223.92L359.32 223.92M379.9 226.44C379.9 226.44 365.881 226.44 359.32 226.44M379.9 228.96C379.9 228.96 368.441 228.96 363.52 228.96M379.9 233.16H359.32M379.9 235.68C379.9 235.68 365.881 235.68 359.32 235.68M353.44 213H346.3C346.3 214.968 346.3 216.071 346.3 218.04H353.44V213ZM384.94 204.6H353.44C353.44 221.986 353.44 231.733 353.44 249.12H381.58C383.436 249.12 384.94 247.615 384.94 245.76V204.6ZM360.58 249.12L353.86 242.4H360.58V249.12ZM379.9 209.64H369.82C369.82 211.608 369.82 212.711 369.82 214.68H379.9V209.64Z" stroke="#ABB8DE" stroke-linecap="round" stroke-linejoin="round"/>
</g>
<g style="mix-blend-mode:multiply">
<path d="M22.4399 48.2596V41.9596H0.599943C0.599943 59.3458 0.599943 69.0935 0.599943 86.4796H28.7399M22.4399 56.2396C22.4399 56.2396 11.3608 56.2396 4.79994 56.2396M22.4399 58.7596L4.79994 58.7596M22.4399 61.2796L4.79994 61.2796M22.4399 63.7996C22.4399 63.7996 11.3608 63.7996 4.79994 63.7996M22.4399 66.3196C22.4399 66.3196 13.9205 66.3196 8.99994 66.3196M22.4399 70.5196H4.79994M22.4399 73.0396C22.4399 73.0396 11.3608 73.0396 4.79994 73.0396M53.9399 73.0396V75.1396C53.9399 77.9231 51.6835 80.1796 48.8999 80.1796H32.0999M53.9399 69.6796V71.7796C53.9399 74.5631 51.6835 76.8196 48.8999 76.8196C48.8999 76.8196 48.8999 76.8196 48.8999 76.8196C48.8999 76.8196 37.0205 76.8196 32.0999 76.8196M48.8999 52.8796C48.8999 52.8796 34.8807 52.8796 28.3199 52.8796M48.8999 55.3996L28.3199 55.3996M48.8999 57.9196L28.3199 57.9196M48.8999 60.4396C48.8999 60.4396 34.8807 60.4396 28.3199 60.4396M48.8999 62.9596C48.8999 62.9596 37.4405 62.9596 32.5199 62.9596M48.8999 67.1596H28.3199M48.8999 69.6796C48.8999 69.6796 34.8807 69.6796 28.3199 69.6796M22.4399 46.9996H15.2999C15.2999 48.9679 15.2999 50.0714 15.2999 52.0396H22.4399V46.9996ZM53.9399 38.5996H22.4399C22.4399 55.9858 22.4399 65.7335 22.4399 83.1196H50.5799C52.4356 83.1196 53.9399 81.6153 53.9399 79.7596V38.5996ZM29.5799 83.1196L22.8599 76.3996H29.5799V83.1196ZM48.8999 43.6396H38.8199C38.8199 45.6079 38.8199 46.7114 38.8199 48.6796H48.8999V43.6396Z" stroke="#ABB8DE" stroke-linecap="round" stroke-linejoin="round"/>
</g>
<g style="mix-blend-mode:multiply">
<path d="M406.7 32.9008V22.4008H443.1C443.1 51.3777 443.1 67.6239 443.1 96.6008H396.2M406.7 46.2008C406.7 46.2008 425.166 46.2008 436.1 46.2008M406.7 50.4008L436.1 50.4008M406.7 54.6008L436.1 54.6008M406.7 58.8008C406.7 58.8008 425.166 58.8008 436.1 58.8008M406.7 63.0008C406.7 63.0008 420.899 63.0008 429.1 63.0008M406.7 70.0008H436.1M406.7 74.2008C406.7 74.2008 425.166 74.2008 436.1 74.2008M354.2 74.2008V77.7008C354.2 82.34 357.961 86.1008 362.6 86.1008H390.6M354.2 68.6008V72.1008C354.2 76.74 357.961 80.5008 362.6 80.5008C362.6 80.5008 362.6 80.5008 362.6 80.5008C362.6 80.5008 382.399 80.5008 390.6 80.5008M362.6 40.6008C362.6 40.6008 385.966 40.6008 396.9 40.6008M362.6 44.8008L396.9 44.8008M362.6 49.0008L396.9 49.0008M362.6 53.2008C362.6 53.2008 385.966 53.2008 396.9 53.2008M362.6 57.4008C362.6 57.4008 381.699 57.4008 389.9 57.4008M362.6 64.4008H396.9M362.6 68.6008C362.6 68.6008 385.966 68.6008 396.9 68.6008M406.7 30.8008H418.6C418.6 34.0812 418.6 35.9204 418.6 39.2008H406.7V30.8008ZM354.2 16.8008H406.7C406.7 45.7777 406.7 62.0239 406.7 91.0008H359.8C356.707 91.0008 354.2 88.4936 354.2 85.4008V16.8008ZM394.8 91.0008L406 79.8008H394.8V91.0008ZM362.6 25.2008H379.4C379.4 28.4812 379.4 30.3204 379.4 33.6008H362.6V25.2008Z" stroke="#ABB8DE" stroke-linecap="round" stroke-linejoin="round"/>
</g>
<path d="M154.73 116H81V212.191C81 216.057 84.134 219.191 88 219.191H139.649V227H205V122.693H154.73V116Z" fill="white"/>
<path d="M154.18 138.061V123.361H205.14C205.14 163.929 205.14 186.674 205.14 227.241H139.48M154.18 156.681C154.18 156.681 180.032 156.681 195.34 156.681M154.18 162.561L195.34 162.561M154.18 168.441L195.34 168.441M154.18 174.321C154.18 174.321 180.032 174.321 195.34 174.321M154.18 180.201C154.18 180.201 174.059 180.201 185.54 180.201M154.18 190.001H195.34M154.18 195.881C154.18 195.881 180.032 195.881 195.34 195.881M80.6802 195.881V200.781C80.6802 207.276 85.9453 212.541 92.4402 212.541H131.64M80.6802 188.041V192.941C80.6802 199.436 85.9453 204.701 92.4402 204.701C92.4402 204.701 92.4402 204.701 92.4402 204.701C92.4402 204.701 120.159 204.701 131.64 204.701M92.4402 148.841C92.4402 148.841 125.152 148.841 140.46 148.841M92.4402 154.721L140.46 154.721M92.4402 160.601L140.46 160.601M92.4402 166.481C92.4402 166.481 125.152 166.481 140.46 166.481M92.4402 172.361C92.4402 172.361 119.179 172.361 130.66 172.361M92.4402 182.161H140.46M92.4402 188.041C92.4402 188.041 125.152 188.041 140.46 188.041M154.18 135.121H170.84C170.84 139.714 170.84 142.289 170.84 146.881H154.18V135.121ZM80.6802 115.521H154.18C154.18 156.089 154.18 178.834 154.18 219.401H88.5202C84.1903 219.401 80.6802 215.891 80.6802 211.561V115.521ZM137.52 219.401L153.2 203.721H137.52V219.401ZM92.4402 127.281H115.96C115.96 131.874 115.96 134.449 115.96 139.041H92.4402V127.281Z" stroke="black" stroke-linecap="round" stroke-linejoin="round"/>
<rect x="130.857" y="120.229" width="6.272" height="10.976" fill="#5770BE"/>
<rect x="143.401" y="120.229" width="6.272" height="10.976" fill="#DA3636"/>
<path d="M236.219 135.5L245.354 126.56C246.397 125.54 247.807 125 249.278 125H260.715H375.035H380.14C383.206 125 385.72 127.46 385.72 130.46V146.42C385.72 149.42 383.206 151.88 380.14 151.88H370.555H260.715H249.278C247.807 151.88 246.458 151.28 245.416 150.26L236.219 141.26C234.625 139.7 234.563 137.12 236.219 135.5ZM248.972 140.3C250.014 139.28 250.075 137.54 248.972 136.46C247.929 135.44 246.09 135.44 245.048 136.46C243.944 137.54 244.005 139.28 245.048 140.3C246.151 141.38 247.868 141.38 248.972 140.3Z" fill="#00AC8C" stroke="black"/>
<path d="M257.079 144L261.143 132.8H264.855L268.919 144H265.895L264.983 141.36H261.015L260.103 144H257.079ZM261.847 138.96H264.151L262.999 135.664L261.847 138.96ZM270.375 144V135.936H272.919V136.592C273.415 136.128 274.039 135.776 274.871 135.776C275.159 135.776 275.415 135.824 275.607 135.888V138.4C275.335 138.336 275.031 138.288 274.615 138.288C273.687 138.288 273.079 138.832 272.919 139.104V144H270.375ZM280.43 141.936C281.07 141.936 281.582 141.616 281.87 141.2L283.854 142.704C283.102 143.696 281.902 144.32 280.414 144.32C277.566 144.32 275.934 142.32 275.934 139.968C275.934 137.616 277.566 135.616 280.414 135.616C281.902 135.616 283.102 136.24 283.854 137.232L281.87 138.736C281.582 138.32 281.086 138 280.382 138C279.342 138 278.574 138.784 278.574 139.968C278.574 141.168 279.342 141.936 280.43 141.936ZM284.782 144V132H287.326V136.384C287.854 135.936 288.526 135.616 289.47 135.616C291.182 135.616 292.59 136.816 292.59 139.264V144H290.03V139.376C290.03 138.56 289.598 138 288.782 138C287.886 138 287.486 138.704 287.326 138.976V144H284.782ZM295.57 135.056C294.69 135.056 293.954 134.304 293.954 133.44C293.954 132.576 294.69 131.84 295.57 131.84C296.418 131.84 297.154 132.576 297.154 133.44C297.154 134.304 296.418 135.056 295.57 135.056ZM294.274 144V135.936H296.818V144H294.274ZM297.475 135.936H300.195L301.923 140.944L303.635 135.936H306.355L303.587 144H300.243L297.475 135.936ZM314.563 142.704C313.795 143.712 312.531 144.32 310.979 144.32C308.019 144.32 306.451 142.32 306.451 139.968C306.451 137.632 307.907 135.616 310.643 135.616C312.931 135.616 314.435 137.136 314.435 139.328C314.435 139.872 314.355 140.384 314.275 140.672H309.059C309.299 141.76 310.003 142.048 310.963 142.048C311.731 142.048 312.403 141.744 312.771 141.28L314.563 142.704ZM310.579 137.664C309.763 137.664 309.267 138.064 309.075 138.88H311.971C311.939 138.336 311.523 137.664 310.579 137.664ZM323.822 135.616C326.462 135.616 328.27 137.504 328.27 139.968C328.27 142.432 326.462 144.32 323.822 144.32C321.166 144.32 319.358 142.432 319.358 139.968C319.358 137.504 321.166 135.616 323.822 135.616ZM323.838 141.936C324.862 141.936 325.646 141.152 325.646 139.968C325.646 138.752 324.862 138 323.838 138C322.782 138 321.998 138.768 321.998 139.968C321.998 141.168 322.782 141.936 323.838 141.936ZM334.653 140.496V135.936H337.213V140.352C337.213 142.768 335.773 144.32 333.293 144.32C330.781 144.32 329.389 142.768 329.389 140.352V135.936H331.949V140.496C331.949 141.344 332.365 141.936 333.309 141.936C334.221 141.936 334.653 141.344 334.653 140.496ZM337.86 135.936H340.58L342.308 140.944L344.02 135.936H346.74L343.972 144H340.628L337.86 135.936ZM354.947 142.704C354.179 143.712 352.915 144.32 351.363 144.32C348.403 144.32 346.835 142.32 346.835 139.968C346.835 137.632 348.291 135.616 351.027 135.616C353.315 135.616 354.819 137.136 354.819 139.328C354.819 139.872 354.739 140.384 354.659 140.672H349.443C349.683 141.76 350.387 142.048 351.347 142.048C352.115 142.048 352.787 141.744 353.155 141.28L354.947 142.704ZM350.963 137.664C350.147 137.664 349.651 138.064 349.459 138.88H352.355C352.323 138.336 351.907 137.664 350.963 137.664ZM356.23 144V135.936H358.774V136.592C359.27 136.128 359.894 135.776 360.726 135.776C361.014 135.776 361.27 135.824 361.462 135.888V138.4C361.19 138.336 360.886 138.288 360.47 138.288C359.542 138.288 358.934 138.832 358.774 139.104V144H356.23ZM363.704 140.864V138.208H362.2V135.936H363.704V133.92H366.264V135.936H368.472V138.208H366.264V140.864C366.264 141.504 366.6 141.856 367.272 141.856C367.864 141.856 368.248 141.776 368.488 141.68V143.872C368.056 144.064 367.56 144.16 366.808 144.16C364.616 144.16 363.704 142.848 363.704 140.864ZM377.237 142.704C376.469 143.712 375.205 144.32 373.653 144.32C370.693 144.32 369.125 142.32 369.125 139.968C369.125 137.632 370.581 135.616 373.317 135.616C375.605 135.616 377.109 137.136 377.109 139.328C377.109 139.872 377.029 140.384 376.949 140.672H371.733C371.973 141.76 372.677 142.048 373.637 142.048C374.405 142.048 375.077 141.744 375.445 141.28L377.237 142.704ZM373.253 137.664C372.437 137.664 371.941 138.064 371.749 138.88H374.645C374.613 138.336 374.197 137.664 373.253 137.664Z" fill="white"/>
<path d="M246.72 138.5H215.22" stroke="black"/>
<path d="M231.499 193.5L240.635 184.56C241.677 183.54 243.087 183 244.559 183H255.995H303.315H308.421C311.486 183 314 185.46 314 188.46V204.42C314 207.42 311.486 209.88 308.421 209.88H298.835H255.995H244.559C243.087 209.88 241.738 209.28 240.696 208.26L231.499 199.26C229.905 197.7 229.844 195.12 231.499 193.5ZM244.252 198.3C245.294 197.28 245.356 195.54 244.252 194.46C243.21 193.44 241.37 193.44 240.328 194.46C239.224 195.54 239.286 197.28 240.328 198.3C241.432 199.38 243.148 199.38 244.252 198.3Z" fill="#FFE800" stroke="black"/>
<path d="M258.646 189.84L260.742 187.68H257.862L256.054 189.84H258.646ZM253.958 202H260.87V199.648H256.806V197.472H260.23V195.12H256.806V193.152H260.87V190.8H253.958V202ZM262.053 197.968C262.053 200.32 263.557 202.32 266.117 202.32C267.109 202.32 267.797 202.048 268.341 201.568V202H270.901V190H268.341V194.368C267.797 193.888 267.109 193.616 266.117 193.616C263.557 193.616 262.053 195.616 262.053 197.968ZM264.693 197.968C264.693 196.784 265.365 196 266.485 196C267.269 196 267.877 196.32 268.341 196.928V199.008C267.877 199.616 267.269 199.936 266.485 199.936C265.365 199.936 264.693 199.152 264.693 197.968ZM273.962 193.056C274.81 193.056 275.546 192.304 275.546 191.44C275.546 190.576 274.81 189.84 273.962 189.84C273.082 189.84 272.346 190.576 272.346 191.44C272.346 192.304 273.082 193.056 273.962 193.056ZM272.666 202H275.21V193.936H272.666V202ZM277.531 198.864C277.531 200.848 278.443 202.16 280.635 202.16C281.387 202.16 281.883 202.064 282.315 201.872V199.68C282.075 199.776 281.691 199.856 281.099 199.856C280.427 199.856 280.091 199.504 280.091 198.864V196.208H282.299V193.936H280.091V191.92H277.531V193.936H276.027V196.208H277.531V198.864ZM291.064 200.704L289.272 199.28C288.904 199.744 288.232 200.048 287.464 200.048C286.504 200.048 285.8 199.76 285.56 198.672H290.776C290.856 198.384 290.936 197.872 290.936 197.328C290.936 195.136 289.432 193.616 287.144 193.616C284.408 193.616 282.952 195.632 282.952 197.968C282.952 200.32 284.52 202.32 287.48 202.32C289.032 202.32 290.296 201.712 291.064 200.704ZM287.08 195.664C288.024 195.664 288.44 196.336 288.472 196.88H285.576C285.768 196.064 286.264 195.664 287.08 195.664ZM297.372 198.496C297.372 199.344 296.94 199.936 296.028 199.936C295.084 199.936 294.668 199.344 294.668 198.496V193.936H292.108V198.352C292.108 200.768 293.5 202.32 296.012 202.32C298.492 202.32 299.932 200.768 299.932 198.352V193.936H297.372V198.496ZM301.526 202H304.07V197.104C304.23 196.832 304.838 196.288 305.766 196.288C306.182 196.288 306.486 196.336 306.758 196.4V193.888C306.566 193.824 306.31 193.776 306.022 193.776C305.19 193.776 304.566 194.128 304.07 194.592V193.936H301.526V202Z" fill="black"/>
<path d="M242 196.5L216 196.5" stroke="black"/>
<path d="M96.2187 78.4999L105.354 69.56C106.397 68.54 107.807 68 109.278 68H120.715H309.035H314.14C317.206 68 319.72 70.46 319.72 73.4599V89.4198C319.72 92.4197 317.206 94.8797 314.14 94.8797H304.555H120.715H109.278C107.807 94.8797 106.458 94.2797 105.416 93.2597L96.2187 84.2598C94.6246 82.6998 94.5633 80.1199 96.2187 78.4999ZM108.972 83.2998C110.014 82.2798 110.075 80.5399 108.972 79.4599C107.929 78.4399 106.09 78.4399 105.048 79.4599C103.944 80.5399 104.005 82.2798 105.048 83.2998C106.151 84.3798 107.868 84.3798 108.972 83.2998Z" fill="#91AE4F" stroke="black"/>
<path d="M123.946 74.84L126.042 72.68H123.162L121.354 74.84H123.946ZM119.258 87H126.17V84.648H122.106V82.472H125.53V80.12H122.106V78.152H126.17V75.8H119.258V87ZM127.352 82.968C127.352 85.32 128.856 87.32 131.416 87.32C132.408 87.32 133.096 87.048 133.64 86.568V87H136.2V75H133.64V79.368C133.096 78.888 132.408 78.616 131.416 78.616C128.856 78.616 127.352 80.616 127.352 82.968ZM129.992 82.968C129.992 81.784 130.664 81 131.784 81C132.568 81 133.176 81.32 133.64 81.928V84.008C133.176 84.616 132.568 84.936 131.784 84.936C130.664 84.936 129.992 84.152 129.992 82.968ZM139.261 78.056C140.109 78.056 140.845 77.304 140.845 76.44C140.845 75.576 140.109 74.84 139.261 74.84C138.381 74.84 137.645 75.576 137.645 76.44C137.645 77.304 138.381 78.056 139.261 78.056ZM137.965 87H140.509V78.936H137.965V87ZM142.83 83.864C142.83 85.848 143.742 87.16 145.934 87.16C146.686 87.16 147.182 87.064 147.614 86.872V84.68C147.374 84.776 146.99 84.856 146.398 84.856C145.726 84.856 145.39 84.504 145.39 83.864V81.208H147.598V78.936H145.39V76.92H142.83V78.936H141.326V81.208H142.83V83.864ZM156.364 85.704L154.572 84.28C154.204 84.744 153.532 85.048 152.764 85.048C151.804 85.048 151.1 84.76 150.86 83.672H156.076C156.156 83.384 156.236 82.872 156.236 82.328C156.236 80.136 154.732 78.616 152.444 78.616C149.708 78.616 148.252 80.632 148.252 82.968C148.252 85.32 149.82 87.32 152.78 87.32C154.332 87.32 155.596 86.712 156.364 85.704ZM152.38 80.664C153.324 80.664 153.74 81.336 153.772 81.88H150.876C151.068 81.064 151.564 80.664 152.38 80.664ZM162.672 83.496C162.672 84.344 162.24 84.936 161.328 84.936C160.384 84.936 159.968 84.344 159.968 83.496V78.936H157.408V83.352C157.408 85.768 158.8 87.32 161.312 87.32C163.792 87.32 165.232 85.768 165.232 83.352V78.936H162.672V83.496ZM166.826 87H169.37V82.104C169.53 81.832 170.138 81.288 171.066 81.288C171.482 81.288 171.786 81.336 172.058 81.4V78.888C171.866 78.824 171.61 78.776 171.322 78.776C170.49 78.776 169.866 79.128 169.37 79.592V78.936H166.826V87ZM184.724 85.704L182.932 84.28C182.564 84.744 181.892 85.048 181.124 85.048C180.164 85.048 179.46 84.76 179.22 83.672H184.436C184.516 83.384 184.596 82.872 184.596 82.328C184.596 80.136 183.092 78.616 180.804 78.616C178.068 78.616 176.612 80.632 176.612 82.968C176.612 85.32 178.18 87.32 181.14 87.32C182.692 87.32 183.956 86.712 184.724 85.704ZM180.74 80.664C181.684 80.664 182.1 81.336 182.132 81.88H179.236C179.428 81.064 179.924 80.664 180.74 80.664ZM186.567 83.864C186.567 85.848 187.479 87.16 189.671 87.16C190.423 87.16 190.919 87.064 191.351 86.872V84.68C191.111 84.776 190.727 84.856 190.135 84.856C189.463 84.856 189.127 84.504 189.127 83.864V81.208H191.335V78.936H189.127V76.92H186.567V78.936H185.063V81.208H186.567V83.864ZM198.953 87.24C199.801 87.24 200.713 86.888 201.161 86.392V87H203.689V81.912C203.689 80.152 202.505 78.616 199.945 78.616C198.441 78.616 197.209 79.224 196.473 80.248L198.329 81.656C198.697 81.128 199.193 80.808 199.865 80.808C200.617 80.808 201.145 81.272 201.161 81.88L198.889 82.264C197.129 82.552 196.185 83.496 196.185 84.728C196.185 86.296 197.321 87.24 198.953 87.24ZM198.697 84.6C198.697 84.232 198.921 83.992 199.577 83.88L201.161 83.608V84.408C200.841 84.888 200.329 85.272 199.513 85.272C199.017 85.272 198.697 85.016 198.697 84.6ZM205.375 87H207.919V82.104C208.079 81.832 208.687 81.288 209.615 81.288C210.031 81.288 210.335 81.336 210.607 81.4V78.888C210.415 78.824 210.159 78.776 209.871 78.776C209.039 78.776 208.415 79.128 207.919 79.592V78.936H205.375V87ZM215.43 84.936C214.342 84.936 213.574 84.168 213.574 82.968C213.574 81.784 214.342 81 215.382 81C216.086 81 216.582 81.32 216.87 81.736L218.854 80.232C218.102 79.24 216.902 78.616 215.414 78.616C212.566 78.616 210.934 80.616 210.934 82.968C210.934 85.32 212.566 87.32 215.414 87.32C216.902 87.32 218.102 86.696 218.854 85.704L216.87 84.2C216.582 84.616 216.07 84.936 215.43 84.936ZM219.782 87H222.326V81.976C222.486 81.704 222.886 81 223.782 81C224.598 81 225.03 81.56 225.03 82.376V87H227.59V82.264C227.59 79.816 226.182 78.616 224.47 78.616C223.526 78.616 222.854 78.936 222.326 79.384V75H219.782V87ZM230.57 78.056C231.418 78.056 232.154 77.304 232.154 76.44C232.154 75.576 231.418 74.84 230.57 74.84C229.69 74.84 228.954 75.576 228.954 76.44C228.954 77.304 229.69 78.056 230.57 78.056ZM229.274 87H231.818V78.936H229.274V87ZM232.475 78.936L235.243 87H238.587L241.355 78.936H238.635L236.923 83.944L235.195 78.936H232.475ZM249.563 85.704L247.771 84.28C247.403 84.744 246.731 85.048 245.963 85.048C245.003 85.048 244.299 84.76 244.059 83.672H249.275C249.355 83.384 249.435 82.872 249.435 82.328C249.435 80.136 247.931 78.616 245.643 78.616C242.907 78.616 241.451 80.632 241.451 82.968C241.451 85.32 243.019 87.32 245.979 87.32C247.531 87.32 248.795 86.712 249.563 85.704ZM245.579 80.664C246.523 80.664 246.939 81.336 246.971 81.88H244.075C244.267 81.064 244.763 80.664 245.579 80.664ZM258.822 78.616C256.166 78.616 254.358 80.504 254.358 82.968C254.358 85.432 256.166 87.32 258.822 87.32C261.462 87.32 263.27 85.432 263.27 82.968C263.27 80.504 261.462 78.616 258.822 78.616ZM258.838 84.936C257.782 84.936 256.998 84.168 256.998 82.968C256.998 81.768 257.782 81 258.838 81C259.862 81 260.646 81.752 260.646 82.968C260.646 84.152 259.862 84.936 258.838 84.936ZM269.653 83.496C269.653 84.344 269.221 84.936 268.309 84.936C267.365 84.936 266.949 84.344 266.949 83.496V78.936H264.389V83.352C264.389 85.768 265.781 87.32 268.293 87.32C270.773 87.32 272.213 85.768 272.213 83.352V78.936H269.653V83.496ZM272.86 78.936L275.628 87H278.972L281.74 78.936H279.02L277.308 83.944L275.58 78.936H272.86ZM289.947 85.704L288.155 84.28C287.787 84.744 287.115 85.048 286.347 85.048C285.387 85.048 284.683 84.76 284.443 83.672H289.659C289.739 83.384 289.819 82.872 289.819 82.328C289.819 80.136 288.315 78.616 286.027 78.616C283.291 78.616 281.835 80.632 281.835 82.968C281.835 85.32 283.403 87.32 286.363 87.32C287.915 87.32 289.179 86.712 289.947 85.704ZM285.963 80.664C286.907 80.664 287.323 81.336 287.355 81.88H284.459C284.651 81.064 285.147 80.664 285.963 80.664ZM291.23 87H293.774V82.104C293.934 81.832 294.542 81.288 295.47 81.288C295.886 81.288 296.19 81.336 296.462 81.4V78.888C296.27 78.824 296.014 78.776 295.726 78.776C294.894 78.776 294.27 79.128 293.774 79.592V78.936H291.23V87ZM298.704 83.864C298.704 85.848 299.616 87.16 301.808 87.16C302.56 87.16 303.056 87.064 303.488 86.872V84.68C303.248 84.776 302.864 84.856 302.272 84.856C301.6 84.856 301.264 84.504 301.264 83.864V81.208H303.472V78.936H301.264V76.92H298.704V78.936H297.2V81.208H298.704V83.864ZM312.237 85.704L310.445 84.28C310.077 84.744 309.405 85.048 308.637 85.048C307.677 85.048 306.973 84.76 306.733 83.672H311.949C312.029 83.384 312.109 82.872 312.109 82.328C312.109 80.136 310.605 78.616 308.317 78.616C305.581 78.616 304.125 80.632 304.125 82.968C304.125 85.32 305.693 87.32 308.653 87.32C310.205 87.32 311.469 86.712 312.237 85.704ZM308.253 80.664C309.197 80.664 309.613 81.336 309.645 81.88H306.749C306.941 81.064 307.437 80.664 308.253 80.664Z" fill="black"/>
<path d="M107 81V109" stroke="black"/>
<path d="M182.219 256.5L191.354 247.56C192.397 246.54 193.807 246 195.278 246H206.715H293.035H298.14C301.206 246 303.72 248.46 303.72 251.46V267.42C303.72 270.42 301.206 272.88 298.14 272.88H288.555H206.715H195.278C193.807 272.88 192.458 272.28 191.416 271.26L182.219 262.26C180.625 260.7 180.563 258.12 182.219 256.5ZM194.972 261.3C196.014 260.28 196.075 258.54 194.972 257.46C193.929 256.44 192.09 256.44 191.048 257.46C189.944 258.54 190.005 260.28 191.048 261.3C192.151 262.38 193.868 262.38 194.972 261.3Z" fill="#26283F" stroke="black"/>
<path d="M203.377 265H206.401L207.313 262.36H211.281L212.193 265H215.217L211.153 253.8H207.441L203.377 265ZM208.145 259.96L209.297 256.664L210.449 259.96H208.145ZM220.361 262.936C219.273 262.936 218.505 262.168 218.505 260.968C218.505 259.784 219.273 259 220.313 259C221.017 259 221.513 259.32 221.801 259.736L223.785 258.232C223.033 257.24 221.833 256.616 220.345 256.616C217.497 256.616 215.865 258.616 215.865 260.968C215.865 263.32 217.497 265.32 220.345 265.32C221.833 265.32 223.033 264.696 223.785 263.704L221.801 262.2C221.513 262.616 221.001 262.936 220.361 262.936ZM228.416 262.936C227.328 262.936 226.56 262.168 226.56 260.968C226.56 259.784 227.328 259 228.368 259C229.072 259 229.568 259.32 229.856 259.736L231.84 258.232C231.088 257.24 229.888 256.616 228.4 256.616C225.552 256.616 223.92 258.616 223.92 260.968C223.92 263.32 225.552 265.32 228.4 265.32C229.888 265.32 231.088 264.696 231.84 263.704L229.856 262.2C229.568 262.616 229.056 262.936 228.416 262.936ZM234.951 255.656H237.351L235.719 253H232.999L234.951 255.656ZM240.087 263.704L238.295 262.28C237.927 262.744 237.255 263.048 236.487 263.048C235.527 263.048 234.823 262.76 234.583 261.672H239.799C239.879 261.384 239.959 260.872 239.959 260.328C239.959 258.136 238.455 256.616 236.167 256.616C233.431 256.616 231.975 258.632 231.975 260.968C231.975 263.32 233.543 265.32 236.503 265.32C238.055 265.32 239.319 264.712 240.087 263.704ZM236.103 258.664C237.047 258.664 237.463 259.336 237.495 259.88H234.599C234.791 259.064 235.287 258.664 236.103 258.664ZM240.621 263.784C241.437 264.712 242.461 265.32 244.013 265.32C245.565 265.32 247.053 264.392 247.085 262.568C247.085 259.752 243.357 260.168 243.357 259.128C243.357 258.856 243.565 258.632 244.013 258.632C244.589 258.632 245.069 259.064 245.453 259.512L247.117 258.024C246.509 257.24 245.293 256.616 244.013 256.616C242.237 256.616 240.941 257.72 240.941 259.256C240.941 262.088 244.669 261.64 244.669 262.744C244.669 263.064 244.445 263.304 243.981 263.304C243.261 263.304 242.717 262.824 242.285 262.264L240.621 263.784ZM251.41 256.936V259.208H252.914V265H255.474V259.208H257.682V256.936H255.474V256.12C255.474 255.624 255.794 255.272 256.322 255.272C256.69 255.272 256.978 255.416 257.154 255.56L258.226 253.432C257.65 253.16 257.01 253 256.274 253C254.066 253 252.914 254.488 252.914 256.2V256.936H251.41ZM265.963 263.704L264.171 262.28C263.803 262.744 263.131 263.048 262.363 263.048C261.403 263.048 260.699 262.76 260.459 261.672H265.675C265.755 261.384 265.835 260.872 265.835 260.328C265.835 258.136 264.331 256.616 262.043 256.616C259.307 256.616 257.851 258.632 257.851 260.968C257.851 263.32 259.419 265.32 262.379 265.32C263.931 265.32 265.195 264.712 265.963 263.704ZM261.979 258.664C262.923 258.664 263.339 259.336 263.371 259.88H260.475C260.667 259.064 261.163 258.664 261.979 258.664ZM267.245 265H269.789V260.104C269.949 259.832 270.557 259.288 271.485 259.288C271.901 259.288 272.205 259.336 272.477 259.4V256.888C272.285 256.824 272.029 256.776 271.741 256.776C270.909 256.776 270.285 257.128 269.789 257.592V256.936H267.245V265ZM273.519 265H276.063V259.976C276.239 259.704 276.559 259 277.359 259C278.079 259 278.447 259.496 278.447 260.216V265H281.007V260.104C281.007 260.04 281.007 259.976 281.007 259.912C281.135 259.704 281.455 259 282.271 259C282.991 259 283.359 259.496 283.359 260.216V265H285.919V260.104C285.919 257.768 284.575 256.616 282.959 256.616C281.631 256.616 280.895 257.16 280.367 257.784C279.823 257 278.991 256.616 278.047 256.616C277.183 256.616 276.543 256.936 276.063 257.352V256.936H273.519V265ZM292.741 255.656L294.693 253H291.973L290.325 255.656H292.741ZM295.237 263.704L293.445 262.28C293.077 262.744 292.405 263.048 291.637 263.048C290.677 263.048 289.973 262.76 289.733 261.672H294.949C295.029 261.384 295.109 260.872 295.109 260.328C295.109 258.136 293.605 256.616 291.317 256.616C288.581 256.616 287.125 258.632 287.125 260.968C287.125 263.32 288.693 265.32 291.653 265.32C293.205 265.32 294.469 264.712 295.237 263.704ZM291.253 258.664C292.197 258.664 292.613 259.336 292.645 259.88H289.749C289.941 259.064 290.437 258.664 291.253 258.664Z" fill="white"/>
<path d="M192.72 232V260" stroke="black"/>
</svg>
