<svg width="252" height="289" viewBox="0 0 252 289" fill="none" xmlns="http://www.w3.org/2000/svg">
<g style="mix-blend-mode:multiply">
<path d="M75.3003 54.9008V44.4008H111.7C111.7 73.3777 111.7 89.6239 111.7 118.601H64.8003M75.3003 68.2008C75.3003 68.2008 93.7656 68.2008 104.7 68.2008M75.3003 72.4008L104.7 72.4008M75.3003 76.6008L104.7 76.6008M75.3003 80.8008C75.3003 80.8008 93.7656 80.8008 104.7 80.8008M75.3003 85.0008C75.3003 85.0008 89.4993 85.0008 97.7003 85.0008M75.3003 92.0008H104.7M75.3003 96.2008C75.3003 96.2008 93.7656 96.2008 104.7 96.2008M22.8003 96.2008V99.7008C22.8003 104.34 26.5611 108.101 31.2003 108.101H59.2003M22.8003 90.6008V94.1008C22.8003 98.74 26.5611 102.501 31.2003 102.501C31.2003 102.501 31.2003 102.501 31.2003 102.501C31.2003 102.501 50.9993 102.501 59.2003 102.501M31.2003 62.6008C31.2003 62.6008 54.5656 62.6008 65.5003 62.6008M31.2003 66.8008L65.5003 66.8008M31.2003 71.0008L65.5003 71.0008M31.2003 75.2008C31.2003 75.2008 54.5656 75.2008 65.5003 75.2008M31.2003 79.4008C31.2003 79.4008 50.2993 79.4008 58.5003 79.4008M31.2003 86.4008H65.5003M31.2003 90.6008C31.2003 90.6008 54.5656 90.6008 65.5003 90.6008M75.3003 52.8008H87.2003C87.2003 56.0812 87.2003 57.9204 87.2003 61.2008H75.3003V52.8008ZM22.8003 38.8008H75.3003C75.3003 67.7777 75.3003 84.0239 75.3003 113.001H28.4003C25.3075 113.001 22.8003 110.494 22.8003 107.401V38.8008ZM63.4003 113.001L74.6003 101.801H63.4003V113.001ZM31.2003 47.2008H48.0003C48.0003 50.4812 48.0003 52.3204 48.0003 55.6008H31.2003V47.2008Z" stroke="#ABB8DE" stroke-linecap="round" stroke-linejoin="round"/>
</g>
<g style="mix-blend-mode:multiply">
<path d="M219.75 200.45V195.2H201.55C201.55 209.689 201.55 217.812 201.55 232.3H225M219.75 207.1C219.75 207.1 210.517 207.1 205.05 207.1M219.75 209.2L205.05 209.2M219.75 211.3L205.05 211.3M219.75 213.4C219.75 213.4 210.517 213.4 205.05 213.4M219.75 215.5C219.75 215.5 212.651 215.5 208.55 215.5M219.75 219H205.05M219.75 221.1C219.75 221.1 210.517 221.1 205.05 221.1M246 221.1V222.85C246 225.17 244.12 227.05 241.8 227.05H227.8M246 218.3V220.05C246 222.37 244.12 224.25 241.8 224.25C241.8 224.25 241.8 224.25 241.8 224.25C241.8 224.25 231.901 224.25 227.8 224.25M241.8 204.3C241.8 204.3 230.117 204.3 224.65 204.3M241.8 206.4L224.65 206.4M241.8 208.5L224.65 208.5M241.8 210.6C241.8 210.6 230.117 210.6 224.65 210.6M241.8 212.7C241.8 212.7 232.251 212.7 228.15 212.7M241.8 216.2H224.65M241.8 218.3C241.8 218.3 230.117 218.3 224.65 218.3M219.75 199.4H213.8C213.8 201.041 213.8 201.96 213.8 203.6H219.75V199.4ZM246 192.4H219.75C219.75 206.889 219.75 215.012 219.75 229.5H243.2C244.746 229.5 246 228.247 246 226.7V192.4ZM225.7 229.5L220.1 223.9H225.7V229.5ZM241.8 196.6H233.4C233.4 198.241 233.4 199.16 233.4 200.8H241.8V196.6Z" stroke="#ABB8DE" stroke-linecap="round" stroke-linejoin="round"/>
</g>
<g style="mix-blend-mode:multiply">
<path d="M22.4399 145.66V139.36H0.599943C0.599943 156.746 0.599943 166.494 0.599943 183.88H28.7399M22.4399 153.64C22.4399 153.64 11.3608 153.64 4.79994 153.64M22.4399 156.16L4.79994 156.16M22.4399 158.68L4.79994 158.68M22.4399 161.2C22.4399 161.2 11.3608 161.2 4.79994 161.2M22.4399 163.72C22.4399 163.72 13.9205 163.72 8.99994 163.72M22.4399 167.92H4.79994M22.4399 170.44C22.4399 170.44 11.3608 170.44 4.79994 170.44M53.9399 170.44V172.54C53.9399 175.324 51.6835 177.58 48.8999 177.58H32.0999M53.9399 167.08V169.18C53.9399 171.964 51.6835 174.22 48.8999 174.22C48.8999 174.22 48.8999 174.22 48.8999 174.22C48.8999 174.22 37.0205 174.22 32.0999 174.22M48.8999 150.28C48.8999 150.28 34.8807 150.28 28.3199 150.28M48.8999 152.8L28.3199 152.8M48.8999 155.32L28.3199 155.32M48.8999 157.84C48.8999 157.84 34.8807 157.84 28.3199 157.84M48.8999 160.36C48.8999 160.36 37.4405 160.36 32.5199 160.36M48.8999 164.56H28.3199M48.8999 167.08C48.8999 167.08 34.8807 167.08 28.3199 167.08M22.4399 144.4H15.2999C15.2999 146.368 15.2999 147.472 15.2999 149.44H22.4399V144.4ZM53.9399 136H22.4399C22.4399 153.386 22.4399 163.134 22.4399 180.52H50.5799C52.4356 180.52 53.9399 179.016 53.9399 177.16V136ZM29.5799 180.52L22.8599 173.8H29.5799V180.52ZM48.8999 141.04H38.8199C38.8199 143.008 38.8199 144.112 38.8199 146.08H48.8999V141.04Z" stroke="#ABB8DE" stroke-linecap="round" stroke-linejoin="round"/>
</g>
<path d="M159.6 105.5H93.6001V191C93.6001 194.866 96.7341 198 100.6 198H146.1V205H204.6V111.5H159.6V105.5Z" fill="white"/>
<path d="M159.225 125.125V112H204.725C204.725 148.221 204.725 168.529 204.725 204.75H146.1M159.225 141.75C159.225 141.75 182.307 141.75 195.975 141.75M159.225 147L195.975 147M159.225 152.25L195.975 152.25M159.225 157.5C159.225 157.5 182.307 157.5 195.975 157.5M159.225 162.75C159.225 162.75 176.974 162.75 187.225 162.75M159.225 171.5H195.975M159.225 176.75C159.225 176.75 182.307 176.75 195.975 176.75M93.6001 176.75V181.125C93.6001 186.924 98.3011 191.625 104.1 191.625H139.1M93.6001 169.75V174.125C93.6001 179.924 98.3011 184.625 104.1 184.625C104.1 184.625 104.1 184.625 104.1 184.625C104.1 184.625 128.849 184.625 139.1 184.625M104.1 134.75C104.1 134.75 133.307 134.75 146.975 134.75M104.1 140L146.975 140M104.1 145.25L146.975 145.25M104.1 150.5C104.1 150.5 133.307 150.5 146.975 150.5M104.1 155.75C104.1 155.75 127.974 155.75 138.225 155.75M104.1 164.5H146.975M104.1 169.75C104.1 169.75 133.307 169.75 146.975 169.75M159.225 122.5H174.1C174.1 126.601 174.1 128.899 174.1 133H159.225V122.5ZM93.6001 105H159.225C159.225 141.221 159.225 161.529 159.225 197.75H100.6C96.7341 197.75 93.6001 194.616 93.6001 190.75V105ZM144.35 197.75L158.35 183.75H144.35V197.75ZM104.1 115.5H125.1C125.1 119.601 125.1 121.899 125.1 126H104.1V115.5Z" stroke="black" stroke-linecap="round" stroke-linejoin="round"/>
<rect x="138.4" y="109.201" width="5.6" height="9.8" fill="#5770BE"/>
<rect x="149.601" y="109.201" width="5.6" height="9.8" fill="#DA3636"/>
<path d="M179.5 0V63M179.5 63L194 48.5M179.5 63L165 48.5" stroke="#D5DBEF" stroke-width="6"/>
<path d="M176.5 224V284M176.5 284L191 269.5M176.5 284L162 269.5" stroke="#D5DBEF" stroke-width="6"/>
</svg>
