<svg width="354" height="223" viewBox="0 0 354 223" fill="none" xmlns="http://www.w3.org/2000/svg">
<g style="mix-blend-mode:multiply">
<path d="M70.0825 96.8871C84.8146 96.8871 96.7573 85.0461 96.7573 70.4396C96.7573 55.833 84.8146 43.992 70.0825 43.992C55.3505 43.992 43.4078 55.833 43.4078 70.4396C43.4078 82.0723 50.9825 91.9509 61.5085 95.4912M81.515 57.7637C83.9211 59.8931 85.7493 62.7186 86.6464 66.0381M48.6335 32.1981L20.5157 4.31985C16.0512 -0.106617 8.81285 -0.106613 4.34836 4.31985C-0.116124 8.74631 -0.116124 15.923 4.34836 20.3495L32.4661 48.2278M28.165 70.4396C28.165 47.4864 46.9321 28.8791 70.0825 28.8791C93.2329 28.8791 112 47.4864 112 70.4396C112 93.3928 93.2329 112 70.0825 112C46.9321 112 28.165 93.3928 28.165 70.4396Z" stroke="#ABB8DE"/>
</g>
<path d="M203.386 29.007L210.847 21.6724C211.699 20.8356 212.85 20.3926 214.052 20.3926H223.393H234.273H238.443C240.947 20.3926 243 22.4108 243 24.8721V37.966C243 40.4273 240.947 42.4455 238.443 42.4455H238.454H223.393H214.052C212.85 42.4455 211.749 41.9532 210.897 41.1164L203.386 33.7326C202.083 32.4528 202.033 30.3361 203.386 29.007ZM213.802 32.945C214.653 32.1082 214.703 30.6807 213.802 29.7946C212.951 28.9578 211.448 28.9578 210.597 29.7946C209.695 30.6807 209.746 32.1082 210.597 32.945C211.498 33.8311 212.901 33.8311 213.802 32.945Z" fill="#EEF1F8" stroke="black"/>
<path d="M213.262 31.2676H205C197.268 31.2676 191 37.5356 191 45.2676V74" stroke="black"/>
<path d="M263.881 139.801C263.881 103.58 263.881 123.522 263.881 87.3008H218.381V100.426M218.381 117.051C218.381 117.051 241.463 117.051 255.131 117.051M218.381 122.301H229M218.381 127.551L225.131 127.551M218.381 146.801H231M218.381 152.051C218.381 152.051 241.463 152.051 255.131 152.051M152.756 152.051V156.426C152.756 162.225 157.457 166.926 163.256 166.926H198.256M152.756 145.051V149.426C152.756 155.225 157.457 159.926 163.256 159.926C163.256 159.926 163.256 159.926 163.256 159.926C163.256 159.926 188.005 159.926 198.256 159.926M163.256 110.051C163.256 110.051 192.463 110.051 206.131 110.051M163.256 115.301L206.131 115.301M163.256 120.551L206.131 120.551M163.256 125.801C163.256 125.801 192.463 125.801 206.131 125.801M163.256 131.051C163.256 131.051 187.13 131.051 197.381 131.051M163.256 139.801H206.131M163.256 145.051C163.256 145.051 192.463 145.051 206.131 145.051M218.381 97.8008H233.256C233.256 101.901 233.256 104.2 233.256 108.301H218.381V97.8008ZM152.756 80.3008H218.381C218.381 116.522 218.381 136.83 218.381 173.051H159.756C155.89 173.051 152.756 169.917 152.756 166.051V80.3008ZM203.506 173.051L217.506 159.051H203.506V173.051ZM163.256 90.8008H184.256C184.256 94.9013 184.256 97.2003 184.256 101.301H163.256V90.8008Z" stroke="black" stroke-linecap="round" stroke-linejoin="round"/>
<path d="M132.458 100.664L119.668 88.0922C118.209 86.6578 116.234 85.8984 114.174 85.8984H98.1637H66.9157H59.7674C55.4755 85.8984 51.9562 89.3578 51.9562 93.5766V116.02C51.9562 120.239 55.4755 123.698 59.7674 123.698H59.7477H98.1637H114.174C116.234 123.698 118.123 122.855 119.582 121.42L132.458 108.764C134.69 106.57 134.776 102.942 132.458 100.664ZM114.604 107.414C113.144 105.98 113.058 103.533 114.604 102.014C116.063 100.58 118.638 100.58 120.097 102.014C121.642 103.533 121.556 105.98 120.097 107.414C118.552 108.933 116.149 108.933 114.604 107.414Z" fill="white" stroke="black"/>
<path d="M54.1953 93.723C54.1953 90.6302 56.7025 88.123 59.7953 88.123H72.1153V121.476H59.7953C56.7025 121.476 54.1953 118.969 54.1953 115.876V93.723Z" fill="#5770BE"/>
<path d="M107.956 93.723C107.956 90.6302 105.449 88.123 102.356 88.123H90.0361V121.476H102.356C105.449 121.476 107.956 118.969 107.956 115.876V93.723Z" fill="#DA3636"/>
<path d="M117.756 104.801H147.856" stroke="black"/>
<path d="M166.057 44.6641L153.267 32.0922C151.808 30.6578 149.834 29.8984 147.774 29.8984H131.763H113.115H105.967C101.675 29.8984 98.1553 33.3578 98.1553 37.5766V60.0203C98.1553 64.2391 101.675 67.6984 105.967 67.6984H105.947H131.763H147.774C149.834 67.6984 151.722 66.8547 153.181 65.4203L166.057 52.7641C168.289 50.5703 168.375 46.9422 166.057 44.6641ZM148.203 51.4141C146.743 49.9797 146.658 47.5328 148.203 46.0141C149.662 44.5797 152.237 44.5797 153.696 46.0141C155.241 47.5328 155.156 49.9797 153.696 51.4141C152.151 52.9328 149.748 52.9328 148.203 51.4141Z" fill="#EEF1F8" stroke="black"/>
<path d="M151.355 48.8008H167.455C175.187 48.8008 181.455 55.0688 181.455 62.8008V74.0008" stroke="black"/>
<path d="M253.503 55.5458L263.591 45.6289C264.743 44.4974 266.3 43.8984 267.925 43.8984H280.554H295.264H300.903C304.288 43.8984 307.065 46.6273 307.065 49.9551V67.6591C307.065 70.9869 304.288 73.7157 300.903 73.7157H300.919H280.554H267.925C266.3 73.7157 264.81 73.0502 263.659 71.9187L253.503 61.9352C251.742 60.2048 251.674 57.3428 253.503 55.5458ZM267.586 60.8703C268.737 59.7389 268.805 57.8087 267.586 56.6107C266.435 55.4793 264.404 55.4793 263.253 56.6107C262.034 57.8087 262.102 59.7389 263.253 60.8703C264.472 62.0683 266.368 62.0683 267.586 60.8703Z" fill="#EEF1F8" stroke="black"/>
<path d="M266.856 58.6035H250.756C243.024 58.6035 236.756 64.8715 236.756 72.6035V83.8035" stroke="black"/>
<circle cx="145.056" cy="184.6" r="37.1" fill="#00AC8C" stroke="black"/>
<path d="M141.233 198.935L163.589 176.588C165.008 175.268 165.011 172.982 163.599 171.657C162.273 170.246 159.988 170.249 158.667 171.666L138.719 191.52L130.045 182.849C128.724 181.431 126.438 181.428 125.113 182.84C123.7 184.165 123.704 186.45 125.122 187.771L136.291 198.935C137.616 200.356 139.909 200.356 141.233 198.935Z" fill="white" stroke="white" stroke-width="1.4"/>
<path d="M108.695 160.32L102.302 156.629C95.387 152.636 91.9345 144.949 92.9988 137.5M108.695 160.32L106.238 154.031M108.695 160.32L102.02 161.336" stroke="black" stroke-linecap="round" stroke-linejoin="round"/>
<rect x="227.5" y="142.5" width="126" height="27" rx="13.5" fill="#5770BE"/>
<path d="M237.18 160.5H238.992L239.796 158.316H243.156L243.96 160.5H245.772L242.592 152.1H240.36L237.18 160.5ZM240.324 156.864L241.476 153.708L242.628 156.864H240.324ZM245.858 154.452V155.82H246.986V160.5H248.522V155.82H250.37V154.452H248.522V153.78C248.522 153.228 248.858 152.868 249.374 152.868C249.686 152.868 249.926 152.976 250.106 153.108L250.754 151.836C250.37 151.632 249.902 151.5 249.35 151.5C247.838 151.5 246.986 152.532 246.986 153.816V154.452H245.858ZM250.727 154.452V155.82H251.855V160.5H253.391V155.82H255.239V154.452H253.391V153.78C253.391 153.228 253.727 152.868 254.243 152.868C254.555 152.868 254.795 152.976 254.975 153.108L255.623 151.836C255.239 151.632 254.771 151.5 254.219 151.5C252.707 151.5 251.855 152.532 251.855 153.816V154.452H250.727ZM256.909 153.396C257.449 153.396 257.893 152.94 257.893 152.4C257.893 151.86 257.449 151.404 256.909 151.404C256.369 151.404 255.913 151.86 255.913 152.4C255.913 152.94 256.369 153.396 256.909 153.396ZM256.141 160.5H257.665V154.452H256.141V160.5ZM259.253 160.5H260.777V151.5H259.253V160.5ZM263.132 153.396C263.672 153.396 264.116 152.94 264.116 152.4C264.116 151.86 263.672 151.404 263.132 151.404C262.592 151.404 262.136 151.86 262.136 152.4C262.136 152.94 262.592 153.396 263.132 153.396ZM262.364 160.5H263.888V154.452H262.364V160.5ZM267.18 160.68C267.888 160.68 268.608 160.38 268.992 159.912V160.5H270.516V156.588C270.516 155.256 269.616 154.212 267.864 154.212C266.76 154.212 265.872 154.668 265.332 155.412L266.448 156.264C266.772 155.82 267.228 155.544 267.816 155.544C268.512 155.544 268.992 155.952 268.992 156.588V156.744L267.144 157.056C265.848 157.272 265.14 157.956 265.14 158.868C265.14 159.984 265.968 160.68 267.18 160.68ZM266.652 158.796C266.652 158.424 266.916 158.16 267.552 158.052L268.992 157.812V158.664C268.692 159.144 268.188 159.468 267.492 159.468C266.976 159.468 266.652 159.204 266.652 158.796ZM272.405 158.292C272.405 159.768 273.125 160.62 274.637 160.62C275.141 160.62 275.501 160.56 275.801 160.428V159.096C275.597 159.18 275.321 159.228 274.901 159.228C274.301 159.228 273.941 158.964 273.941 158.292V155.82H275.789V154.452H273.941V152.94H272.405V154.452H271.277V155.82H272.405V158.292ZM277.682 153.396C278.222 153.396 278.666 152.94 278.666 152.4C278.666 151.86 278.222 151.404 277.682 151.404C277.142 151.404 276.686 151.86 276.686 152.4C276.686 152.94 277.142 153.396 277.682 153.396ZM276.914 160.5H278.438V154.452H276.914V160.5ZM282.905 154.212C280.937 154.212 279.593 155.664 279.593 157.476C279.593 159.288 280.937 160.74 282.905 160.74C284.873 160.74 286.217 159.288 286.217 157.476C286.217 155.664 284.873 154.212 282.905 154.212ZM282.929 159.3C281.921 159.3 281.177 158.532 281.177 157.476C281.177 156.42 281.921 155.652 282.929 155.652C283.901 155.652 284.633 156.42 284.633 157.476C284.633 158.52 283.901 159.3 282.929 159.3ZM287.367 160.5H288.891V156.552C289.119 156.168 289.527 155.652 290.295 155.652C291.039 155.652 291.495 156.156 291.495 156.96V160.5H293.031V156.9C293.031 155.112 291.987 154.212 290.679 154.212C289.875 154.212 289.311 154.524 288.891 154.932V154.452H287.367V160.5ZM297.516 160.5H299.04V156.552C299.268 156.168 299.628 155.652 300.324 155.652C301.008 155.652 301.404 156.108 301.404 156.84V160.5H302.94V156.78C302.94 156.684 302.94 156.6 302.928 156.516C303.168 156.108 303.528 155.652 304.188 155.652C304.872 155.652 305.268 156.108 305.268 156.84V160.5H306.804V156.78C306.804 155.076 305.82 154.212 304.572 154.212C303.552 154.212 302.976 154.668 302.544 155.196C302.148 154.548 301.476 154.212 300.708 154.212C299.964 154.212 299.448 154.512 299.04 154.908V154.452H297.516V160.5ZM310.008 160.68C310.716 160.68 311.436 160.38 311.82 159.912V160.5H313.344V156.588C313.344 155.256 312.444 154.212 310.692 154.212C309.588 154.212 308.7 154.668 308.16 155.412L309.276 156.264C309.6 155.82 310.056 155.544 310.644 155.544C311.34 155.544 311.82 155.952 311.82 156.588V156.744L309.972 157.056C308.676 157.272 307.968 157.956 307.968 158.868C307.968 159.984 308.796 160.68 310.008 160.68ZM309.48 158.796C309.48 158.424 309.744 158.16 310.38 158.052L311.82 157.812V158.664C311.52 159.144 311.016 159.468 310.32 159.468C309.804 159.468 309.48 159.204 309.48 158.796ZM315.233 158.292C315.233 159.768 315.953 160.62 317.465 160.62C317.969 160.62 318.329 160.56 318.629 160.428V159.096C318.425 159.18 318.149 159.228 317.729 159.228C317.129 159.228 316.769 158.964 316.769 158.292V155.82H318.617V154.452H316.769V152.94H315.233V154.452H314.105V155.82H315.233V158.292ZM322.529 159.3C321.509 159.3 320.777 158.544 320.777 157.476C320.777 156.42 321.509 155.652 322.505 155.652C323.129 155.652 323.609 155.928 323.897 156.348L325.085 155.436C324.521 154.692 323.633 154.212 322.529 154.212C320.441 154.212 319.193 155.712 319.193 157.476C319.193 159.24 320.441 160.74 322.529 160.74C323.633 160.74 324.521 160.26 325.085 159.516L323.897 158.604C323.609 159.024 323.129 159.3 322.529 159.3ZM325.982 160.5H327.506V156.552C327.734 156.168 328.142 155.652 328.91 155.652C329.666 155.652 330.11 156.156 330.11 156.96V160.5H331.646V156.9C331.646 155.112 330.602 154.212 329.294 154.212C328.49 154.212 327.926 154.524 327.506 154.932V151.5H325.982V160.5ZM338.705 159.516L337.613 158.652C337.289 159.084 336.713 159.372 336.053 159.372C335.105 159.372 334.409 158.916 334.265 157.788H338.501C338.549 157.584 338.597 157.272 338.597 156.936C338.597 155.352 337.493 154.212 335.813 154.212C333.833 154.212 332.705 155.688 332.705 157.476C332.705 159.24 333.917 160.74 336.065 160.74C337.205 160.74 338.141 160.272 338.705 159.516ZM335.777 155.46C336.629 155.46 337.073 156.072 337.097 156.684H334.313C334.481 155.892 334.997 155.46 335.777 155.46ZM339.846 160.5H341.37V156.624C341.598 156.24 342.078 155.832 342.822 155.832C343.098 155.832 343.302 155.868 343.494 155.916V154.416C343.35 154.368 343.17 154.332 342.966 154.332C342.282 154.332 341.766 154.644 341.37 155.052V154.452H339.846V160.5Z" fill="white"/>
<rect x="227.5" y="142.5" width="126" height="27" rx="13.5" stroke="black"/>
</svg>
