<svg width="100" height="126" viewBox="0 0 100 126" fill="none" xmlns="http://www.w3.org/2000/svg">
<path d="M34.8565 57.44C39.8285 57.44 41.8085 54.03 41.8085 49.366C41.8085 44.372 39.6305 41.16 35.3405 41.16C31.6665 41.16 29.4885 43.624 29.4885 46.594C29.4885 49.476 31.4025 51.676 34.5705 51.676C35.9345 51.676 37.0345 51.302 37.9365 50.62C37.6945 52.996 36.6605 54.096 34.9005 54.096C33.8445 54.096 33.0525 53.458 32.3265 52.622L29.4885 54.998C30.4565 56.186 32.1505 57.44 34.8565 57.44ZM33.2945 46.462C33.2945 45.296 34.1305 44.504 35.4065 44.504C36.7045 44.504 37.5405 45.274 37.8485 47.21C37.2105 48.002 36.3305 48.398 35.3185 48.398C34.0865 48.398 33.2945 47.628 33.2945 46.462ZM48.7688 41.16C44.5887 41.16 42.6967 44.658 42.6967 49.3C42.6967 53.942 44.5887 57.44 48.7688 57.44C52.9708 57.44 54.8408 53.942 54.8408 49.3C54.8408 44.658 52.9708 41.16 48.7688 41.16ZM48.7908 44.592C50.3087 44.592 51.0348 46.308 51.0348 49.3C51.0348 52.27 50.3087 54.008 48.7908 54.008C47.2068 54.008 46.5028 52.292 46.5028 49.3C46.5028 46.33 47.2068 44.592 48.7908 44.592ZM60.8938 41.116C58.6278 41.116 57.0878 42.678 57.0878 44.79C57.0878 46.902 58.6278 48.464 60.8938 48.464C63.1378 48.464 64.6778 46.902 64.6778 44.79C64.6778 42.678 63.1378 41.116 60.8938 41.116ZM58.1658 56.978H61.6858L72.9938 41.578H69.4738L58.1658 56.978ZM60.8938 46.198C60.1678 46.198 59.6178 45.692 59.6178 44.79C59.6178 43.888 60.1678 43.404 60.8938 43.404C61.6198 43.404 62.1698 43.888 62.1698 44.79C62.1698 45.67 61.6198 46.198 60.8938 46.198ZM70.3538 50.07C68.0878 50.07 66.5478 51.632 66.5478 53.744C66.5478 55.856 68.0878 57.418 70.3538 57.418C72.5978 57.418 74.1378 55.856 74.1378 53.744C74.1378 51.632 72.5978 50.07 70.3538 50.07ZM70.3538 55.152C69.6278 55.152 69.0778 54.646 69.0778 53.744C69.0778 52.842 69.6278 52.358 70.3538 52.358C71.0798 52.358 71.6298 52.842 71.6298 53.744C71.6298 54.624 71.0798 55.152 70.3538 55.152Z" fill="#00AC8C"/>
<path d="M6.08844 108.04C2.38044 108.04 0.760437 110.83 0.760437 114.844C0.760437 119.128 2.59644 121.36 5.69244 121.36C8.48244 121.36 10.1384 119.398 10.1384 117.076C10.1384 114.826 8.53644 113.044 6.10644 113.044C4.77444 113.044 3.65844 113.494 2.81244 114.322C2.92044 111.478 4.00044 109.84 6.07044 109.84C7.16844 109.84 7.96044 110.38 8.66244 111.37L10.2104 110.146C9.36444 108.94 8.08644 108.04 6.08844 108.04ZM5.78244 114.808C7.13244 114.808 8.10444 115.816 8.10444 117.148C8.10444 118.516 7.18644 119.56 5.65644 119.56C4.21644 119.56 3.15444 118.66 2.86644 116.284C3.56844 115.294 4.61244 114.808 5.78244 114.808ZM15.7859 108.04C12.5639 108.04 10.9979 110.938 10.9979 114.7C10.9979 118.462 12.5639 121.36 15.7859 121.36C19.0079 121.36 20.5559 118.462 20.5559 114.7C20.5559 110.938 19.0079 108.04 15.7859 108.04ZM15.7859 109.876C17.6039 109.876 18.5219 111.874 18.5219 114.7C18.5219 117.508 17.6039 119.524 15.7859 119.524C13.9499 119.524 13.0319 117.526 13.0319 114.7C13.0319 111.892 13.9499 109.876 15.7859 109.876ZM25.7605 108.004C23.9245 108.004 22.7005 109.354 22.7005 111.01C22.7005 112.666 23.9245 114.016 25.7605 114.016C27.5605 114.016 28.8025 112.666 28.8025 111.01C28.8025 109.354 27.5605 108.004 25.7605 108.004ZM23.9065 120.982H25.8325L35.0665 108.382H33.1405L23.9065 120.982ZM25.7605 112.738C24.8065 112.738 24.1225 112 24.1225 111.01C24.1225 110.02 24.8065 109.282 25.7605 109.282C26.6965 109.282 27.3805 110.02 27.3805 111.01C27.3805 111.982 26.6965 112.738 25.7605 112.738ZM33.2485 115.33C31.4125 115.33 30.1885 116.68 30.1885 118.336C30.1885 119.992 31.4125 121.342 33.2485 121.342C35.0485 121.342 36.2905 119.992 36.2905 118.336C36.2905 116.68 35.0485 115.33 33.2485 115.33ZM33.2485 120.064C32.2945 120.064 31.6105 119.326 31.6105 118.336C31.6105 117.346 32.2945 116.608 33.2485 116.608C34.1845 116.608 34.8685 117.346 34.8685 118.336C34.8685 119.308 34.1845 120.064 33.2485 120.064Z" fill="#26283F"/>
<path d="M95 49C95 73.3005 75.3005 93 51 93C26.6995 93 7 73.3005 7 49C7 24.6995 26.6995 5 51 5C75.3005 5 95 24.6995 95 49ZM18.88 49C18.88 66.7394 33.2606 81.12 51 81.12C68.7394 81.12 83.12 66.7394 83.12 49C83.12 31.2606 68.7394 16.88 51 16.88C33.2606 16.88 18.88 31.2606 18.88 49Z" fill="white"/>
<path d="M51 1C62.429 1 73.4829 5.07801 82.1735 12.5005C90.8642 19.923 96.6212 30.2029 98.409 41.4911C100.197 52.7794 97.8983 64.3352 91.9267 74.0799C85.9551 83.8247 76.7024 91.119 65.8328 94.6507C54.9632 98.1825 43.1902 97.7199 32.6312 93.3462C22.0722 88.9725 13.4203 80.9748 8.23168 70.7915C3.04305 60.6083 1.65821 48.9078 4.32625 37.7946C6.99429 26.6814 13.5401 16.8849 22.7863 10.1672L34.0718 25.7003C28.5241 29.731 24.5966 35.6089 22.9957 42.2768C21.3949 48.9447 22.2258 55.965 25.339 62.0749C28.4522 68.1849 33.6433 72.9835 39.9787 75.6077C46.3141 78.2319 53.3779 78.5095 59.8997 76.3904C66.4214 74.2714 71.9731 69.8948 75.556 64.048C79.139 58.2011 80.5182 51.2676 79.4454 44.4947C78.3727 37.7217 74.9185 31.5538 69.7041 27.1003C64.4897 22.6468 57.8574 20.2 51 20.2V1Z" fill="#00AC8C" stroke="black"/>
<path d="M15 100.201L35.5716 73" stroke="black" stroke-dasharray="4 2"/>
</svg>
