<svg width="428" height="606" viewBox="0 0 428 606" fill="none" xmlns="http://www.w3.org/2000/svg">
<circle cx="205.5" cy="240.5" r="53.5" fill="white"/>
<rect x="273.5" y="333.5" width="67" height="27" rx="13.5" fill="#5770BE"/>
<path d="M288.1 350.144C286.456 350.144 285.268 348.908 285.268 347.3C285.268 345.692 286.396 344.456 287.98 344.456C288.94 344.456 289.696 344.924 290.176 345.608L291.52 344.564C290.752 343.544 289.504 342.86 287.98 342.86C285.328 342.86 283.516 344.9 283.516 347.3C283.516 349.7 285.376 351.74 288.1 351.74C289.672 351.74 290.98 351.068 291.76 350.024V346.496H287.92V347.948H290.056V349.412C289.576 349.868 288.892 350.144 288.1 350.144ZM293.535 351.5H295.239V348.104H296.115L298.359 351.5H300.363L297.735 347.78C298.599 347.384 299.091 346.628 299.091 345.608C299.091 344.048 297.951 343.1 296.103 343.1H293.535V351.5ZM296.199 344.516C296.919 344.516 297.339 344.948 297.339 345.584C297.339 346.268 296.919 346.688 296.199 346.688H295.239V344.516H296.199ZM304.938 342.86C302.286 342.86 300.474 344.9 300.474 347.3C300.474 349.7 302.286 351.74 304.938 351.74C307.578 351.74 309.39 349.7 309.39 347.3C309.39 344.9 307.578 342.86 304.938 342.86ZM304.938 350.144C303.354 350.144 302.226 348.908 302.226 347.3C302.226 345.692 303.354 344.456 304.938 344.456C306.51 344.456 307.638 345.692 307.638 347.3C307.638 348.908 306.51 350.144 304.938 350.144ZM310.903 351.5H313.555C315.487 351.5 316.675 350.564 316.675 349.028C316.675 348.152 316.183 347.432 315.295 347.036C315.883 346.652 316.195 346.064 316.195 345.38C316.195 343.964 315.127 343.1 313.375 343.1H310.903V351.5ZM313.411 344.516C314.059 344.516 314.443 344.864 314.443 345.452C314.443 346.064 314.059 346.412 313.411 346.412H312.607V344.516H313.411ZM313.651 347.828C314.443 347.828 314.923 348.236 314.923 348.956C314.923 349.664 314.443 350.084 313.651 350.084H312.607V347.828H313.651ZM318.303 351.5H320.007V343.1H318.303V351.5ZM322.235 351.5H325.535C328.199 351.5 329.999 349.568 329.999 347.3C329.999 345.032 328.199 343.1 325.535 343.1H322.235V351.5ZM325.559 344.648C327.119 344.648 328.247 345.8 328.247 347.3C328.247 348.788 327.119 349.952 325.559 349.952H323.939V344.648H325.559Z" fill="white"/>
<rect x="273.5" y="333.5" width="67" height="27" rx="13.5" stroke="black"/>
<g style="mix-blend-mode:multiply">
<path d="M247.186 88.4L247.675 88.502L247.677 88.4937L247.186 88.4ZM418.1 119.401C418.1 119.125 417.876 118.901 417.6 118.901C417.324 118.901 417.1 119.125 417.1 119.401H418.1ZM203.413 119.401L203.913 119.393L203.905 118.901H203.413V119.401ZM243.5 119.401C243.5 119.125 243.276 118.901 243 118.901C242.724 118.901 242.5 119.125 242.5 119.401H243.5ZM361.154 187.401L360.711 187.169L361.154 187.401ZM373.814 150.001L373.325 149.899L373.323 149.907L373.814 150.001ZM203.4 118.901C203.124 118.901 202.9 119.125 202.9 119.401C202.9 119.677 203.124 119.901 203.4 119.901V118.901ZM417.587 119.9C417.863 119.9 418.087 119.677 418.087 119.4C418.087 119.124 417.863 118.9 417.587 118.9V119.9ZM392.664 187.9C392.94 187.9 393.164 187.677 393.164 187.4C393.164 187.124 392.94 186.9 392.664 186.9V187.9ZM204 120.4C204 61.5281 251.625 14.1 310.5 14.1V13.1C251.075 13.1 203 60.9733 203 120.4H204ZM310.5 14.1C369.373 14.1 417.1 61.8265 417.1 120.7H418.1C418.1 61.2742 369.926 13.1 310.5 13.1V14.1ZM310.5 14.1C331.198 14.1 349.27 28.3221 361.227 51.2314L362.113 50.7686C350.059 27.6729 331.709 13.1 310.5 13.1V14.1ZM361.227 51.2314C370.697 69.3746 376.3 92.9201 376.3 119H377.3C377.3 92.7843 371.669 69.0757 362.113 50.7686L361.227 51.2314ZM310.5 13.1C289.585 13.1 271.457 27.7853 259.403 50.7678L260.289 51.2322C272.251 28.4242 290.104 14.1 310.5 14.1V13.1ZM259.403 50.7678C253.708 61.6269 249.356 74.3556 246.694 88.3063L247.677 88.4937C250.322 74.6279 254.644 61.9943 260.289 51.2322L259.403 50.7678ZM230.6 51.5H259.846V50.5H230.6V51.5ZM259.846 51.5H361.67V50.5H259.846V51.5ZM361.67 51.5H390.4V50.5H361.67V51.5ZM189.8 27.7H203.4V26.7H189.8V27.7ZM203.4 27.7H217V26.7H203.4V27.7ZM397.2 7.3H404V6.3H397.2V7.3ZM404 7.3H410.8V6.3H404V7.3ZM202.9 13.6L202.9 27.2H203.9L203.9 13.6H202.9ZM202.9 27.2L202.9 40.8H203.9L203.9 27.2H202.9ZM403.5 0V6.8H404.5V0H403.5ZM403.5 6.8V13.6H404.5V6.8H403.5ZM246.696 88.2981C245.302 94.9949 242.5 111.142 242.5 119H243.5C243.5 111.258 246.279 95.2048 247.675 88.5019L246.696 88.2981ZM417.1 119.401C417.1 178.264 369.384 224.301 310.5 224.301V225.301C369.915 225.301 418.1 178.837 418.1 119.401H417.1ZM310.5 225.301C331.415 225.301 349.542 210.615 361.597 187.633L360.711 187.169C348.748 209.977 330.896 224.301 310.5 224.301V225.301ZM361.597 187.633C367.292 176.774 371.643 164.045 374.305 150.094L373.323 149.907C370.677 163.773 366.356 176.407 360.711 187.169L361.597 187.633ZM203.4 119.901H203.413V118.901H203.4V119.901ZM374.304 150.103C375.705 143.372 377.5 127.237 377.5 119.401H376.5C376.5 127.164 374.713 143.23 373.325 149.899L374.304 150.103ZM203 119.9H417.587V118.9H203V119.9ZM217.174 169.258C208.971 154.441 204.194 137.463 203.913 119.393L202.913 119.409C203.197 137.647 208.019 154.785 216.3 169.742L217.174 169.258ZM247.672 154.584C245.038 143.631 243.5 131.8 243.5 119.401H242.5C242.5 131.883 244.048 143.792 246.699 154.817L247.672 154.584ZM310 13.9004V154.7H311V13.9004H310ZM310 209V224.9H311V209H310ZM392.664 186.9L361.154 186.901V187.901L392.664 187.9V186.9ZM344 187.9L362 187.901L362 186.901L344 186.9L344 187.9ZM310.5 224.301C297.408 224.301 285.378 218.616 275.273 208.644L274.57 209.356C284.825 219.476 297.097 225.301 310.5 225.301V224.301ZM310.5 224.301C292.924 224.301 276.343 220.048 261.729 212.515L261.271 213.404C276.024 221.008 292.761 225.301 310.5 225.301V224.301Z" fill="#ABB8DE"/>
</g>
<path d="M220.219 367.36C217.567 367.36 215.755 369.4 215.755 371.8C215.755 374.2 217.567 376.24 220.219 376.24C222.859 376.24 224.671 374.2 224.671 371.8C224.671 369.4 222.859 367.36 220.219 367.36ZM220.219 374.644C218.635 374.644 217.507 373.408 217.507 371.8C217.507 370.192 218.635 368.956 220.219 368.956C221.791 368.956 222.919 370.192 222.919 371.8C222.919 373.408 221.791 374.644 220.219 374.644ZM229.844 373.384C229.844 374.26 229.388 374.8 228.56 374.8C227.72 374.8 227.264 374.26 227.264 373.384V369.952H225.728V373.312C225.728 375.124 226.772 376.24 228.548 376.24C230.324 376.24 231.38 375.124 231.38 373.312V369.952H229.844V373.384ZM233.305 373.792C233.305 375.268 234.025 376.12 235.537 376.12C236.041 376.12 236.401 376.06 236.701 375.928V374.596C236.497 374.68 236.221 374.728 235.801 374.728C235.201 374.728 234.841 374.464 234.841 373.792V371.32H236.689V369.952H234.841V368.44H233.305V369.952H232.177V371.32H233.305V373.792ZM238.582 368.896C239.122 368.896 239.566 368.44 239.566 367.9C239.566 367.36 239.122 366.904 238.582 366.904C238.042 366.904 237.586 367.36 237.586 367.9C237.586 368.44 238.042 368.896 238.582 368.896ZM237.814 376H239.338V369.952H237.814V376ZM240.925 376H242.449V367H240.925V376ZM247.031 376H248.555V367H247.031V376ZM250.911 368.896C251.451 368.896 251.895 368.44 251.895 367.9C251.895 367.36 251.451 366.904 250.911 366.904C250.371 366.904 249.915 367.36 249.915 367.9C249.915 368.44 250.371 368.896 250.911 368.896ZM250.143 376H251.667V369.952H250.143V376ZM259.734 372.976C259.734 371.212 258.582 369.712 256.662 369.712C255.834 369.712 255.246 369.976 254.778 370.444V367H253.254V376H254.778V375.508C255.246 375.976 255.834 376.24 256.662 376.24C258.582 376.24 259.734 374.74 259.734 372.976ZM256.446 371.152C257.478 371.152 258.15 371.92 258.15 372.976C258.15 374.032 257.478 374.8 256.446 374.8C255.762 374.8 255.186 374.5 254.778 373.936V372.016C255.15 371.464 255.738 371.152 256.446 371.152ZM260.889 376H262.413V372.124C262.641 371.74 263.121 371.332 263.865 371.332C264.141 371.332 264.345 371.368 264.537 371.416V369.916C264.393 369.868 264.213 369.832 264.009 369.832C263.325 369.832 262.809 370.144 262.413 370.552V369.952H260.889V376ZM270.834 375.016L269.742 374.152C269.418 374.584 268.842 374.872 268.182 374.872C267.234 374.872 266.538 374.416 266.394 373.288H270.63C270.678 373.084 270.726 372.772 270.726 372.436C270.726 370.852 269.622 369.712 267.942 369.712C265.962 369.712 264.834 371.188 264.834 372.976C264.834 374.74 266.046 376.24 268.194 376.24C269.334 376.24 270.27 375.772 270.834 375.016ZM267.906 370.96C268.758 370.96 269.202 371.572 269.226 372.184H266.442C266.61 371.392 267.126 370.96 267.906 370.96ZM274.538 372.976C274.538 374.74 275.702 376.24 277.61 376.24C278.426 376.24 279.014 375.988 279.482 375.52V376H281.018V367H279.482V370.432C279.014 369.964 278.426 369.712 277.61 369.712C275.702 369.712 274.538 371.212 274.538 372.976ZM276.134 372.976C276.134 371.92 276.794 371.152 277.826 371.152C278.51 371.152 279.074 371.44 279.482 371.992V373.96C279.074 374.512 278.51 374.8 277.826 374.8C276.794 374.8 276.134 374.032 276.134 372.976ZM283.419 371.056L284.811 367.6H283.083L282.003 371.056H283.419ZM290.663 375.016L289.571 374.152C289.247 374.584 288.671 374.872 288.011 374.872C287.063 374.872 286.367 374.416 286.223 373.288H290.459C290.507 373.084 290.555 372.772 290.555 372.436C290.555 370.852 289.451 369.712 287.771 369.712C285.791 369.712 284.663 371.188 284.663 372.976C284.663 374.74 285.875 376.24 288.023 376.24C289.163 376.24 290.099 375.772 290.663 375.016ZM287.735 370.96C288.587 370.96 289.031 371.572 289.055 372.184H286.271C286.439 371.392 286.955 370.96 287.735 370.96ZM292.674 376L294.03 373.972L295.398 376H297.138L295.002 372.892L297.03 369.952H295.278L294.03 371.812L292.782 369.952H291.042L293.058 372.892L290.922 376H292.674ZM298.359 373.792C298.359 375.268 299.079 376.12 300.591 376.12C301.095 376.12 301.455 376.06 301.755 375.928V374.596C301.551 374.68 301.275 374.728 300.855 374.728C300.255 374.728 299.895 374.464 299.895 373.792V371.32H301.743V369.952H299.895V368.44H298.359V369.952H297.231V371.32H298.359V373.792ZM302.868 376H304.392V372.124C304.62 371.74 305.1 371.332 305.844 371.332C306.12 371.332 306.324 371.368 306.516 371.416V369.916C306.372 369.868 306.192 369.832 305.988 369.832C305.304 369.832 304.788 370.144 304.392 370.552V369.952H302.868V376ZM308.914 376.18C309.622 376.18 310.342 375.88 310.726 375.412V376H312.25V372.088C312.25 370.756 311.35 369.712 309.598 369.712C308.494 369.712 307.606 370.168 307.066 370.912L308.182 371.764C308.506 371.32 308.962 371.044 309.55 371.044C310.246 371.044 310.726 371.452 310.726 372.088V372.244L308.878 372.556C307.582 372.772 306.874 373.456 306.874 374.368C306.874 375.484 307.702 376.18 308.914 376.18ZM308.386 374.296C308.386 373.924 308.65 373.66 309.286 373.552L310.726 373.312V374.164C310.426 374.644 309.922 374.968 309.226 374.968C308.71 374.968 308.386 374.704 308.386 374.296ZM316.659 374.8C315.639 374.8 314.907 374.044 314.907 372.976C314.907 371.92 315.639 371.152 316.635 371.152C317.259 371.152 317.739 371.428 318.027 371.848L319.215 370.936C318.651 370.192 317.763 369.712 316.659 369.712C314.571 369.712 313.323 371.212 313.323 372.976C313.323 374.74 314.571 376.24 316.659 376.24C317.763 376.24 318.651 375.76 319.215 375.016L318.027 374.104C317.739 374.524 317.259 374.8 316.659 374.8ZM320.555 373.792C320.555 375.268 321.275 376.12 322.787 376.12C323.291 376.12 323.651 376.06 323.951 375.928V374.596C323.747 374.68 323.471 374.728 323.051 374.728C322.451 374.728 322.091 374.464 322.091 373.792V371.32H323.939V369.952H322.091V368.44H320.555V369.952H319.427V371.32H320.555V373.792ZM325.832 368.896C326.372 368.896 326.816 368.44 326.816 367.9C326.816 367.36 326.372 366.904 325.832 366.904C325.292 366.904 324.836 367.36 324.836 367.9C324.836 368.44 325.292 368.896 325.832 368.896ZM325.064 376H326.588V369.952H325.064V376ZM331.055 369.712C329.087 369.712 327.743 371.164 327.743 372.976C327.743 374.788 329.087 376.24 331.055 376.24C333.023 376.24 334.367 374.788 334.367 372.976C334.367 371.164 333.023 369.712 331.055 369.712ZM331.079 374.8C330.071 374.8 329.327 374.032 329.327 372.976C329.327 371.92 330.071 371.152 331.079 371.152C332.051 371.152 332.783 371.92 332.783 372.976C332.783 374.02 332.051 374.8 331.079 374.8ZM335.517 376H337.041V372.052C337.269 371.668 337.677 371.152 338.445 371.152C339.189 371.152 339.645 371.656 339.645 372.46V376H341.181V372.4C341.181 370.612 340.137 369.712 338.829 369.712C338.025 369.712 337.461 370.024 337.041 370.432V369.952H335.517V376ZM164.008 389.976C164.008 391.74 165.172 393.24 167.08 393.24C167.896 393.24 168.484 392.988 168.952 392.52V393H170.488V384H168.952V387.432C168.484 386.964 167.896 386.712 167.08 386.712C165.172 386.712 164.008 388.212 164.008 389.976ZM165.604 389.976C165.604 388.92 166.264 388.152 167.296 388.152C167.98 388.152 168.544 388.44 168.952 388.992V390.96C168.544 391.512 167.98 391.8 167.296 391.8C166.264 391.8 165.604 391.032 165.604 389.976ZM172.889 388.056L174.281 384.6H172.553L171.473 388.056H172.889ZM176.025 385.896C176.565 385.896 177.009 385.44 177.009 384.9C177.009 384.36 176.565 383.904 176.025 383.904C175.485 383.904 175.029 384.36 175.029 384.9C175.029 385.44 175.485 385.896 176.025 385.896ZM175.257 393H176.781V386.952H175.257V393ZM178.369 393H179.893V389.052C180.121 388.668 180.529 388.152 181.297 388.152C182.041 388.152 182.497 388.656 182.497 389.46V393H184.033V389.4C184.033 387.612 182.989 386.712 181.681 386.712C180.877 386.712 180.313 387.024 179.893 387.432V386.952H178.369V393ZM184.779 386.952V388.32H185.907V393H187.443V388.32H189.291V386.952H187.443V386.28C187.443 385.728 187.779 385.368 188.295 385.368C188.607 385.368 188.847 385.476 189.027 385.608L189.675 384.336C189.291 384.132 188.823 384 188.271 384C186.759 384 185.907 385.032 185.907 386.316V386.952H184.779ZM192.745 386.712C190.777 386.712 189.433 388.164 189.433 389.976C189.433 391.788 190.777 393.24 192.745 393.24C194.713 393.24 196.057 391.788 196.057 389.976C196.057 388.164 194.713 386.712 192.745 386.712ZM192.769 391.8C191.761 391.8 191.017 391.032 191.017 389.976C191.017 388.92 191.761 388.152 192.769 388.152C193.741 388.152 194.473 388.92 194.473 389.976C194.473 391.02 193.741 391.8 192.769 391.8ZM197.207 393H198.731V389.124C198.959 388.74 199.439 388.332 200.183 388.332C200.459 388.332 200.663 388.368 200.855 388.416V386.916C200.711 386.868 200.531 386.832 200.327 386.832C199.643 386.832 199.127 387.144 198.731 387.552V386.952H197.207V393ZM201.842 393H203.366V389.052C203.594 388.668 203.954 388.152 204.65 388.152C205.334 388.152 205.73 388.608 205.73 389.34V393H207.266V389.28C207.266 389.184 207.266 389.1 207.254 389.016C207.494 388.608 207.854 388.152 208.514 388.152C209.198 388.152 209.594 388.608 209.594 389.34V393H211.13V389.28C211.13 387.576 210.146 386.712 208.898 386.712C207.878 386.712 207.302 387.168 206.87 387.696C206.474 387.048 205.802 386.712 205.034 386.712C204.29 386.712 203.774 387.012 203.366 387.408V386.952H201.842V393ZM214.333 393.18C215.041 393.18 215.761 392.88 216.145 392.412V393H217.669V389.088C217.669 387.756 216.769 386.712 215.017 386.712C213.913 386.712 213.025 387.168 212.485 387.912L213.601 388.764C213.925 388.32 214.381 388.044 214.969 388.044C215.665 388.044 216.145 388.452 216.145 389.088V389.244L214.297 389.556C213.001 389.772 212.293 390.456 212.293 391.368C212.293 392.484 213.121 393.18 214.333 393.18ZM213.805 391.296C213.805 390.924 214.069 390.66 214.705 390.552L216.145 390.312V391.164C215.845 391.644 215.341 391.968 214.645 391.968C214.129 391.968 213.805 391.704 213.805 391.296ZM219.559 390.792C219.559 392.268 220.279 393.12 221.791 393.12C222.295 393.12 222.655 393.06 222.955 392.928V391.596C222.751 391.68 222.475 391.728 222.055 391.728C221.455 391.728 221.095 391.464 221.095 390.792V388.32H222.943V386.952H221.095V385.44H219.559V386.952H218.431V388.32H219.559V390.792ZM224.835 385.896C225.375 385.896 225.819 385.44 225.819 384.9C225.819 384.36 225.375 383.904 224.835 383.904C224.295 383.904 223.839 384.36 223.839 384.9C223.839 385.44 224.295 385.896 224.835 385.896ZM224.067 393H225.591V386.952H224.067V393ZM230.059 386.712C228.091 386.712 226.747 388.164 226.747 389.976C226.747 391.788 228.091 393.24 230.059 393.24C232.027 393.24 233.371 391.788 233.371 389.976C233.371 388.164 232.027 386.712 230.059 386.712ZM230.083 391.8C229.075 391.8 228.331 391.032 228.331 389.976C228.331 388.92 229.075 388.152 230.083 388.152C231.055 388.152 231.787 388.92 231.787 389.976C231.787 391.02 231.055 391.8 230.083 391.8ZM234.521 393H236.045V389.052C236.273 388.668 236.681 388.152 237.449 388.152C238.193 388.152 238.649 388.656 238.649 389.46V393H240.185V389.4C240.185 387.612 239.141 386.712 237.833 386.712C237.029 386.712 236.465 387.024 236.045 387.432V386.952H234.521V393ZM241.148 392.124C241.724 392.808 242.492 393.24 243.572 393.24C244.712 393.24 245.732 392.544 245.756 391.272C245.756 389.184 242.864 389.544 242.864 388.512C242.864 388.2 243.092 387.936 243.572 387.936C244.04 387.936 244.436 388.248 244.748 388.632L245.756 387.744C245.324 387.156 244.484 386.712 243.56 386.712C242.3 386.712 241.4 387.516 241.4 388.584C241.4 390.708 244.292 390.312 244.292 391.368C244.292 391.728 244.04 392.016 243.548 392.016C242.972 392.016 242.528 391.68 242.156 391.212L241.148 392.124ZM249.386 392.124C249.962 392.808 250.73 393.24 251.81 393.24C252.95 393.24 253.97 392.544 253.994 391.272C253.994 389.184 251.102 389.544 251.102 388.512C251.102 388.2 251.33 387.936 251.81 387.936C252.278 387.936 252.674 388.248 252.986 388.632L253.994 387.744C253.562 387.156 252.722 386.712 251.798 386.712C250.538 386.712 249.638 387.516 249.638 388.584C249.638 390.708 252.53 390.312 252.53 391.368C252.53 391.728 252.278 392.016 251.786 392.016C251.21 392.016 250.766 391.68 250.394 391.212L249.386 392.124ZM255.636 390.792C255.636 392.268 256.356 393.12 257.868 393.12C258.372 393.12 258.732 393.06 259.032 392.928V391.596C258.828 391.68 258.552 391.728 258.132 391.728C257.532 391.728 257.172 391.464 257.172 390.792V388.32H259.02V386.952H257.172V385.44H255.636V386.952H254.508V388.32H255.636V390.792ZM260.145 393H261.669V389.124C261.897 388.74 262.377 388.332 263.121 388.332C263.397 388.332 263.601 388.368 263.793 388.416V386.916C263.649 386.868 263.469 386.832 263.265 386.832C262.581 386.832 262.065 387.144 261.669 387.552V386.952H260.145V393ZM268.94 390.384C268.94 391.26 268.484 391.8 267.656 391.8C266.816 391.8 266.36 391.26 266.36 390.384V386.952H264.824V390.312C264.824 392.124 265.868 393.24 267.644 393.24C269.42 393.24 270.476 392.124 270.476 390.312V386.952H268.94V390.384ZM274.827 391.8C273.807 391.8 273.075 391.044 273.075 389.976C273.075 388.92 273.807 388.152 274.803 388.152C275.427 388.152 275.907 388.428 276.195 388.848L277.383 387.936C276.819 387.192 275.931 386.712 274.827 386.712C272.739 386.712 271.491 388.212 271.491 389.976C271.491 391.74 272.739 393.24 274.827 393.24C275.931 393.24 276.819 392.76 277.383 392.016L276.195 391.104C275.907 391.524 275.427 391.8 274.827 391.8ZM278.723 390.792C278.723 392.268 279.443 393.12 280.955 393.12C281.459 393.12 281.819 393.06 282.119 392.928V391.596C281.915 391.68 281.639 391.728 281.219 391.728C280.619 391.728 280.259 391.464 280.259 390.792V388.32H282.107V386.952H280.259V385.44H278.723V386.952H277.595V388.32H278.723V390.792ZM287.204 390.384C287.204 391.26 286.748 391.8 285.92 391.8C285.08 391.8 284.624 391.26 284.624 390.384V386.952H283.088V390.312C283.088 392.124 284.132 393.24 285.908 393.24C287.684 393.24 288.74 392.124 288.74 390.312V386.952H287.204V390.384ZM290.187 393H291.711V389.124C291.939 388.74 292.419 388.332 293.163 388.332C293.439 388.332 293.643 388.368 293.835 388.416V386.916C293.691 386.868 293.511 386.832 293.307 386.832C292.623 386.832 292.107 387.144 291.711 387.552V386.952H290.187V393ZM298.081 385.992L299.521 384H297.865L296.617 385.992H298.081ZM300.133 392.016L299.041 391.152C298.717 391.584 298.141 391.872 297.481 391.872C296.533 391.872 295.837 391.416 295.693 390.288H299.929C299.977 390.084 300.025 389.772 300.025 389.436C300.025 387.852 298.921 386.712 297.241 386.712C295.261 386.712 294.133 388.188 294.133 389.976C294.133 391.74 295.345 393.24 297.493 393.24C298.633 393.24 299.569 392.772 300.133 392.016ZM297.205 387.96C298.057 387.96 298.501 388.572 298.525 389.184H295.741C295.909 388.392 296.425 387.96 297.205 387.96ZM306.795 392.016L305.703 391.152C305.379 391.584 304.803 391.872 304.143 391.872C303.195 391.872 302.499 391.416 302.355 390.288H306.591C306.639 390.084 306.687 389.772 306.687 389.436C306.687 387.852 305.583 386.712 303.903 386.712C301.923 386.712 300.795 388.188 300.795 389.976C300.795 391.74 302.007 393.24 304.155 393.24C305.295 393.24 306.231 392.772 306.795 392.016ZM303.867 387.96C304.719 387.96 305.163 388.572 305.187 389.184H302.403C302.571 388.392 303.087 387.96 303.867 387.96ZM307.326 392.124C307.902 392.808 308.67 393.24 309.75 393.24C310.89 393.24 311.91 392.544 311.934 391.272C311.934 389.184 309.042 389.544 309.042 388.512C309.042 388.2 309.27 387.936 309.75 387.936C310.218 387.936 310.614 388.248 310.926 388.632L311.934 387.744C311.502 387.156 310.662 386.712 309.738 386.712C308.478 386.712 307.578 387.516 307.578 388.584C307.578 390.708 310.47 390.312 310.47 391.368C310.47 391.728 310.218 392.016 309.726 392.016C309.15 392.016 308.706 391.68 308.334 391.212L307.326 392.124ZM315.661 389.976C315.661 391.74 316.825 393.24 318.733 393.24C319.549 393.24 320.137 392.988 320.605 392.52V393H322.141V384H320.605V387.432C320.137 386.964 319.549 386.712 318.733 386.712C316.825 386.712 315.661 388.212 315.661 389.976ZM317.257 389.976C317.257 388.92 317.917 388.152 318.949 388.152C319.633 388.152 320.197 388.44 320.605 388.992V390.96C320.197 391.512 319.633 391.8 318.949 391.8C317.917 391.8 317.257 391.032 317.257 389.976ZM325.432 393.18C326.14 393.18 326.86 392.88 327.244 392.412V393H328.768V389.088C328.768 387.756 327.868 386.712 326.116 386.712C325.012 386.712 324.124 387.168 323.584 387.912L324.7 388.764C325.024 388.32 325.48 388.044 326.068 388.044C326.764 388.044 327.244 388.452 327.244 389.088V389.244L325.396 389.556C324.1 389.772 323.392 390.456 323.392 391.368C323.392 392.484 324.22 393.18 325.432 393.18ZM324.904 391.296C324.904 390.924 325.168 390.66 325.804 390.552L327.244 390.312V391.164C326.944 391.644 326.44 391.968 325.744 391.968C325.228 391.968 324.904 391.704 324.904 391.296ZM330.273 393H331.797V389.052C332.025 388.668 332.433 388.152 333.201 388.152C333.945 388.152 334.401 388.656 334.401 389.46V393H335.937V389.4C335.937 387.612 334.893 386.712 333.585 386.712C332.781 386.712 332.217 387.024 331.797 387.432V386.952H330.273V393ZM336.9 392.124C337.476 392.808 338.244 393.24 339.324 393.24C340.464 393.24 341.484 392.544 341.508 391.272C341.508 389.184 338.616 389.544 338.616 388.512C338.616 388.2 338.844 387.936 339.324 387.936C339.792 387.936 340.188 388.248 340.5 388.632L341.508 387.744C341.076 387.156 340.236 386.712 339.312 386.712C338.052 386.712 337.152 387.516 337.152 388.584C337.152 390.708 340.044 390.312 340.044 391.368C340.044 391.728 339.792 392.016 339.3 392.016C338.724 392.016 338.28 391.68 337.908 391.212L336.9 392.124ZM176.928 406.976C176.928 408.74 178.092 410.24 180 410.24C180.816 410.24 181.404 409.988 181.872 409.52V410H183.408V401H181.872V404.432C181.404 403.964 180.816 403.712 180 403.712C178.092 403.712 176.928 405.212 176.928 406.976ZM178.524 406.976C178.524 405.92 179.184 405.152 180.216 405.152C180.9 405.152 181.464 405.44 181.872 405.992V407.96C181.464 408.512 180.9 408.8 180.216 408.8C179.184 408.8 178.524 408.032 178.524 406.976ZM190.563 409.016L189.471 408.152C189.147 408.584 188.571 408.872 187.911 408.872C186.963 408.872 186.267 408.416 186.123 407.288H190.359C190.407 407.084 190.455 406.772 190.455 406.436C190.455 404.852 189.351 403.712 187.671 403.712C185.691 403.712 184.563 405.188 184.563 406.976C184.563 408.74 185.775 410.24 187.923 410.24C189.063 410.24 189.999 409.772 190.563 409.016ZM187.635 404.96C188.487 404.96 188.931 405.572 188.955 406.184H186.171C186.339 405.392 186.855 404.96 187.635 404.96ZM191.094 409.124C191.67 409.808 192.438 410.24 193.518 410.24C194.658 410.24 195.678 409.544 195.702 408.272C195.702 406.184 192.81 406.544 192.81 405.512C192.81 405.2 193.038 404.936 193.518 404.936C193.986 404.936 194.382 405.248 194.694 405.632L195.702 404.744C195.27 404.156 194.43 403.712 193.506 403.712C192.246 403.712 191.346 404.516 191.346 405.584C191.346 407.708 194.238 407.312 194.238 408.368C194.238 408.728 193.986 409.016 193.494 409.016C192.918 409.016 192.474 408.68 192.102 408.212L191.094 409.124ZM199.861 412.952H201.385V409.508C201.853 409.976 202.441 410.24 203.269 410.24C205.189 410.24 206.341 408.74 206.341 406.976C206.341 405.212 205.189 403.712 203.269 403.712C202.441 403.712 201.853 403.976 201.385 404.444V403.952H199.861V412.952ZM203.053 405.152C204.085 405.152 204.757 405.92 204.757 406.976C204.757 408.032 204.085 408.8 203.053 408.8C202.357 408.8 201.793 408.5 201.385 407.924V406.028C201.769 405.464 202.345 405.152 203.053 405.152ZM211.48 407.384C211.48 408.26 211.024 408.8 210.196 408.8C209.356 408.8 208.9 408.26 208.9 407.384V403.952H207.364V407.312C207.364 409.124 208.408 410.24 210.184 410.24C211.96 410.24 213.016 409.124 213.016 407.312V403.952H211.48V407.384ZM220.943 406.976C220.943 405.212 219.791 403.712 217.871 403.712C217.043 403.712 216.455 403.976 215.987 404.444V401H214.463V410H215.987V409.508C216.455 409.976 217.043 410.24 217.871 410.24C219.791 410.24 220.943 408.74 220.943 406.976ZM217.655 405.152C218.687 405.152 219.359 405.92 219.359 406.976C219.359 408.032 218.687 408.8 217.655 408.8C216.971 408.8 216.395 408.5 215.987 407.936V406.016C216.359 405.464 216.947 405.152 217.655 405.152ZM222.098 410H223.622V401H222.098V410ZM225.978 402.896C226.518 402.896 226.962 402.44 226.962 401.9C226.962 401.36 226.518 400.904 225.978 400.904C225.438 400.904 224.982 401.36 224.982 401.9C224.982 402.44 225.438 402.896 225.978 402.896ZM225.21 410H226.734V403.952H225.21V410ZM231.225 408.8C230.205 408.8 229.473 408.044 229.473 406.976C229.473 405.92 230.205 405.152 231.201 405.152C231.825 405.152 232.305 405.428 232.593 405.848L233.781 404.936C233.217 404.192 232.329 403.712 231.225 403.712C229.137 403.712 227.889 405.212 227.889 406.976C227.889 408.74 229.137 410.24 231.225 410.24C232.329 410.24 233.217 409.76 233.781 409.016L232.593 408.104C232.305 408.524 231.825 408.8 231.225 408.8ZM236.278 410.18C236.986 410.18 237.706 409.88 238.09 409.412V410H239.614V406.088C239.614 404.756 238.714 403.712 236.962 403.712C235.858 403.712 234.97 404.168 234.43 404.912L235.546 405.764C235.87 405.32 236.326 405.044 236.914 405.044C237.61 405.044 238.09 405.452 238.09 406.088V406.244L236.242 406.556C234.946 406.772 234.238 407.456 234.238 408.368C234.238 409.484 235.066 410.18 236.278 410.18ZM235.75 408.296C235.75 407.924 236.014 407.66 236.65 407.552L238.09 407.312V408.164C237.79 408.644 237.286 408.968 236.59 408.968C236.074 408.968 235.75 408.704 235.75 408.296ZM241.503 407.792C241.503 409.268 242.223 410.12 243.735 410.12C244.239 410.12 244.599 410.06 244.899 409.928V408.596C244.695 408.68 244.419 408.728 243.999 408.728C243.399 408.728 243.039 408.464 243.039 407.792V405.32H244.887V403.952H243.039V402.44H241.503V403.952H240.375V405.32H241.503V407.792ZM246.78 402.896C247.32 402.896 247.764 402.44 247.764 401.9C247.764 401.36 247.32 400.904 246.78 400.904C246.24 400.904 245.784 401.36 245.784 401.9C245.784 402.44 246.24 402.896 246.78 402.896ZM246.012 410H247.536V403.952H246.012V410ZM252.003 403.712C250.035 403.712 248.691 405.164 248.691 406.976C248.691 408.788 250.035 410.24 252.003 410.24C253.971 410.24 255.315 408.788 255.315 406.976C255.315 405.164 253.971 403.712 252.003 403.712ZM252.027 408.8C251.019 408.8 250.275 408.032 250.275 406.976C250.275 405.92 251.019 405.152 252.027 405.152C252.999 405.152 253.731 405.92 253.731 406.976C253.731 408.02 252.999 408.8 252.027 408.8ZM256.465 410H257.989V406.052C258.217 405.668 258.625 405.152 259.393 405.152C260.137 405.152 260.593 405.656 260.593 406.46V410H262.129V406.4C262.129 404.612 261.085 403.712 259.777 403.712C258.973 403.712 258.409 404.024 257.989 404.432V403.952H256.465V410ZM263.092 409.124C263.668 409.808 264.436 410.24 265.516 410.24C266.656 410.24 267.676 409.544 267.7 408.272C267.7 406.184 264.808 406.544 264.808 405.512C264.808 405.2 265.036 404.936 265.516 404.936C265.984 404.936 266.38 405.248 266.692 405.632L267.7 404.744C267.268 404.156 266.428 403.712 265.504 403.712C264.244 403.712 263.344 404.516 263.344 405.584C263.344 407.708 266.236 407.312 266.236 408.368C266.236 408.728 265.984 409.016 265.492 409.016C264.916 409.016 264.472 408.68 264.1 408.212L263.092 409.124ZM271.33 409.124C271.906 409.808 272.674 410.24 273.754 410.24C274.894 410.24 275.914 409.544 275.938 408.272C275.938 406.184 273.046 406.544 273.046 405.512C273.046 405.2 273.274 404.936 273.754 404.936C274.222 404.936 274.618 405.248 274.93 405.632L275.938 404.744C275.506 404.156 274.666 403.712 273.742 403.712C272.482 403.712 271.582 404.516 271.582 405.584C271.582 407.708 274.474 407.312 274.474 408.368C274.474 408.728 274.222 409.016 273.73 409.016C273.154 409.016 272.71 408.68 272.338 408.212L271.33 409.124ZM279.983 408.8C278.963 408.8 278.231 408.044 278.231 406.976C278.231 405.92 278.963 405.152 279.959 405.152C280.583 405.152 281.063 405.428 281.351 405.848L282.539 404.936C281.975 404.192 281.087 403.712 279.983 403.712C277.895 403.712 276.647 405.212 276.647 406.976C276.647 408.74 277.895 410.24 279.983 410.24C281.087 410.24 281.975 409.76 282.539 409.016L281.351 408.104C281.063 408.524 280.583 408.8 279.983 408.8ZM284.205 402.896C284.745 402.896 285.189 402.44 285.189 401.9C285.189 401.36 284.745 400.904 284.205 400.904C283.665 400.904 283.209 401.36 283.209 401.9C283.209 402.44 283.665 402.896 284.205 402.896ZM283.437 410H284.961V403.952H283.437V410ZM292.117 409.016L291.025 408.152C290.701 408.584 290.125 408.872 289.465 408.872C288.517 408.872 287.821 408.416 287.677 407.288H291.913C291.961 407.084 292.009 406.772 292.009 406.436C292.009 404.852 290.905 403.712 289.225 403.712C287.245 403.712 286.117 405.188 286.117 406.976C286.117 408.74 287.329 410.24 289.477 410.24C290.617 410.24 291.553 409.772 292.117 409.016ZM289.189 404.96C290.041 404.96 290.485 405.572 290.509 406.184H287.725C287.893 405.392 288.409 404.96 289.189 404.96ZM293.258 410H294.782V406.052C295.01 405.668 295.418 405.152 296.186 405.152C296.93 405.152 297.386 405.656 297.386 406.46V410H298.922V406.4C298.922 404.612 297.878 403.712 296.57 403.712C295.766 403.712 295.202 404.024 294.782 404.432V403.952H293.258V410ZM300.796 407.792C300.796 409.268 301.516 410.12 303.028 410.12C303.532 410.12 303.892 410.06 304.192 409.928V408.596C303.988 408.68 303.712 408.728 303.292 408.728C302.692 408.728 302.332 408.464 302.332 407.792V405.32H304.18V403.952H302.332V402.44H300.796V403.952H299.668V405.32H300.796V407.792ZM306.073 402.896C306.613 402.896 307.057 402.44 307.057 401.9C307.057 401.36 306.613 400.904 306.073 400.904C305.533 400.904 305.077 401.36 305.077 401.9C305.077 402.44 305.533 402.896 306.073 402.896ZM305.305 410H306.829V403.952H305.305V410ZM307.673 403.952V405.32H308.801V410H310.337V405.32H312.185V403.952H310.337V403.28C310.337 402.728 310.673 402.368 311.189 402.368C311.501 402.368 311.741 402.476 311.921 402.608L312.569 401.336C312.185 401.132 311.717 401 311.165 401C309.653 401 308.801 402.032 308.801 403.316V403.952H307.673ZM313.855 402.896C314.395 402.896 314.839 402.44 314.839 401.9C314.839 401.36 314.395 400.904 313.855 400.904C313.315 400.904 312.859 401.36 312.859 401.9C312.859 402.44 313.315 402.896 313.855 402.896ZM313.087 410H314.611V403.952H313.087V410ZM315.766 406.976C315.766 408.74 316.918 410.24 318.838 410.24C319.654 410.24 320.242 409.976 320.71 409.508V412.952H322.246V403.952H320.71V404.444C320.242 403.976 319.654 403.712 318.838 403.712C316.918 403.712 315.766 405.212 315.766 406.976ZM317.35 406.976C317.35 405.92 318.01 405.152 319.042 405.152C319.726 405.152 320.302 405.452 320.71 406.016V407.936C320.338 408.488 319.75 408.8 319.042 408.8C318.01 408.8 317.35 408.032 317.35 406.976ZM327.817 407.384C327.817 408.26 327.361 408.8 326.533 408.8C325.693 408.8 325.237 408.26 325.237 407.384V403.952H323.701V407.312C323.701 409.124 324.745 410.24 326.521 410.24C328.297 410.24 329.353 409.124 329.353 407.312V403.952H327.817V407.384ZM336.368 409.016L335.276 408.152C334.952 408.584 334.376 408.872 333.716 408.872C332.768 408.872 332.072 408.416 331.928 407.288H336.164C336.212 407.084 336.26 406.772 336.26 406.436C336.26 404.852 335.156 403.712 333.476 403.712C331.496 403.712 330.368 405.188 330.368 406.976C330.368 408.74 331.58 410.24 333.728 410.24C334.868 410.24 335.804 409.772 336.368 409.016ZM333.44 404.96C334.292 404.96 334.736 405.572 334.76 406.184H331.976C332.144 405.392 332.66 404.96 333.44 404.96ZM336.9 409.124C337.476 409.808 338.244 410.24 339.324 410.24C340.464 410.24 341.484 409.544 341.508 408.272C341.508 406.184 338.616 406.544 338.616 405.512C338.616 405.2 338.844 404.936 339.324 404.936C339.792 404.936 340.188 405.248 340.5 405.632L341.508 404.744C341.076 404.156 340.236 403.712 339.312 403.712C338.052 403.712 337.152 404.516 337.152 405.584C337.152 407.708 340.044 407.312 340.044 408.368C340.044 408.728 339.792 409.016 339.3 409.016C338.724 409.016 338.28 408.68 337.908 408.212L336.9 409.124Z" fill="#26283F"/>
<path d="M214.875 222.375V213H247.375C247.375 238.872 247.375 253.378 247.375 279.25H205.5M214.875 234.25C214.875 234.25 231.362 234.25 241.125 234.25M214.875 238L241.125 238M214.875 241.75L241.125 241.75M214.875 245.5C214.875 245.5 231.362 245.5 241.125 245.5M214.875 249.25C214.875 249.25 227.553 249.25 234.875 249.25M214.875 255.5H241.125M214.875 259.25C214.875 259.25 231.362 259.25 241.125 259.25M168 259.25V262.375C168 266.517 171.358 269.875 175.5 269.875H200.5M168 254.25V257.375C168 261.517 171.358 264.875 175.5 264.875C175.5 264.875 175.5 264.875 175.5 264.875C175.5 264.875 193.178 264.875 200.5 264.875M175.5 229.25C175.5 229.25 196.362 229.25 206.125 229.25M175.5 233L206.125 233M175.5 236.75L206.125 236.75M175.5 240.5C175.5 240.5 196.362 240.5 206.125 240.5M175.5 244.25C175.5 244.25 192.553 244.25 199.875 244.25M175.5 250.5H206.125M175.5 254.25C175.5 254.25 196.362 254.25 206.125 254.25M214.875 220.5H225.5C225.5 223.429 225.5 225.071 225.5 228H214.875V220.5ZM168 208H214.875C214.875 233.872 214.875 248.378 214.875 274.25H173C170.239 274.25 168 272.011 168 269.25V208ZM204.25 274.25L214.25 264.25H204.25V274.25ZM175.5 215.5H190.5C190.5 218.429 190.5 220.071 190.5 223H175.5V215.5Z" stroke="black" stroke-linecap="round" stroke-linejoin="round"/>
<rect x="126" y="143" width="63" height="32" rx="10" fill="#A677BC"/>
<path d="M136.534 167H140.45V160.928H147.028V167H150.944V151.6H147.028V157.386H140.45V151.6H136.534V167ZM152.761 167H156.919L158.173 163.37H163.629L164.883 167H169.041L163.453 151.6H158.349L152.761 167ZM159.317 160.07L160.901 155.538L162.485 160.07H159.317ZM170.866 167H180.37V163.458H174.782V151.6H170.866V167Z" fill="white"/>
<rect x="126" y="143" width="63" height="32" rx="10" stroke="black"/>
<rect x="236" y="163" width="102" height="32" rx="10" fill="#A677BC"/>
<path d="M246.134 187H250.05V181.17H251.634C255.242 181.17 257.464 179.388 257.464 176.396C257.464 173.382 255.242 171.6 251.634 171.6H246.134V187ZM251.854 174.834C252.844 174.834 253.416 175.472 253.416 176.352C253.416 177.298 252.844 177.936 251.854 177.936H250.05V174.834H251.854ZM265.844 182.182C265.844 183.348 265.25 184.162 263.996 184.162C262.698 184.162 262.126 183.348 262.126 182.182V175.912H258.606V181.984C258.606 185.306 260.52 187.44 263.974 187.44C267.384 187.44 269.364 185.306 269.364 181.984V175.912H265.844V182.182ZM283.722 181.456C283.722 178.222 281.676 175.472 278.134 175.472C276.77 175.472 275.802 175.846 275.054 176.528V170.5H271.556V187H275.054V186.384C275.802 187.066 276.77 187.44 278.134 187.44C281.676 187.44 283.722 184.69 283.722 181.456ZM277.628 178.75C279.168 178.75 280.114 179.828 280.114 181.456C280.114 183.084 279.168 184.162 277.628 184.162C276.55 184.162 275.714 183.7 275.054 182.864V180.048C275.648 179.234 276.506 178.75 277.628 178.75ZM286.171 187H290.087V177.1L292.727 181.72H295.389L298.029 177.1V187H301.945V171.6H297.105L294.047 177.1L291.011 171.6H286.171V187ZM315.33 185.218L312.866 183.26C312.36 183.898 311.436 184.316 310.38 184.316C309.06 184.316 308.092 183.92 307.762 182.424H314.934C315.044 182.028 315.154 181.324 315.154 180.576C315.154 177.562 313.086 175.472 309.94 175.472C306.178 175.472 304.176 178.244 304.176 181.456C304.176 184.69 306.332 187.44 310.402 187.44C312.536 187.44 314.274 186.604 315.33 185.218ZM309.852 178.288C311.15 178.288 311.722 179.212 311.766 179.96H307.784C308.048 178.838 308.73 178.288 309.852 178.288ZM316.326 181.456C316.326 184.69 318.394 187.44 321.914 187.44C323.278 187.44 324.224 187.066 324.972 186.406V187H328.492V170.5H324.972V176.506C324.224 175.846 323.278 175.472 321.914 175.472C318.394 175.472 316.326 178.222 316.326 181.456ZM319.956 181.456C319.956 179.828 320.88 178.75 322.42 178.75C323.498 178.75 324.334 179.19 324.972 180.026V182.886C324.334 183.722 323.498 184.162 322.42 184.162C320.88 184.162 319.956 183.084 319.956 181.456Z" fill="white"/>
<rect x="236" y="163" width="102" height="32" rx="10" stroke="black"/>
<rect x="284" y="216" width="108" height="32" rx="10" fill="#A677BC"/>
<path d="M301.064 236.766C298.6 236.766 296.84 234.896 296.84 232.3C296.84 229.726 298.6 227.834 301.064 227.834C302.604 227.834 303.77 228.582 304.496 229.638L307.598 227.262C306.168 225.392 303.88 224.16 301.064 224.16C296.158 224.16 292.814 227.9 292.814 232.3C292.814 236.7 296.158 240.44 301.064 240.44C303.88 240.44 306.168 239.208 307.598 237.316L304.496 234.962C303.77 236.018 302.582 236.766 301.064 236.766ZM308.974 240H312.472V233.268C312.692 232.894 313.528 232.146 314.804 232.146C315.376 232.146 315.794 232.212 316.168 232.3V228.846C315.904 228.758 315.552 228.692 315.156 228.692C314.012 228.692 313.154 229.176 312.472 229.814V228.912H308.974V240ZM320.254 240.33C321.42 240.33 322.674 239.846 323.29 239.164V240H326.766V233.004C326.766 230.584 325.138 228.472 321.618 228.472C319.55 228.472 317.856 229.308 316.844 230.716L319.396 232.652C319.902 231.926 320.584 231.486 321.508 231.486C322.542 231.486 323.268 232.124 323.29 232.96L320.166 233.488C317.746 233.884 316.448 235.182 316.448 236.876C316.448 239.032 318.01 240.33 320.254 240.33ZM319.902 236.7C319.902 236.194 320.21 235.864 321.112 235.71L323.29 235.336V236.436C322.85 237.096 322.146 237.624 321.024 237.624C320.342 237.624 319.902 237.272 319.902 236.7ZM328.073 228.912L330.625 240H335.443L337.159 232.63L338.875 240H343.715L346.245 228.912H342.813L341.163 235.996L339.513 228.912H334.827L333.155 236.04L331.505 228.912H328.073ZM347.658 240H351.156V223.5H347.658V240ZM355.36 227.702C356.526 227.702 357.538 226.668 357.538 225.48C357.538 224.292 356.526 223.28 355.36 223.28C354.15 223.28 353.138 224.292 353.138 225.48C353.138 226.668 354.15 227.702 355.36 227.702ZM353.578 240H357.076V228.912H353.578V240ZM359.497 240H362.995V233.092C363.215 232.718 363.765 231.75 364.997 231.75C366.119 231.75 366.713 232.52 366.713 233.642V240H370.233V233.488C370.233 230.122 368.297 228.472 365.943 228.472C364.645 228.472 363.721 228.912 362.995 229.528V228.912H359.497V240ZM371.603 241.892C371.603 244.312 373.649 245.5 377.389 245.5C380.931 245.5 383.285 243.476 383.285 240.924C383.285 238.812 381.657 237.228 378.973 237.228H376.443C376.091 237.228 375.849 237.096 375.849 236.7C375.849 236.546 375.915 236.392 376.047 236.26C376.245 236.282 376.443 236.282 376.663 236.282C379.633 236.282 381.261 234.588 381.261 232.366C381.261 232.19 381.261 232.014 381.239 231.838H382.977V228.912H378.995C378.357 228.626 377.565 228.472 376.663 228.472C373.759 228.472 372.109 230.166 372.109 232.366C372.109 233.598 372.615 234.676 373.583 235.402C372.747 236.04 372.439 236.744 372.439 237.646C372.439 238.196 372.659 238.768 373.055 239.252C372.131 239.934 371.603 240.814 371.603 241.892ZM376.685 233.73C375.827 233.73 375.233 233.268 375.233 232.366C375.233 231.486 375.827 231.024 376.685 231.024C377.543 231.024 378.159 231.464 378.159 232.366C378.159 233.268 377.543 233.73 376.685 233.73ZM374.859 241.364C374.859 240.836 375.057 240.484 375.299 240.198H378.533C379.413 240.198 379.853 240.638 379.853 241.298C379.853 242.134 379.127 242.75 377.345 242.75C375.585 242.75 374.859 242.222 374.859 241.364Z" fill="white"/>
<rect x="284" y="216" width="108" height="32" rx="10" stroke="black"/>
<rect x="62.5" y="283.5" width="95" height="27" rx="7.5" fill="#ECCDFB"/>
<path d="M77.744 298.776C77.744 299.928 77.088 300.648 75.92 300.648C74.736 300.648 74.08 299.928 74.08 298.776V291.8H71.232V298.504C71.232 301.48 72.96 303.32 75.904 303.32C78.864 303.32 80.592 301.48 80.592 298.504V291.8H77.744V298.776ZM82.3919 303H84.9359V297.976C85.0959 297.704 85.4959 297 86.3919 297C87.2079 297 87.6399 297.56 87.6399 298.376V303H90.1999V298.264C90.1999 295.816 88.7919 294.616 87.0799 294.616C86.1359 294.616 85.4639 294.936 84.9359 295.384V294.936H82.3919V303ZM91.8844 306.936H94.4284V302.552C94.9724 303.048 95.6764 303.32 96.6684 303.32C99.2444 303.32 100.732 301.32 100.732 298.968C100.732 296.616 99.2444 294.616 96.6684 294.616C95.6764 294.616 94.9724 294.888 94.4284 295.384V294.936H91.8844V306.936ZM96.3004 297C97.4204 297 98.1084 297.784 98.1084 298.968C98.1084 300.152 97.4204 300.936 96.3004 300.936C95.5004 300.936 94.9084 300.6 94.4284 299.976V297.96C94.8764 297.352 95.4844 297 96.3004 297ZM104.104 303.24C104.952 303.24 105.864 302.888 106.312 302.392V303H108.84V297.912C108.84 296.152 107.656 294.616 105.096 294.616C103.592 294.616 102.36 295.224 101.624 296.248L103.48 297.656C103.848 297.128 104.344 296.808 105.016 296.808C105.768 296.808 106.296 297.272 106.312 297.88L104.04 298.264C102.28 298.552 101.336 299.496 101.336 300.728C101.336 302.296 102.472 303.24 104.104 303.24ZM103.848 300.6C103.848 300.232 104.072 299.992 104.728 299.88L106.312 299.608V300.408C105.992 300.888 105.48 301.272 104.664 301.272C104.168 301.272 103.848 301.016 103.848 300.6ZM114.624 304.744L118.56 294.936H115.888L114 299.656L112.16 294.936H109.344L112.656 303L112.352 303.768C112.08 304.44 111.712 304.696 110.912 304.696C110.592 304.696 110.192 304.616 109.952 304.536V306.728C110.384 306.904 110.816 307 111.504 307C113.184 307 114.08 306.088 114.624 304.744ZM118.642 294.936L120.498 303H124.002L125.25 297.64L126.498 303H130.018L131.858 294.936H129.362L128.162 300.088L126.962 294.936H123.554L122.338 300.12L121.138 294.936H118.642ZM135.065 303.24C135.913 303.24 136.825 302.888 137.273 302.392V303H139.801V297.912C139.801 296.152 138.617 294.616 136.057 294.616C134.553 294.616 133.321 295.224 132.585 296.248L134.441 297.656C134.809 297.128 135.305 296.808 135.977 296.808C136.729 296.808 137.257 297.272 137.273 297.88L135.001 298.264C133.241 298.552 132.297 299.496 132.297 300.728C132.297 302.296 133.433 303.24 135.065 303.24ZM134.809 300.6C134.809 300.232 135.033 299.992 135.689 299.88L137.273 299.608V300.408C136.953 300.888 136.441 301.272 135.625 301.272C135.129 301.272 134.809 301.016 134.809 300.6ZM141.488 303H144.032V291H141.488V303ZM145.793 303H148.337V291H145.793V303Z" fill="black"/>
<rect x="62.5" y="283.5" width="95" height="27" rx="7.5" stroke="black"/>
<rect x="78.4199" y="244.5" width="59" height="27" rx="7.5" fill="#ECCDFB"/>
<path d="M87.4719 264H91.9519C95.5199 264 97.9519 261.424 97.9519 258.4C97.9519 255.376 95.5199 252.8 91.9519 252.8H87.4719V264ZM91.9679 255.376C93.7279 255.376 95.0079 256.656 95.0079 258.4C95.0079 260.128 93.7279 261.424 91.9679 261.424H90.3199V255.376H91.9679ZM105.129 252.48C101.561 252.48 99.1294 255.2 99.1294 258.4C99.1294 261.6 101.561 264.32 105.129 264.32C108.681 264.32 111.113 261.6 111.113 258.4C111.113 255.2 108.681 252.48 105.129 252.48ZM105.129 261.648C103.337 261.648 102.057 260.288 102.057 258.4C102.057 256.528 103.337 255.152 105.129 255.152C106.905 255.152 108.185 256.512 108.185 258.4C108.185 260.272 106.905 261.648 105.129 261.648ZM111.251 264H114.275L115.187 261.36H119.155L120.067 264H123.091L119.027 252.8H115.315L111.251 264ZM116.019 258.96L117.171 255.664L118.323 258.96H116.019ZM127.739 262.96V252.8H124.891V263.12C124.891 263.952 124.523 264.4 123.563 264.4C123.339 264.4 123.163 264.384 123.019 264.352V266.864C123.259 266.912 123.595 266.912 124.011 266.912C126.603 266.912 127.739 265.504 127.739 262.96Z" fill="black"/>
<rect x="78.4199" y="244.5" width="59" height="27" rx="7.5" stroke="black"/>
<rect x="58.5" y="204.5" width="91" height="27" rx="7.5" fill="#ECCDFB"/>
<path d="M73.1057 212.48C69.5377 212.48 67.1057 215.2 67.1057 218.4C67.1057 221.6 69.5377 224.32 73.1057 224.32C76.6577 224.32 79.0897 221.6 79.0897 218.4C79.0897 215.2 76.6577 212.48 73.1057 212.48ZM73.1057 221.648C71.3137 221.648 70.0337 220.288 70.0337 218.4C70.0337 216.528 71.3137 215.152 73.1057 215.152C74.8817 215.152 76.1617 216.512 76.1617 218.4C76.1617 220.272 74.8817 221.648 73.1057 221.648ZM80.4056 227.936H82.9496V223.552C83.4936 224.048 84.1976 224.32 85.1896 224.32C87.7656 224.32 89.2536 222.32 89.2536 219.968C89.2536 217.616 87.7656 215.616 85.1896 215.616C84.1976 215.616 83.4936 215.888 82.9496 216.384V215.936H80.4056V227.936ZM84.8216 218C85.9416 218 86.6296 218.784 86.6296 219.968C86.6296 221.152 85.9416 221.936 84.8216 221.936C84.0216 221.936 83.4296 221.6 82.9496 220.976V218.96C83.3976 218.352 84.0056 218 84.8216 218ZM98.2332 222.704L96.4412 221.28C96.0732 221.744 95.4012 222.048 94.6332 222.048C93.6732 222.048 92.9692 221.76 92.7292 220.672H97.9452C98.0252 220.384 98.1052 219.872 98.1052 219.328C98.1052 217.136 96.6012 215.616 94.3132 215.616C91.5772 215.616 90.1212 217.632 90.1212 219.968C90.1212 222.32 91.6892 224.32 94.6492 224.32C96.2012 224.32 97.4652 223.712 98.2332 222.704ZM94.2492 217.664C95.1932 217.664 95.6092 218.336 95.6412 218.88H92.7452C92.9372 218.064 93.4332 217.664 94.2492 217.664ZM99.5156 224H102.06V218.976C102.22 218.704 102.62 218 103.516 218C104.332 218 104.764 218.56 104.764 219.376V224H107.324V219.264C107.324 216.816 105.916 215.616 104.204 215.616C103.26 215.616 102.588 215.936 102.06 216.384V215.936H99.5156V224ZM108.705 224H111.729L112.641 221.36H116.609L117.521 224H120.545L116.481 212.8H112.769L108.705 224ZM113.473 218.96L114.625 215.664L115.777 218.96H113.473ZM121.872 224H124.72V219.76H125.872C128.496 219.76 130.112 218.464 130.112 216.288C130.112 214.096 128.496 212.8 125.872 212.8H121.872V224ZM126.032 215.152C126.752 215.152 127.168 215.616 127.168 216.256C127.168 216.944 126.752 217.408 126.032 217.408H124.72V215.152H126.032ZM136.967 221.648C135.175 221.648 133.895 220.288 133.895 218.4C133.895 216.528 135.175 215.152 136.967 215.152C138.087 215.152 138.935 215.696 139.463 216.464L141.719 214.736C140.679 213.376 139.015 212.48 136.967 212.48C133.399 212.48 130.967 215.2 130.967 218.4C130.967 221.6 133.399 224.32 136.967 224.32C139.015 224.32 140.679 223.424 141.719 222.048L139.463 220.336C138.935 221.104 138.071 221.648 136.967 221.648Z" fill="black"/>
<rect x="58.5" y="204.5" width="91" height="27" rx="7.5" stroke="black"/>
<rect x="231.8" y="311" width="59" height="28" rx="10" fill="#A677BC"/>
<path d="M242.351 333H246.267V327.17H247.851C251.459 327.17 253.681 325.388 253.681 322.396C253.681 319.382 251.459 317.6 247.851 317.6H242.351V333ZM248.071 320.834C249.061 320.834 249.633 321.472 249.633 322.352C249.633 323.298 249.061 323.936 248.071 323.936H246.267V320.834H248.071ZM255.747 333H261.907C266.813 333 270.157 329.458 270.157 325.3C270.157 321.142 266.813 317.6 261.907 317.6H255.747V333ZM261.929 321.142C264.349 321.142 266.109 322.902 266.109 325.3C266.109 327.676 264.349 329.458 261.929 329.458H259.663V321.142H261.929ZM272.666 333H276.582V326.774H281.29V323.54H276.582V320.834H282.17V317.6H272.666V333Z" fill="white"/>
<rect x="231.8" y="311" width="59" height="28" rx="10" stroke="black"/>
<rect x="277" y="273" width="102" height="32" rx="10" fill="#A677BC"/>
<path d="M294.07 293.766C291.606 293.766 289.846 291.896 289.846 289.3C289.846 286.726 291.606 284.834 294.07 284.834C295.61 284.834 296.776 285.582 297.502 286.638L300.604 284.262C299.174 282.392 296.886 281.16 294.07 281.16C289.164 281.16 285.82 284.9 285.82 289.3C285.82 293.7 289.164 297.44 294.07 297.44C296.886 297.44 299.174 296.208 300.604 294.316L297.502 291.962C296.776 293.018 295.588 293.766 294.07 293.766ZM301.98 297H305.478V290.268C305.698 289.894 306.534 289.146 307.81 289.146C308.382 289.146 308.8 289.212 309.174 289.3V285.846C308.91 285.758 308.558 285.692 308.162 285.692C307.018 285.692 306.16 286.176 305.478 286.814V285.912H301.98V297ZM315.762 285.472C312.11 285.472 309.624 288.068 309.624 291.456C309.624 294.844 312.11 297.44 315.762 297.44C319.392 297.44 321.878 294.844 321.878 291.456C321.878 288.068 319.392 285.472 315.762 285.472ZM315.784 294.162C314.332 294.162 313.254 293.106 313.254 291.456C313.254 289.806 314.332 288.75 315.784 288.75C317.192 288.75 318.27 289.784 318.27 291.456C318.27 293.084 317.192 294.162 315.784 294.162ZM322.394 295.328C323.516 296.604 324.924 297.44 327.058 297.44C329.192 297.44 331.238 296.164 331.282 293.656C331.282 289.784 326.156 290.356 326.156 288.926C326.156 288.552 326.442 288.244 327.058 288.244C327.85 288.244 328.51 288.838 329.038 289.454L331.326 287.408C330.49 286.33 328.818 285.472 327.058 285.472C324.616 285.472 322.834 286.99 322.834 289.102C322.834 292.996 327.96 292.38 327.96 293.898C327.96 294.338 327.652 294.668 327.014 294.668C326.024 294.668 325.276 294.008 324.682 293.238L322.394 295.328ZM332.008 295.328C333.13 296.604 334.538 297.44 336.672 297.44C338.806 297.44 340.852 296.164 340.896 293.656C340.896 289.784 335.77 290.356 335.77 288.926C335.77 288.552 336.056 288.244 336.672 288.244C337.464 288.244 338.124 288.838 338.652 289.454L340.94 287.408C340.104 286.33 338.432 285.472 336.672 285.472C334.23 285.472 332.448 286.99 332.448 289.102C332.448 292.996 337.574 292.38 337.574 293.898C337.574 294.338 337.266 294.668 336.628 294.668C335.638 294.668 334.89 294.008 334.296 293.238L332.008 295.328ZM342.652 297H346.15V290.268C346.37 289.894 347.206 289.146 348.482 289.146C349.054 289.146 349.472 289.212 349.846 289.3V285.846C349.582 285.758 349.23 285.692 348.834 285.692C347.69 285.692 346.832 286.176 346.15 286.814V285.912H342.652V297ZM361.45 295.218L358.986 293.26C358.48 293.898 357.556 294.316 356.5 294.316C355.18 294.316 354.212 293.92 353.882 292.424H361.054C361.164 292.028 361.274 291.324 361.274 290.576C361.274 287.562 359.206 285.472 356.06 285.472C352.298 285.472 350.296 288.244 350.296 291.456C350.296 294.69 352.452 297.44 356.522 297.44C358.656 297.44 360.394 296.604 361.45 295.218ZM355.972 288.288C357.27 288.288 357.842 289.212 357.886 289.96H353.904C354.168 288.838 354.85 288.288 355.972 288.288ZM361.915 285.912V289.036H363.983V297H367.503V289.036H370.539V285.912H367.503V284.79C367.503 284.108 367.943 283.624 368.669 283.624C369.175 283.624 369.571 283.822 369.813 284.02L371.287 281.094C370.495 280.72 369.615 280.5 368.603 280.5C365.567 280.5 363.983 282.546 363.983 284.9V285.912H361.915Z" fill="white"/>
<rect x="277" y="273" width="102" height="32" rx="10" stroke="black"/>
<path d="M160 297.5H176C181.523 297.5 186 293.023 186 287.5V282.5M186 282.5L189 285.5M186 282.5L183 285.5" stroke="black"/>
<path d="M274 295H241.5C238.739 295 236.5 292.761 236.5 290V284.5M236.5 284.5L240 288M236.5 284.5L233 288" stroke="black"/>
<path d="M219 284.5V321.5C219 327.023 223.477 331.5 229 331.5H231M219 284.5L222.5 288M219 284.5L215.5 288" stroke="black"/>
<path d="M230.5 178H216C210.477 178 206 182.477 206 188V202M206 202L209 199M206 202L203 199" stroke="black"/>
<path d="M179.5 178V202M179.5 202L176.5 199M179.5 202L182.5 199" stroke="black"/>
<path d="M139.5 257H164M164 257L161 260M164 257L161 254" stroke="black"/>
<path d="M152.5 217H164M164 217L161 220M164 217L161 214" stroke="black"/>
<g style="mix-blend-mode:multiply">
<rect x="20" y="110" width="145" height="16" fill="#A677BC"/>
</g>
<path d="M20.72 123H22.1L23.228 116.532L24.692 120.12H25.7L28.412 116.544L27.284 123H28.664L30.14 114.6H28.328L25.424 118.464L23.876 114.6H22.196L20.72 123ZM34.8117 115.992L36.5517 114H35.1357L33.5757 115.992H34.8117ZM33.4677 123.24C34.5957 123.24 35.5677 122.784 36.2037 122.04L35.3757 121.248C34.9677 121.776 34.3077 122.124 33.5517 122.124C32.4477 122.124 31.8357 121.464 31.8357 120.348C31.8357 120.276 31.8357 120.192 31.8477 120.12H36.2397C36.3597 119.82 36.4437 119.364 36.4437 119.016C36.4437 117.684 35.3757 116.712 33.9117 116.712C31.8117 116.712 30.5637 118.368 30.5637 120.348C30.5637 121.992 31.6077 123.24 33.4677 123.24ZM33.8877 117.744C34.8717 117.744 35.3157 118.476 35.2197 119.196H32.0037C32.2917 118.344 32.9157 117.744 33.8877 117.744ZM37.7705 120.708C37.4825 122.376 38.1545 123.12 39.5345 123.12C39.9665 123.12 40.2665 123.048 40.5665 122.928L40.7585 121.836C40.5305 121.908 40.2185 121.98 39.8705 121.98C39.2105 121.98 38.8505 121.716 39.0065 120.804L39.4865 118.068H41.4185L41.6105 116.952H39.6905L39.9545 115.44H38.7065L38.4425 116.952H37.3385L37.1345 118.068H38.2385L37.7705 120.708ZM43.4607 123.18C44.2047 123.18 44.8287 122.904 45.2607 122.424L45.1647 123H46.4007L47.0607 119.292C47.3367 117.768 46.5927 116.712 44.8767 116.712C43.7727 116.712 42.8727 117.216 42.3327 117.864L43.2207 118.608C43.6527 118.128 44.1927 117.804 44.8047 117.804C45.5727 117.804 45.9927 118.272 45.8607 119.04L45.8127 119.292L43.7247 119.64C42.2607 119.892 41.5887 120.636 41.5887 121.596C41.5887 122.616 42.3687 123.18 43.4607 123.18ZM42.8607 121.452C42.8607 120.984 43.1967 120.612 43.9767 120.48L45.6567 120.192L45.4647 121.296C45.0567 121.848 44.4687 122.172 43.7727 122.172C43.1727 122.172 42.8607 121.884 42.8607 121.452ZM48.0194 120.396C48.0194 122.064 48.9314 123.24 50.6714 123.24C51.3914 123.24 52.0274 122.964 52.5914 122.46L52.4954 123H53.7434L55.3274 114H54.0794L53.4434 117.6C52.9514 117.036 52.2194 116.712 51.3794 116.712C49.3634 116.7 48.0194 118.452 48.0194 120.396ZM49.3274 120.324C49.3274 118.968 50.1914 117.876 51.4754 117.876C52.2794 117.876 52.8674 118.296 53.1914 119.028L52.8194 121.14C52.3634 121.776 51.7154 122.076 51.0314 122.076C49.9634 122.076 49.3274 121.32 49.3274 120.324ZM58.9961 116.712C56.8121 116.712 55.4081 118.428 55.4081 120.348C55.4081 121.992 56.5001 123.24 58.3481 123.24C60.5201 123.24 61.9241 121.524 61.9241 119.604C61.9241 117.96 60.8321 116.712 58.9961 116.712ZM58.3841 122.076C57.3761 122.076 56.7161 121.332 56.7161 120.348C56.7161 119.052 57.5921 117.876 58.9481 117.876C59.9441 117.876 60.6161 118.62 60.6161 119.604C60.6161 120.9 59.7401 122.076 58.3841 122.076ZM62.5506 123H63.7866L64.5066 118.908L64.5186 118.92C64.8906 118.356 65.4786 117.876 66.2226 117.876C67.0626 117.876 67.4826 118.452 67.3146 119.412L66.6786 123H67.9146L68.5626 119.364C68.8626 117.612 67.9986 116.712 66.6306 116.712C65.8626 116.712 65.2626 117.036 64.7586 117.504L64.8546 116.952H63.6186L62.5506 123ZM69.5059 123H70.7419L71.4619 118.908L71.4739 118.92C71.8459 118.356 72.4339 117.876 73.1779 117.876C74.0179 117.876 74.4379 118.452 74.2699 119.412L73.6339 123H74.8699L75.5179 119.364C75.8179 117.612 74.9539 116.712 73.5859 116.712C72.8179 116.712 72.2179 117.036 71.7139 117.504L71.8099 116.952H70.5739L69.5059 123ZM80.7332 115.992L82.4732 114H81.0572L79.4972 115.992H80.7332ZM79.3892 123.24C80.5172 123.24 81.4892 122.784 82.1252 122.04L81.2972 121.248C80.8892 121.776 80.2292 122.124 79.4732 122.124C78.3692 122.124 77.7572 121.464 77.7572 120.348C77.7572 120.276 77.7572 120.192 77.7692 120.12H82.1612C82.2812 119.82 82.3652 119.364 82.3652 119.016C82.3652 117.684 81.2972 116.712 79.8332 116.712C77.7332 116.712 76.4852 118.368 76.4852 120.348C76.4852 121.992 77.5292 123.24 79.3892 123.24ZM79.8092 117.744C80.7932 117.744 81.2372 118.476 81.1412 119.196H77.9252C78.2132 118.344 78.8372 117.744 79.8092 117.744ZM85.8875 123.24C87.0155 123.24 87.9875 122.784 88.6235 122.04L87.7955 121.248C87.3875 121.776 86.7275 122.124 85.9715 122.124C84.8675 122.124 84.2555 121.464 84.2555 120.348C84.2555 120.276 84.2555 120.192 84.2675 120.12H88.6595C88.7795 119.82 88.8635 119.364 88.8635 119.016C88.8635 117.684 87.7955 116.712 86.3315 116.712C84.2315 116.712 82.9835 118.368 82.9835 120.348C82.9835 121.992 84.0275 123.24 85.8875 123.24ZM86.3075 117.744C87.2915 117.744 87.7355 118.476 87.6395 119.196H84.4235C84.7115 118.344 85.3355 117.744 86.3075 117.744ZM91.0915 118.512C91.0915 118.104 91.4635 117.72 92.0035 117.72C92.5315 117.72 92.8915 118.044 93.1315 118.5L94.0435 117.816C93.7075 117.192 92.9515 116.712 92.0395 116.712C90.7195 116.712 89.8915 117.576 89.8915 118.572C89.8915 120.408 92.2315 120.264 92.2315 121.356C92.2315 121.848 91.8715 122.232 91.3195 122.232C90.7555 122.232 90.2875 121.932 89.9155 121.356L89.0155 122.04C89.4835 122.796 90.2875 123.24 91.2595 123.24C92.6395 123.24 93.4435 122.28 93.4435 121.296C93.4435 119.472 91.0915 119.604 91.0915 118.512ZM97.369 120.396C97.369 122.064 98.281 123.24 100.021 123.24C100.741 123.24 101.377 122.964 101.941 122.46L101.845 123H103.093L104.677 114H103.429L102.793 117.6C102.301 117.036 101.569 116.712 100.729 116.712C98.713 116.7 97.369 118.452 97.369 120.396ZM98.677 120.324C98.677 118.968 99.541 117.876 100.825 117.876C101.629 117.876 102.217 118.296 102.541 119.028L102.169 121.14C101.713 121.776 101.065 122.076 100.381 122.076C99.313 122.076 98.677 121.32 98.677 120.324ZM106.328 117.924L108.188 114.6H106.736L105.128 117.924H106.328ZM109.118 123.18C109.862 123.18 110.486 122.904 110.918 122.424L110.822 123H112.058L112.718 119.292C112.994 117.768 112.25 116.712 110.534 116.712C109.43 116.712 108.53 117.216 107.99 117.864L108.878 118.608C109.31 118.128 109.85 117.804 110.462 117.804C111.23 117.804 111.65 118.272 111.518 119.04L111.47 119.292L109.382 119.64C107.918 119.892 107.246 120.636 107.246 121.596C107.246 122.616 108.026 123.18 109.118 123.18ZM108.518 121.452C108.518 120.984 108.854 120.612 109.634 120.48L111.314 120.192L111.122 121.296C110.714 121.848 110.126 122.172 109.43 122.172C108.83 122.172 108.518 121.884 108.518 121.452ZM113.976 116.952L113.772 118.068H114.876L113.496 125.952H114.756L116.136 118.068H118.056L118.248 116.952H116.328L116.46 116.184C116.58 115.476 117.012 115.116 117.552 115.116C117.876 115.116 118.128 115.236 118.332 115.392L118.992 114.42C118.656 114.192 118.188 114 117.54 114C116.316 114 115.464 114.744 115.212 116.184L115.08 116.952H113.976ZM118.564 116.952L118.36 118.068H119.464L118.084 125.952H119.344L120.724 118.068H122.644L122.836 116.952H120.916L121.048 116.184C121.168 115.476 121.6 115.116 122.14 115.116C122.464 115.116 122.716 115.236 122.92 115.392L123.58 114.42C123.244 114.192 122.776 114 122.128 114C120.904 114 120.052 114.744 119.8 116.184L119.668 116.952H118.564ZM124.729 115.608C125.173 115.608 125.557 115.224 125.557 114.768C125.557 114.312 125.173 113.928 124.729 113.928C124.261 113.928 123.877 114.312 123.877 114.768C123.877 115.224 124.261 115.608 124.729 115.608ZM122.653 123H123.889L124.957 116.952H123.721L122.653 123ZM125.577 123H126.825L128.409 114H127.173L125.577 123ZM130.577 115.608C131.021 115.608 131.405 115.224 131.405 114.768C131.405 114.312 131.021 113.928 130.577 113.928C130.109 113.928 129.725 114.312 129.725 114.768C129.725 115.224 130.109 115.608 130.577 115.608ZM128.501 123H129.737L130.805 116.952H129.569L128.501 123ZM133.201 123.18C133.945 123.18 134.569 122.904 135.001 122.424L134.905 123H136.141L136.801 119.292C137.077 117.768 136.333 116.712 134.617 116.712C133.513 116.712 132.613 117.216 132.073 117.864L132.961 118.608C133.393 118.128 133.933 117.804 134.545 117.804C135.313 117.804 135.733 118.272 135.601 119.04L135.553 119.292L133.465 119.64C132.001 119.892 131.329 120.636 131.329 121.596C131.329 122.616 132.109 123.18 133.201 123.18ZM132.601 121.452C132.601 120.984 132.937 120.612 133.717 120.48L135.397 120.192L135.205 121.296C134.797 121.848 134.209 122.172 133.513 122.172C132.913 122.172 132.601 121.884 132.601 121.452ZM138.492 120.708C138.204 122.376 138.876 123.12 140.256 123.12C140.688 123.12 140.988 123.048 141.288 122.928L141.48 121.836C141.252 121.908 140.94 121.98 140.592 121.98C139.932 121.98 139.572 121.716 139.728 120.804L140.208 118.068H142.14L142.332 116.952H140.412L140.676 115.44H139.428L139.164 116.952H138.06L137.856 118.068H138.96L138.492 120.708ZM144.517 115.608C144.961 115.608 145.345 115.224 145.345 114.768C145.345 114.312 144.961 113.928 144.517 113.928C144.049 113.928 143.665 114.312 143.665 114.768C143.665 115.224 144.049 115.608 144.517 115.608ZM142.441 123H143.677L144.745 116.952H143.509L142.441 123ZM148.965 116.712C146.781 116.712 145.377 118.428 145.377 120.348C145.377 121.992 146.469 123.24 148.317 123.24C150.489 123.24 151.893 121.524 151.893 119.604C151.893 117.96 150.801 116.712 148.965 116.712ZM148.353 122.076C147.345 122.076 146.685 121.332 146.685 120.348C146.685 119.052 147.561 117.876 148.917 117.876C149.913 117.876 150.585 118.62 150.585 119.604C150.585 120.9 149.709 122.076 148.353 122.076ZM152.52 123H153.756L154.476 118.908L154.488 118.92C154.86 118.356 155.448 117.876 156.192 117.876C157.032 117.876 157.452 118.452 157.284 119.412L156.648 123H157.884L158.532 119.364C158.832 117.612 157.968 116.712 156.6 116.712C155.832 116.712 155.232 117.036 154.728 117.504L154.824 116.952H153.588L152.52 123ZM161.179 118.512C161.179 118.104 161.551 117.72 162.091 117.72C162.619 117.72 162.979 118.044 163.219 118.5L164.131 117.816C163.795 117.192 163.039 116.712 162.127 116.712C160.807 116.712 159.979 117.576 159.979 118.572C159.979 120.408 162.319 120.264 162.319 121.356C162.319 121.848 161.959 122.232 161.407 122.232C160.843 122.232 160.375 121.932 160.003 121.356L159.103 122.04C159.571 122.796 160.375 123.24 161.347 123.24C162.727 123.24 163.531 122.28 163.531 121.296C163.531 119.472 161.179 119.604 161.179 118.512Z" fill="white"/>
<path d="M168 120C172.971 120 177 124.029 177 129L177 132.5M177 132.5L175 130M177 132.5L179 130" stroke="black" stroke-linecap="round" stroke-linejoin="round"/>
<path d="M281 231.5H251M251 231.5L254.5 228M251 231.5L254.5 235" stroke="black"/>
<rect y="324.393" width="115" height="16" fill="#ECCDFB"/>
<path d="M1.712 337.393H3.224L4.508 335.041H8L8.444 337.393H9.872L8.18 328.993H6.356L1.712 337.393ZM5.144 333.865L7.088 330.289L7.772 333.865H5.144ZM15.0927 334.801C14.9007 335.881 14.3487 336.469 13.4967 336.469C12.5247 336.469 12.0567 335.857 12.2487 334.801L12.8607 331.345H11.6127L11.0247 334.657C10.6887 336.565 11.6967 337.633 13.4007 337.633C15.0687 337.633 16.0167 336.613 16.3407 334.801L16.9527 331.345H15.7047L15.0927 334.801ZM18.2705 335.101C17.9825 336.769 18.6545 337.513 20.0345 337.513C20.4665 337.513 20.7665 337.441 21.0665 337.321L21.2585 336.229C21.0305 336.301 20.7185 336.373 20.3705 336.373C19.7105 336.373 19.3505 336.109 19.5065 335.197L19.9865 332.461H21.9185L22.1105 331.345H20.1905L20.4545 329.833H19.2065L18.9425 331.345H17.8385L17.6345 332.461H18.7385L18.2705 335.101ZM22.2198 337.393H23.4558L24.1398 333.505C24.5598 332.953 25.1238 332.437 25.9038 332.437C26.1318 332.437 26.2998 332.473 26.4558 332.521L26.6838 331.309C26.5278 331.249 26.3358 331.225 26.1318 331.225C25.3398 331.225 24.8478 331.573 24.3918 332.089L24.5238 331.345H23.2878L22.2198 337.393ZM29.3141 337.633C30.4421 337.633 31.4141 337.177 32.0501 336.433L31.2221 335.641C30.8141 336.169 30.1541 336.517 29.3981 336.517C28.2941 336.517 27.6821 335.857 27.6821 334.741C27.6821 334.669 27.6821 334.585 27.6941 334.513H32.0861C32.2061 334.213 32.2901 333.757 32.2901 333.409C32.2901 332.077 31.2221 331.105 29.7581 331.105C27.6581 331.105 26.4101 332.761 26.4101 334.741C26.4101 336.385 27.4541 337.633 29.3141 337.633ZM29.7341 332.137C30.7181 332.137 31.1621 332.869 31.0661 333.589H27.8501C28.1381 332.737 28.7621 332.137 29.7341 332.137ZM34.518 332.905C34.518 332.497 34.89 332.113 35.43 332.113C35.958 332.113 36.318 332.437 36.558 332.893L37.47 332.209C37.134 331.585 36.378 331.105 35.466 331.105C34.146 331.105 33.318 331.969 33.318 332.965C33.318 334.801 35.658 334.657 35.658 335.749C35.658 336.241 35.298 336.625 34.746 336.625C34.182 336.625 33.714 336.325 33.342 335.749L32.442 336.433C32.91 337.189 33.714 337.633 34.686 337.633C36.066 337.633 36.87 336.673 36.87 335.689C36.87 333.865 34.518 333.997 34.518 332.905ZM40.7715 337.393H42.0195L42.7395 333.301V333.313C43.1115 332.761 43.6395 332.269 44.3235 332.269C45.0555 332.269 45.4755 332.773 45.2955 333.733L44.6475 337.393H45.8955L46.5555 333.685C46.5795 333.565 46.5915 333.445 46.6035 333.337C46.9755 332.797 47.5035 332.269 48.2115 332.269C48.9435 332.269 49.3635 332.773 49.1835 333.733L48.5355 337.393H49.7835L50.4435 333.685C50.7555 332.005 49.9035 331.105 48.6195 331.105C47.7075 331.105 47.0235 331.537 46.4595 332.149C46.1835 331.465 45.5475 331.105 44.7315 331.105C44.0235 331.105 43.4595 331.417 42.9795 331.873L43.0755 331.345H41.8395L40.7715 337.393ZM55.6551 330.385L57.3951 328.393H55.9791L54.4191 330.385H55.6551ZM54.3111 337.633C55.4391 337.633 56.4111 337.177 57.0471 336.433L56.2191 335.641C55.8111 336.169 55.1511 336.517 54.3951 336.517C53.2911 336.517 52.6791 335.857 52.6791 334.741C52.6791 334.669 52.6791 334.585 52.6911 334.513H57.0831C57.2031 334.213 57.2871 333.757 57.2871 333.409C57.2871 332.077 56.2191 331.105 54.7551 331.105C52.6551 331.105 51.4071 332.761 51.4071 334.741C51.4071 336.385 52.4511 337.633 54.3111 337.633ZM54.7311 332.137C55.7151 332.137 56.1591 332.869 56.0631 333.589H52.8471C53.1351 332.737 53.7591 332.137 54.7311 332.137ZM58.6139 335.101C58.3259 336.769 58.9979 337.513 60.3779 337.513C60.8099 337.513 61.1099 337.441 61.4099 337.321L61.6019 336.229C61.3739 336.301 61.0619 336.373 60.7139 336.373C60.0539 336.373 59.6939 336.109 59.8499 335.197L60.3299 332.461H62.2619L62.4539 331.345H60.5339L60.7979 329.833H59.5499L59.2859 331.345H58.1819L57.9779 332.461H59.0819L58.6139 335.101ZM64.3041 337.573C65.0481 337.573 65.6721 337.297 66.1041 336.817L66.0081 337.393H67.2441L67.9041 333.685C68.1801 332.161 67.4361 331.105 65.7201 331.105C64.6161 331.105 63.7161 331.609 63.1761 332.257L64.0641 333.001C64.4961 332.521 65.0361 332.197 65.6481 332.197C66.4161 332.197 66.8361 332.665 66.7041 333.433L66.6561 333.685L64.5681 334.033C63.1041 334.285 62.4321 335.029 62.4321 335.989C62.4321 337.009 63.2121 337.573 64.3041 337.573ZM63.7041 335.845C63.7041 335.377 64.0401 335.005 64.8201 334.873L66.5001 334.585L66.3081 335.689C65.9001 336.241 65.3121 336.565 64.6161 336.565C64.0161 336.565 63.7041 336.277 63.7041 335.845ZM68.8629 334.789C68.8629 336.457 69.7749 337.633 71.5149 337.633C72.2349 337.633 72.8709 337.357 73.4349 336.853L73.3389 337.393H74.5869L76.1709 328.393H74.9229L74.2869 331.993C73.7949 331.429 73.0629 331.105 72.2229 331.105C70.2069 331.093 68.8629 332.845 68.8629 334.789ZM70.1709 334.717C70.1709 333.361 71.0349 332.269 72.3189 332.269C73.1229 332.269 73.7109 332.689 74.0349 333.421L73.6629 335.533C73.2069 336.169 72.5589 336.469 71.8749 336.469C70.8069 336.469 70.1709 335.713 70.1709 334.717ZM79.8395 331.105C77.6555 331.105 76.2515 332.821 76.2515 334.741C76.2515 336.385 77.3435 337.633 79.1915 337.633C81.3635 337.633 82.7675 335.917 82.7675 333.997C82.7675 332.353 81.6755 331.105 79.8395 331.105ZM79.2275 336.469C78.2195 336.469 77.5595 335.725 77.5595 334.741C77.5595 333.445 78.4355 332.269 79.7915 332.269C80.7875 332.269 81.4595 333.013 81.4595 333.997C81.4595 335.293 80.5835 336.469 79.2275 336.469ZM83.394 337.393H84.63L85.35 333.301L85.362 333.313C85.734 332.749 86.322 332.269 87.066 332.269C87.906 332.269 88.326 332.845 88.158 333.805L87.522 337.393H88.758L89.406 333.757C89.706 332.005 88.842 331.105 87.474 331.105C86.706 331.105 86.106 331.429 85.602 331.897L85.698 331.345H84.462L83.394 337.393ZM90.3493 337.393H91.5853L92.3053 333.301L92.3173 333.313C92.6893 332.749 93.2773 332.269 94.0213 332.269C94.8613 332.269 95.2813 332.845 95.1133 333.805L94.4773 337.393H95.7133L96.3613 333.757C96.6613 332.005 95.7973 331.105 94.4293 331.105C93.6613 331.105 93.0613 331.429 92.5573 331.897L92.6533 331.345H91.4173L90.3493 337.393ZM101.577 330.385L103.317 328.393H101.901L100.341 330.385H101.577ZM100.233 337.633C101.361 337.633 102.333 337.177 102.969 336.433L102.141 335.641C101.733 336.169 101.073 336.517 100.317 336.517C99.2127 336.517 98.6007 335.857 98.6007 334.741C98.6007 334.669 98.6007 334.585 98.6127 334.513H103.005C103.125 334.213 103.209 333.757 103.209 333.409C103.209 332.077 102.141 331.105 100.677 331.105C98.5767 331.105 97.3287 332.761 97.3287 334.741C97.3287 336.385 98.3727 337.633 100.233 337.633ZM100.653 332.137C101.637 332.137 102.081 332.869 101.985 333.589H98.7687C99.0567 332.737 99.6807 332.137 100.653 332.137ZM106.731 337.633C107.859 337.633 108.831 337.177 109.467 336.433L108.639 335.641C108.231 336.169 107.571 336.517 106.815 336.517C105.711 336.517 105.099 335.857 105.099 334.741C105.099 334.669 105.099 334.585 105.111 334.513H109.503C109.623 334.213 109.707 333.757 109.707 333.409C109.707 332.077 108.639 331.105 107.175 331.105C105.075 331.105 103.827 332.761 103.827 334.741C103.827 336.385 104.871 337.633 106.731 337.633ZM107.151 332.137C108.135 332.137 108.579 332.869 108.483 333.589H105.267C105.555 332.737 106.179 332.137 107.151 332.137ZM111.935 332.905C111.935 332.497 112.307 332.113 112.847 332.113C113.375 332.113 113.735 332.437 113.975 332.893L114.887 332.209C114.551 331.585 113.795 331.105 112.883 331.105C111.563 331.105 110.735 331.969 110.735 332.965C110.735 334.801 113.075 334.657 113.075 335.749C113.075 336.241 112.715 336.625 112.163 336.625C111.599 336.625 111.131 336.325 110.759 335.749L109.859 336.433C110.327 337.189 111.131 337.633 112.103 337.633C113.483 337.633 114.287 336.673 114.287 335.689C114.287 333.865 111.935 333.997 111.935 332.905Z" fill="black"/>
<path d="M120 332.896C124.332 335.333 129.82 333.795 132.256 329.463L133.972 326.412M133.972 326.412L131.003 327.611M133.972 326.412L134.489 329.572" stroke="black" stroke-linecap="round" stroke-linejoin="round"/>
<g style="mix-blend-mode:multiply">
<path d="M342 180H405C416.046 180 425 188.954 425 200V571.986C425 583.031 416.046 591.986 405 591.986H390.273M390.273 591.986L401.339 580.972M390.273 591.986L401.339 603" stroke="#ECCDFB" stroke-width="6"/>
<path d="M398 232H405C416.046 232 425 240.954 425 252V265" stroke="#ECCDFB" stroke-width="6"/>
<path d="M391 289H405C416.046 289 425 297.954 425 309V322" stroke="#ECCDFB" stroke-width="6"/>
</g>
</svg>
