<svg xmlns="http://www.w3.org/2000/svg" version="1.1" xmlns:xlink="http://www.w3.org/1999/xlink" xmlns:svgjs="http://svgjs.dev/svgjs" width="48" height="48"><svg id="SvgjsSvg1005" xmlns="http://www.w3.org/2000/svg" xmlns:xlink="http://www.w3.org/1999/xlink" viewBox="0 0 48 48"><defs><style>.cls-1{fill:none;}.cls-2{fill:#197a4b;}.cls-3{fill:#e6f5ec;}.cls-4{clip-path:url(#clippath);}</style><clipPath id="SvgjsClipPath1004"><rect class="cls-1" width="48" height="48"></rect></clipPath></defs><g id="SvgjsG1003"><rect class="cls-3" width="48" height="48"></rect><rect class="cls-2" x="4" y="32" width="8" height="16"></rect><rect class="cls-2" x="16" y="20" width="8" height="28"></rect><rect class="cls-2" x="28" y="4" width="8" height="44"></rect><rect class="cls-2" x="40" width="8" height="48"></rect><g class="cls-4"><path class="cls-2" d="M28.34,32.37c-1.02.67-2.14,1.23-3.35,1.66-1.65.59-3.42.89-5.27.89-4.57,0-8.49-1.61-11.66-4.78-3.17-3.17-4.78-7.09-4.78-11.66s1.61-8.49,4.78-11.66c3.17-3.17,7.09-4.78,11.66-4.78s8.49,1.61,11.66,4.78c3.17,3.17,4.78,7.09,4.78,11.66,0,1.85-.3,3.62-.89,5.27-.46,1.28-1.06,2.46-1.78,3.52l10.77,12.9-5.12,5.12-10.79-12.94ZM19.72,9.33c-2.57,0-4.69.87-6.49,2.67-1.8,1.8-2.67,3.92-2.67,6.49s.87,4.69,2.67,6.49c1.8,1.8,3.92,2.67,6.49,2.67s4.69-.87,6.49-2.67c1.8-1.8,2.67-3.92,2.67-6.49s-.87-4.69-2.67-6.49c-1.8-1.8-3.92-2.67-6.49-2.67Z"></path><path class="cls-3" d="M19.72,3.37c4.23,0,7.8,1.46,10.73,4.39,2.93,2.93,4.39,6.51,4.39,10.73,0,1.71-.27,3.32-.81,4.83-.54,1.51-1.28,2.85-2.21,4.01l10.66,12.77-3.26,3.26-10.66-12.77c-1.16.93-2.5,1.67-4.01,2.21s-3.12.81-4.83.81c-4.23,0-7.8-1.46-10.73-4.39-2.93-2.93-4.39-6.51-4.39-10.73s1.46-7.8,4.39-10.73c2.93-2.93,6.51-4.39,10.73-4.39M19.72,28.97c2.91,0,5.38-1.02,7.42-3.05,2.04-2.04,3.05-4.51,3.05-7.42s-1.02-5.38-3.05-7.42c-2.04-2.04-4.51-3.05-7.42-3.05s-5.38,1.02-7.42,3.05-3.05,4.51-3.05,7.42,1.02,5.38,3.05,7.42c2.04,2.04,4.51,3.05,7.42,3.05M19.72.75c-4.93,0-9.16,1.74-12.58,5.16-3.42,3.42-5.16,7.66-5.16,12.58s1.74,9.16,5.16,12.58c3.42,3.42,7.66,5.16,12.58,5.16,2,0,3.92-.33,5.71-.97.92-.33,1.8-.73,2.63-1.19l9.15,10.97,1.84,2.2,2.03-2.03,3.26-3.26,1.69-1.69-1.53-1.84-9.39-11.25c.55-.92,1.01-1.92,1.39-2.97.64-1.79.97-3.71.97-5.71,0-4.93-1.74-9.16-5.16-12.58-3.42-3.42-7.66-5.16-12.58-5.16h0ZM19.72,26.35c-2.21,0-4.03-.75-5.57-2.29-1.54-1.54-2.29-3.36-2.29-5.57s.75-4.03,2.29-5.57c1.54-1.54,3.36-2.29,5.57-2.29s4.03.75,5.57,2.29c1.54,1.54,2.29,3.36,2.29,5.57s-.75,4.03-2.29,5.57c-1.54,1.54-3.36,2.29-5.57,2.29h0Z"></path></g></g></svg><style>@media (prefers-color-scheme: light) { :root { filter: none; } }
@media (prefers-color-scheme: dark) { :root { filter: none; } }
</style></svg>